<?xml version="1.0" encoding="utf-8"?>
<!-- Generator: Adobe Illustrator 16.0.0, SVG Export Plug-In . SVG Version: 6.00 Build 0)  -->
<!DOCTYPE svg PUBLIC "-//W3C//DTD SVG 1.1//EN" "http://www.w3.org/Graphics/SVG/1.1/DTD/svg11.dtd">
<svg version="1.1" id="Layer_1" xmlns="http://www.w3.org/2000/svg" xmlns:xlink="http://www.w3.org/1999/xlink" x="0px" y="0px"
	 width="96px" height="96px" viewBox="0 0 96 96" enable-background="new 0 0 96 96" xml:space="preserve">
<g>
	<g>
		<path fill-rule="evenodd" clip-rule="evenodd" fill="#F4F1EF" d="M82.067,65.74C75.663,78.021,62.81,86.406,48,86.406
			c-21.208,0-38.4-17.192-38.4-38.4c0-21.207,17.193-38.4,38.4-38.4c0.563,0,1.123,0.012,1.68,0.038L82.067,65.74z"/>
		<path fill-rule="evenodd" clip-rule="evenodd" fill="#1A2B6D" d="M68.839,80.264C62.837,84.151,55.683,86.406,48,86.406
			c-2.232,0-4.418-0.19-6.546-0.557v-7.074L61.349,67.29L68.839,80.264z"/>
		<g>
			<path fill-rule="evenodd" clip-rule="evenodd" fill="#D7E4F5" d="M86.4,48.006c0,6.397-1.565,12.43-4.333,17.734L49.681,9.643
				C70.107,10.521,86.4,27.362,86.4,48.006z"/>
			<path fill-rule="evenodd" clip-rule="evenodd" fill="#D7E4F5" d="M86.379,49.27c-0.04,1.265-0.142,2.515-0.302,3.744
				L41.455,78.775v-3.568L86.379,49.27z"/>
			<path fill-rule="evenodd" clip-rule="evenodd" fill="#99D1F3" d="M68.839,80.264C62.837,84.151,55.683,86.406,48,86.406
				c-2.232,0-4.418-0.19-6.546-0.557v-7.074L61.349,67.29L68.839,80.264z"/>
			<path fill-rule="evenodd" clip-rule="evenodd" fill="#99D1F3" d="M82.067,65.74c-3.082,5.911-7.66,10.921-13.229,14.523
				l-7.49-12.974l16.211-9.358L82.067,65.74z"/>
		</g>
		<path fill-rule="evenodd" clip-rule="evenodd" fill="#F4F1EF" d="M41.455,56.308v18.899c-8.485-8.485-10.142-23.336-10.142-28.15
			c0-3.92,0-6.948,0-7.955c0-0.235,0-0.36,0-0.36L41.455,56.308z"/>
		<g>
			<path fill-rule="evenodd" clip-rule="evenodd" fill="#56A499" d="M75.345,36.74c0,0.001,0,0.001,0,0.001l-7.455,4.304
				L41.455,56.308l-6.541-11.329l26.411-15.249l9.017-5.204C74.093,30.98,75.318,36.619,75.345,36.74z"/>
			<polygon fill-rule="evenodd" clip-rule="evenodd" fill="#D9B7A0" points="31.313,38.742 41.455,41.202 41.455,49.57 
				38.537,51.255 			"/>
			<path fill-rule="evenodd" clip-rule="evenodd" fill="#BA6F52" d="M31.313,47.057v-8.315c-1.346,1.347-5.565,0.927-5.565-2.418
				c0-3.346,3.459-2.722,3.459-2.722v-6.625l6.591-3.822l0.059-3.496c0,0-0.667,1.639-6.65,1.639
				c-10.434,0-11.188,2.713-13.212,5.482C13.973,29.548,8.028,43.611,31.313,47.057z"/>
			<path fill-rule="evenodd" clip-rule="evenodd" fill="#EDCFB5" d="M45.08,39.109l-6.733,3.887c0,0-3.54,1.798-4.982-0.701
				c-1.443-2.5-2.052-3.554-2.052-3.554c-1.346,1.347-5.564,0.927-5.564-2.417c0-3.346,3.459-2.722,3.459-2.722v-6.626l6.591-3.822
				l2.101,3.52c0,0-1.832,2.761,4.462,4.887l-0.907,1.269L45.08,39.109z"/>
			<polygon fill-rule="evenodd" clip-rule="evenodd" fill="#F3999B" points="41.455,56.308 38.537,51.255 41.455,49.57 			"/>
			<path fill-rule="evenodd" clip-rule="evenodd" fill="#D7E4F5" d="M41.455,56.308l-7.929,4.577
				c-1.738-5.808-2.213-11.252-2.213-13.828v-7.955c0-0.236,0-0.36,0-0.36L41.455,56.308z"/>
			<path fill-rule="evenodd" clip-rule="evenodd" fill="#80C8B8" d="M75.345,36.74c0,0.001,0,0.001,0,0.001l-7.514,4.338
				L61.29,29.75l-9.221-15.971l5.246-3.03c6.085,3.768,10.247,8.995,13.025,13.777C74.093,30.98,75.318,36.619,75.345,36.74z"/>
			<polygon fill-rule="evenodd" clip-rule="evenodd" fill="#F3999B" points="41.455,56.308 41.455,75.207 35.857,70.946 			"/>
			<path fill-rule="evenodd" clip-rule="evenodd" fill="#80C8B8" d="M31.313,47.057c0,4.814,1.657,19.665,10.142,28.15V85.85
				c0,0-18.608-14.216-21.099-32.467L31.313,47.057z"/>
			<path fill-rule="evenodd" clip-rule="evenodd" fill="#56A499" d="M41.453,85.849c-14.547-2.498-26.294-13.17-30.338-27.126
				l9.242-5.34C22.831,71.525,41.237,85.684,41.453,85.849z"/>
			<path fill-rule="evenodd" clip-rule="evenodd" fill="#EDCFB5" d="M49.652,9.593l1.767,3.061l-2.156,1.828l-4.516,0.228
				l-4.505,0.227c0,0-0.4-0.848,0.834-1.279c1.234-0.431,2.463-0.646,2.463-0.646l-2.492-0.561l-4.943,1.481
				c0,0-1.591,0.258-1.794-0.738l8.215-3.275L49.652,9.593z"/>
		</g>
		<g>
			<path fill-rule="evenodd" clip-rule="evenodd" fill="#99D1F3" d="M59.804,64.613c0,0,1.161-9.36,9.014-9.36
				c2.53,0,7.197,0,7.197,0L59.804,64.613z"/>
			<polygon fill-rule="evenodd" clip-rule="evenodd" fill="#99D1F3" points="64.082,55.253 66.527,55.253 58.344,41.079 
				56.51,42.138 			"/>
			<g>
				
					<rect x="55.311" y="39.455" transform="matrix(-0.5001 -0.866 0.866 -0.5001 49.9717 114.9002)" fill-rule="evenodd" clip-rule="evenodd" fill="#D7E4F5" width="5.679" height="7.142"/>
				<circle fill-rule="evenodd" clip-rule="evenodd" fill="#D7E4F5" cx="56.731" cy="40.567" r="3.571"/>
				<path fill-rule="evenodd" clip-rule="evenodd" fill="#99D1F3" d="M64.908,42.767c1.649,2.856,0.667,6.522-2.189,8.171
					c-0.909,0.524-1.942,0.802-2.987,0.802c-2.133,0-4.119-1.146-5.185-2.991L64.908,42.767z"/>
				<circle fill-rule="evenodd" clip-rule="evenodd" fill="#D7E4F5" cx="59.728" cy="45.758" r="3.571"/>
			</g>
		</g>
	</g>
</g>
</svg>
