<?xml version="1.0" encoding="utf-8"?>
<!-- Generator: Adobe Illustrator 15.0.0, SVG Export Plug-In . SVG Version: 6.00 Build 0)  -->
<!DOCTYPE svg PUBLIC "-//W3C//DTD SVG 1.1//EN" "http://www.w3.org/Graphics/SVG/1.1/DTD/svg11.dtd">
<svg version="1.1" id="Layer_1" xmlns="http://www.w3.org/2000/svg" xmlns:xlink="http://www.w3.org/1999/xlink" x="0px" y="0px"
	 width="96px" height="96px" viewBox="0 0 96 96" enable-background="new 0 0 96 96" xml:space="preserve">
<g>
	<path fill="#F4F2EF" d="M25.733,80.01C17,73.896,11.572,64.82,9.856,55.09l76.041-13.408c1.716,9.73-0.281,20.115-6.396,28.847
		C67.271,87.998,43.199,92.24,25.733,80.01z"/>
	<path fill="#F4F2EF" d="M9.856,55.09c-1.716-9.73,0.281-20.113,6.396-28.847c12.23-17.466,36.304-21.71,53.77-9.48
		c8.732,6.115,14.16,15.191,15.876,24.92L9.856,55.09z"/>
	
		<rect x="41.308" y="12.832" transform="matrix(0.5736 -0.8191 0.8191 0.5736 1.8874 48.0176)" fill="#DBBAA3" width="11.522" height="18.728"/>
	<path fill="#EED2B9" d="M52.78,36.578l-8.917-6.241l1.575-2.25c0,0,3.653-5.551,5.126-5.778c0.389-1.142,0.539-1.3,1.268-2.339
		c4.136-5.909,12.28-7.345,18.189-3.207c5.906,4.136,7.344,12.281,3.208,18.189c-4.138,5.908-12.283,7.346-18.191,3.207
		C55.444,37.651,54.547,35.817,52.78,36.578z"/>
	<g>
		<path fill="#DAE5F6" d="M47.758,34.657c0,0-2.685-0.043-2.854,3.541l0.002,0.003c-1.274,0.157-2.535,0.585-3.7,1.304
			c-4.339,2.682-5.684,8.378-3.004,12.718c2.684,4.346,8.379,5.691,12.718,3.008c4.344-2.684,5.69-8.377,3.008-12.718
			c-1.474-2.387-3.855-3.866-6.424-4.271C46.744,37.153,47.758,34.657,47.758,34.657z"/>
		
			<linearGradient id="SVGID_1_" gradientUnits="userSpaceOnUse" x1="-3659.1348" y1="1099.0449" x2="-3634.5786" y2="1099.0449" gradientTransform="matrix(-0.3398 -0.9405 0.9405 -0.3398 -2224.6667 -3006.9734)">
			<stop  offset="0.0703" style="stop-color:#B0D9C7;stop-opacity:0.5"/>
			<stop  offset="0.6822" style="stop-color:#E8F4EF;stop-opacity:0.1709"/>
			<stop  offset="1" style="stop-color:#FFFFFF;stop-opacity:0"/>
		</linearGradient>
		<path fill="url(#SVGID_1_)" d="M48.708,62.279c0,0,2.651-0.418,2.203-3.979h-0.002c1.229-0.377,2.397-1.012,3.422-1.92
			c3.816-3.387,4.164-9.229,0.78-13.044c-3.389-3.82-9.23-4.17-13.046-0.785c-3.82,3.386-4.17,9.226-0.783,13.046
			c1.859,2.096,4.46,3.146,7.061,3.107C49.278,59.646,48.708,62.279,48.708,62.279z"/>
	</g>
	<path fill="#DBBAA3" d="M52.78,36.578l-8.917-6.241l1.575-2.25l17.736,12.418c-2.798,0.141-5.665-0.614-8.136-2.346
		C55.444,37.649,54.547,35.817,52.78,36.578z"/>
	<path fill="#BC7258" d="M60.641,40.387l4.192-5.992c0.822-1.258-0.127-2.07-0.309-2.208c-0.002-0.004-2.711-1.901-3.559-2.493
		c-1.406-0.985-3.432-2.619-1.941-4.748l3.533,2.474c3.928-2.942-1.926-8.267-4.516-4.571l-5.301-4.036
		c4.34-4.922,11.779-5.902,17.28-2.05c5.906,4.136,7.344,12.281,3.208,18.189C70.302,39.131,65.369,41.074,60.641,40.387z"/>
	<path fill="#BC7258" d="M64.519,34.848l0.004-0.007C64.521,34.843,64.519,34.848,64.519,34.848z"/>
	<path fill="none" stroke="#9CD3F4" stroke-width="0.1771" stroke-miterlimit="10" d="M50.564,22.308
		c0,0-18.942-3.146-41.295,26.446"/>
	<path fill="#9CD3F4" d="M9.856,55.09c-0.749-4.246-0.789-8.617-0.091-12.921l32.594,2.646l-3.629,5.183L9.856,55.09z"/>
	<path fill="#9CD3F4" d="M10.507,58.084c-2.735-10.559-1.003-22.205,5.745-31.841C23,16.606,33.351,10.994,44.209,9.955
		L10.507,58.084z"/>
	<path fill="#DAE5F6" d="M31.644,27.899L44.209,9.955l13.835,12.894c0,0-2.615-0.592-7.48-0.54
		c-4.863,0.054-11.436,0.999-18.629,5.429C31.837,27.79,31.741,27.844,31.644,27.899z"/>
	<path fill="#307AA3" d="M9.27,48.754c8.218-10.88,15.918-17.205,22.375-20.855L10.508,58.082"/>
	<path fill="#307AA3" d="M31.644,27.899l4.45-6.355l3.581,2.508c-2.13,0.791-4.662,1.958-7.74,3.686
		C31.837,27.79,31.741,27.844,31.644,27.899z"/>
	<g>
		
			<rect x="42.925" y="65.212" transform="matrix(-0.5736 0.8192 -0.8192 -0.5736 137.6997 77.4686)" fill="#DBBAA3" width="11.521" height="18.728"/>
		<path fill="#EED2B9" d="M42.975,60.195l8.914,6.244l-1.572,2.246c0,0-3.653,5.551-5.128,5.779
			c-0.387,1.143-0.538,1.301-1.265,2.338c-4.138,5.91-12.282,7.346-18.19,3.207c-5.909-4.137-7.345-12.281-3.208-18.189
			s12.281-7.344,18.19-3.207C40.309,59.121,41.206,60.957,42.975,60.195z"/>
		<path fill="#DBBAA3" d="M42.975,60.195l8.914,6.244l-1.572,2.246L32.58,56.268c2.798-0.141,5.664,0.617,8.136,2.346
			C40.31,59.121,41.206,60.957,42.975,60.195z"/>
		<path fill="#F1875D" d="M25.733,80.01c-5.908-4.137-7.344-12.281-3.208-18.189c2.926-4.178,7.858-6.119,12.587-5.436l-4.143,5.92
			c-0.908,1.297,0.074,2.139,0.258,2.279l-0.012-0.004c0.012,0.006,2.723,1.906,3.572,2.498c1.406,0.986,3.432,2.619,1.941,4.748
			l-3.533-2.473c-3.928,2.941,1.927,8.268,4.516,4.57l5.3,4.035C38.673,82.885,31.233,83.861,25.733,80.01z"/>
		<path fill="#9CD3F4" d="M85.897,41.682c0.749,4.248,0.789,8.619,0.091,12.921l-32.739-2.658l3.601-5.141L85.897,41.682z"/>
		<path fill="#9CD3F4" d="M85.246,38.689c2.734,10.557,1.003,22.206-5.745,31.84c-6.748,9.639-17.1,15.248-27.956,16.289
			L85.246,38.689z"/>
		<path fill="#DAE5F6" d="M64.11,68.875L51.545,86.818L37.711,73.924c0,0,2.613,0.594,7.477,0.541c4.864-0.051,11.438-1,18.631-5.43
			C63.916,68.982,64.012,68.93,64.11,68.875z"/>
		<path fill="#307AA3" d="M86.484,48.02C78.267,58.9,70.565,65.225,64.11,68.875L85.246,38.69L86.484,48.02z"/>
		<path fill="#307AA3" d="M64.11,68.875l-4.45,6.354l-3.58-2.506c2.13-0.791,4.661-1.959,7.739-3.688
			C63.916,68.982,64.012,68.93,64.11,68.875z"/>
	</g>
	<line fill="none" x1="10.507" y1="58.084" x2="44.209" y2="9.955"/>
	<g>
		<path fill="#DBBAA3" d="M41.047,47.518l3.152,4.484C43.714,52.764,40.084,49.928,41.047,47.518z"/>
		<polygon fill="#DBBAA3" points="52.963,46.09 55.906,48.15 53.249,51.945 44.924,52.01 		"/>
		<path fill="#EED2B9" d="M40.934,46.941l2.721-3.976l0.831,0.279l2.724,0.029l4.867,6.83c-0.005,0.021-0.01,0.041-0.016,0.061
			c-0.65,2.186-6.512,2.639-6.512,2.639L40.934,46.941z"/>
		<path fill="#DBBAA3" d="M52.963,46.09l-3.989-2.226l-3.499,0.674l-1.769,1.253c0,0-0.229,0.756,2.677,0.514
			c2.905-0.24,3.259,0.381,3.259,0.381l2.435,3.418L52.963,46.09z"/>
		<polygon fill="#EED2B9" points="51.415,52.846 45.549,52.803 52.076,50.104 		"/>
	</g>
	
		<linearGradient id="SVGID_2_" gradientUnits="userSpaceOnUse" x1="-0.7393" y1="-23.7642" x2="0.107" y2="-25.3284" gradientTransform="matrix(-0.5 0.866 -0.866 -0.5 34.1153 17.6738)">
		<stop  offset="0.0621" style="stop-color:#FFFFFF"/>
		<stop  offset="1" style="stop-color:#FFFFFF;stop-opacity:0"/>
	</linearGradient>
	<path opacity="0.45" fill="url(#SVGID_2_)" d="M58.593,27.626c-0.33-0.19-1.857-0.806-3.068,1.293
		c-1.211,2.097-2.506,4.339-2.506,4.339l1.729,1.028C61.312,28.301,59.199,27.976,58.593,27.626z"/>
	
		<linearGradient id="SVGID_3_" gradientUnits="userSpaceOnUse" x1="206.7061" y1="110.1543" x2="207.5524" y2="108.59" gradientTransform="matrix(0.5 -0.866 0.866 0.5 -158.252 191.5801)">
		<stop  offset="0.0621" style="stop-color:#FFFFFF"/>
		<stop  offset="1" style="stop-color:#FFFFFF;stop-opacity:0"/>
	</linearGradient>
	<path opacity="0.45" fill="url(#SVGID_3_)" d="M36.966,68.939c0.33,0.191,1.857,0.807,3.068-1.293
		c1.213-2.098,2.506-4.34,2.506-4.34l-1.729-1.027C34.248,68.266,36.359,68.59,36.966,68.939z"/>
</g>
</svg>
