<?xml version="1.0" encoding="utf-8"?>
<!-- Generator: Adobe Illustrator 15.0.0, SVG Export Plug-In . SVG Version: 6.00 Build 0)  -->
<!DOCTYPE svg PUBLIC "-//W3C//DTD SVG 1.1//EN" "http://www.w3.org/Graphics/SVG/1.1/DTD/svg11.dtd">
<svg version="1.1" id="Layer_1" xmlns="http://www.w3.org/2000/svg" xmlns:xlink="http://www.w3.org/1999/xlink" x="0px" y="0px"
	 width="110px" height="170px" viewBox="0 0 110 170" enable-background="new 0 0 110 170" xml:space="preserve">
<g>
	<g>
		<g>
			<path fill-rule="evenodd" clip-rule="evenodd" fill="#B0BFD5" d="M40.342,34.378c3.024,3.93,47.557,61.809,47.557,61.809
				s2.949,3.83-1.391,7.165c-4.331,3.332-15.172,11.673-15.172,11.673S60.5,123.36,56.162,126.699
				c-4.335,3.339-7.282-0.492-7.282-0.492S4.344,68.332,1.32,64.399c-3.025-3.931,0.523-7.143,0.523-7.143l31.459-24.203
				C33.302,33.053,37.314,30.446,40.342,34.378z"/>
			<path fill-rule="evenodd" clip-rule="evenodd" fill="#1A2B6D" d="M40.342,31.844c3.024,3.93,47.557,61.808,47.557,61.808
				s2.949,3.83-1.391,7.164c-4.331,3.335-15.172,11.675-15.172,11.675s-10.836,8.336-15.174,11.674
				c-4.335,3.341-7.282-0.492-7.282-0.492S4.344,65.796,1.32,61.863c-3.025-3.93,0.523-7.143,0.523-7.143l31.459-24.203
				C33.302,30.518,37.314,27.911,40.342,31.844z"/>
			<path fill-rule="evenodd" clip-rule="evenodd" fill="#FFFFFF" d="M80.82,91.546c-0.957,0.738-16.081,12.372-16.081,12.372
				s-15.123,11.64-16.08,12.372c-0.954,0.736-1.361,0.012-1.361,0.012S8.749,66.201,7.991,65.213
				c-0.751-0.976,0.147-1.369,0.147-1.369l32.369-24.906c0,0,0.609-0.769,1.365,0.213c0.759,0.984,39.305,51.082,39.305,51.082
				S81.783,90.805,80.82,91.546z"/>
			<path fill-rule="evenodd" clip-rule="evenodd" fill="#B0BFD5" d="M27.329,42.017c0.468,0.612,0.353,1.493-0.26,1.965
				l-9.378,7.213c-0.612,0.473-1.491,0.357-1.962-0.255c-0.471-0.611-0.355-1.49,0.256-1.962l9.379-7.214
				C25.976,41.29,26.856,41.404,27.329,42.017z"/>
			<path fill-rule="evenodd" clip-rule="evenodd" fill="#E0B5D6" d="M70.854,106.442c1.115,1.445,0.847,3.523-0.603,4.641
				c-1.447,1.111-3.524,0.841-4.639-0.604c-1.115-1.449-0.844-3.528,0.602-4.643C67.664,104.726,69.742,104.994,70.854,106.442z"/>
			<path fill-rule="evenodd" clip-rule="evenodd" fill="#E7EDF4" d="M50.805,55.808c-0.812,0.628-13.654,10.507-13.654,10.507
				s-12.843,9.881-13.654,10.504c-0.812,0.625-0.843,0.417-0.843,0.417s-8.676-11.27-8.843-11.495
				c-0.168-0.219,0.505-0.67,0.505-0.67l27.484-21.148c0,0,0.608-0.536,0.777-0.312c0.172,0.22,8.843,11.49,8.843,11.49
				S51.621,55.18,50.805,55.808z"/>
			<path fill-rule="evenodd" clip-rule="evenodd" fill="#E7EDF4" d="M62.544,71.488c-0.813,0.625-13.655,10.506-13.655,10.506
				s-12.843,9.883-13.654,10.507c-0.811,0.624-0.842,0.415-0.842,0.415s-8.675-11.269-8.844-11.494
				c-0.169-0.221,0.504-0.671,0.504-0.671l27.485-21.147c0,0,0.606-0.537,0.777-0.314c0.17,0.219,8.841,11.492,8.841,11.492
				S63.359,70.86,62.544,71.488z"/>
			<path fill-rule="evenodd" clip-rule="evenodd" fill="#CCE8E8" d="M31.444,70.704c-0.254,0.197-4.296,3.307-4.296,3.307
				s-4.04,3.108-4.294,3.304c-0.256,0.197-0.341,0.032-0.341,0.032s-8.674-11.271-8.846-11.496
				c-0.169-0.219,0.067-0.331,0.067-0.331l8.646-6.654c0,0,0.171-0.196,0.34,0.025c0.169,0.218,8.843,11.492,8.843,11.492
				S31.702,70.506,31.444,70.704z"/>
			<path fill-rule="evenodd" clip-rule="evenodd" fill="#F0D6E9" d="M43.324,86.276c-0.254,0.198-4.296,3.306-4.296,3.306
				s-4.04,3.111-4.294,3.307c-0.257,0.195-0.342,0.028-0.342,0.028s-8.673-11.269-8.845-11.492
				c-0.168-0.222,0.067-0.335,0.067-0.335l8.645-6.652c0,0,0.171-0.196,0.34,0.025c0.17,0.221,8.842,11.494,8.842,11.494
				S43.58,86.079,43.324,86.276z"/>
		</g>
		<g>
			<g>
				<path fill-rule="evenodd" clip-rule="evenodd" fill="#E0B5D6" d="M37.543,163.941c0,0-10.226-6.456-20.224-23.329
					L37.543,163.941z"/>
				<path fill-rule="evenodd" clip-rule="evenodd" fill="#E0B5D6" d="M28.584,159.37c-3.8-3.856-8.574-9.569-13.303-17.551
					c-0.667-1.124-0.295-2.578,0.83-3.245c1.128-0.667,2.581-0.294,3.247,0.831c9.537,16.098,19.358,22.472,19.455,22.535
					c1.108,0.706,1.431,2.167,0.729,3.268c-0.7,1.105-2.158,1.434-3.263,0.736C36.045,165.798,32.959,163.813,28.584,159.37z"/>
			</g>
			<g>
				<path fill-rule="evenodd" clip-rule="evenodd" fill="#E0B5D6" d="M41.435,151.398c0,0-6.958-3.748-14.237-14.297L41.435,151.398
					z"/>
				<path fill-rule="evenodd" clip-rule="evenodd" fill="#E0B5D6" d="M40.352,153.506c-0.012-0.008-0.027-0.015-0.04-0.021
					c-0.305-0.163-7.547-4.144-15.065-15.039c-0.744-1.076-0.472-2.553,0.605-3.295c1.077-0.74,2.553-0.474,3.296,0.604
					c6.813,9.872,13.352,13.524,13.417,13.561c1.145,0.628,1.571,2.064,0.948,3.213C42.898,153.66,41.494,154.094,40.352,153.506z"
					/>
			</g>
			<g>
				<path fill-rule="evenodd" clip-rule="evenodd" fill="#E0B5D6" d="M31.891,2.193c0,0,12.086,0.417,29.229,9.942L31.891,2.193z"/>
				<path fill-rule="evenodd" clip-rule="evenodd" fill="#E0B5D6" d="M41.932,1.62c5.227,1.415,12.231,3.94,20.339,8.445
					c1.144,0.636,1.555,2.076,0.921,3.22c-0.639,1.146-2.081,1.558-3.224,0.922c-16.355-9.09-28.049-9.641-28.166-9.646
					c-1.312-0.05-2.328-1.149-2.277-2.455c0.047-1.306,1.141-2.327,2.446-2.281C32.248-0.165,35.914-0.008,41.932,1.62z"/>
			</g>
			<g>
				<path fill-rule="evenodd" clip-rule="evenodd" fill="#E0B5D6" d="M34.857,14.987c0,0,7.898-0.272,19.504,5.164L34.857,14.987z"
					/>
				<path fill-rule="evenodd" clip-rule="evenodd" fill="#E0B5D6" d="M34.729,12.621c0.015,0,0.031-0.002,0.045-0.003
					c0.345-0.011,8.607-0.229,20.593,5.386c1.184,0.557,1.695,1.967,1.14,3.153c-0.558,1.182-1.966,1.695-3.15,1.141
					c-10.863-5.089-18.352-4.944-18.425-4.941c-1.306,0.037-2.398-0.99-2.44-2.295C32.453,13.772,33.447,12.689,34.729,12.621z"/>
			</g>
		</g>
	</g>
	<g>
		<circle fill-rule="evenodd" clip-rule="evenodd" fill="#28508B" cx="90.225" cy="148.925" r="11.52"/>
		<linearGradient id="SVGID_1_" gradientUnits="userSpaceOnUse" x1="78.0723" y1="135.0752" x2="90.292" y2="151.0324">
			<stop  offset="0.1232" style="stop-color:#F1F1F2;stop-opacity:0.85"/>
			<stop  offset="0.2847" style="stop-color:#F3F3F4;stop-opacity:0.6934"/>
			<stop  offset="1" style="stop-color:#F8F8F9;stop-opacity:0"/>
			<stop  offset="1" style="stop-color:#FFFFFF;stop-opacity:0"/>
		</linearGradient>
		<circle fill-rule="evenodd" clip-rule="evenodd" fill="url(#SVGID_1_)" cx="86.188" cy="145.672" r="10.048"/>
		<circle fill-rule="evenodd" clip-rule="evenodd" fill="#28508B" cx="74.617" cy="165.251" r="4.525"/>
		<path fill-rule="evenodd" clip-rule="evenodd" fill="#28508B" d="M102.554,133.144c0.021,0.009,0.041,0.02,0.061,0.033
			c11.576,6.72,6.656,18.486,6.606,18.604c-0.252,0.58-0.927,0.847-1.507,0.596c-0.576-0.25-0.847-0.923-0.598-1.503
			c0.177-0.413,4.14-10.033-5.651-15.717c-0.547-0.318-0.732-1.018-0.415-1.566C101.355,133.064,102.017,132.873,102.554,133.144z"
			/>
	</g>
</g>
</svg>
