<?xml version="1.0" encoding="utf-8"?>
<!-- Generator: Adobe Illustrator 15.0.0, SVG Export Plug-In . SVG Version: 6.00 Build 0)  -->
<!DOCTYPE svg PUBLIC "-//W3C//DTD SVG 1.1//EN" "http://www.w3.org/Graphics/SVG/1.1/DTD/svg11.dtd">
<svg version="1.1" id="Layer_1" xmlns="http://www.w3.org/2000/svg" xmlns:xlink="http://www.w3.org/1999/xlink" x="0px" y="0px"
	 width="168px" height="152px" viewBox="0 0 168 152" enable-background="new 0 0 168 152" xml:space="preserve">
<g>
	<path fill="#F1875D" d="M69.964,57.064c-4.646-4.646-0.374-31.569,24.507-31.569c25.375,0,22.5,25.999,21,28.374
		s-2.962,7.57,1.337,12.846L99.349,53.303l-7.459-8.832L69.964,57.064z"/>
	<polygon fill="#DBBAA3" points="95.245,84.833 108.964,57.064 120.088,70.598 	"/>
	<path fill="#EED2B9" d="M69.964,57.064l5.699,6.748c0,0,4.222-1.015,5.329,4.145c1.105,5.16,0.982,6.249,0.982,6.249h4.295
		l8.976,10.627c0,0,6.804-3.899,9.844-5.642c0,0,3.875-2.22,3.875-11.573c0,0,0,3.173,0-10.554c0-11.977-9.615-7.702-9.615-3.761
		l-7.459-8.832L69.964,57.064z"/>
	<polygon fill="#BCC9E6" points="64.844,96.491 92.071,80.889 95.245,84.833 95.245,96.491 	"/>
	<polygon fill="#BCC9E6" points="102.128,89.99 102.128,80.889 120.088,70.598 136.471,89.99 	"/>
	<path fill="#827CB9" d="M95.245,96.491V89.99c0,0,55.06,0,56.098,0c1.508,0,4.001,0,4.001,3c0,3.501,0,3.501,0,3.501H95.245z"/>
	<path fill="#6E64AA" d="M102.128,80.889c0,0,0,6.064,0,9.102c0,3.038-0.892,6.501-6.883,6.501V84.833L102.128,80.889z"/>
	<rect x="84.098" y="112.115" fill="#F39D9E" width="32.374" height="1.25"/>
	<path fill="#6E64AA" d="M155.344,96.491v13.249c0,3-2.493,3-4,3c-1.039,0-56.099,0-56.099,0V96.491H155.344z"/>
	<path fill="#BCC9E6" d="M110.78,119.113H78.407c-1.992,0-3.498,0.821-4.895,3.638l-9.412,18.987h32.373l9.412-18.987
		C107.282,119.935,108.788,119.113,110.78,119.113"/>
	<path fill="#BCC9E6" d="M127.362,96.491c-1.993,0-3.499,0.819-4.894,3.637c0,0-7.74,15.607-8.413,16.966
		c-0.674,1.36-1.389,2.02-3.275,2.02c-1.888,0-29.843,0-29.843,0l9.413-18.985c1.396-2.817,2.901-3.637,4.895-3.637H127.362z"/>
	<path fill="#6E64AA" d="M95.245,96.491v22.622c-7.258,0-14.308,0-14.308,0l9.412-18.985C91.748,97.311,93.252,96.491,95.245,96.491
		z"/>
	<linearGradient id="SVGID_1_" gradientUnits="userSpaceOnUse" x1="95.2451" y1="130.4258" x2="110.7813" y2="130.4258">
		<stop  offset="0" style="stop-color:#FFFFFF"/>
		<stop  offset="1" style="stop-color:#FFFFFF;stop-opacity:0"/>
	</linearGradient>
	<path opacity="0.45" fill="url(#SVGID_1_)" d="M110.781,119.113c-1.995,0-3.499,0.821-4.895,3.639l-9.414,18.986h-1.228v-22.625
		H110.781z"/>
	<path fill="#A6B6D7" d="M62.872,131.802h32.373c0,0,0,7.537,0,8.249c0,0.711-0.115,1.688,1.229,1.688c0,0-30.718,0-31.375,0
		c-1.282,0-2.227-0.344-2.227-2.375C62.872,137.685,62.872,131.802,62.872,131.802z"/>
	
		<linearGradient id="SVGID_2_" gradientUnits="userSpaceOnUse" x1="2181.5371" y1="48.1348" x2="2184.3196" y2="42.9919" gradientTransform="matrix(-0.8655 0.5009 0.5009 0.8655 1960.6268 -1070.7405)">
		<stop  offset="0.0621" style="stop-color:#FFFFFF"/>
		<stop  offset="1" style="stop-color:#FFFFFF;stop-opacity:0"/>
	</linearGradient>
	<path opacity="0.45" fill="url(#SVGID_2_)" d="M100.087,54.553c0.476,0.825,1.995,4.652-3.474,7.817
		c-5.47,3.166-11.312,6.546-11.312,6.546L82.729,64.6C98.467,47.72,99.209,53.039,100.087,54.553z"/>
	<path fill="#F39D9E" d="M144.812,99.871l-22.224,0.019c1.359-2.626,2.838-3.398,4.772-3.398h14.597L144.812,99.871z"/>
	<linearGradient id="SVGID_3_" gradientUnits="userSpaceOnUse" x1="135.7207" y1="93.2402" x2="154.5938" y2="93.2402">
		<stop  offset="0" style="stop-color:#FFFFFF"/>
		<stop  offset="1" style="stop-color:#FFFFFF;stop-opacity:0"/>
	</linearGradient>
	<path opacity="0.45" fill="url(#SVGID_3_)" d="M141.956,96.491h13.388c0,0,0,0,0-3.501c0-3-2.494-3-4.001-3h-14.872L141.956,96.491
		z"/>
	<g>
		<path fill="#F39D9E" d="M32.61,97.912c0,0,3.854,2.468,7.311-2.579v-0.006c1.986,0.911,4.198,1.42,6.53,1.42
			c8.696,0,15.748-7.058,15.748-15.751c0-8.704-7.052-15.756-15.748-15.756c-8.701,0-15.754,7.052-15.754,15.756
			c0,4.776,2.129,9.056,5.492,11.945C36.317,95.199,32.61,97.912,32.61,97.912z"/>
		<g>
			<path fill="#FFFFFF" d="M53.19,77.136c0,2.242-0.876,4.006-2.63,5.286l-0.783,0.531c-1.181,0.858-1.881,1.921-2.1,3.187
				l-0.101,0.581l-2.859-0.961l0.204-0.911c0.454-1.415,1.18-2.503,2.176-3.261l1.187-0.938c1.332-1.045,2.032-2.351,2.099-3.919
				c-0.066-0.775-0.336-1.442-0.809-1.998c-0.489-0.54-1.062-0.81-1.72-0.81c-1.314,0-2.638,1.071-3.969,3.212l-0.406,0.76
				l-1.542-2.202c1.77-2.899,3.743-4.349,5.917-4.349c1.551,0,2.833,0.573,3.845,1.719C52.692,74.177,53.19,75.534,53.19,77.136z
				 M48.941,90.033c-0.049,0.624-0.294,1.164-0.733,1.619c-0.454,0.455-1.002,0.708-1.644,0.759
				c-0.657-0.051-1.221-0.304-1.694-0.759c-0.454-0.455-0.682-0.995-0.682-1.619c0-0.674,0.228-1.238,0.682-1.694
				c0.455-0.455,1.02-0.683,1.694-0.683c0.658,0,1.214,0.236,1.67,0.708C48.655,88.82,48.893,89.376,48.941,90.033z"/>
		</g>
	</g>
	<g>
		<circle fill="#FCE8E7" cx="113.536" cy="29.615" r="15.256"/>
	</g>
	<g>
		<path fill="#BCC9E6" d="M125.786,18.989c-5.742-6.722-15.845-7.516-22.565-1.774c-6.722,5.741-7.516,15.844-1.774,22.565
			c5.742,6.722,15.845,7.516,22.566,1.774C130.734,35.813,131.527,25.709,125.786,18.989z M102.953,38.493
			c-5.021-5.879-4.326-14.749,1.555-19.772c5.88-5.022,14.749-4.325,19.771,1.554c5.023,5.879,4.324,14.75-1.555,19.772
			C116.846,45.07,107.976,44.372,102.953,38.493z"/>
		<path fill="#BCC9E6" d="M139.608,61.519c-0.722,0.616-4.063,2.927-4.736,2.138c-0.551-0.644-11.79-16.076-11.79-16.076
			l5.342-4.563c0,0,13.487,13.512,14.037,14.155C143.136,57.962,140.33,60.902,139.608,61.519z"/>
		<path fill="#BCC9E6" d="M128.187,42.742l-5.34,4.563c0,0,1.13-1.327-0.68-3.445l2.725-2.327
			C126.7,43.651,128.187,42.742,128.187,42.742z"/>
	</g>
	<path fill="#F39D9E" d="M120.502,39.581c-0.026,0-0.052-0.001-0.078-0.005c-0.313-0.039-0.547-0.304-0.547-0.62v-24.97
		l-11.104,19.292c-0.141,0.246-0.43,0.366-0.703,0.292c-0.274-0.073-0.464-0.321-0.464-0.604v-8.044l-7.525,3.888L99.508,27.7
		l8.436-4.358c0.194-0.101,0.427-0.092,0.613,0.021c0.186,0.114,0.299,0.316,0.299,0.534v6.731l11.104-19.292
		c0.142-0.246,0.429-0.366,0.702-0.292c0.274,0.073,0.464,0.321,0.464,0.603v22.249l1.956-7.798c0.042-0.165,0.147-0.305,0.295-0.39
		l14.037-8.044l0.622,1.083l-13.805,7.913l-3.124,12.448C121.038,39.388,120.784,39.581,120.502,39.581z"/>
	<path fill="#FCE8E7" d="M128.406,105.178c0.381,0,0.688,0.309,0.688,0.688c0,0.38-0.308,0.688-0.688,0.688
		c-0.378,0-0.687-0.308-0.687-0.688C127.72,105.486,128.028,105.178,128.406,105.178 M128.406,103.927
		c-1.068,0-1.937,0.868-1.937,1.938s0.868,1.938,1.937,1.938c1.07,0,1.938-0.868,1.938-1.938S129.477,103.927,128.406,103.927
		L128.406,103.927z"/>
	<g>
		<circle fill="#FFFFFF" cx="108.23" cy="23.897" r="1.23"/>
		<path fill="#F49F9E" d="M108.23,25.626c-0.953,0-1.729-0.776-1.729-1.729c0-0.954,0.776-1.729,1.729-1.729
			s1.729,0.775,1.729,1.729C109.96,24.85,109.184,25.626,108.23,25.626z M108.23,23.167c-0.402,0-0.729,0.328-0.729,0.729
			c0,0.402,0.326,0.729,0.729,0.729c0.403,0,0.729-0.327,0.729-0.729C108.96,23.495,108.634,23.167,108.23,23.167z"/>
	</g>
	<g>
		<circle fill="#FFFFFF" cx="108.23" cy="32.967" r="1.23"/>
		<path fill="#F49F9E" d="M108.23,34.696c-0.953,0-1.729-0.776-1.729-1.729c0-0.954,0.776-1.73,1.729-1.73s1.729,0.776,1.729,1.73
			C109.96,33.92,109.184,34.696,108.23,34.696z M108.23,32.237c-0.402,0-0.729,0.328-0.729,0.73c0,0.402,0.326,0.729,0.729,0.729
			c0.403,0,0.729-0.328,0.729-0.729C108.96,32.564,108.634,32.237,108.23,32.237z"/>
	</g>
	<g>
		<circle fill="#FFFFFF" cx="120.501" cy="11.647" r="1.229"/>
		<path fill="#F49F9E" d="M120.501,13.377c-0.953,0-1.729-0.776-1.729-1.73c0-0.953,0.775-1.729,1.729-1.729
			c0.954,0,1.729,0.776,1.729,1.729C122.229,12.601,121.455,13.377,120.501,13.377z M120.501,10.918
			c-0.401,0-0.729,0.328-0.729,0.729c0,0.403,0.327,0.73,0.729,0.73c0.403,0,0.729-0.327,0.729-0.73
			C121.23,11.246,120.904,10.918,120.501,10.918z"/>
	</g>
	<g>
		<circle fill="#FFFFFF" cx="120.501" cy="38.956" r="1.229"/>
		<path fill="#F49F9E" d="M120.501,40.685c-0.953,0-1.729-0.775-1.729-1.729c0-0.954,0.775-1.73,1.729-1.73
			c0.954,0,1.729,0.776,1.729,1.73C122.229,39.91,121.455,40.685,120.501,40.685z M120.501,38.226c-0.401,0-0.729,0.328-0.729,0.73
			c0,0.402,0.327,0.729,0.729,0.729c0.403,0,0.729-0.328,0.729-0.729C121.23,38.554,120.904,38.226,120.501,38.226z"/>
	</g>
	<g>
		<circle fill="#FFFFFF" cx="123.816" cy="26.177" r="1.229"/>
		<path fill="#F49F9E" d="M123.816,27.906c-0.954,0-1.729-0.775-1.729-1.729c0-0.953,0.775-1.729,1.729-1.729
			c0.953,0,1.729,0.776,1.729,1.729C125.546,27.13,124.77,27.906,123.816,27.906z M123.816,25.447c-0.402,0-0.729,0.328-0.729,0.729
			c0,0.402,0.327,0.729,0.729,0.729c0.403,0,0.729-0.327,0.729-0.729C124.546,25.775,124.22,25.447,123.816,25.447z"/>
	</g>
	<path fill="#F39D9E" d="M137.104,22.6l-1.202-0.348l1.043-3.6l-3.631-0.92l0.308-1.211l4.257,1.079
		c0.165,0.041,0.305,0.147,0.389,0.294c0.085,0.148,0.105,0.322,0.059,0.485L137.104,22.6z"/>
	<g>
		<linearGradient id="SVGID_4_" gradientUnits="userSpaceOnUse" x1="98.3604" y1="29.3838" x2="128.873" y2="29.3838">
			<stop  offset="0" style="stop-color:#F1F1F2;stop-opacity:0.65"/>
			<stop  offset="0.1843" style="stop-color:#F3F3F4;stop-opacity:0.5302"/>
			<stop  offset="1" style="stop-color:#F8F8F9;stop-opacity:0"/>
			<stop  offset="1" style="stop-color:#FFFFFF;stop-opacity:0"/>
		</linearGradient>
		<circle fill="url(#SVGID_4_)" cx="113.617" cy="29.384" r="15.256"/>
	</g>
	<g>
		<path fill="#FFFFFF" d="M114.281,106.011H96.759c-0.362,0-0.656-0.295-0.656-0.659c0-0.362,0.294-0.656,0.656-0.656h17.522
			c0.364,0,0.658,0.294,0.658,0.656C114.939,105.716,114.646,106.011,114.281,106.011z"/>
		<path fill="#FFFFFF" d="M114.281,109.353H96.759c-0.362,0-0.656-0.295-0.656-0.657c0-0.364,0.294-0.657,0.656-0.657h17.522
			c0.364,0,0.658,0.293,0.658,0.657C114.939,109.058,114.646,109.353,114.281,109.353z"/>
		<path fill="#FFFFFF" d="M114.281,112.74H96.759c-0.362,0-0.656-0.295-0.656-0.657s0.294-0.656,0.656-0.656h17.522
			c0.364,0,0.658,0.294,0.658,0.656S114.646,112.74,114.281,112.74z"/>
	</g>
	<g>
		<path fill="#FFFFFF" d="M92.859,126.288H75.336c-0.362,0-0.656-0.295-0.656-0.656c0-0.364,0.294-0.657,0.656-0.657h17.523
			c0.363,0,0.656,0.293,0.656,0.657C93.516,125.993,93.223,126.288,92.859,126.288z"/>
		<path fill="#FFFFFF" d="M92.859,129.677H75.336c-0.362,0-0.656-0.295-0.656-0.656c0-0.362,0.294-0.657,0.656-0.657h17.523
			c0.363,0,0.656,0.295,0.656,0.657C93.516,129.382,93.223,129.677,92.859,129.677z"/>
	</g>
	<linearGradient id="SVGID_5_" gradientUnits="userSpaceOnUse" x1="32.8853" y1="68.5171" x2="58.9232" y2="85.4572">
		<stop  offset="0" style="stop-color:#F1F1F2;stop-opacity:0.65"/>
		<stop  offset="0.1843" style="stop-color:#F3F3F4;stop-opacity:0.5302"/>
		<stop  offset="1" style="stop-color:#F8F8F9;stop-opacity:0"/>
		<stop  offset="1" style="stop-color:#FFFFFF;stop-opacity:0"/>
	</linearGradient>
	<circle fill="url(#SVGID_5_)" cx="48.711" cy="78.813" r="15.53"/>
</g>
</svg>
