<?xml version="1.0" encoding="utf-8"?>
<!-- Generator: Adobe Illustrator 15.0.0, SVG Export Plug-In . SVG Version: 6.00 Build 0)  -->
<!DOCTYPE svg PUBLIC "-//W3C//DTD SVG 1.1//EN" "http://www.w3.org/Graphics/SVG/1.1/DTD/svg11.dtd">
<svg version="1.1" id="Layer_1" xmlns="http://www.w3.org/2000/svg" xmlns:xlink="http://www.w3.org/1999/xlink" x="0px" y="0px"
	 width="168px" height="152px" viewBox="0 0 168 152" enable-background="new 0 0 168 152" xml:space="preserve">
<g>
	<g>
		<g>
			<path fill-rule="evenodd" clip-rule="evenodd" fill="#3DA4C7" d="M25.146,74.513l0.174,0.218l40.304,50.485
				C52.584,132.365,12.556,108.918,25.146,74.513z"/>
			<path fill-rule="evenodd" clip-rule="evenodd" fill="#9CD2F3" d="M55.822,112.938l22.583-45.303h5.497
				c0.335,9.461-0.382,39.042-18.279,57.58L55.822,112.938z"/>
			<polygon fill-rule="evenodd" clip-rule="evenodd" fill="#F39B9C" points="48.822,63.255 55.795,64.08 55.822,71.938 			"/>
			<polygon fill-rule="evenodd" clip-rule="evenodd" fill="#F39B9C" points="55.822,71.938 55.822,112.938 46.506,101.27 			"/>
			<polygon fill-rule="evenodd" clip-rule="evenodd" fill="#9CD2F3" points="25.146,74.513 39.688,62.821 55.822,71.938 
				46.506,101.27 			"/>
			<polygon fill-rule="evenodd" clip-rule="evenodd" fill="#FBFAF9" points="39.688,62.821 45.024,58.531 55.822,71.938 
				47.017,71.938 			"/>
			<path fill-rule="evenodd" clip-rule="evenodd" fill="#F08357" d="M45.951,42.764v9.8l-3.173-3.949c0,0-5.23-1.015-5.23,3.372
				c0,4.658,5.311,3.852,5.311,3.852l2.166,2.693l-5.336,4.291c-2.208-0.206-7.547-2.688-10.672-7.73l18.527-14.895
				C45.737,41.648,45.951,42.764,45.951,42.764z"/>
			<path fill-rule="evenodd" clip-rule="evenodd" fill="#EED2B9" d="M61.69,51.787l2.333,9.492l-8.228,2.801
				c0,0-4.695,2.01-6.974-0.824c-2.279-2.833-3.798-4.725-3.798-4.725l-2.166-2.693c0,0-5.311,0.806-5.311-3.852
				c0-4.386,5.23-3.372,5.23-3.372l3.173,3.949v-9.8c0,0-0.213-1.116,1.593-2.567c1.809-1.455,7.034-5.655,7.034-5.655
				c3.14,2.691,4.078,5.836,4.078,5.836s-1.118,1.304,1.004,3.944c2.123,2.638,4.304,5.351,4.304,5.351s0.301,0.671-0.43,1.131
				C62.8,51.262,61.69,51.787,61.69,51.787z"/>
			<path fill-rule="evenodd" clip-rule="evenodd" fill="#3DA4C7" d="M47.542,40.196c0,0,13.491,2.305,13.789-11.086L47.542,40.196z"
				/>
			<path fill-rule="evenodd" clip-rule="evenodd" fill="#9CD2F3" d="M54.578,34.541c0,0-0.005,0.005-0.015,0.013l-0.045,0.035
				c-0.095,0.078-0.306,0.246-0.6,0.482l-0.184,0.148c-1.555,1.251-4.833,3.886-6.19,4.977L29.016,55.091
				c-1.424-2.296-2.39-5.125-2.39-8.511c0-5.575,3.138-15.809,16.689-15.809C48.654,30.771,52.231,32.529,54.578,34.541z"/>
			<path fill-rule="evenodd" clip-rule="evenodd" fill="#F08357" d="M61.689,51.787c0,0-5.894-0.064-5.894,12.292l8.228-2.801
				L61.689,51.787z"/>
			<linearGradient id="SVGID_1_" gradientUnits="userSpaceOnUse" x1="46.3608" y1="52.1611" x2="58.6729" y2="54.2978">
				<stop  offset="0.1232" style="stop-color:#F1F1F2;stop-opacity:0.85"/>
				<stop  offset="0.2847" style="stop-color:#F3F3F4;stop-opacity:0.6934"/>
				<stop  offset="1" style="stop-color:#F8F8F9;stop-opacity:0"/>
				<stop  offset="1" style="stop-color:#FFFFFF;stop-opacity:0"/>
			</linearGradient>
			<circle fill-rule="evenodd" clip-rule="evenodd" fill="url(#SVGID_1_)" cx="53.844" cy="53.46" r="5.072"/>
			<g>
				<path fill-rule="evenodd" clip-rule="evenodd" fill="#3DA4C7" d="M68.688,56.716l-3.502-0.073v-1.728
					c0,0,1.378-1.489,2.075-2.251c1.421-0.059,3.495,0.051,5.106,0C73.594,52.626,68.688,56.716,68.688,56.716z"/>
				<circle fill-rule="evenodd" clip-rule="evenodd" fill="#3DA4C7" cx="72.367" cy="56.36" r="3.696"/>
				<polygon fill-rule="evenodd" clip-rule="evenodd" fill="#FCE7E7" points="67.864,54.345 68.878,53.246 70.457,53.246 
					69.441,54.345 				"/>
			</g>
			<path fill-rule="evenodd" clip-rule="evenodd" fill="#EED2B9" d="M83.851,66.654l0.769-11.675l-4.39-5.323l-9.152-1.643
				c-0.144,2.258,1.874,2.594,1.874,2.594l5.834,1.355l0.693,3.501c0.961,5.336-2.594,2.879-2.594,2.879l-3.044-2.282
				c-2.066-0.865-2.384,0.072-2.384,0.072l5.765,8.504L83.851,66.654z"/>
			<path fill-rule="evenodd" clip-rule="evenodd" fill="#FBFAF9" d="M75.782,46.553c-0.068-0.076-0.122-0.168-0.154-0.271
				c-0.126-0.397,0.093-0.821,0.489-0.947c0.196-0.062,4.813-1.48,7.744,2.098c0.263,0.322,0.215,0.797-0.107,1.061
				s-0.798,0.207-1.061-0.107c-2.276-2.791-6.081-1.628-6.119-1.616C76.281,46.864,75.973,46.769,75.782,46.553z"/>
			<path fill-rule="evenodd" clip-rule="evenodd" fill="#FBFAF9" d="M74.06,43.867c-0.076-0.085-0.134-0.189-0.165-0.308
				c-0.106-0.402,0.134-0.815,0.536-0.921c0.332-0.088,8.176-2.076,13.14,4.154c0.26,0.326,0.206,0.8-0.119,1.059
				c-0.326,0.26-0.802,0.202-1.06-0.12c-4.36-5.468-11.505-3.655-11.576-3.636C74.532,44.17,74.243,44.073,74.06,43.867z"/>
			<path fill-rule="evenodd" clip-rule="evenodd" fill="#FBFAF9" d="M71.863,66.104c0.068,0.077,0.121,0.168,0.154,0.272
				c0.126,0.396-0.092,0.82-0.489,0.946c-0.195,0.063-4.813,1.48-7.743-2.098c-0.263-0.322-0.215-0.797,0.107-1.06
				c0.322-0.264,0.797-0.207,1.06,0.106c2.277,2.792,6.081,1.628,6.119,1.616C71.363,65.792,71.671,65.888,71.863,66.104z"/>
			<path fill-rule="evenodd" clip-rule="evenodd" fill="#FBFAF9" d="M73.585,68.79c0.076,0.085,0.133,0.189,0.165,0.308
				c0.106,0.402-0.133,0.815-0.536,0.921c-0.332,0.088-8.177,2.076-13.14-4.155c-0.26-0.326-0.206-0.8,0.119-1.059
				c0.326-0.259,0.801-0.202,1.06,0.12c4.36,5.468,11.504,3.655,11.576,3.636C73.113,68.486,73.402,68.584,73.585,68.79z"/>
		</g>
		<g>
			<path fill-rule="evenodd" clip-rule="evenodd" fill="#FCE7E7" d="M118.006,38.086c0,4.552-3.957,4.489-3.957,4.489
				s0,0.482,0,3.715v2.816c0,5.788-5.358,6.343-5.358,6.343h-9.966l-2.638-14.438c2.638-2.681,0-5.61,0-5.61v-5.911h15.324v10.822
				l1.695-5.401C113.106,34.913,118.006,33.845,118.006,38.086z"/>
			<path fill-rule="evenodd" clip-rule="evenodd" fill="#BD6F52" d="M116.938,45.715l-2.889,0.575c0-3.233,0-3.715,0-3.715
				s3.957,0.063,3.957-4.489c0-4.241-4.899-3.173-4.899-3.173l-1.695,5.401c0,0,0-7.956,0-9.043c0-1.779-1.728-1.779-1.728-1.779
				H96.087c-3.267-1.216-3.895-4.69-3.895-4.69l23.112-5.275C134.648,33.3,116.938,45.715,116.938,45.715z"/>
			<path fill-rule="evenodd" clip-rule="evenodd" fill="#97D1D0" d="M137.814,72.757c-4.401,3.781-4.401,8.293-4.401,15.415
				c0,5.974-11.074,12.078-22.997,12.078c-0.256,0-0.513-0.002-0.769-0.01l9.652-19.359l15.839-31.774
				C131.589,56.42,133.707,64.921,137.814,72.757z"/>
			<path fill-rule="evenodd" clip-rule="evenodd" fill="#56A79A" d="M135.139,49.106l32.744,40.728l-9.952,8.001
				C157.931,97.835,125.461,69.051,135.139,49.106z"/>
			<path fill-rule="evenodd" clip-rule="evenodd" fill="#97D1D0" d="M167.883,89.834l-38.229,30.736l-3.808-4.735
				c0,0,16.845-25.553,33.449-36.683L167.883,89.834z"/>
			<polygon fill-rule="evenodd" clip-rule="evenodd" fill="#56A79A" points="119.3,80.88 119.3,63.255 114.049,49.106 
				135.139,49.106 			"/>
			<path fill-rule="evenodd" clip-rule="evenodd" fill="#97D1D0" d="M119.3,64.163l-7.889-9.812c0,0,2.638-1.405,2.638-5.244v-2.816
				c0-3.233,0-3.715,0-3.715l5.251,6.531V64.163z"/>
			<polygon fill-rule="evenodd" clip-rule="evenodd" fill="#97D1D0" points="102.492,64.163 102.492,55.45 107.601,55.45 
				107.601,60.056 			"/>
			<polygon fill-rule="evenodd" clip-rule="evenodd" fill="#FBFAF9" points="107.601,104.349 107.601,55.45 111.411,54.351 
				119.3,64.163 119.3,80.88 			"/>
			<polygon fill-rule="evenodd" clip-rule="evenodd" fill="#EE799B" points="107.601,60.056 107.601,55.45 111.411,54.351 
				112.701,55.956 			"/>
			<rect x="102.492" y="64.163" fill-rule="evenodd" clip-rule="evenodd" fill="#97D1D0" width="5.108" height="40.186"/>
			<path fill-rule="evenodd" clip-rule="evenodd" fill="#F39B9C" d="M107.601,60.056c0,0-11.748,9.445-15.392,12.375
				c-4.789,3.851-4.789,8.414-4.789,15.74c0,0,0-3.004,5.43-7.369c2.658-2.138,9.554-7.681,11.461-9.214
				C106.91,69.498,107.601,69.11,107.601,60.056z"/>
			<path fill-rule="evenodd" clip-rule="evenodd" fill="#F39B9C" d="M159.324,50.049c0,0-17.478,14.051-21.121,16.981
				c-4.789,3.851-4.789,8.415-4.789,15.74c0,0,0-3.003,5.43-7.369c2.658-2.137,15.282-12.287,17.189-13.82
				C158.633,59.491,159.324,59.103,159.324,50.049z"/>
			<path fill-rule="evenodd" clip-rule="evenodd" fill="#F39B9C" d="M87.42,88.172c0,5.975,11.074,12.077,22.996,12.077
				c11.923,0,22.997-6.103,22.997-12.077v7.805c0,5.975-11.074,12.077-22.997,12.077c-11.922,0-22.996-6.103-22.996-12.077V88.172z"
				/>
			<polygon fill-rule="evenodd" clip-rule="evenodd" fill="#FCE7E7" points="159.324,50.049 155.459,58.558 160.543,54.47 			"/>
			<path fill-rule="evenodd" clip-rule="evenodd" fill="#EED2B9" d="M102.492,29.492V55.45h-3.768l-2.638-14.438
				c2.638-2.681,0-5.61,0-5.61v-5.911H102.492z"/>
			<path fill-rule="evenodd" clip-rule="evenodd" fill="#9E5C4A" d="M109.683,29.492H96.087c-3.267-1.216-3.895-4.69-3.895-4.69
				l5.479-1.251C97.672,23.55,96.212,29.492,109.683,29.492z"/>
			<path fill-rule="evenodd" clip-rule="evenodd" fill="#EED2B9" d="M124.354,121.703l0.374-5.193l-5.426,0.004l-5.348,3.998
				l-5.335,3.989c0,0,0.345,1.342,2.154,0.668s3.409-1.589,3.409-1.589l-2.303,2.987l-7.018,2.977c0,0-2.051,1.207-1.343,2.53
				l12.426-4.021L124.354,121.703z"/>
			<path fill-rule="evenodd" clip-rule="evenodd" fill="#EED2B9" d="M106.036,127.598c0,0-1.21,0.875-0.596,1.455l6.788-3.262
				L106.036,127.598z"/>
			<rect x="96.087" y="30.332" fill-rule="evenodd" clip-rule="evenodd" fill="#F39B9C" width="28.765" height="3.544"/>
			<linearGradient id="SVGID_2_" gradientUnits="userSpaceOnUse" x1="109.7744" y1="46.478" x2="106.2864" y2="41.561">
				<stop  offset="0.1232" style="stop-color:#F1F1F2;stop-opacity:0.85"/>
				<stop  offset="0.2847" style="stop-color:#F3F3F4;stop-opacity:0.6934"/>
				<stop  offset="1" style="stop-color:#F8F8F9;stop-opacity:0"/>
				<stop  offset="1" style="stop-color:#FFFFFF;stop-opacity:0"/>
			</linearGradient>
			<path fill-rule="evenodd" clip-rule="evenodd" fill="url(#SVGID_2_)" d="M111.483,41.833c0,0.429-0.271,2.262-3.115,2.262
				s-5.881,0-5.881,0l-0.029-2.262C112.393,38.807,111.483,41.046,111.483,41.833z"/>
			<path fill-rule="evenodd" clip-rule="evenodd" fill="#FBFAF9" d="M128.971,47.888c-0.244,0-0.486-0.101-0.66-0.299
				c-0.321-0.364-0.286-0.92,0.079-1.241l13.761-12.107c0.363-0.321,0.92-0.285,1.241,0.08c0.32,0.364,0.285,0.92-0.08,1.241
				l-13.761,12.107C129.385,47.816,129.177,47.888,128.971,47.888z"/>
			<path fill-rule="evenodd" clip-rule="evenodd" fill="#FBFAF9" d="M141.718,49.352c-0.241,0-0.481-0.099-0.654-0.292
				c-0.325-0.361-0.295-0.917,0.066-1.242l16.063-14.415c0.361-0.324,0.918-0.294,1.242,0.067c0.324,0.362,0.294,0.917-0.067,1.242
				l-16.063,14.415C142.137,49.277,141.927,49.352,141.718,49.352z"/>
			<path fill-rule="evenodd" clip-rule="evenodd" fill="#FBFAF9" d="M143.146,55.52c-0.241,0-0.481-0.099-0.654-0.292
				c-0.324-0.361-0.295-0.917,0.066-1.242l7.465-6.698c0.361-0.324,0.917-0.294,1.241,0.067c0.324,0.361,0.295,0.917-0.067,1.241
				l-7.464,6.699C143.565,55.446,143.355,55.52,143.146,55.52z"/>
		</g>
	</g>
</g>
</svg>
