<?xml version="1.0" encoding="utf-8"?>
<!-- Generator: Adobe Illustrator 15.0.0, SVG Export Plug-In . SVG Version: 6.00 Build 0)  -->
<!DOCTYPE svg PUBLIC "-//W3C//DTD SVG 1.1//EN" "http://www.w3.org/Graphics/SVG/1.1/DTD/svg11.dtd">
<svg version="1.1" id="Layer_1" xmlns="http://www.w3.org/2000/svg" xmlns:xlink="http://www.w3.org/1999/xlink" x="0px" y="0px"
	 width="432px" height="216px" viewBox="0 0 432 216" enable-background="new 0 0 432 216" xml:space="preserve">
<g>
	<rect x="194.337" y="174.05" fill-rule="evenodd" clip-rule="evenodd" fill="#99A8D6" width="226.156" height="1.573"/>
	<path fill-rule="evenodd" clip-rule="evenodd" fill="#BCC8E8" d="M28.73,134.918h-11.6c0,0-7.208,14.313-4.819,32.399
		c2.847,21.554,25.091,46.553,53.103,48.478L28.73,134.918z"/>
	<path fill-rule="evenodd" clip-rule="evenodd" fill="#BCC8E8" d="M79,134.918h8.198c0,0,17.655,22.245,24.209,42.593l-8.706,24.725
		L79,134.918z"/>
	<path fill-rule="evenodd" clip-rule="evenodd" fill="#275380" d="M102.702,202.235l8.706-24.725L102.702,202.235z"/>
	<path fill-rule="evenodd" clip-rule="evenodd" fill="#99A8D6" d="M57.03,197.313L79,134.918h8.198c0,0,0,65.338-21.785,80.877
		L57.03,197.313z"/>
	<path fill-rule="evenodd" clip-rule="evenodd" fill="#DCE7F7" d="M24.72,123.268h17.084v11.65H17.13
		C17.13,134.918,20.351,128.177,24.72,123.268z"/>
	<path fill-rule="evenodd" clip-rule="evenodd" fill="#F08357" d="M50.674,94.831c0-5.309-20.119-19.262-33.544-5.374
		c-7.603,7.865-6.223,15.875-3.251,21.731c3.496,6.889,10.76,6.451,10.76,12.08h3.454L50.674,94.831z"/>
	<path fill-rule="evenodd" clip-rule="evenodd" fill="#EED2B9" d="M50.674,94.831v8.127l-1.049,2.884l2.796,8.564
		c0,0-0.699,1.312-2.796,2.01v13.151c0,0-10.64,0-12.409,0s-9.612-2.506-9.612-8.956c0-6.451,0-6.451,0-6.451
		s-4.085-0.084-4.085-4.976c0-6.095,6.62-5.664,6.62-5.664v7.341c0,0,4.194,1.469,4.194-10.066
		C34.333,90.767,50.674,94.831,50.674,94.831z"/>
	<path fill-rule="evenodd" clip-rule="evenodd" fill="#F39B9C" d="M41.804,129.566h-4.588c0,0-0.627,5.352,4.588,5.352V129.566z"/>
	<polygon fill-rule="evenodd" clip-rule="evenodd" fill="#F39B9C" points="41.804,134.918 41.804,163.742 35.036,149.33 	"/>
	<path fill-rule="evenodd" clip-rule="evenodd" fill="#BD6F52" d="M174.088,92.273c0-4.041-9.157-9.695-17.961-9.695
		s-17.355,5.484-19.989,13.108c-6.642,19.225,13.282,21.164,13.282,27.193L174.088,92.273z"/>
	<polygon fill-rule="evenodd" clip-rule="evenodd" fill="#DCE7F7" points="147.522,134.918 149.42,114.562 168.647,129.566 
		168.646,134.918 	"/>
	<path fill-rule="evenodd" clip-rule="evenodd" fill="#EED2B9" d="M174.088,92.273v8.391c0,0-2.122,4.634,1.199,7.255l-3.714,21.65
		c0,0-7.445,0-8.917,0c-1.471,0-13.236,0.394-13.236-15.008c0,0-5.133-0.524-5.133-5.413c0-5.598,7.099-5.631,7.099-5.631
		l3.343,7.97v-13.18C166.243,99.094,174.088,92.273,174.088,92.273z"/>
	<path fill-rule="evenodd" clip-rule="evenodd" fill="#D9B7A0" d="M175.285,107.918l-3.712,21.648c0,0-1.301,0-2.926,0V95.623
		c3.45-1.62,5.443-3.35,5.443-3.35v8.394C174.09,100.667,171.966,105.296,175.285,107.918z"/>
	<polygon fill-rule="evenodd" clip-rule="evenodd" fill="#BCC8E8" points="105.279,194.915 126.405,134.918 147.522,134.918 
		168.647,194.915 102.702,194.915 	"/>
	<polygon fill-rule="evenodd" clip-rule="evenodd" fill="#99A8D6" points="126.405,134.918 147.522,134.918 158.084,164.914 
		141.146,164.914 133.491,143.139 	"/>
	<path fill-rule="evenodd" clip-rule="evenodd" fill="#99A8D6" d="M107.477,215.795c23.528,0,41.07-68.62,18.928-80.877
		l-23.703,67.317L107.477,215.795z"/>
	<polygon fill-rule="evenodd" clip-rule="evenodd" fill="#F39B9C" points="158.084,164.914 168.646,134.918 168.647,194.915 	"/>
	<path fill-rule="evenodd" clip-rule="evenodd" fill="#F39B9C" d="M163.958,129.566h4.688l-0.001,5.352
		C168.646,134.918,163.958,134.679,163.958,129.566z"/>
	<polygon fill-rule="evenodd" clip-rule="evenodd" fill="#BCC8E8" points="168.646,134.918 189.759,134.918 168.647,194.915 	"/>
	<path fill-rule="evenodd" clip-rule="evenodd" fill="#99A8D6" d="M197.902,111.792h9.018l-9.256,68.123
		c-1.765,12.751-18.208,14.747-25.528,15h150.715v1.573H125.458v-1.573l26.245-0.019l0,0l-2.088-5.929l8.469-24.054l10.563,30.001
		L197.902,111.792z"/>
	<path fill-rule="evenodd" clip-rule="evenodd" fill="#BCC8E8" d="M239.149,120.59l15.135,2.679c0,0,10.523,12.619,6.972,25.028
		s-20.518,25.802-20.518,25.802h-20.43L239.149,120.59z"/>
	<path fill-rule="evenodd" clip-rule="evenodd" fill="#F08357" d="M239.708,74.072c-6.135,4.065-14.786,12.118-14.786,26.177
		c0,17.072,16.714,23.019,26.741,23.019l99.978-56.617l-15.38-27.165l-54.975,31.132l-8.613-15.215
		C272.673,55.403,242.536,72.198,239.708,74.072z"/>
	<path fill-rule="evenodd" clip-rule="evenodd" fill="#D9B7A0" d="M251.663,123.268V104c0,0,12.365,6.821,9.612,6.821
		C259.845,110.821,251.663,114.597,251.663,123.268z"/>
	<path fill-rule="evenodd" clip-rule="evenodd" fill="#EED2B9" d="M263.854,76.02c0,0,0.59,15.926,5.243,17.63
		c0.393,1.245-1.704,2.359-1.704,2.359l0.327,13.305c0,0-0.409,1.507-1.844,1.507c-1.433,0-1.63,0-4.601,0
		c-2.972,0-9.612-3.255-9.612-6.821c0-3.566,0-5.433,0-5.433s-4.13,0.128-4.13-3.867s4.13-3.506,4.13-3.506v-5.912
		C251.663,85.283,263.854,80.127,263.854,76.02z"/>
	<path fill-rule="evenodd" clip-rule="evenodd" fill="#99A8D6" d="M238.842,130.528l102.351-57.961v8.864l-74.587,53.486
		C266.605,134.918,250.401,141.059,238.842,130.528z"/>
	<polygon fill-rule="evenodd" clip-rule="evenodd" fill="#F39B9C" points="80.175,117.321 54.831,102.969 59.481,94.756 
		80.175,106.476 168.093,56.687 197.84,86.937 279.893,40.468 284.543,48.681 196.189,98.718 166.442,68.469 	"/>
	<polygon fill-rule="evenodd" clip-rule="evenodd" fill="#F39B9C" points="295.197,37.229 281.286,70.618 270.35,51.297 
		259.406,31.981 	"/>
	<polygon fill-rule="evenodd" clip-rule="evenodd" fill="#E9455E" points="314.378,0.851 336.261,39.486 281.286,70.618 
		295.195,37.228 259.406,31.981 	"/>
	<path fill-rule="evenodd" clip-rule="evenodd" fill="#EED2B9" d="M105.069,109.393l-0.324-0.163c0,0-4.72,4.935-4.133,9.738
		l-9.913,5.164c0,0-0.762-0.019-0.824-0.943l3.027-3.351c0,0,0.911-0.922,0.815-1.538l-0.158-1.38l-0.418-0.221l-6.421,4.444
		c0,0-3.727,2.561-3.202,6.358c0.524,3.798,1.184,5.876,1.184,5.876s1.368-1.829,7.413-4.797l11.6-5.45L105.069,109.393z"/>
	<polygon fill-rule="evenodd" clip-rule="evenodd" fill="#FFFFFF" points="107.951,111.818 106.961,111.604 104.862,113.999 
		104.227,120.504 	"/>
	<polygon fill-rule="evenodd" clip-rule="evenodd" fill="#FFFFFF" points="108.719,115.373 107.844,114.933 106.263,116.076 
		104.83,119.568 	"/>
	<path fill-rule="evenodd" clip-rule="evenodd" fill="#F39B9C" d="M314.378,0.851l46.829,82.694L314.378,0.851z"/>
	
		<rect x="290.276" y="40.886" transform="matrix(0.4928 0.8702 -0.8702 0.4928 208.0561 -272.5289)" fill-rule="evenodd" clip-rule="evenodd" fill="#F39B9C" width="95.034" height="2.623"/>
	<path fill-rule="evenodd" clip-rule="evenodd" fill="#EED2B9" d="M60.433,109.393l0.324-0.163c0,0,4.719,4.935,4.133,9.738
		l9.912,5.164c0,0,0.763-0.019,0.825-0.943l-3.027-3.351c0,0-0.911-0.922-0.816-1.538l0.158-1.38l0.417-0.221l6.421,4.444
		c0,0,3.727,2.561,3.203,6.358c-0.525,3.798-1.184,5.876-1.184,5.876s-1.368-1.829-7.412-4.797l-11.6-5.45L60.433,109.393z"/>
	<polygon fill-rule="evenodd" clip-rule="evenodd" fill="#FFFFFF" points="57.552,111.818 58.541,111.604 60.641,113.999 
		61.276,120.504 	"/>
	<polygon fill-rule="evenodd" clip-rule="evenodd" fill="#FFFFFF" points="56.783,115.373 57.658,114.933 59.239,116.076 
		60.673,119.568 	"/>
	<path fill-rule="evenodd" clip-rule="evenodd" fill="#EED2B9" d="M219.265,86.951l-0.324-0.163c0,0-4.719,4.935-4.133,9.739
		l-9.912,5.164c0,0-0.763-0.019-0.825-0.943l3.028-3.351c0,0,0.911-0.922,0.815-1.539l-0.158-1.379l-0.417-0.22l-6.422,4.443
		c0,0-3.727,2.561-3.203,6.358c0.525,3.798,1.184,5.876,1.184,5.876s1.368-1.829,7.412-4.797l11.6-5.451L219.265,86.951z"/>
	<polygon fill-rule="evenodd" clip-rule="evenodd" fill="#EED2B9" points="222.146,89.376 221.156,89.163 219.057,91.558 
		218.422,98.063 	"/>
	<polygon fill-rule="evenodd" clip-rule="evenodd" fill="#EED2B9" points="222.914,92.932 222.04,92.491 220.458,93.635 
		219.024,97.127 	"/>
	<linearGradient id="SVGID_1_" gradientUnits="userSpaceOnUse" x1="37.3828" y1="119.1504" x2="41.2122" y2="111.1999">
		<stop  offset="0.1232" style="stop-color:#F1F1F2;stop-opacity:0.85"/>
		<stop  offset="0.2847" style="stop-color:#F3F3F4;stop-opacity:0.6934"/>
		<stop  offset="1" style="stop-color:#F8F8F9;stop-opacity:0"/>
		<stop  offset="1" style="stop-color:#FFFFFF;stop-opacity:0"/>
	</linearGradient>
	<path fill-rule="evenodd" clip-rule="evenodd" fill="url(#SVGID_1_)" d="M32.628,111.108c-0.021,0.786,0.365,4.161,5.36,4.295
		c4.996,0.135,10.332,0.278,10.332,0.278l0.163-4.146C31.18,105.515,32.667,109.664,32.628,111.108z"/>
	<linearGradient id="SVGID_2_" gradientUnits="userSpaceOnUse" x1="159.1479" y1="117.6494" x2="162.4245" y2="110.8467">
		<stop  offset="0.1232" style="stop-color:#F1F1F2;stop-opacity:0.85"/>
		<stop  offset="0.2847" style="stop-color:#F3F3F4;stop-opacity:0.6934"/>
		<stop  offset="1" style="stop-color:#F8F8F9;stop-opacity:0"/>
		<stop  offset="1" style="stop-color:#FFFFFF;stop-opacity:0"/>
	</linearGradient>
	<path fill-rule="evenodd" clip-rule="evenodd" fill="url(#SVGID_2_)" d="M155.08,110.769c-0.018,0.673,0.313,3.561,4.587,3.675
		c4.275,0.115,8.84,0.238,8.84,0.238l0.14-3.547C153.841,105.982,155.113,109.532,155.08,110.769z"/>
	<linearGradient id="SVGID_3_" gradientUnits="userSpaceOnUse" x1="256.6338" y1="100.9067" x2="259.9103" y2="94.1042">
		<stop  offset="0.1232" style="stop-color:#F1F1F2;stop-opacity:0.85"/>
		<stop  offset="0.2847" style="stop-color:#F3F3F4;stop-opacity:0.6934"/>
		<stop  offset="1" style="stop-color:#F8F8F9;stop-opacity:0"/>
		<stop  offset="1" style="stop-color:#FFFFFF;stop-opacity:0"/>
	</linearGradient>
	<path fill-rule="evenodd" clip-rule="evenodd" fill="url(#SVGID_3_)" d="M252.564,94.025c-0.019,0.673,0.313,3.561,4.586,3.675
		c4.275,0.115,8.841,0.238,8.841,0.238l0.14-3.547C251.325,89.239,252.598,92.789,252.564,94.025z"/>
	<polygon fill-rule="evenodd" clip-rule="evenodd" fill="#FFFFFF" points="147.522,134.918 168.646,134.918 158.084,164.914 	"/>
	<polygon fill-rule="evenodd" clip-rule="evenodd" fill="#FFFFFF" points="28.73,134.918 41.804,134.918 35.036,149.33 	"/>
	<polygon fill-rule="evenodd" clip-rule="evenodd" fill="#EED2B9" points="342.895,80.849 341.846,77.529 342.895,66.518 
		355.041,58.811 359.497,63.459 354.778,73.159 	"/>
</g>
<g>
	<polygon fill="#99A8D6" points="253.361,174.054 372.768,106.434 411.057,174.05 	"/>
	<linearGradient id="SVGID_4_" gradientUnits="userSpaceOnUse" x1="264.1982" y1="182.0938" x2="388.8992" y2="182.0938">
		<stop  offset="0" style="stop-color:#FFFFFF;stop-opacity:0.81"/>
		<stop  offset="1" style="stop-color:#FFFFFF;stop-opacity:0"/>
	</linearGradient>
	<polygon fill="url(#SVGID_4_)" points="258.809,211.928 363.941,152.259 397.732,211.928 	"/>
	
		<linearGradient id="SVGID_5_" gradientUnits="userSpaceOnUse" x1="518.1455" y1="136.5645" x2="567.1953" y2="136.5645" gradientTransform="matrix(-1 0 0 -1 916.4102 257.3926)">
		<stop  offset="0.1287" style="stop-color:#FFFFFF;stop-opacity:0.81"/>
		<stop  offset="1" style="stop-color:#FFFFFF;stop-opacity:0"/>
	</linearGradient>
	<polygon fill="url(#SVGID_5_)" points="372.768,106.434 381.168,121.268 356.58,135.223 348.166,120.366 	"/>
	<linearGradient id="SVGID_6_" gradientUnits="userSpaceOnUse" x1="253.3613" y1="140.2441" x2="411.0566" y2="140.2441">
		<stop  offset="0" style="stop-color:#FFFFFF;stop-opacity:0.81"/>
		<stop  offset="1" style="stop-color:#FFFFFF;stop-opacity:0"/>
	</linearGradient>
	<polygon fill="url(#SVGID_6_)" points="253.361,174.054 372.768,106.434 411.057,174.05 	"/>
</g>
<polygon fill="#BCC8E8" points="209.113,194.912 238.809,178.058 268.57,194.912 "/>
<linearGradient id="SVGID_7_" gradientUnits="userSpaceOnUse" x1="209.1133" y1="186.4844" x2="268.5703" y2="186.4844">
	<stop  offset="0" style="stop-color:#FFFFFF;stop-opacity:0.81"/>
	<stop  offset="1" style="stop-color:#FFFFFF;stop-opacity:0"/>
</linearGradient>
<polygon fill="url(#SVGID_7_)" points="209.113,194.912 238.809,178.058 268.57,194.912 "/>
</svg>
