<?xml version="1.0" encoding="utf-8"?>
<!-- Generator: Adobe Illustrator 15.0.0, SVG Export Plug-In . SVG Version: 6.00 Build 0)  -->
<!DOCTYPE svg PUBLIC "-//W3C//DTD SVG 1.1//EN" "http://www.w3.org/Graphics/SVG/1.1/DTD/svg11.dtd">
<svg version="1.1" id="Layer_1" xmlns="http://www.w3.org/2000/svg" xmlns:xlink="http://www.w3.org/1999/xlink" x="0px" y="0px"
	 width="115px" height="192px" viewBox="0 0 115 192" enable-background="new 0 0 115 192" xml:space="preserve">
<g>
	<g>
		<path fill="#B2C0D5" d="M90.531,41.798l-26.333,24.5L27.771,44.18c-2.781-1.689-0.45-4.372,0.442-5.21
			c0.891-0.84,22.77-21.186,22.77-21.186L90.531,41.798z"/>
		<path fill="#7FA0D2" d="M90.531,41.798V25.401c0-2.375-1.524-3.318-2.379-3.834c-0.85-0.518-34.628-21.029-35.185-21.366
			c-0.559-0.339-1.985-0.729-1.985,1.228v16.356L90.531,41.798z"/>
		<linearGradient id="SVGID_1_" gradientUnits="userSpaceOnUse" x1="54.0703" y1="20.4526" x2="87.4336" y2="20.4526">
			<stop  offset="0" style="stop-color:#F1F1F2;stop-opacity:0.65"/>
			<stop  offset="0.1843" style="stop-color:#F3F3F4;stop-opacity:0.5302"/>
			<stop  offset="1" style="stop-color:#F8F8F9;stop-opacity:0"/>
			<stop  offset="1" style="stop-color:#FFFFFF;stop-opacity:0"/>
		</linearGradient>
		<path fill="url(#SVGID_1_)" d="M54.08,14.311c-0.021-1.238,0-7.277,0-8.154c0-1.146,0.892-1.104,1.5-0.734
			c0.61,0.37,30.972,18.806,30.972,18.806c0.774,0.47,0.882,1.05,0.882,1.611c0,0,0,7.661,0,8.729c0,1.067-0.453,1.438-1.338,0.904
			c-5.601-3.401-30.243-18.364-30.879-18.751C54.285,16.155,54.1,15.549,54.08,14.311z"/>
		<path fill="#133070" d="M65.326,66.981l26.545-24.697V23.715c0,0,2.892,0,2.892,6.389s0,14.496,0,14.496
			s-21.877,20.3-22.62,21.044C71.402,66.389,68.545,68.937,65.326,66.981z"/>
		<path fill="#34578D" d="M74.729,40.944c1.234-1.146,2.241-1.528,3.729-0.635c1.484,0.893,2.32,1.41,3.002,1.823
			c0.683,0.413,2.004,1.134,0.063,2.936c-1.938,1.804-15.346,14.278-15.931,14.825c-0.59,0.547-1.952,1.865-3.934,0.663
			c-1.979-1.202-2.931-1.797-3.169-1.923c-0.425-0.261-1.583-1.107,0.308-2.865C60.687,54.01,73.798,41.809,74.729,40.944z"/>
		<path fill="#7FA0D2" d="M74.729,39.665c1.234-1.146,2.241-1.528,3.729-0.634c1.484,0.893,2.32,1.411,3.002,1.822
			c0.683,0.414,2.004,1.135,0.063,2.938c-1.938,1.804-15.346,14.277-15.931,14.823c-0.59,0.548-1.952,1.866-3.934,0.663
			c-1.979-1.201-2.931-1.797-3.169-1.922c-0.425-0.26-1.583-1.107,0.308-2.866C60.687,52.73,73.798,40.53,74.729,39.665z"/>
		<linearGradient id="SVGID_2_" gradientUnits="userSpaceOnUse" x1="35.6143" y1="44.4614" x2="65.6851" y2="30.0954">
			<stop  offset="0" style="stop-color:#F1F1F2;stop-opacity:0.65"/>
			<stop  offset="0.1843" style="stop-color:#F3F3F4;stop-opacity:0.5302"/>
			<stop  offset="1" style="stop-color:#F8F8F9;stop-opacity:0"/>
			<stop  offset="1" style="stop-color:#FFFFFF;stop-opacity:0"/>
		</linearGradient>
		<path fill="url(#SVGID_2_)" d="M75.099,37.131L55.501,55.362l-27.11-16.46c-2.07-1.255-0.335-3.252,0.328-3.877
			c0.662-0.627,16.946-15.768,16.946-15.768L75.099,37.131z"/>
		<path fill="#93ADDA" d="M94.231,9.99c-0.003-0.243,0.045-0.491,0.146-0.729c0.389-0.91,1.441-1.332,2.348-0.941
			c0.446,0.194,10.916,4.846,10.61,15.848c-0.031,0.99-0.854,1.77-1.837,1.739c-0.988-0.028-1.752-0.872-1.733-1.845
			c0.258-8.57-8.363-12.407-8.45-12.446C94.646,11.328,94.239,10.678,94.231,9.99z"/>
		<path fill="#93ADDA" d="M95.319,2.475c-0.004-0.273,0.055-0.549,0.184-0.81c0.434-0.891,1.504-1.257,2.389-0.82
			c0.731,0.359,17.87,9.013,17.082,27.961c-0.038,0.987-0.874,1.757-1.856,1.716c-0.986-0.042-1.751-0.886-1.714-1.868
			c0.683-16.632-14.925-24.512-15.085-24.589C95.693,3.755,95.326,3.13,95.319,2.475z"/>
		<g>
			<path fill="#E0B5D6" d="M70.579,52.137l-6.896-5.653l1.349-1.656l6.892,5.653L70.579,52.137z M73.342,48.739l-6.894-5.653
				l1.323-1.627l6.893,5.653L73.342,48.739z"/>
		</g>
	</g>
	<g>
		<polygon fill="#93ADDA" points="14.608,150.758 14.608,162.648 43.755,150.758 39.505,139.78 		"/>
		<polygon fill="#7FA0D2" points="20.713,160.156 49.219,153.502 44.515,141.459 40.74,142.975 43.755,150.758 		"/>
		<path fill="#FFFFFF" d="M36.706,151.501c-1.294,0-2.346-1.056-2.346-2.353c0-1.299,1.052-2.355,2.346-2.355
			c1.292,0,2.343,1.057,2.343,2.355C39.048,150.445,37.998,151.501,36.706,151.501z M36.706,148.015
			c-0.625,0-1.132,0.507-1.132,1.134c0,0.623,0.507,1.134,1.132,1.134c0.622,0,1.129-0.511,1.129-1.134
			C37.834,148.521,37.327,148.015,36.706,148.015z"/>
		<path fill="#EED2B9" d="M33.017,102.333c-0.206,3.048,2.67,11.379,2.67,11.379s2.794-10.672,4.618-19.515
			c1.821-8.842,7.894-8.232,7.894-8.232v29.271c-3.947,14.636-10.773,19.515-10.773,19.515l-1.738,6.708l-25.442-2.44
			c0,0-5.926-20.38-10.165-31.527l1.894-8.879c0,0,0.621-3.769,5.975-3.293h0.014l0.012-0.013c0.159-0.329,2.94-5.547,9.728-5.341
			c-0.206,0.109-0.412,0.219-0.606,0.342l0.631-0.342l0.012-0.013l0.617-0.341c-0.204,0.11-0.412,0.22-0.617,0.329
			c0.182-0.376,2.55-4.879,11.745-6.415L23.301,95.21l23.077-31.711c5.063,3.867,1.82,10.171,1.82,10.171l-13.36,22.963
			C34.838,96.634,33.224,99.282,33.017,102.333z"/>
		
			<linearGradient id="SVGID_3_" gradientUnits="userSpaceOnUse" x1="1974.4414" y1="153.3672" x2="1977.4099" y2="147.8802" gradientTransform="matrix(0.991 -0.0816 0.0389 0.9339 -1949.8107 127.1035)">
			<stop  offset="0.0621" style="stop-color:#FFFFFF"/>
			<stop  offset="1" style="stop-color:#FFFFFF;stop-opacity:0"/>
		</linearGradient>
		<path opacity="0.45" fill="url(#SVGID_3_)" d="M2.428,103.881c0.051,1.206,1.621,4.264,9.709,3.594
			c8.092-0.67,16.73-1.385,16.73-1.385l-0.179-6.364C0.07,93.559,2.336,101.667,2.428,103.881z"/>
	</g>
	<path fill="#93ADDA" d="M16.339,189.906c0.089,0.182,0.145,0.386,0.152,0.603c0.033,0.829-0.611,1.527-1.435,1.562
		c-0.407,0.018-9.984,0.293-13.704-8.128c-0.333-0.761,0.009-1.646,0.763-1.98c0.756-0.335,1.637,0.023,1.972,0.766
		c2.883,6.566,10.771,6.345,10.851,6.343C15.547,189.046,16.088,189.391,16.339,189.906z"/>
	<path fill="#93ADDA" d="M26.814,183.851c0.103,0.205,0.157,0.435,0.155,0.68c-0.008,0.828-0.685,1.494-1.509,1.485
		c-0.681-0.007-16.734-0.339-22.943-14.937c-0.327-0.76,0.027-1.644,0.787-1.97c0.758-0.324,1.64,0.039,1.965,0.791
		c5.455,12.811,20.075,13.112,20.223,13.112C26.074,183.021,26.576,183.358,26.814,183.851z"/>
</g>
</svg>
