<?xml version="1.0" encoding="utf-8"?>
<!-- Generator: Adobe Illustrator 15.0.0, SVG Export Plug-In . SVG Version: 6.00 Build 0)  -->
<!DOCTYPE svg PUBLIC "-//W3C//DTD SVG 1.1//EN" "http://www.w3.org/Graphics/SVG/1.1/DTD/svg11.dtd">
<svg version="1.1" id="Layer_1" xmlns="http://www.w3.org/2000/svg" xmlns:xlink="http://www.w3.org/1999/xlink" x="0px" y="0px"
	 width="96px" height="96px" viewBox="0 0 96 96" enable-background="new 0 0 96 96" xml:space="preserve">
<g>
	<g>
		<path fill-rule="evenodd" clip-rule="evenodd" fill="#DCE7F7" d="M49.015,93.955c-20.614,0-37.386-16.771-37.386-37.385
			c0-20.615,16.771-37.386,37.386-37.386S86.4,35.955,86.4,56.57C86.4,77.185,69.629,93.955,49.015,93.955z"/>
		<circle fill-rule="evenodd" clip-rule="evenodd" fill="#F4F1EF" cx="49.015" cy="56.57" r="32.269"/>
		<path fill-rule="evenodd" clip-rule="evenodd" fill="#CC888B" d="M81.284,56.57c0,17.781-14.381,32.2-32.145,32.269l-0.126-51.827
			l14.022-9.513C73.836,32.716,81.284,43.773,81.284,56.57z"/>
		<path fill-rule="evenodd" clip-rule="evenodd" fill="#CC888B" d="M81.284,56.57c0,17.781-14.381,32.2-32.145,32.269l-0.126-51.827
			l14.022-9.513C73.836,32.716,81.284,43.773,81.284,56.57z"/>
		<path fill-rule="evenodd" clip-rule="evenodd" fill="#F39B9C" d="M68.563,38.669l-13.029,5.564
			c-4.023-18.127,7.503-16.734,7.503-16.734S67.066,31.317,68.563,38.669z"/>
		<path fill-rule="evenodd" clip-rule="evenodd" fill="#F39B9C" d="M55.84,74.545c6.531-8.784,13.271-22.3,13.271-30.312H55.533
			c4.023,18.129-3.873,30.313-3.873,30.313L55.84,74.545z"/>
		<path fill-rule="evenodd" clip-rule="evenodd" fill="#F08357" d="M73.172,14.485c0,9.816-9.059,13.559-10.136,13.013V23.85
			c7.39-3.836,1.712-9.478,0-7.295l-2.952,4.926V9.914c-1.918-1.805-8.462,3.217-16.247-0.167c0,0,4.174-9.703,13.764-9.703
			C67.192,0.043,73.172,7.49,73.172,14.485z"/>
		<polygon fill-rule="evenodd" clip-rule="evenodd" fill="#D9B7A0" points="49.014,44.234 49.014,37.012 62.22,31.582 
			55.533,44.234 		"/>
		<path fill-rule="evenodd" clip-rule="evenodd" fill="#D9B7A0" d="M49.014,10.85v26.162h-2.469l-2.708-14.742
			c0,0,3.497-3.498,0-5.642V9.747C45.642,10.532,47.384,10.832,49.014,10.85z"/>
		<circle fill-rule="evenodd" clip-rule="evenodd" fill="#DCE7F7" cx="48.877" cy="56.765" r="2.451"/>
		<path fill-rule="evenodd" clip-rule="evenodd" fill="#EED2B9" d="M63.036,23.85v3.649c0,8.466-8.537,9.513-8.537,9.513h-5.485
			l0.002-26.162c5.396,0.063,9.595-2.322,11.068-0.936V21.48l2.952-4.926C64.748,14.373,70.426,20.014,63.036,23.85z"/>
		<path fill-rule="evenodd" clip-rule="evenodd" fill="#DCE7F7" d="M51.66,74.546h-2.646V44.233h6.52
			C59.557,62.362,51.66,74.546,51.66,74.546z"/>
		<path fill-rule="evenodd" clip-rule="evenodd" fill="#F08357" d="M49.016,3.128v7.722c-1.631-0.018-3.371-0.318-5.178-1.104
			C43.837,9.747,45.462,5.967,49.016,3.128z"/>
		<polygon fill-rule="evenodd" clip-rule="evenodd" fill="#99A8D6" points="49.014,56.57 49.014,44.234 55.533,44.234 		"/>
		<g>
			<path fill-rule="evenodd" clip-rule="evenodd" fill="#99A8D6" d="M55.84,74.545c-2.422,3.257-4.815,5.863-6.826,7.298v-7.297
				h2.646L55.84,74.545z"/>
			<polygon fill-rule="evenodd" clip-rule="evenodd" fill="#99A8D6" points="49.014,56.57 51.66,74.546 49.014,74.546 			"/>
			<path fill-rule="evenodd" clip-rule="evenodd" fill="#F39B9C" d="M42.188,74.545c2.422,3.257,4.815,5.863,6.826,7.298v-7.297
				h-2.647L42.188,74.545z"/>
			<polygon fill-rule="evenodd" clip-rule="evenodd" fill="#F39B9C" points="49.014,56.57 46.367,74.546 49.014,74.546 			"/>
		</g>
		<g>
			<path fill-rule="evenodd" clip-rule="evenodd" fill="#F39B9C" d="M24.044,63.396c-3.257-2.422-5.864-4.815-7.298-6.825h7.298
				v2.646L24.044,63.396z"/>
			<polygon fill-rule="evenodd" clip-rule="evenodd" fill="#F39B9C" points="49.014,56.57 24.044,59.217 24.044,56.57 			"/>
			<path fill-rule="evenodd" clip-rule="evenodd" fill="#F39B9C" d="M24.044,49.744c-3.257,2.422-5.864,4.815-7.298,6.826h7.298
				v-2.647L24.044,49.744z"/>
			<polygon fill-rule="evenodd" clip-rule="evenodd" fill="#F39B9C" points="49.014,56.57 24.044,53.923 24.044,56.57 			"/>
		</g>
		<g>
			<path fill-rule="evenodd" clip-rule="evenodd" fill="#DCE7F7" d="M72.482,13.912c0.013-0.218,0.006-0.44-0.021-0.662
				l-0.761-0.129c-0.019-0.097-0.042-0.195-0.071-0.293c-0.029-0.096-0.063-0.191-0.1-0.282l0.564-0.531
				c-0.099-0.201-0.214-0.39-0.344-0.564l-0.725,0.272c-0.131-0.154-0.276-0.291-0.433-0.413l0.227-0.746
				c-0.184-0.122-0.377-0.227-0.578-0.316L69.75,10.85c-0.188-0.065-0.382-0.112-0.581-0.139l-0.172-0.76
				c-0.217-0.014-0.437-0.006-0.656,0.021l-0.129,0.769c-0.096,0.018-0.193,0.042-0.289,0.072c-0.098,0.028-0.191,0.062-0.281,0.1
				l-0.526-0.571c-0.198,0.102-0.386,0.216-0.559,0.348l0.27,0.732c-0.151,0.133-0.288,0.28-0.408,0.437l-0.739-0.228
				c-0.12,0.185-0.225,0.38-0.311,0.583l0.596,0.497c-0.065,0.189-0.111,0.385-0.138,0.585l-0.754,0.175
				c-0.013,0.218-0.007,0.44,0.021,0.662l0.762,0.129c0.019,0.097,0.041,0.195,0.07,0.293s0.063,0.191,0.1,0.285l-0.564,0.53
				c0.099,0.2,0.214,0.389,0.344,0.564l0.725-0.273c0.132,0.153,0.277,0.291,0.434,0.413l-0.227,0.745
				c0.183,0.121,0.376,0.227,0.578,0.314l0.492-0.602c0.188,0.066,0.381,0.112,0.58,0.139l0.173,0.762
				c0.216,0.012,0.436,0.006,0.655-0.021l0.129-0.77c0.096-0.018,0.193-0.042,0.289-0.071c0.097-0.03,0.191-0.063,0.281-0.101
				l0.526,0.57c0.197-0.1,0.386-0.216,0.559-0.347l-0.27-0.731c0.151-0.132,0.287-0.279,0.408-0.438l0.739,0.23
				c0.12-0.186,0.225-0.382,0.312-0.584l-0.597-0.497c0.065-0.19,0.111-0.385,0.139-0.586L72.482,13.912L72.482,13.912z
				 M68.88,14.495L68.88,14.495c-0.439,0.056-0.842-0.257-0.898-0.701c-0.057-0.442,0.254-0.849,0.693-0.905
				c0.439-0.057,0.842,0.256,0.897,0.7C69.629,14.032,69.318,14.438,68.88,14.495z"/>
			<path fill-rule="evenodd" clip-rule="evenodd" fill="#F4F1EF" d="M57.025,5.783c-0.015,0.119-0.023,0.237-0.028,0.354
				l-0.929,0.184c-0.004,0.238,0.007,0.474,0.029,0.707l0.937,0.107c0.031,0.237,0.078,0.468,0.139,0.697l-0.824,0.462
				c0.069,0.227,0.15,0.448,0.244,0.664l0.924-0.19c0.103,0.215,0.216,0.421,0.344,0.619l-0.641,0.698
				c0.134,0.193,0.278,0.379,0.434,0.555l0.821-0.469c0.161,0.171,0.334,0.332,0.517,0.481l-0.397,0.865
				c0.186,0.142,0.381,0.273,0.583,0.394l0.637-0.703c0.206,0.113,0.419,0.213,0.64,0.297l-0.113,0.945
				c0.22,0.075,0.444,0.139,0.675,0.191l0.392-0.868c0.114,0.021,0.229,0.04,0.347,0.054c0.118,0.014,0.234,0.022,0.351,0.028
				l0.182,0.937c0.236,0.003,0.47-0.007,0.7-0.029l0.106-0.946c0.234-0.031,0.465-0.08,0.69-0.14l0.458,0.832
				c0.225-0.069,0.444-0.152,0.658-0.246l-0.188-0.933c0.212-0.103,0.416-0.219,0.613-0.348l0.69,0.649
				c0.191-0.137,0.374-0.283,0.551-0.439L66.1,10.362c0.169-0.163,0.328-0.337,0.476-0.521l0.856,0.4
				c0.14-0.188,0.271-0.383,0.39-0.587l-0.696-0.643c0.111-0.209,0.21-0.423,0.295-0.646l0.936,0.115
				c0.075-0.222,0.14-0.448,0.189-0.681l-0.859-0.396c0.021-0.115,0.039-0.231,0.053-0.35c0.015-0.119,0.022-0.237,0.028-0.354
				l0.929-0.185c0.004-0.238-0.007-0.473-0.029-0.707L67.729,5.7c-0.03-0.236-0.078-0.469-0.139-0.696l0.824-0.463
				c-0.069-0.226-0.151-0.448-0.243-0.664l-0.925,0.191c-0.102-0.213-0.217-0.421-0.345-0.619l0.643-0.698
				c-0.135-0.193-0.279-0.377-0.435-0.555l-0.82,0.469c-0.162-0.171-0.335-0.332-0.518-0.481L66.17,1.32
				c-0.187-0.142-0.381-0.273-0.582-0.393l-0.639,0.703c-0.205-0.112-0.417-0.211-0.639-0.297l0.113-0.946
				c-0.219-0.075-0.443-0.139-0.675-0.191l-0.391,0.869c-0.115-0.021-0.23-0.041-0.348-0.055c-0.118-0.013-0.234-0.021-0.351-0.028
				l-0.183-0.937c-0.235-0.003-0.469,0.007-0.7,0.029l-0.105,0.946c-0.235,0.031-0.466,0.079-0.69,0.141l-0.459-0.833
				c-0.225,0.07-0.444,0.151-0.656,0.246l0.188,0.934c-0.212,0.103-0.416,0.217-0.613,0.347l-0.69-0.649
				c-0.191,0.136-0.375,0.283-0.55,0.439l0.464,0.83c-0.169,0.164-0.328,0.337-0.477,0.521l-0.855-0.401
				c-0.14,0.188-0.271,0.384-0.39,0.588l0.696,0.644c-0.111,0.208-0.21,0.422-0.295,0.645l-0.937-0.115
				c-0.074,0.222-0.139,0.449-0.189,0.682l0.86,0.395C57.058,5.548,57.038,5.664,57.025,5.783L57.025,5.783z M58.22,6.418
				L58.22,6.418c0-0.377,0.054-0.741,0.146-1.088l2.14,0.833c-0.011,0.083-0.019,0.168-0.019,0.256c0,0.98,0.735,1.792,1.679,1.9
				l0.357,2.295c-0.047,0.001-0.093,0.007-0.141,0.007C60.084,10.62,58.22,8.739,58.22,6.418L58.22,6.418z M62.382,7.069
				L62.382,7.069c-0.356,0-0.645-0.291-0.645-0.65c0-0.36,0.288-0.651,0.645-0.651s0.645,0.292,0.645,0.651
				C63.026,6.778,62.738,7.069,62.382,7.069L62.382,7.069z M63.45,10.475L63.45,10.475l-0.354-2.285
				c0.692-0.285,1.182-0.972,1.182-1.771c0-0.304-0.072-0.591-0.197-0.846l1.782-1.454c0.431,0.661,0.682,1.45,0.682,2.3
				C66.544,8.365,65.23,9.998,63.45,10.475L63.45,10.475z M62.382,2.217L62.382,2.217c1.119,0,2.134,0.448,2.882,1.174L63.47,4.853
				c-0.309-0.219-0.683-0.349-1.088-0.349c-0.625,0-1.179,0.308-1.523,0.78l-2.151-0.836C59.406,3.121,60.789,2.217,62.382,2.217z"
				/>
			<path fill-rule="evenodd" clip-rule="evenodd" fill="#DCE7F7" d="M30.672,48.474c0.125,0.13,0.252,0.253,0.382,0.371
				l-0.674,1.251c0.272,0.232,0.555,0.445,0.846,0.643l1.02-0.981c0.305,0.19,0.617,0.356,0.939,0.505l-0.253,1.397
				c0.329,0.136,0.663,0.253,1.001,0.353l0.664-1.254c0.346,0.087,0.694,0.153,1.045,0.195l0.194,1.409
				c0.353,0.029,0.706,0.039,1.058,0.028l0.242-1.398c0.352-0.022,0.703-0.071,1.051-0.139l0.622,1.286
				c0.342-0.079,0.68-0.18,1.013-0.298l-0.205-1.409c0.327-0.131,0.646-0.281,0.955-0.456l0.986,1.035
				c0.297-0.184,0.586-0.381,0.867-0.599l-0.63-1.283c0.134-0.114,0.267-0.229,0.395-0.351c0.128-0.123,0.25-0.251,0.368-0.379
				l1.257,0.685c0.231-0.27,0.441-0.549,0.637-0.838l-0.994-1.028c0.188-0.301,0.353-0.614,0.499-0.932l1.401,0.264
				c0.135-0.326,0.248-0.659,0.344-0.997l-1.261-0.674c0.084-0.343,0.145-0.691,0.184-1.042l1.413-0.179
				c0.024-0.352,0.03-0.704,0.018-1.057l-1.405-0.255c-0.026-0.352-0.076-0.703-0.148-1.05l1.283-0.607
				c-0.083-0.342-0.185-0.68-0.308-1.013l-1.41,0.191c-0.135-0.328-0.289-0.647-0.466-0.958l1.029-0.974
				c-0.186-0.3-0.387-0.59-0.608-0.872l-1.28,0.618c-0.114-0.134-0.231-0.267-0.355-0.396c-0.123-0.13-0.252-0.252-0.382-0.372
				l0.674-1.25c-0.272-0.233-0.555-0.445-0.845-0.643l-1.021,0.982c-0.303-0.19-0.618-0.358-0.939-0.505l0.252-1.397
				c-0.328-0.136-0.664-0.253-1.001-0.353L38.46,35c-0.344-0.085-0.694-0.151-1.045-0.193l-0.194-1.411
				c-0.352-0.028-0.704-0.038-1.058-0.028l-0.242,1.399c-0.353,0.023-0.704,0.07-1.05,0.139L34.25,33.62
				c-0.342,0.081-0.68,0.18-1.012,0.298l0.204,1.411c-0.326,0.131-0.645,0.281-0.956,0.455l-0.986-1.036
				c-0.296,0.183-0.585,0.381-0.866,0.598l0.631,1.283c-0.135,0.113-0.267,0.228-0.396,0.351c-0.128,0.123-0.249,0.251-0.368,0.379
				l-1.258-0.686c-0.23,0.271-0.441,0.55-0.635,0.839l0.994,1.027c-0.189,0.301-0.354,0.613-0.498,0.933L27.7,39.208
				c-0.134,0.327-0.249,0.659-0.343,0.996l1.261,0.675c-0.084,0.344-0.147,0.69-0.185,1.042L27.021,42.1
				c-0.025,0.352-0.031,0.705-0.018,1.057l1.404,0.255c0.027,0.353,0.076,0.703,0.148,1.05l-1.283,0.607
				c0.084,0.341,0.186,0.68,0.308,1.013l1.412-0.19c0.134,0.327,0.287,0.647,0.464,0.958l-1.029,0.974
				c0.186,0.298,0.387,0.59,0.608,0.872l1.281-0.619C30.431,48.212,30.547,48.346,30.672,48.474L30.672,48.474z M32.549,47.698
				L32.549,47.698c-0.436-0.361-0.806-0.77-1.12-1.209l3.009-1.681c0.086,0.093,0.177,0.184,0.278,0.267
				c1.136,0.938,2.778,0.862,3.806-0.126l2.999,1.78c-0.043,0.057-0.081,0.115-0.127,0.17
				C39.197,49.558,35.236,49.917,32.549,47.698L32.549,47.698z M37.283,43.502L37.283,43.502c-0.34,0.413-0.954,0.468-1.37,0.125
				c-0.416-0.344-0.478-0.956-0.137-1.369c0.341-0.412,0.954-0.467,1.37-0.124C37.562,42.478,37.624,43.09,37.283,43.502
				L37.283,43.502z M42.248,45.522L42.248,45.522l-2.985-1.774c0.333-1.074,0.006-2.298-0.92-3.063
				c-0.352-0.291-0.753-0.481-1.168-0.581l0.022-3.454c1.176,0.135,2.33,0.598,3.314,1.411
				C42.763,39.923,43.397,43.005,42.248,45.522L42.248,45.522z M31.666,38.863L31.666,38.863c1.071-1.296,2.559-2.042,4.114-2.213
				l-0.022,3.475c-0.548,0.147-1.057,0.457-1.444,0.926c-0.598,0.723-0.771,1.659-0.553,2.51l-3.026,1.691
				C29.866,43.173,30.143,40.707,31.666,38.863z"/>
		</g>
		<g>
			
				<rect x="47.858" y="88.811" opacity="0.45" fill-rule="evenodd" clip-rule="evenodd" fill="#99A8D6" width="2.314" height="7.146"/>
			
				<rect x="9.601" y="55.413" opacity="0.45" fill-rule="evenodd" clip-rule="evenodd" fill="#99A8D6" width="7.146" height="2.313"/>
			
				<rect x="23.243" y="28.382" transform="matrix(-0.7071 0.7071 -0.7071 -0.7071 64.2483 37.2971)" opacity="0.45" fill-rule="evenodd" clip-rule="evenodd" fill="#99A8D6" width="2.314" height="7.146"/>
			
				<rect x="23.243" y="77.612" transform="matrix(0.707 0.7072 -0.7072 0.707 64.5639 6.5311)" opacity="0.45" fill-rule="evenodd" clip-rule="evenodd" fill="#99A8D6" width="2.314" height="7.146"/>
		</g>
		<linearGradient id="SVGID_1_" gradientUnits="userSpaceOnUse" x1="56.7715" y1="27.6489" x2="53.9786" y2="21.4057">
			<stop  offset="0.1232" style="stop-color:#F1F1F2;stop-opacity:0.85"/>
			<stop  offset="0.2847" style="stop-color:#F3F3F4;stop-opacity:0.6934"/>
			<stop  offset="1" style="stop-color:#F8F8F9;stop-opacity:0"/>
			<stop  offset="1" style="stop-color:#FFFFFF;stop-opacity:0"/>
		</linearGradient>
		<path fill-rule="evenodd" clip-rule="evenodd" fill="url(#SVGID_1_)" d="M59.957,21.426c0,0.551-0.335,2.907-3.836,2.907
			c-3.502,0-7.242,0-7.242,0l-0.036-2.907C61.076,17.536,59.957,20.414,59.957,21.426z"/>
	</g>
</g>
</svg>
