<?xml version="1.0" encoding="utf-8"?>
<!-- Generator: Adobe Illustrator 15.0.0, SVG Export Plug-In . SVG Version: 6.00 Build 0)  -->
<!DOCTYPE svg PUBLIC "-//W3C//DTD SVG 1.1//EN" "http://www.w3.org/Graphics/SVG/1.1/DTD/svg11.dtd">
<svg version="1.1" id="Layer_1" xmlns="http://www.w3.org/2000/svg" xmlns:xlink="http://www.w3.org/1999/xlink" x="0px" y="0px"
	 width="199px" height="192px" viewBox="0 0 199 192" enable-background="new 0 0 199 192" xml:space="preserve">
<g>
	
		<linearGradient id="SVGID_1_" gradientUnits="userSpaceOnUse" x1="370.4951" y1="61.0449" x2="434.0371" y2="61.0449" gradientTransform="matrix(0.0586 0.9983 -0.9983 0.0586 91.2722 -370.1523)">
		<stop  offset="0" style="stop-color:#7AC1CD;stop-opacity:0.5"/>
		<stop  offset="0.2465" style="stop-color:#A5D1DB;stop-opacity:0.3768"/>
		<stop  offset="0.7609" style="stop-color:#E7F2F5;stop-opacity:0.1196"/>
		<stop  offset="1" style="stop-color:#FFFFFF;stop-opacity:0"/>
		<stop  offset="1" style="stop-color:#AD9E96;stop-opacity:0.2714"/>
	</linearGradient>
	<circle fill="url(#SVGID_1_)" cx="53.904" cy="35.006" r="31.771"/>
	<path fill="#F4A09C" d="M83.103,41.67c0,18.518-15.012,33.529-33.529,33.529c-12.799,0-23.919-7.172-29.567-17.714l19.854-11.233
		c0,0,7.468,5.832,14.045-4.582c6.571-10.413,0-13.12,0-13.12L40.644,9.346c2.845-0.783,5.84-1.204,8.93-1.204
		C68.091,8.142,83.103,23.152,83.103,41.67z"/>
	<path fill="#9BA9D7" d="M33.405,140.52l21.658-20.131c0,0,19.159-2.082,28.322,24.99L68.808,188L33.405,140.52z"/>
	<path fill="#BCC9E6" d="M27.574,138.02l21.658-20.129c0,0,19.159-2.084,28.322,24.99l-14.577,42.621L27.574,138.02z"/>
	
		<rect x="71.627" y="31.599" transform="matrix(0.8934 0.4492 -0.4492 0.8934 33.9615 -28.175)" fill="#C4E0F4" width="9.464" height="51.773"/>
	
		<rect x="82.787" y="33.956" transform="matrix(0.8934 0.4493 -0.4493 0.8934 36.214 -32.9393)" fill="#ABD0E7" width="9.464" height="51.774"/>
	<g>
		<circle fill="#BCC9E6" cx="60.686" cy="165.58" r="4.373"/>
		<path fill="#FFFFFF" d="M60.687,170.994c-2.986,0-5.415-2.43-5.415-5.414c0-2.986,2.429-5.416,5.415-5.416
			c2.985,0,5.415,2.43,5.415,5.416C66.101,168.564,63.672,170.994,60.687,170.994z M60.687,162.248
			c-1.838,0-3.333,1.494-3.333,3.332c0,1.836,1.495,3.332,3.333,3.332c1.837,0,3.332-1.496,3.332-3.332
			C64.018,163.742,62.523,162.248,60.687,162.248z"/>
	</g>
	
		<rect x="93.578" y="37.439" transform="matrix(0.8934 0.4493 -0.4493 0.8934 38.9338 -37.4188)" fill="#77BDE0" width="9.465" height="51.774"/>
	
		<rect x="102.503" y="44.559" transform="matrix(0.8934 0.4493 -0.4493 0.8934 43.0868 -40.6708)" fill="#6399D2" width="9.463" height="51.774"/>
	<path fill="#BCC9E6" d="M50.621,115.529L37.57,82.739l5.831-29.129L66.17,35.006c0,0,13.409,21.067,24.104,28.878
		c-12.858,9.58-23.352,2.142-23.352,2.142l-6.235,12.297c0,0,31.175,12.085,46.863,2.229c10.203-20.292,15.543-31.106,15.543-31.106
		s-7.497,56.922-40.957,84.967C81.997,127.191,63.949,104.424,50.621,115.529z"/>
	<path fill="#FFF9BE" d="M5.361,40.42l32.209,1.944L7.721,61.246C7.721,61.246,1.751,54.721,5.361,40.42z"/>
	<path fill="#9BA9D7" d="M3.272,63.182c-5.743-11.604-2.209-23.695-2.057-24.204l2.665,0.802l-1.332-0.401l1.333,0.4
		c-0.035,0.114-3.358,11.574,1.884,22.168L3.272,63.182z"/>
	<path fill="#9BA9D7" d="M66.922,66.025c0,0-6.305-2.002-9.776-11.721c0,0-9.269,20.101,3.541,24.019L66.922,66.025z"/>
	<path fill="#9BA9D7" d="M60.687,78.323c0,0,19.159,10.257,12.912,27.072l33.952-24.843C84.503,89.159,60.687,78.323,60.687,78.323z
		"/>
	
		<linearGradient id="SVGID_2_" gradientUnits="userSpaceOnUse" x1="-702.502" y1="538.7871" x2="-692.4109" y2="520.1351" gradientTransform="matrix(-0.9026 -0.4305 0.4305 -0.9026 -800.8925 260.4813)">
		<stop  offset="0.0621" style="stop-color:#FFFFFF"/>
		<stop  offset="1" style="stop-color:#FFFFFF;stop-opacity:0"/>
	</linearGradient>
	<path fill="url(#SVGID_2_)" d="M71.709,101.57c1.07-2.246,4.292-12.513-9.993-19.328c-14.286-6.813-29.55-14.094-29.55-14.094
		l-5.802,11.789C68.706,119.625,69.735,105.699,71.709,101.57z"/>
	<path fill="#DAE5F6" d="M161.063,87.733l10.412-44.188c0,0,23.116,7.975,26.864,24.604L161.063,87.733z"/>
	<polygon fill="#9BA9D7" points="163.55,46.946 170.373,43.544 161.063,87.733 	"/>
	<path fill="#9BA9D7" d="M158.251,89.339l0.938-43.088c0,0-10.62,0.625-15.618,4.583L158.251,89.339z"/>
	<polygon fill="#BCC9E6" points="143.57,50.833 153.04,86.433 156.672,88.58 	"/>
	<path fill="#9BA9D7" d="M13.414,36.776l-4.166-0.66c0,0,3.61-17.076,24.158-27.975L13.414,36.776z"/>
	<path fill="#ABD0E7" d="M39.132,41.045c0,0,0-6.976,6.352-11.974L33.405,8.142c0,0-19.992,10.309-19.992,28.634L39.132,41.045z"/>
	<path fill="#F4A09C" d="M151.379,109.699c0,0,15.598,2.404,14.339-17.841l22.659-7.15c0,0,8.273,26.051-9.402,43.909
		c-22.931,23.168-46.592,1.672-46.592,1.672L151.379,109.699z"/>
	<polygon fill="#9BA9D7" points="149.922,109.404 148.151,109.404 125.976,130.289 132.383,130.289 	"/>
	<path fill="#9BA9D7" d="M52.386,30.304l11.604,6.484l-14.99,12.25l-5.623-3.141l0.004-0.008c-0.125-0.05-0.246-0.112-0.366-0.184
		c-2.833-1.637-3.112-6.451-0.621-10.758c2.486-4.306,6.797-6.473,9.625-4.836c0.121,0.071,0.237,0.146,0.346,0.229L52.386,30.304z"
		/>
	<path fill="#9BA9D7" d="M126.381,71.587c-3.356,5.127-5.614,10.917-6.814,16.877l-3.919-2.186l-9.096-5.086
		c0,0,7.501-12.991,8.579-15.907l8.675,4.861L126.381,71.587z"/>
	<path fill="#9BA9D7" d="M175.24,98.956l-9.004,15.595l-18.035-10.08l-27.776-15.523c1.141-6.293,3.466-12.062,6.681-16.956
		l29.546,16.552L175.24,98.956z"/>
	<path fill="#9BA9D7" d="M124.897,131.08h6.803c0,0,18.203,17.018,38.673,4.621C145.861,150.377,124.897,131.08,124.897,131.08z"/>
	
		<linearGradient id="SVGID_3_" gradientUnits="userSpaceOnUse" x1="37.5518" y1="290.1914" x2="114.7441" y2="290.1914" gradientTransform="matrix(-0.2096 -0.9778 0.9778 -0.2096 -121.9495 240.6769)">
		<stop  offset="0" style="stop-color:#7AC1CD;stop-opacity:0.5"/>
		<stop  offset="0.2465" style="stop-color:#A5D1DB;stop-opacity:0.3768"/>
		<stop  offset="0.7609" style="stop-color:#E7F2F5;stop-opacity:0.1196"/>
		<stop  offset="1" style="stop-color:#FFFFFF;stop-opacity:0"/>
		<stop  offset="1" style="stop-color:#AD9E96;stop-opacity:0.2714"/>
	</linearGradient>
	<circle fill="url(#SVGID_3_)" cx="145.839" cy="105.395" r="38.597"/>
	<path fill="#FFF9BE" d="M148.201,104.471c0.254,1.291,0.576,2.09,0.576,2.09l-20.347,19.143h-0.005
		c-5.48-7.408-8.806-17.143-8.806-27.797c0-3.074,0.275-6.072,0.805-8.959c1.141-6.293,3.466-12.062,6.681-16.956
		c3.379-5.148,7.742-9.325,12.753-12.146l16.793,28.697l0.021,0.037C147.318,93.188,147.48,100.809,148.201,104.471z"/>
	
		<ellipse transform="matrix(0.866 0.5 -0.5 0.866 76.1013 -70.9071)" fill="#BCC9E6" cx="170.374" cy="106.563" rx="5.918" ry="9.002"/>
	<polygon fill="#9BA9D7" points="128.431,125.703 128.426,125.709 128.426,125.703 	"/>
	<path fill="#9BA9D7" d="M119.566,88.464c-2.693,13.403-0.033,27.676,7.552,37.245l-7.498-0.459c0,0-9.425-18.934-3.973-38.972
		c1.475-5.415,4.031-10.909,8.158-16.132c2.841-3.603,6.428-7.072,10.914-10.3l3.228-0.004c-4.739,3.162-8.589,7.193-11.566,11.746
		C123.024,76.715,120.767,82.504,119.566,88.464z"/>
	<path fill="#9BA9D7" d="M75.774,48.566c0,0-5.351-7.238-6.436-8.825l8.477,4.74L75.774,48.566z"/>
</g>
</svg>
