<?xml version="1.0" encoding="utf-8"?>
<!-- Generator: Adobe Illustrator 15.0.0, SVG Export Plug-In . SVG Version: 6.00 Build 0)  -->
<!DOCTYPE svg PUBLIC "-//W3C//DTD SVG 1.1//EN" "http://www.w3.org/Graphics/SVG/1.1/DTD/svg11.dtd">
<svg version="1.1" id="Layer_1" xmlns="http://www.w3.org/2000/svg" xmlns:xlink="http://www.w3.org/1999/xlink" x="0px" y="0px"
	 width="168px" height="152px" viewBox="0 0 168 152" enable-background="new 0 0 168 152" xml:space="preserve">
<g>
	<linearGradient id="SVGID_1_" gradientUnits="userSpaceOnUse" x1="25.7256" y1="81.459" x2="50.2549" y2="97.2665">
		<stop  offset="0" style="stop-color:#F1F1F2;stop-opacity:0.65"/>
		<stop  offset="0.1843" style="stop-color:#F3F3F4;stop-opacity:0.5302"/>
		<stop  offset="1" style="stop-color:#F8F8F9;stop-opacity:0"/>
		<stop  offset="1" style="stop-color:#FFFFFF;stop-opacity:0"/>
	</linearGradient>
	<polygon fill="url(#SVGID_1_)" points="0.786,117.559 46.614,78.42 101.967,78.42 56.138,117.559 	"/>
	<path fill="#6E64AA" d="M20.87,117.559c-3.239,0-3.999-0.651-4.449-2.59c-0.458-1.976-2.244-9.662-2.244-9.662h17.192
		c0,0-10.591,9.045-11.554,9.867C17.97,116.751,19.948,117.559,20.87,117.559z"/>
	<polygon fill="#9CD3F4" points="168.221,100.394 133.414,130.119 66.346,130.119 101.153,100.394 	"/>
	<path fill="#9CD3F4" d="M85.222,130.119c0,0-4.715,7.093-12.04,7.321c2.662,1.16,22.386,2.319,25.132-7.321H85.222z"/>
	<rect x="126.881" y="78.249" fill="#231F21" width="6.62" height="0.343"/>
	<rect x="115.866" y="78.249" fill="#231F21" width="11.015" height="0.343"/>
	<path fill="#9BA9D7" d="M101.967,78.42l-45.829,39.139H20.869c-0.92,0-2.901-0.811-1.055-2.386
		c0.966-0.82,11.557-9.868,11.557-9.868H14.177L45.659,78.42H101.967z"/>
	<path fill="#6E64AA" d="M155.108,63.059c2.764-2.361,0.729-3.522-1.352-3.522H97.688L57.59,93.779
		c-0.063,0.051-0.121,0.103-0.179,0.153c-2.499,2.26-0.505,3.373,1.528,3.373h56.069L155.108,63.059z"/>
	<path fill="#9CD3F4" d="M155.108,59.967c2.764-2.362,0.729-3.522-1.352-3.522H97.688L57.59,90.688
		c-0.063,0.052-0.121,0.103-0.179,0.155c-2.499,2.258-0.505,3.369,1.528,3.369h56.069L155.108,59.967z"/>
	<path fill="#DCEFEC" d="M143.312,64.39c0.059-0.052,0.118-0.103,0.176-0.152c2.498-2.261,0.504-3.373-1.527-3.373H99.131
		L69.386,86.27c-0.062,0.05-0.117,0.102-0.175,0.15l0.175-0.15c-0.062,0.05-0.117,0.102-0.175,0.15
		c-2.499,2.263-0.507,3.371,1.528,3.371h42.828L143.312,64.39c0.059-0.052,0.118-0.103,0.176-0.152"/>
	<ellipse fill="#6E64AA" cx="89.611" cy="91.696" rx="2.009" ry="1.487"/>
	<linearGradient id="SVGID_2_" gradientUnits="userSpaceOnUse" x1="160.0293" y1="68.7515" x2="127.773" y2="94.5568">
		<stop  offset="0" style="stop-color:#F1F1F2"/>
		<stop  offset="0.1843" style="stop-color:#F3F3F4;stop-opacity:0.8157"/>
		<stop  offset="1" style="stop-color:#F8F8F9;stop-opacity:0"/>
		<stop  offset="1" style="stop-color:#FFFFFF;stop-opacity:0"/>
	</linearGradient>
	<polygon fill="url(#SVGID_2_)" points="115.009,94.212 115.009,117.559 156.437,82.18 156.437,58.834 	"/>
	<path fill="#BCC9E6" d="M101.967,78.42L88.652,89.791H70.739c-2.036,0-4.027-1.108-1.528-3.371l0.175-0.15l9.188-7.85H101.967z"/>
	<linearGradient id="SVGID_3_" gradientUnits="userSpaceOnUse" x1="61.6162" y1="20.0298" x2="130.9778" y2="65.1559">
		<stop  offset="0" style="stop-color:#F1F1F2"/>
		<stop  offset="0.1843" style="stop-color:#F3F3F4;stop-opacity:0.8157"/>
		<stop  offset="1" style="stop-color:#F8F8F9;stop-opacity:0"/>
		<stop  offset="1" style="stop-color:#FFFFFF;stop-opacity:0"/>
	</linearGradient>
	<path fill="url(#SVGID_3_)" d="M99.804,3.489c-22.82,0-41.387,18.563-41.387,41.387c0,22.819,18.566,41.384,41.387,41.384
		c22.819,0,41.387-18.564,41.387-41.384C141.19,22.052,122.623,3.489,99.804,3.489z M99.804,79.935
		c-19.363,0-35.059-15.697-35.059-35.059c0-19.364,15.696-35.063,35.059-35.063c19.362,0,35.062,15.699,35.062,35.063
		C134.865,64.237,119.166,79.935,99.804,79.935z"/>
	<path fill="#9BA9D7" d="M125.419,70.263h-14.663H96.094l14.662-6.981C120.441,63.281,125.419,70.263,125.419,70.263z"/>
	<polygon fill="#6E64AA" points="82.253,82.082 96.094,70.263 110.756,63.281 96.914,75.103 	"/>
	<polygon fill="#9BA9D7" points="96.914,75.103 111.577,82.082 125.419,70.263 110.756,63.281 	"/>
	<path fill="#6F79BA" d="M111.577,82.082H96.914H82.253l14.661-6.979C106.599,75.103,111.577,82.082,111.577,82.082z"/>
	<path fill="#6F79BA" d="M127.842,43.517c0,7.742-3.139,14.751-8.212,19.826c-5.074,5.073-12.083,8.212-19.826,8.212
		c-7.742,0-14.751-3.139-19.825-8.212c-5.073-5.074-8.212-12.084-8.212-19.826c0-7.743,3.139-14.751,8.212-19.826l4.48,4.48
		c-3.932,3.932-6.366,9.359-6.366,15.345s2.435,11.414,6.366,15.345c3.932,3.932,9.358,6.366,15.345,6.366
		s11.414-2.435,15.345-6.366c3.933-3.931,6.368-9.359,6.368-15.345h3.161H127.842z"/>
	<path fill="#FFF9BE" d="M121.505,43.516c0,1.977-0.269,3.951-0.801,5.871c-0.034,0.123-0.071,0.244-0.106,0.367
		c-0.048,0.151-0.092,0.302-0.14,0.45c-0.104,0.323-0.217,0.645-0.337,0.965c-0.038,0.1-0.075,0.203-0.117,0.302
		c-0.055,0.141-0.11,0.279-0.169,0.415c-0.073,0.189-0.156,0.375-0.242,0.56c-0.073,0.162-0.145,0.32-0.224,0.477
		c-0.065,0.138-0.134,0.275-0.203,0.412c-0.067,0.138-0.137,0.271-0.212,0.409c-1.017,1.892-2.301,3.615-3.805,5.119
		c-1.286,1.291-2.74,2.42-4.318,3.354c-0.227,0.139-0.453,0.266-0.683,0.388c-0.23,0.128-0.465,0.249-0.701,0.364
		c0,0,0,0-0.003,0.003c-0.234,0.115-0.471,0.229-0.711,0.334c-0.185,0.089-0.372,0.167-0.56,0.244
		c-0.139,0.058-0.274,0.111-0.415,0.168c-0.104,0.044-0.209,0.081-0.313,0.12c-0.148,0.059-0.295,0.109-0.446,0.164
		c-0.006,0-0.013,0.005-0.02,0.009c-0.162,0.054-0.323,0.108-0.488,0.16c-0.168,0.055-0.333,0.106-0.501,0.158
		c-0.251,0.075-0.505,0.144-0.759,0.209c-1.779,0.452-3.602,0.684-5.428,0.684v0.007c-5.984,0-11.411-2.435-15.347-6.366
		c-3.93-3.931-6.365-9.359-6.365-15.346c0-5.984,2.435-11.412,6.365-15.343l-4.48-4.48l2.239,2.234l2.235,2.236
		c4.231-4.23,9.793-6.348,15.353-6.348c5.563,0,11.119,2.118,15.352,6.352C119.39,32.396,121.505,37.958,121.505,43.516z"/>
	<linearGradient id="SVGID_4_" gradientUnits="userSpaceOnUse" x1="80.0854" y1="40.6543" x2="127.4963" y2="47.2149">
		<stop  offset="0" style="stop-color:#F1F1F2"/>
		<stop  offset="0.1843" style="stop-color:#F3F3F4;stop-opacity:0.8157"/>
		<stop  offset="1" style="stop-color:#F8F8F9;stop-opacity:0"/>
		<stop  offset="1" style="stop-color:#FFFFFF;stop-opacity:0"/>
	</linearGradient>
	<path fill="url(#SVGID_4_)" d="M79.979,23.691c5.474-5.474,12.65-8.211,19.825-8.211c7.177,0,14.353,2.737,19.827,8.211
		c5.474,5.475,8.211,12.65,8.211,19.826c0,7.175-2.738,14.351-8.211,19.826c-5.475,5.475-12.65,8.212-19.827,8.212v-6.336
		c5.561,0,11.12-2.116,15.352-6.349c4.234-4.233,6.352-9.793,6.352-15.353c0-5.561-2.117-11.12-6.351-15.353
		c-4.232-4.233-9.792-6.35-15.353-6.35s-11.12,2.116-15.352,6.349l-2.237-2.237L79.979,23.691z"/>
	<g>
		
			<rect x="93.577" y="32.945" transform="matrix(0.6428 -0.7661 0.7661 0.6428 7.4512 90.7385)" fill="#6F79BA" width="14.876" height="8.871"/>
		
			<rect x="83.147" y="15.085" transform="matrix(0.6428 -0.7661 0.7661 0.6428 11.0433 77.4808)" fill="#6F79BA" width="10.896" height="23.63"/>
		
			<rect x="68.574" y="13.928" transform="matrix(0.6428 -0.766 0.766 0.6428 15.2003 61.9425)" fill="#6F79BA" width="10.896" height="1.488"/>
		
			<rect x="73.362" y="13.995" transform="matrix(0.6428 -0.766 0.766 0.6428 14.3295 65.1877)" fill="#6F79BA" width="7.414" height="6.466"/>
	</g>
	<polygon fill="#6E64AA" points="101.838,54.944 114.432,44.188 143.489,44.188 130.894,54.944 	"/>
	<polygon fill="#9BA9D7" points="101.838,52.901 114.432,42.144 143.489,42.144 130.894,52.901 	"/>
	<g>
		<circle fill="#9CD3F4" cx="83.14" cy="29.412" r="3.691"/>
		<path fill="#FFFFFF" d="M83.14,33.961c-2.509,0-4.549-2.04-4.549-4.549c0-2.508,2.04-4.548,4.549-4.548
			c2.509,0,4.549,2.041,4.549,4.548C87.688,31.921,85.648,33.961,83.14,33.961z M83.14,26.58c-1.562,0-2.833,1.271-2.833,2.832
			c0,1.563,1.271,2.833,2.833,2.833c1.561,0,2.832-1.27,2.832-2.833C85.972,27.851,84.7,26.58,83.14,26.58z"/>
	</g>
	<g>
		<path fill="#FFFFFF" d="M141.249,111.26h-37.5c-0.499,0-0.901-0.403-0.901-0.9c0-0.499,0.402-0.902,0.901-0.902h37.5
			c0.499,0,0.901,0.403,0.901,0.902C142.15,110.856,141.748,111.26,141.249,111.26z"/>
		<path fill="#FFFFFF" d="M135.883,115.851H98.382c-0.497,0-0.901-0.404-0.901-0.902s0.404-0.903,0.901-0.903h37.501
			c0.498,0,0.902,0.405,0.902,0.903S136.381,115.851,135.883,115.851z"/>
		<path fill="#FFFFFF" d="M130.433,120.503H92.932c-0.497,0-0.901-0.403-0.901-0.901c0-0.499,0.404-0.901,0.901-0.901h37.501
			c0.498,0,0.902,0.402,0.902,0.901C131.335,120.1,130.931,120.503,130.433,120.503z"/>
	</g>
	<g>
		<path fill="#FFFFFF" d="M65.825,103.303H41.76c-0.499,0-0.903-0.405-0.903-0.902c0-0.499,0.404-0.902,0.903-0.902h24.064
			c0.498,0,0.902,0.403,0.902,0.902C66.727,102.897,66.323,103.303,65.825,103.303z"/>
		<path fill="#FFFFFF" d="M60.457,107.892H36.393c-0.499,0-0.903-0.404-0.903-0.902s0.404-0.901,0.903-0.901h24.064
			c0.499,0,0.903,0.403,0.903,0.901S60.956,107.892,60.457,107.892z"/>
		<path fill="#FFFFFF" d="M55.007,112.543H30.942c-0.498,0-0.902-0.402-0.902-0.9c0-0.499,0.404-0.901,0.902-0.901h24.065
			c0.499,0,0.902,0.402,0.902,0.901C55.909,112.141,55.506,112.543,55.007,112.543z"/>
	</g>
	<g>
		<path fill="#FFFFFF" d="M59.343,85.793H46.097c-0.498,0-0.902-0.405-0.902-0.901c0-0.499,0.404-0.903,0.902-0.903h13.246
			c0.498,0,0.902,0.404,0.902,0.903C60.245,85.388,59.841,85.793,59.343,85.793z"/>
		<path fill="#FFFFFF" d="M53.975,90.382H40.73c-0.499,0-0.902-0.404-0.902-0.901c0-0.498,0.404-0.902,0.902-0.902h13.245
			c0.499,0,0.903,0.404,0.903,0.902C54.878,89.978,54.474,90.382,53.975,90.382z"/>
	</g>
	<linearGradient id="SVGID_5_" gradientUnits="userSpaceOnUse" x1="172.6748" y1="107.7119" x2="144.1535" y2="130.5293">
		<stop  offset="0" style="stop-color:#F1F1F2"/>
		<stop  offset="0.1843" style="stop-color:#F3F3F4;stop-opacity:0.8157"/>
		<stop  offset="1" style="stop-color:#F8F8F9;stop-opacity:0"/>
		<stop  offset="1" style="stop-color:#FFFFFF;stop-opacity:0"/>
	</linearGradient>
	<polygon fill="url(#SVGID_5_)" points="133.414,130.119 133.414,150 168.221,120.274 168.221,100.394 	"/>
	<linearGradient id="SVGID_6_" gradientUnits="userSpaceOnUse" x1="104.7695" y1="34.5889" x2="135.377" y2="34.5889">
		<stop  offset="0" style="stop-color:#F1F1F2"/>
		<stop  offset="0.1843" style="stop-color:#F3F3F4;stop-opacity:0.8157"/>
		<stop  offset="1" style="stop-color:#F8F8F9;stop-opacity:0"/>
		<stop  offset="1" style="stop-color:#FFFFFF;stop-opacity:0"/>
	</linearGradient>
	<path fill="url(#SVGID_6_)" d="M104.77,45.855l21.707-22.681c0,0,10.374,11.894,8.723,22.828L104.77,45.855z"/>
	<g>
		<g>
			<path fill="#FFFFFF" d="M136.469,23.68l-11.915,13.973l-1.955-1.41l11.917-13.992L136.469,23.68z M130.601,24.368
				c-0.143,0.617-0.525,1.114-1.146,1.492c-0.619,0.364-1.274,0.513-1.967,0.444c-0.756-0.16-1.365-0.493-1.832-1.002
				c-0.489-0.554-0.684-1.155-0.581-1.805c0.11-0.703,0.46-1.233,1.046-1.59c0.604-0.367,1.31-0.487,2.116-0.36
				c0.747,0.118,1.342,0.449,1.786,0.995C130.473,23.063,130.665,23.671,130.601,24.368z M128.569,24.048
				c-0.016-0.207-0.082-0.373-0.202-0.501c-0.12-0.127-0.257-0.204-0.409-0.227c-0.213-0.034-0.406-0.003-0.577,0.093
				c-0.154,0.084-0.245,0.219-0.273,0.406c-0.023,0.145,0.024,0.282,0.146,0.409c0.104,0.126,0.274,0.228,0.513,0.306
				c0.189-0.011,0.353-0.061,0.492-0.147C128.394,24.312,128.499,24.2,128.569,24.048z M133.865,36.202
				c-0.146,0.63-0.521,1.128-1.125,1.496c-0.569,0.346-1.225,0.494-1.967,0.444c-0.796-0.193-1.411-0.548-1.844-1.065
				c-0.432-0.531-0.599-1.107-0.5-1.731c0.105-0.677,0.452-1.2,1.042-1.569c0.561-0.388,1.244-0.518,2.052-0.391
				c0.73,0.116,1.325,0.448,1.785,0.996C133.742,34.897,133.928,35.504,133.865,36.202z M131.832,35.882
				c-0.014-0.207-0.067-0.371-0.156-0.494c-0.136-0.13-0.28-0.208-0.432-0.231c-0.457-0.072-0.718,0.098-0.782,0.509
				c-0.025,0.159,0.007,0.3,0.098,0.423c0.092,0.109,0.257,0.204,0.492,0.281C131.432,36.335,131.692,36.172,131.832,35.882z"/>
		</g>
	</g>
	<path fill="#6F79BA" d="M118.954,53.743c-0.979,1.844-2.245,3.574-3.799,5.126c-1.323,1.325-2.779,2.444-4.324,3.347
		c1.578-0.934,3.032-2.063,4.318-3.354C116.653,57.358,117.938,55.635,118.954,53.743z"/>
	<linearGradient id="SVGID_7_" gradientUnits="userSpaceOnUse" x1="100.1533" y1="64.5547" x2="105.1237" y2="65.2425">
		<stop  offset="0" style="stop-color:#F1F1F2"/>
		<stop  offset="0.1843" style="stop-color:#F3F3F4;stop-opacity:0.8157"/>
		<stop  offset="1" style="stop-color:#F8F8F9;stop-opacity:0"/>
		<stop  offset="1" style="stop-color:#FFFFFF;stop-opacity:0"/>
	</linearGradient>
	<path fill="url(#SVGID_7_)" d="M99.804,65.221c1.826,0,3.648-0.231,5.428-0.684c-1.732,0.452-3.553,0.69-5.428,0.69V65.221z"/>
	<linearGradient id="SVGID_8_" gradientUnits="userSpaceOnUse" x1="114.5059" y1="66.8481" x2="115.9345" y2="67.0458">
		<stop  offset="0" style="stop-color:#F1F1F2"/>
		<stop  offset="0.1843" style="stop-color:#F3F3F4;stop-opacity:0.8157"/>
		<stop  offset="1" style="stop-color:#F8F8F9;stop-opacity:0"/>
		<stop  offset="1" style="stop-color:#FFFFFF;stop-opacity:0"/>
	</linearGradient>
	<path fill="url(#SVGID_8_)" d="M114.343,67.497c0.573-0.351,1.137-0.721,1.687-1.109C115.479,66.782,114.916,67.153,114.343,67.497
		z"/>
	<linearGradient id="SVGID_9_" gradientUnits="userSpaceOnUse" x1="116.6885" y1="65.5103" x2="117.5705" y2="65.6323">
		<stop  offset="0" style="stop-color:#F1F1F2"/>
		<stop  offset="0.1843" style="stop-color:#F3F3F4;stop-opacity:0.8157"/>
		<stop  offset="1" style="stop-color:#F8F8F9;stop-opacity:0"/>
		<stop  offset="1" style="stop-color:#FFFFFF;stop-opacity:0"/>
	</linearGradient>
	<path fill="url(#SVGID_9_)" d="M116.578,65.985c0.361-0.271,0.715-0.549,1.062-0.834C117.293,65.443,116.939,65.722,116.578,65.985
		z"/>
	<linearGradient id="SVGID_10_" gradientUnits="userSpaceOnUse" x1="120.1992" y1="50.6733" x2="120.3894" y2="50.6997">
		<stop  offset="0" style="stop-color:#F1F1F2"/>
		<stop  offset="0.1843" style="stop-color:#F3F3F4;stop-opacity:0.8157"/>
		<stop  offset="1" style="stop-color:#F8F8F9;stop-opacity:0"/>
		<stop  offset="1" style="stop-color:#FFFFFF;stop-opacity:0"/>
	</linearGradient>
	<path fill="url(#SVGID_10_)" d="M120.121,51.168c0.12-0.32,0.233-0.642,0.337-0.965C120.357,50.53,120.244,50.849,120.121,51.168z"
		/>
	<linearGradient id="SVGID_11_" gradientUnits="userSpaceOnUse" x1="4.4829" y1="112.5547" x2="48.7371" y2="141.3461">
		<stop  offset="0" style="stop-color:#F1F1F2"/>
		<stop  offset="0.1843" style="stop-color:#F3F3F4;stop-opacity:0.8157"/>
		<stop  offset="1" style="stop-color:#F8F8F9;stop-opacity:0"/>
		<stop  offset="1" style="stop-color:#FFFFFF;stop-opacity:0"/>
	</linearGradient>
	<rect x="-0.169" y="117.559" fill="url(#SVGID_11_)" width="56.415" height="20.643"/>
</g>
</svg>
