<?xml version="1.0" encoding="utf-8"?>
<!-- Generator: Adobe Illustrator 15.0.0, SVG Export Plug-In . SVG Version: 6.00 Build 0)  -->
<!DOCTYPE svg PUBLIC "-//W3C//DTD SVG 1.1//EN" "http://www.w3.org/Graphics/SVG/1.1/DTD/svg11.dtd">
<svg version="1.1" id="Layer_1" xmlns="http://www.w3.org/2000/svg" xmlns:xlink="http://www.w3.org/1999/xlink" x="0px" y="0px"
	 width="168px" height="152px" viewBox="0 0 168 152" enable-background="new 0 0 168 152" xml:space="preserve">
<g>
	<path fill="#99D2D1" d="M76.083,77.222c0,0,7.071,4.035,7.692,10.13c0.621,6.094-7.692,3.462-7.692,3.462L63.854,77.222H76.083z"/>
	<polygon fill="#F39E9E" points="112.475,74.438 112.475,134.395 46.938,134.395 54.253,100.637 	"/>
	<circle fill="#DAE5F6" cx="83.775" cy="113.459" r="18.027"/>
	<path fill="#5DA99D" d="M96.576,81.592l-12.801,5.76v38.952l4.131-1.858C87.906,124.445,98.458,99.93,96.576,81.592z"/>
	<path fill="#99D2D1" d="M112.101,36.682l-19.29,8.68l-9.035,41.989l12.801-5.76C96.576,81.592,119.331,58.348,112.101,36.682z"/>
	<path fill="#5DA99D" d="M92.811,45.362c0,0-26.1,13.052-28.956,31.859h12.229l10.931-4.918L92.811,45.362z"/>
	<polygon fill="#A5686B" points="57.395,85.795 57.91,83.401 37.592,79.029 37.071,81.422 	"/>
	<polygon fill="#A5686B" points="57.395,85.795 54.869,85.252 44.294,134.395 46.938,134.395 	"/>
	<path fill="#5DA99D" d="M112.101,36.682c0,0-12.028-15.896-35.317-9.535c-23.658,6.462-25.377,20.927-25.377,20.927v15.919
		L112.101,36.682z"/>
	<polygon fill="#99D2D1" points="63.231,58.673 51.406,63.994 51.406,88.326 57.435,85.614 	"/>
	<path fill="#5DA99D" d="M57.435,85.614L32.021,97.05v-4.522C32.021,92.527,52.154,74.808,57.435,85.614z"/>
	<polygon fill="#F39E9E" points="139.545,62.232 121.777,70.251 121.777,134.395 139.545,134.395 	"/>
	<polygon fill="#F39E9E" points="165.87,50.386 148.102,58.435 148.102,134.395 165.87,134.395 	"/>
	<path fill="#A5686B" d="M34.896,104.045v-2.448c-5.627,0-10.204-4.577-10.204-10.204c0-5.626,4.577-10.203,10.204-10.203
		c0.733,0,1.466,0.078,2.176,0.232l0.521-2.393c-0.881-0.191-1.788-0.289-2.696-0.289c-6.978,0-12.653,5.677-12.653,12.652
		C22.242,98.369,27.918,104.045,34.896,104.045z"/>
	<polygon fill="#EED2B9" points="31.604,97.237 24.604,100.388 19.814,94.506 31.604,92.562 	"/>
	<g>
		<path fill="#99D2D1" d="M5.584,67.974c-1.245,1.156-0.487,2.227-0.487,2.227l14.47,8.516c0,0,0.103-1.386,1.371-1.706
			L5.584,67.974z"/>
		<path fill="#5DA99D" d="M42.264,72.577l-18.7,8.494l-1.083-0.639l-2.412-1.42c0.09-0.318,0.285-0.591,0.543-0.776l0.517-0.239
			L43.51,67.805C44.21,70.491,42.264,72.577,42.264,72.577z"/>
		<path fill="#F39E9E" d="M22.902,79.55c-0.035,0.347-0.189,0.655-0.422,0.882c-0.295,0.295-0.714,0.458-1.163,0.414
			c-0.794-0.079-1.375-0.788-1.296-1.583c0.008-0.086,0.024-0.171,0.047-0.251c0.09-0.318,0.285-0.591,0.543-0.776
			c0.152-0.113,0.328-0.194,0.517-0.239c0.151-0.036,0.313-0.048,0.477-0.031C22.401,78.043,22.981,78.753,22.902,79.55z"/>
	</g>
	<g>
		<path fill="#BC7258" d="M51.406,48.075l-3.83-3.545c0,0-7.191-6.987-13.005-4.301c-5.813,2.686-6.597,8.711-6.597,8.711
			s-0.82,9.479,5.674,9.87C40.144,59.201,51.406,48.075,51.406,48.075z"/>
		<path fill="#EED2B9" d="M33.648,58.811l3.592,2.384c1.078-1.625,2.336-0.662,2.336-0.662l4.185,2.651
			c0.944-0.494,1.063-1.886,1.063-1.886l6.441-1.036c0.837-2.45-2.256-7.127-2.256-7.127l-3.567-2.369
			c-2.139-1.419-4.883-3.336-6.296-1.207c-1.414,2.128,0.721,3.722,0.721,3.722l-6.618,2.988L33.648,58.811z"/>
		<polygon fill="#DBBAA1" points="51.406,48.075 45.442,50.766 51.409,54.788 		"/>
		
			<linearGradient id="SVGID_1_" gradientUnits="userSpaceOnUse" x1="-788.3237" y1="374.624" x2="-786.7129" y2="371.6466" gradientTransform="matrix(0.203 0.9792 0.9792 -0.203 -161.826 902.8604)">
			<stop  offset="0.0621" style="stop-color:#FFFFFF"/>
			<stop  offset="1" style="stop-color:#FFFFFF;stop-opacity:0"/>
		</linearGradient>
		<path fill="url(#SVGID_1_)" d="M41.356,52.917c0.389-0.081,2.103-0.189,2.616,2.284c0.512,2.474,1.061,5.117,1.061,5.117
			l-2.049,0.451C38.443,52.695,40.642,53.065,41.356,52.917z"/>
	</g>
	<rect x="34.896" y="78.74" fill="#A5686B" width="16.514" height="2.393"/>
	<polygon fill="#F39E9E" points="49.052,53.199 51.406,53.155 51.409,58.821 	"/>
	<linearGradient id="SVGID_2_" gradientUnits="userSpaceOnUse" x1="37.1982" y1="134.8564" x2="170.252" y2="134.8564">
		<stop  offset="0.0621" style="stop-color:#FFFFFF"/>
		<stop  offset="1" style="stop-color:#FFFFFF;stop-opacity:0"/>
	</linearGradient>
	<rect x="37.198" y="134.395" fill="url(#SVGID_2_)" width="133.054" height="0.924"/>
	<polygon fill="#F39E9E" points="51.409,58.821 51.409,82.13 46.462,83.279 	"/>
	<path fill="#5DA99D" d="M88.121,125.784c0,0-1.632,2.711-6.309,2.175c-1.16,2.893-7.98,6.412-7.98,6.412l0.807,1.395
		c9.327-0.467,11.519-3.958,11.519-3.958s1.343-0.867,1.248,0.561c-0.038,0.233,3.956-1.275,3.956-1.275
		S89.854,126.276,88.121,125.784z"/>
	
		<linearGradient id="SVGID_3_" gradientUnits="userSpaceOnUse" x1="45.6743" y1="113.459" x2="109.8177" y2="113.459" gradientTransform="matrix(-1 0 0 1 168 0)">
		<stop  offset="0.0621" style="stop-color:#FFFFFF"/>
		<stop  offset="1" style="stop-color:#FFFFFF;stop-opacity:0"/>
	</linearGradient>
	<circle fill="url(#SVGID_3_)" cx="83.775" cy="113.459" r="23.789"/>
	
		<linearGradient id="SVGID_4_" gradientUnits="userSpaceOnUse" x1="8.7876" y1="160.2236" x2="10.8748" y2="96.6618" gradientTransform="matrix(-1 0 0 1 168 0)">
		<stop  offset="0.0621" style="stop-color:#FFFFFF"/>
		<stop  offset="1" style="stop-color:#FFFFFF;stop-opacity:0"/>
	</linearGradient>
	<polygon fill="url(#SVGID_4_)" points="165.87,50.386 148.102,58.435 148.102,134.395 165.87,134.395 	"/>
	
		<linearGradient id="SVGID_5_" gradientUnits="userSpaceOnUse" x1="24.0693" y1="139.5693" x2="31.5566" y2="116.2922" gradientTransform="matrix(-1 0 0 1 168 0)">
		<stop  offset="0.0621" style="stop-color:#FFFFFF"/>
		<stop  offset="1" style="stop-color:#FFFFFF;stop-opacity:0"/>
	</linearGradient>
	<polygon fill="url(#SVGID_5_)" points="139.545,62.232 121.777,70.251 121.777,134.395 139.545,134.395 	"/>
</g>
</svg>
