<?xml version="1.0" encoding="utf-8"?>
<!-- Generator: Adobe Illustrator 15.0.0, SVG Export Plug-In . SVG Version: 6.00 Build 0)  -->
<!DOCTYPE svg PUBLIC "-//W3C//DTD SVG 1.1//EN" "http://www.w3.org/Graphics/SVG/1.1/DTD/svg11.dtd">
<svg version="1.1" id="Layer_1" xmlns="http://www.w3.org/2000/svg" xmlns:xlink="http://www.w3.org/1999/xlink" x="0px" y="0px"
	 width="185px" height="172px" viewBox="0 0 185 172" enable-background="new 0 0 185 172" xml:space="preserve">
<g>
	<polygon fill="#FFFFFF" points="185.264,27.322 185.264,83.504 177.031,75.712 103.463,153.435 55.679,108.202 104.807,56.306 
		111.503,62.646 135.947,36.824 125.911,27.322 	"/>
	<path fill="#192C6D" d="M97.736,41.628l-7.683-7.271c0,0-8.244,0.24-7.679,8.464c0.652,9.556,14.273,5.762,14.273,5.762v16.339
		c0,0-44.78,4.804-44.78-30.974c0-35.793,38.354-36.308,45.939-31.178c0,0-7.766,8.205-11.732,12.396
		c-3.963,4.187-0.229,7.282-0.229,7.282l10.405,9.847C102.406,38.125,97.736,41.628,97.736,41.628z"/>
	<polygon fill="#DBBAA1" points="96.647,48.583 124.618,48.792 124.618,75.06 	"/>
	<path fill="#EED2B9" d="M135.945,36.824l-11.327,11.968c0,0-12.912,14.048-27.971-0.209c0,0-13.62,3.795-14.272-5.761
		c-0.565-8.224,7.679-8.464,7.679-8.464l7.683,7.271c0,0,4.67-3.504-1.484-9.333l-10.404-9.847c0,0-3.735-3.095,0.228-7.282
		c3.967-4.191,11.732-12.396,11.732-12.396l6.579,6.226c0,0-0.821,3.876,3.303,4.713c4.124,0.833,13.403,2.888,13.403,2.888
		c-0.393,3.421-2.028,4.245-2.028,4.245L135.945,36.824z"/>
	<path fill="#9BA9D7" d="M124.618,75.06V48.792c0,0,10.888-5.138,19.835,5.313L124.618,75.06z"/>
	<polygon fill="#F39D9E" points="116.675,67.541 124.618,59.148 124.618,75.06 	"/>
	<polygon fill="#FFFFFF" points="96.647,104.609 124.618,75.06 124.618,131.085 	"/>
	<polygon fill="#F39D9E" points="124.618,131.085 113.471,120.533 124.618,75.06 	"/>
	<polygon fill="#DAE5F6" points="96.647,48.583 124.618,75.06 96.647,104.609 	"/>
	<path fill="#BDCBDB" d="M64.968,98.39l31.68-33.467v39.687C96.647,104.609,81.015,113.579,64.968,98.39z"/>
	<path fill="#DAE5F6" d="M84.781,117.146l11.866-12.536l27.971,26.476C118.913,137.113,103.959,135.298,84.781,117.146z"/>
	<path fill="#9BA9D7" d="M124.531,75.06h16.896c0,0,4.347,33.675-16.81,56.025L124.531,75.06z"/>
	<path fill="#9BA9D7" d="M124.61,131.094l-21.147,22.341l-47.784-45.232l9.289-9.811c16.048,15.188,31.681,6.217,31.681,6.217
		l-11.866,12.538C103.95,135.288,118.903,137.11,124.61,131.094z"/>
	
		<linearGradient id="SVGID_1_" gradientUnits="userSpaceOnUse" x1="-1072.4077" y1="32.4478" x2="-1066.8831" y2="22.236" gradientTransform="matrix(0.7071 -0.7071 0.7071 0.7071 846.5189 -744.194)">
		<stop  offset="0" style="stop-color:#FFFFFF;stop-opacity:0.81"/>
		<stop  offset="1" style="stop-color:#FFFFFF;stop-opacity:0"/>
	</linearGradient>
	<path fill="url(#SVGID_1_)" d="M99.17,35.518c0.81,0.81,4.765,3.782,9.91-1.364c5.146-5.146,10.644-10.644,10.644-10.644
		l-4.22-4.326C91.807,31.447,97.683,34.031,99.17,35.518z"/>
	<g>
		<polygon fill="#FFFFFF" points="55.679,73.358 55.679,108.202 37.272,90.78 18.867,73.358 		"/>
		<polygon fill="#FFFFFF" points="75.491,126.959 75.491,150.979 71.971,147.647 54.406,131.021 50.115,126.959 		"/>
		
			<linearGradient id="SVGID_2_" gradientUnits="userSpaceOnUse" x1="82.0186" y1="127.125" x2="48.8578" y2="160.2858" gradientTransform="matrix(0.9125 0.0651 0.1139 0.9077 -24.5282 16.7355)">
			<stop  offset="0.0621" style="stop-color:#FFFFFF"/>
			<stop  offset="1" style="stop-color:#FFFFFF;stop-opacity:0"/>
		</linearGradient>
		<polygon fill="url(#SVGID_2_)" points="70.542,141.923 55.903,157.367 41.266,172.813 36.013,167.834 30.76,162.856 
			45.397,147.411 60.035,131.966 65.288,136.944 		"/>
		
			<linearGradient id="SVGID_3_" gradientUnits="userSpaceOnUse" x1="32.1646" y1="46.5005" x2="-0.9941" y2="79.6591" gradientTransform="matrix(1.3318 0.4624 0.5332 1.3051 -27.0931 13.7922)">
			<stop  offset="0.0621" style="stop-color:#FFFFFF"/>
			<stop  offset="1" style="stop-color:#FFFFFF;stop-opacity:0"/>
		</linearGradient>
		<polygon fill="url(#SVGID_3_)" points="48.101,100.49 33.463,115.936 18.825,131.382 9.28,122.335 -0.264,113.29 14.374,97.845 
			29.012,82.401 38.557,91.446 		"/>
	</g>
</g>
</svg>
