<?xml version="1.0" encoding="utf-8"?>
<!-- Generator: Adobe Illustrator 16.0.0, SVG Export Plug-In . SVG Version: 6.00 Build 0)  -->
<!DOCTYPE svg PUBLIC "-//W3C//DTD SVG 1.1//EN" "http://www.w3.org/Graphics/SVG/1.1/DTD/svg11.dtd">
<svg version="1.1" id="Layer_1" xmlns="http://www.w3.org/2000/svg" xmlns:xlink="http://www.w3.org/1999/xlink" x="0px" y="0px"
	 width="48px" height="48px" viewBox="0 0 48 48" enable-background="new 0 0 48 48" xml:space="preserve">
<g>
	<path fill-rule="evenodd" clip-rule="evenodd" fill="#FFFFFF" d="M13.211,45.6c5.955,0,10.811-4.852,10.811-10.8
		S19.166,24,13.211,24C7.257,24,2.4,28.852,2.4,34.8S7.257,45.6,13.211,45.6z"/>
	
		<line fill-rule="evenodd" clip-rule="evenodd" fill="none" stroke="#B3C1D6" stroke-width="1.2798" stroke-linecap="round" stroke-miterlimit="10" x1="25.979" y1="39.218" x2="25.979" y2="21.884"/>
	
		<line fill-rule="evenodd" clip-rule="evenodd" fill="none" stroke="#B3C1D6" stroke-width="1.2798" stroke-linecap="round" stroke-miterlimit="10" x1="26.989" y1="21.755" x2="35.313" y2="39.218"/>
	
		<line fill-rule="evenodd" clip-rule="evenodd" fill="none" stroke="#B3C1D6" stroke-width="1.2798" stroke-linecap="round" stroke-miterlimit="10" x1="24.971" y1="21.755" x2="16.646" y2="39.218"/>
	
		<polyline fill-rule="evenodd" clip-rule="evenodd" fill="none" stroke="#B3C1D6" stroke-width="1.2798" stroke-linecap="round" stroke-linejoin="round" stroke-miterlimit="10" points="
		10.722,21.666 18.831,17.658 20.311,20.557 12.22,24.51 	"/>
	
		<polyline fill-rule="evenodd" clip-rule="evenodd" fill="none" stroke="#B3C1D6" stroke-width="1.2798" stroke-linecap="round" stroke-linejoin="round" stroke-miterlimit="10" points="
		31.004,16.184 20.682,21.281 18.461,16.933 28.782,11.832 	"/>
	
		<polygon fill-rule="evenodd" clip-rule="evenodd" fill="none" stroke="#B3C1D6" stroke-width="1.2798" stroke-linecap="round" stroke-linejoin="round" stroke-miterlimit="10" points="
		41.683,4.551 44.646,10.352 31.375,16.905 28.412,11.11 	"/>
	
		<line fill-rule="evenodd" clip-rule="evenodd" fill="none" stroke="#B3C1D6" stroke-width="1.2798" stroke-linecap="round" stroke-miterlimit="10" x1="12.943" y1="26.012" x2="9.979" y2="20.212"/>
	
		<path fill-rule="evenodd" clip-rule="evenodd" fill="none" stroke="#B3C1D6" stroke-width="1.2798" stroke-linecap="round" stroke-miterlimit="10" d="
		M29.821,16.766c0.103,0.355,0.158,0.73,0.158,1.119c0,2.209-1.791,4-4,4c-1.321,0-2.493-0.641-3.221-1.628"/>
</g>
</svg>
