<?xml version="1.0" encoding="utf-8"?>
<!-- Generator: Adobe Illustrator 16.0.0, SVG Export Plug-In . SVG Version: 6.00 Build 0)  -->
<!DOCTYPE svg PUBLIC "-//W3C//DTD SVG 1.1//EN" "http://www.w3.org/Graphics/SVG/1.1/DTD/svg11.dtd">
<svg version="1.1" id="Layer_1" xmlns="http://www.w3.org/2000/svg" xmlns:xlink="http://www.w3.org/1999/xlink" x="0px" y="0px"
	 width="53px" height="53px" viewBox="0 0 53 53" enable-background="new 0 0 53 53" xml:space="preserve">
<g>
	
		<circle fill-rule="evenodd" clip-rule="evenodd" fill="none" stroke="#5A405F" stroke-width="1.8505" stroke-linecap="round" stroke-linejoin="round" stroke-miterlimit="10" cx="26.4" cy="26.6" r="10.18"/>
	
		<path fill-rule="evenodd" clip-rule="evenodd" fill="none" stroke="#5A405F" stroke-width="1.8505" stroke-linecap="round" stroke-linejoin="round" stroke-miterlimit="10" d="
		M19.922,26.6c0-3.578,2.9-6.478,6.478-6.478"/>
	
		<circle fill-rule="evenodd" clip-rule="evenodd" fill="none" stroke="#5A405F" stroke-width="1.8505" stroke-linecap="round" stroke-linejoin="round" stroke-miterlimit="10" cx="5.116" cy="40.481" r="3.702"/>
	
		<circle fill-rule="evenodd" clip-rule="evenodd" fill="none" stroke="#5A405F" stroke-width="1.8505" stroke-linecap="round" stroke-linejoin="round" stroke-miterlimit="10" cx="43.983" cy="25.675" r="3.702"/>
	
		<path fill-rule="evenodd" clip-rule="evenodd" fill="none" stroke="#5A405F" stroke-width="1.8505" stroke-linecap="round" stroke-linejoin="round" d="
		M3.7,37.056c-0.257-0.559-0.495-1.128-0.712-1.707"/>
	
		<path fill-rule="evenodd" clip-rule="evenodd" fill="none" stroke="#5A405F" stroke-width="1.8505" stroke-linecap="round" stroke-linejoin="round" stroke-dasharray="3.7009,5.5514" d="
		M1.632,29.912c-0.143-1.084-0.218-2.188-0.218-3.313C1.414,12.8,12.601,1.614,26.4,1.614S51.386,12.8,51.386,26.6
		c0,13.8-11.186,24.986-24.985,24.986c-5.776,0-11.094-1.96-15.326-5.251"/>
	
		<path fill-rule="evenodd" clip-rule="evenodd" fill="none" stroke="#5A405F" stroke-width="1.8505" stroke-linecap="round" stroke-linejoin="round" d="
		M8.957,44.49c-0.441-0.431-0.867-0.877-1.276-1.34"/>
	
		<path fill-rule="evenodd" clip-rule="evenodd" fill="none" stroke="#5A405F" stroke-width="1.8505" stroke-linecap="round" stroke-linejoin="round" d="
		M43.767,29.366c-0.098,0.615-0.226,1.219-0.385,1.811"/>
	
		<path fill-rule="evenodd" clip-rule="evenodd" fill="none" stroke="#5A405F" stroke-width="1.8505" stroke-linecap="round" stroke-linejoin="round" stroke-dasharray="3.7009,5.5514" d="
		M41.079,36.282c-3.146,4.761-8.546,7.9-14.679,7.9c-9.71,0-17.583-7.872-17.583-17.583S16.69,9.017,26.4,9.017
		c6.478,0,12.139,3.503,15.188,8.719"/>
	
		<path fill-rule="evenodd" clip-rule="evenodd" fill="none" stroke="#5A405F" stroke-width="1.8505" stroke-linecap="round" stroke-linejoin="round" d="
		M42.806,20.263c0.223,0.572,0.414,1.16,0.576,1.759"/>
</g>
</svg>
