<?xml version="1.0" encoding="utf-8"?>
<!-- Generator: Adobe Illustrator 16.0.0, SVG Export Plug-In . SVG Version: 6.00 Build 0)  -->
<!DOCTYPE svg PUBLIC "-//W3C//DTD SVG 1.1//EN" "http://www.w3.org/Graphics/SVG/1.1/DTD/svg11.dtd">
<svg version="1.1" id="Layer_1" xmlns="http://www.w3.org/2000/svg" xmlns:xlink="http://www.w3.org/1999/xlink" x="0px" y="0px"
	 width="43px" height="41px" viewBox="0 0 43 41" enable-background="new 0 0 43 41" xml:space="preserve">
<g>
	
		<circle fill-rule="evenodd" clip-rule="evenodd" fill="none" stroke="#0E88B8" stroke-width="1.1744" stroke-linecap="round" stroke-linejoin="round" stroke-miterlimit="10" cx="25.124" cy="18.838" r="1.174"/>
	
		<circle fill-rule="evenodd" clip-rule="evenodd" fill="none" stroke="#0E88B8" stroke-width="1.1744" stroke-linecap="round" stroke-linejoin="round" stroke-miterlimit="10" cx="18.077" cy="18.838" r="1.174"/>
	
		<line fill-rule="evenodd" clip-rule="evenodd" fill="none" stroke="#0E88B8" stroke-width="1.1744" stroke-linecap="round" stroke-linejoin="round" stroke-miterlimit="10" x1="17.249" y1="18.01" x2="14.595" y2="15.357"/>
	
		<line fill-rule="evenodd" clip-rule="evenodd" fill="none" stroke="#0E88B8" stroke-width="1.1744" stroke-linecap="round" stroke-linejoin="round" stroke-miterlimit="10" x1="28.646" y1="15.315" x2="25.95" y2="18.011"/>
	
		<polyline fill-rule="evenodd" clip-rule="evenodd" fill="none" stroke="#0E88B8" stroke-width="1.1744" stroke-linecap="round" stroke-linejoin="round" stroke-miterlimit="10" points="
		32.17,8.268 28.646,8.268 28.646,15.315 35.693,15.315 35.693,11.792 	"/>
	
		<circle fill-rule="evenodd" clip-rule="evenodd" fill="none" stroke="#0E88B8" stroke-width="1.1744" stroke-miterlimit="10" cx="21.6" cy="30.582" r="3.523"/>
	
		<circle fill-rule="evenodd" clip-rule="evenodd" fill="none" stroke="#0E88B8" stroke-width="1.1744" stroke-miterlimit="10" cx="30.995" cy="30.582" r="3.523"/>
	
		<circle fill-rule="evenodd" clip-rule="evenodd" fill="none" stroke="#0E88B8" stroke-width="1.1744" stroke-miterlimit="10" cx="12.205" cy="30.582" r="3.523"/>
	
		<line fill-rule="evenodd" clip-rule="evenodd" fill="none" stroke="#0E88B8" stroke-width="1.1744" stroke-miterlimit="10" x1="18.077" y1="30.582" x2="15.728" y2="30.582"/>
	
		<line fill-rule="evenodd" clip-rule="evenodd" fill="none" stroke="#0E88B8" stroke-width="1.1744" stroke-miterlimit="10" x1="27.473" y1="30.582" x2="25.123" y2="30.582"/>
	<path fill-rule="evenodd" clip-rule="evenodd" fill="none" stroke="#0E88B8" stroke-width="1.1744" stroke-miterlimit="10" d="
		M8.682,30.582H7.507c-0.649,0-1.174-0.525-1.174-1.174V27.06c0-1.946,1.577-3.523,3.523-3.523h23.488
		c1.946,0,3.523,1.577,3.523,3.523v2.349c0,0.648-0.526,1.174-1.174,1.174h-1.175"/>
	
		<circle fill-rule="evenodd" clip-rule="evenodd" fill="none" stroke="#0E88B8" stroke-width="1.1744" stroke-miterlimit="10" cx="12.205" cy="30.582" r="1.175"/>
	
		<circle fill-rule="evenodd" clip-rule="evenodd" fill="none" stroke="#0E88B8" stroke-width="1.1744" stroke-miterlimit="10" cx="21.6" cy="30.582" r="1.174"/>
	
		<circle fill-rule="evenodd" clip-rule="evenodd" fill="none" stroke="#0E88B8" stroke-width="1.1744" stroke-miterlimit="10" cx="30.995" cy="30.582" r="1.175"/>
	
		<line fill-rule="evenodd" clip-rule="evenodd" fill="none" stroke="#0E88B8" stroke-width="1.1744" stroke-linecap="round" stroke-linejoin="round" stroke-miterlimit="10" x1="10.443" y1="11.205" x2="7.507" y2="8.268"/>
	
		<line fill-rule="evenodd" clip-rule="evenodd" fill="none" stroke="#0E88B8" stroke-width="1.1744" stroke-linecap="round" stroke-linejoin="round" stroke-miterlimit="10" x1="18.077" y1="23.536" x2="18.077" y2="20.013"/>
	
		<line fill-rule="evenodd" clip-rule="evenodd" fill="none" stroke="#0E88B8" stroke-width="1.1744" stroke-linecap="round" stroke-linejoin="round" stroke-miterlimit="10" x1="25.123" y1="23.536" x2="25.123" y2="20.013"/>
	
		<path fill-rule="evenodd" clip-rule="evenodd" fill="none" stroke="#0E88B8" stroke-width="1.1744" stroke-linecap="round" stroke-linejoin="round" stroke-miterlimit="10" d="
		M14.554,7.094c2.293,2.293,2.335,5.969,0.042,8.263c-2.293,2.293-5.97,2.251-8.263-0.042L14.554,7.094z"/>
</g>
</svg>
