<?xml version="1.0" encoding="utf-8"?>
<!-- Generator: Adobe Illustrator 15.0.0, SVG Export Plug-In . SVG Version: 6.00 Build 0)  -->
<!DOCTYPE svg PUBLIC "-//W3C//DTD SVG 1.1//EN" "http://www.w3.org/Graphics/SVG/1.1/DTD/svg11.dtd">
<svg version="1.1" id="Layer_1" xmlns="http://www.w3.org/2000/svg" xmlns:xlink="http://www.w3.org/1999/xlink" x="0px" y="0px"
	 width="94px" height="96px" viewBox="0 0 94 96" enable-background="new 0 0 94 96" xml:space="preserve">
<g>
	<g>
		<g>
			<path fill-rule="evenodd" clip-rule="evenodd" fill="#EBDAEC" d="M47.192,9.629c-12.618,0-23.813,6.09-30.804,15.491
				c-0.591,0.795-1.15,1.611-1.675,2.448c-1.65,2.617-2.993,5.451-3.977,8.444c-0.459,1.386-0.838,2.805-1.135,4.256
				c-0.013,0.049-0.02,0.096-0.029,0.146l6.819,3.708l-7.493,1.448C8.847,46.374,8.822,47.185,8.822,48
				c0,4.305,0.71,8.444,2.017,12.306c0.009,0.031,0.019,0.063,0.031,0.091c2.217,6.499,6.131,12.215,11.215,16.616
				c0.003,0.006,0.009,0.013,0.016,0.016c2.276,1.968,4.783,3.674,7.48,5.071h0.003c5.274,2.729,11.261,4.271,17.608,4.271
				c21.191,0,38.367-17.18,38.367-38.37C85.559,26.809,68.383,9.629,47.192,9.629L47.192,9.629z M15.453,32.293L15.453,32.293
				l-0.24-2.341c0.931,3.361,3.151,7.666,8.4,10.108c0.594,2.676,3.333,5.026,3.333,5.026c-5.305,2.223-6.822,17.43-6.822,17.43
				C16.46,48.288,15.453,32.293,15.453,32.293z"/>
		</g>
		<path fill-rule="evenodd" clip-rule="evenodd" fill="#CA81B2" d="M26.945,41.281c0,0,0,1.486,0,3.805c0,0-2.739-2.35-3.333-5.026
			c-0.075-0.329-0.116-0.66-0.116-0.995l3.448,2.169L26.945,41.281z"/>
		<path fill-rule="evenodd" clip-rule="evenodd" fill="#56A79A" d="M33.308,45.088v25.617h-6.362V41.237
			c0.005,3.171,3.474,3.761,5.285,3.851C32.871,45.117,33.308,45.088,33.308,45.088z"/>
		<path fill-rule="evenodd" clip-rule="evenodd" fill="#56A79A" d="M33.308,45.088c0,0-0.437,0.029-1.078,0H33.308z"/>
		<rect x="36.968" y="46.283" fill-rule="evenodd" clip-rule="evenodd" fill="#6A60A8" width="6.362" height="24.424"/>
		<rect x="46.525" y="33.913" fill-rule="evenodd" clip-rule="evenodd" fill="#C3406F" width="6.362" height="36.794"/>
		<rect x="56.898" y="42.128" fill-rule="evenodd" clip-rule="evenodd" fill="#8FA0BF" width="6.363" height="28.579"/>
		<path fill-rule="evenodd" clip-rule="evenodd" fill="#56A79A" d="M32.23,45.088h1.078C33.308,45.088,32.871,45.117,32.23,45.088z"
			/>
		<path fill-rule="evenodd" clip-rule="evenodd" fill="#56A79A" d="M33.308,27.634c0,0-0.814,13.603-6.362,13.603V27.634H33.308z"/>
		<path fill-rule="evenodd" clip-rule="evenodd" fill="#CA81B2" d="M26.945,45.086v25.621h-4.289
			c-0.003-0.002-0.003-0.006-0.007-0.01c-1.585-2.686-2.442-7.684-2.52-8.146c0-0.011-0.003-0.023-0.006-0.035
			C20.124,62.516,21.64,47.309,26.945,45.086z"/>
		<path fill-rule="evenodd" clip-rule="evenodd" fill="#BC7A4E" d="M17.742,22.345v-2.564l1.058-0.659c0,0,0,1.543,0,2.383
			C18.8,22.345,17.742,22.345,17.742,22.345z"/>
		<linearGradient id="SVGID_1_" gradientUnits="userSpaceOnUse" x1="30.1255" y1="77.7588" x2="30.1255" y2="57.1636">
			<stop  offset="0" style="stop-color:#FFFFFF;stop-opacity:0.85"/>
			<stop  offset="0.2417" style="stop-color:#FCFCFD;stop-opacity:0.6445"/>
			<stop  offset="1" style="stop-color:#F7F6F8;stop-opacity:0"/>
			<stop  offset="1" style="stop-color:#FFFFFF;stop-opacity:0"/>
		</linearGradient>
		<rect x="26.944" y="45.987" fill-rule="evenodd" clip-rule="evenodd" fill="url(#SVGID_1_)" width="6.362" height="24.72"/>
		<path fill-rule="evenodd" clip-rule="evenodd" fill="#7F79B8" d="M43.33,53.397v17.31h-6.362
			C36.968,70.707,36.968,53.397,43.33,53.397z"/>
		<path fill-rule="evenodd" clip-rule="evenodd" fill="#BCC8E8" d="M63.263,42.127v28.58c-6.362,0-6.362-17.536-6.362-17.536V42.127
			H63.263z"/>
		<path fill-rule="evenodd" clip-rule="evenodd" fill="#F7C0C0" d="M46.525,53.327l-0.017-19.415h6.363
			C52.871,33.913,52.887,53.327,46.525,53.327z"/>
		<path fill-rule="evenodd" clip-rule="evenodd" fill="#EED2B9" d="M26.945,25.13v16.104c-0.044-0.008-0.084-0.021-0.125-0.034
			c-1.179-0.303-2.244-0.691-3.208-1.141c-5.25-2.442-7.47-6.747-8.4-10.108c-0.238-0.844-0.391-1.629-0.488-2.311
			c-0.007-0.025-0.009-0.046-0.012-0.072c-0.212-1.475-0.172-2.448-0.172-2.448h1.848L26.945,25.13z"/>
		<path fill-rule="evenodd" clip-rule="evenodd" fill="#DBB8A0" d="M14.531,25.12c0,0-0.427,10.447,8.982,14.899
			c-1.454-8.465,3.433-7.336,3.433-7.336l0.007-7.551L14.531,25.12z"/>
		<path fill-rule="evenodd" clip-rule="evenodd" fill="#BC7A4E" d="M29.976,14.95V9.723c-3.848,2.856-17.06-0.451-17.06,9.128
			c0,3.769,0.147,8.781,3.091,8.781l-0.028-1.983L29.976,14.95z"/>
		<path fill-rule="evenodd" clip-rule="evenodd" fill="#EED2B9" d="M29.976,22.758l-1.486,9.926h-1.474
			c-9.691-1.5-11.01-5.053-11.01-5.053v-2.668c-2.248-2.383-0.099-6.134,2.793-4.988l-0.004-3.3
			c5.338,1.941,9.021-1.294,9.021-1.294s2.116-1.726,2.116-0.433v4.199c0,0-0.661,0.16-0.661,1.173
			C29.271,21.335,29.976,22.758,29.976,22.758z"/>
		<path fill-rule="evenodd" clip-rule="evenodd" fill="#A86236" d="M29.976,9.723v5.228l-0.044,0.035v-0.038
			c0-1.291-2.114,0.436-2.114,0.436s-3.683,3.235-9.022,1.294C18.795,16.676,29.976,14.473,29.976,9.723z"/>
		<linearGradient id="SVGID_2_" gradientUnits="userSpaceOnUse" x1="20.0107" y1="27.2705" x2="23.0295" y2="23.2277">
			<stop  offset="0.1232" style="stop-color:#FFFFFF;stop-opacity:0.85"/>
			<stop  offset="0.3351" style="stop-color:#FCFCFD;stop-opacity:0.6445"/>
			<stop  offset="1" style="stop-color:#F7F6F8;stop-opacity:0"/>
			<stop  offset="1" style="stop-color:#FFFFFF;stop-opacity:0"/>
		</linearGradient>
		<path fill-rule="evenodd" clip-rule="evenodd" fill="url(#SVGID_2_)" d="M17.765,23.147c0,0.472,0.287,2.491,3.286,2.491
			c3,0,6.204,0,6.204,0l0.031-2.491C16.806,19.814,17.765,22.28,17.765,23.147z"/>
		<path fill-rule="evenodd" clip-rule="evenodd" fill="#DBB8A0" d="M26.945,32.683l-0.002-16.693
			c0.193-0.036,2.988-2.51,2.988-1.041l-0.044,4.239c0,0-0.666,0.133-0.666,1.158c0,1.022,0.709,2.488,0.709,2.488l-1.442,9.851
			L26.945,32.683z"/>
		<path fill-rule="evenodd" clip-rule="evenodd" fill="#BC7A4E" d="M17.742,22.768v-2.958l1.058-0.76c0,0,0,1.781,0,2.75
			S17.742,22.768,17.742,22.768z"/>
		<rect x="20.74" y="70.707" fill-rule="evenodd" clip-rule="evenodd" fill="#CA81B2" width="51.537" height="0.799"/>
		<path fill-rule="evenodd" clip-rule="evenodd" fill="#8CCCBF" d="M29.581,82.1c-2.479-1.163-5.039-2.885-7.48-5.071
			c-0.006-0.003-0.013-0.01-0.016-0.016c-4.625-4.136-8.817-9.916-11.215-16.616c-0.012-0.028-0.022-0.06-0.031-0.091
			c-1.626-4.565-2.414-9.552-1.941-14.735l7.493-1.448l-6.819-3.708c0.009-0.05,0.016-0.097,0.029-0.146
			c0.253-1.448,0.657-2.89,1.135-4.256c1.375-3.97,3.339-7.318,3.989-8.372c0.134-0.225,0.212-0.344,0.212-0.344l0.275,2.655
			l0.24,2.341c0,0,1.007,15.995,4.671,30.223c0.003,0.012,0.006,0.024,0.006,0.035c0.732,2.833,1.566,5.596,2.52,8.146
			c0.003,0.004,0.003,0.008,0.007,0.01C24.495,75.618,26.771,79.752,29.581,82.1z"/>
	</g>
</g>
</svg>
