<?xml version="1.0" encoding="utf-8"?>
<!-- Generator: Adobe Illustrator 15.0.0, SVG Export Plug-In . SVG Version: 6.00 Build 0)  -->
<!DOCTYPE svg PUBLIC "-//W3C//DTD SVG 1.1//EN" "http://www.w3.org/Graphics/SVG/1.1/DTD/svg11.dtd">
<svg version="1.1" id="Layer_1" xmlns="http://www.w3.org/2000/svg" xmlns:xlink="http://www.w3.org/1999/xlink" x="0px" y="0px"
	 width="360px" height="216px" viewBox="0 0 360 216" enable-background="new 0 0 360 216" xml:space="preserve">
<g>
	<g>
		
			<line fill="none" stroke="#4F5199" stroke-width="0.9998" stroke-miterlimit="10" x1="55.161" y1="124.15" x2="120.577" y2="124.15"/>
		<g>
			
				<linearGradient id="SVGID_1_" gradientUnits="userSpaceOnUse" x1="235.2031" y1="57.7612" x2="356.7229" y2="57.7612" gradientTransform="matrix(1 0 0 1 -224.0439 0)">
				<stop  offset="0" style="stop-color:#E191A2;stop-opacity:0.86"/>
				<stop  offset="0.2318" style="stop-color:#E8AFBA;stop-opacity:0.6581"/>
				<stop  offset="0.7475" style="stop-color:#F8E9EC;stop-opacity:0.2088"/>
				<stop  offset="0.9872" style="stop-color:#FFFFFF;stop-opacity:0"/>
				<stop  offset="1" style="stop-color:#B9AAA0;stop-opacity:0.2714"/>
			</linearGradient>
			<circle fill="url(#SVGID_1_)" cx="67.274" cy="57.761" r="56.115"/>
		</g>
		<linearGradient id="SVGID_2_" gradientUnits="userSpaceOnUse" x1="55.7612" y1="88.8281" x2="159.1668" y2="235.6318">
			<stop  offset="0" style="stop-color:#59383E;stop-opacity:0.86"/>
			<stop  offset="0.2797" style="stop-color:#A68D92;stop-opacity:0.4836"/>
			<stop  offset="0.5256" style="stop-color:#E6DDDE;stop-opacity:0.1526"/>
			<stop  offset="0.6389" style="stop-color:#FFFFFF;stop-opacity:0"/>
			<stop  offset="1" style="stop-color:#B9AAA0;stop-opacity:0.2714"/>
		</linearGradient>
		<rect x="40.472" y="123.598" fill="url(#SVGID_2_)" width="121.816" height="59.99"/>
		
			<line fill="#086FB4" stroke="#FFFFFF" stroke-width="0.3333" stroke-miterlimit="10" x1="122.958" y1="71.255" x2="115.023" y2="76.252"/>
		<path fill="#C5CFEB" d="M140.806,115.068c11.363,0,10.228-22.132,9.296-32.604c-0.199-2.237-2.742-12.781-10.975-12.781
			c-1.884,0-35.17-0.025-35.17-0.025L140.806,115.068z"/>
		<linearGradient id="SVGID_3_" gradientUnits="userSpaceOnUse" x1="117.9556" y1="92.3633" x2="164.6519" y2="92.3633">
			<stop  offset="0" style="stop-color:#59383E;stop-opacity:0.86"/>
			<stop  offset="0.2797" style="stop-color:#A68D92;stop-opacity:0.4836"/>
			<stop  offset="0.5256" style="stop-color:#E6DDDE;stop-opacity:0.1526"/>
			<stop  offset="0.6389" style="stop-color:#FFFFFF;stop-opacity:0"/>
			<stop  offset="1" style="stop-color:#B9AAA0;stop-opacity:0.2714"/>
		</linearGradient>
		<path fill="url(#SVGID_3_)" d="M140.806,115.068c11.363,0,10.228-22.132,9.296-32.604c-0.199-2.237-2.742-12.781-10.975-12.781
			c-1.884,0-35.17-0.025-35.17-0.025L140.806,115.068z"/>
		<path fill="#E4F1F3" d="M119.729,119.953l-14.078,0.002L95.583,74.071c0,0,9.288-8.687,26.292-3.404"/>
		<path fill="#242F66" d="M134.388,74.339l-0.956,46.141l-17.584,0.021h-0.003v-9.787l-0.003-30.903l-0.065-10.404
			c0,0,1.749-0.142,6.161,0.951C125.702,71.082,129.854,72.342,134.388,74.339z"/>
		<path fill="#F2D8C0" d="M102.543,62.429c0,0-0.559,13.685,13.226,17.179V62.441L102.543,62.429z"/>
		<linearGradient id="SVGID_4_" gradientUnits="userSpaceOnUse" x1="111.2905" y1="64.3892" x2="108.4237" y2="73.2606">
			<stop  offset="0" style="stop-color:#4E2E1F;stop-opacity:0.82"/>
			<stop  offset="0.2462" style="stop-color:#4A2C1C;stop-opacity:0.6181"/>
			<stop  offset="1" style="stop-color:#422817;stop-opacity:0"/>
		</linearGradient>
		<path opacity="0.45" fill="url(#SVGID_4_)" d="M102.535,62.429c0,0-0.558,13.685,13.226,17.179l0.017-17.167L102.535,62.429z"/>
		<path fill="#F4A3A5" d="M112.117,114.521c0,6.836-6.787-13.647-6.787-13.647s1.13-16.136,6.787-18.506
			c0,0-3.676-3.158-3.676-6.422l3.676,2.365C112.117,78.311,112.117,107.684,112.117,114.521z"/>
		<path fill="#6A69AE" d="M146.583,136.498c0,5.822-8.802,10.545-19.659,10.545c-10.858,0-19.66-4.723-19.66-10.545H146.583z"/>
		<linearGradient id="SVGID_5_" gradientUnits="userSpaceOnUse" x1="128.1216" y1="149.541" x2="128.3285" y2="167.4346">
			<stop  offset="0" style="stop-color:#50485D;stop-opacity:0.86"/>
			<stop  offset="0.2568" style="stop-color:#787285;stop-opacity:0.6363"/>
			<stop  offset="0.7554" style="stop-color:#D4D1D9;stop-opacity:0.202"/>
			<stop  offset="0.9872" style="stop-color:#FFFFFF;stop-opacity:0"/>
			<stop  offset="1" style="stop-color:#B9AAA0;stop-opacity:0.2714"/>
		</linearGradient>
		<rect x="126.665" y="147.615" fill="url(#SVGID_5_)" width="3.094" height="19.408"/>
		
			<linearGradient id="SVGID_6_" gradientUnits="userSpaceOnUse" x1="126.98" y1="3602.8018" x2="126.9127" y2="3592.2063" gradientTransform="matrix(1 0 0 -1 0 3768.125)">
			<stop  offset="0" style="stop-color:#E191A2;stop-opacity:0.86"/>
			<stop  offset="0.2318" style="stop-color:#E8AFBA;stop-opacity:0.6581"/>
			<stop  offset="0.7475" style="stop-color:#F8E9EC;stop-opacity:0.2088"/>
			<stop  offset="0.9872" style="stop-color:#FFFFFF;stop-opacity:0"/>
			<stop  offset="1" style="stop-color:#B9AAA0;stop-opacity:0.2714"/>
		</linearGradient>
		<path fill="url(#SVGID_6_)" d="M146.583,174.197c0-3.963-8.802-7.174-19.659-7.174c-10.858,0-19.66,3.211-19.66,7.174H146.583z"/>
		<path fill="#C5CFEB" d="M107.265,136.498c0-5.826,8.802-10.545,19.66-10.545c10.857,0,19.659,4.719,19.659,10.545H107.265z"/>
		<path fill="#242F66" d="M140.81,123.598c0,0,7.707,34.191-62.348,14.406c0,0,12.842-14.406,24.74-14.406
			C115.099,123.598,140.81,123.598,140.81,123.598z"/>
		<path fill="#242F66" d="M78.461,138.004v53.082h7.25c0,0,10.056-8.326,10.056-53.082H78.461z"/>
		<path fill="#FFFFFF" d="M139.525,120.506"/>
		<path fill="#086FB4" d="M132.349,74.113c9.786,0,8.457,11.518,8.457,19.41v26.982h-12.443c0,0-0.151-15.463-0.151-29.177
			C128.212,91.329,128.203,74.113,132.349,74.113z"/>
		<path fill="#086FB4" stroke="#FFFFFF" stroke-width="0.3333" stroke-miterlimit="10" d="M115.849,120.502
			c-0.003,0.006-0.003,0.01-0.003,0.01v-0.01H115.849z"/>
		<path fill="#242F66" d="M95.008,74.505c-4.087,30.888,9.244,46,9.244,46s18.972,0.012,13.877,0
			c-3.726-0.01-28.43-26.949-17.465-49.488C99.23,71.238,95.008,74.505,95.008,74.505z"/>
		<path fill="#2C9DD5" d="M140.806,120.506c0-10.145-13.83-11.25-31.541-4.971v4.971h25.123H140.806z"/>
		<path fill="#F2D8C0" d="M113.892,119.525h-13.253C102.986,113.834,113.664,114.309,113.892,119.525z"/>
		<path fill="#086FB4" d="M95.008,74.505c0,0-16.547,16.347-16.547,31.686c0,7.147,5.713,14.315,5.713,14.315l10.891,0.002
			l-0.029-23.216L95.008,74.505z"/>
		<path fill="#242F66" d="M84.174,120.506c0.019-7.572,10.813-6.889,10.795-0.098L84.174,120.506z"/>
		<path fill="#F18A5F" d="M87.788,120.508c0-5.379,8.699-3.998,8.699-0.002L87.788,120.508z"/>
		<path fill="#F2D8C0" d="M87.788,117.373c0-5.375,8.699-3.848,8.699,0.146C96.486,121.369,87.788,117.373,87.788,117.373z"/>
		<path fill="#C5CFEB" d="M140.806,115.068"/>
		
			<circle opacity="0.5" fill="none" stroke="#086FB4" stroke-width="1.3331" stroke-miterlimit="10" cx="146.385" cy="175.125" r="2.63"/>
		
			<circle opacity="0.5" fill="none" stroke="#086FB4" stroke-width="1.3331" stroke-miterlimit="10" cx="128.608" cy="175.125" r="2.63"/>
		
			<circle opacity="0.5" fill="none" stroke="#086FB4" stroke-width="1.3331" stroke-miterlimit="10" cx="109.121" cy="175.125" r="2.63"/>
		<path opacity="0.5" fill="none" stroke="#086FB4" stroke-width="1.3331" stroke-miterlimit="10" d="M143.215,170.75
			c0,0-12.335-11.943-32.076,0"/>
		<linearGradient id="SVGID_7_" gradientUnits="userSpaceOnUse" x1="69.1616" y1="103.3691" x2="122.9004" y2="42.1613">
			<stop  offset="0" style="stop-color:#F6F6F6;stop-opacity:0.64"/>
			<stop  offset="0.1838" style="stop-color:#F7F7F7;stop-opacity:0.5224"/>
			<stop  offset="1" style="stop-color:#FBFCFC;stop-opacity:0"/>
		</linearGradient>
		<polygon fill="url(#SVGID_7_)" points="85.838,108.928 85.838,87.725 55.15,87.725 110.657,32.217 136.6,58.163 		"/>
		<path opacity="0.5" fill="none" stroke="#51529A" stroke-width="0.9998" stroke-miterlimit="10" d="M144.054,136.697
			c0,0-8.666,14.822-30.893,8.633"/>
		
			<linearGradient id="SVGID_8_" gradientUnits="userSpaceOnUse" x1="-111.2207" y1="4321.7656" x2="-84.7383" y2="4321.7656" gradientTransform="matrix(-0.3915 0.3939 -0.392 -0.3896 1725.8848 1843.1765)">
			<stop  offset="0" style="stop-color:#422817;stop-opacity:0.86"/>
			<stop  offset="0.4636" style="stop-color:#958072;stop-opacity:0.4561"/>
			<stop  offset="0.822" style="stop-color:#DED7D2;stop-opacity:0.1439"/>
			<stop  offset="0.9872" style="stop-color:#FFFFFF;stop-opacity:0"/>
		</linearGradient>
		<path opacity="0.52" fill="url(#SVGID_8_)" d="M59.738,120.881c5.725-5.762,15.013-5.814,20.746-0.117"/>
		<linearGradient id="SVGID_9_" gradientUnits="userSpaceOnUse" x1="85.8384" y1="98.3818" x2="46.0763" y2="98.3818">
			<stop  offset="0" style="stop-color:#42283F;stop-opacity:0.86"/>
			<stop  offset="0.4055" style="stop-color:#887589;stop-opacity:0.5113"/>
			<stop  offset="0.8112" style="stop-color:#D9D3DB;stop-opacity:0.1624"/>
			<stop  offset="1" style="stop-color:#FFFFFF;stop-opacity:0"/>
		</linearGradient>
		<rect x="54.383" y="87.725" opacity="0.75" fill="url(#SVGID_9_)" width="31.456" height="21.314"/>
		<linearGradient id="SVGID_10_" gradientUnits="userSpaceOnUse" x1="62.5684" y1="109.0361" x2="70.1104" y2="109.0361">
			<stop  offset="0" style="stop-color:#422817;stop-opacity:0.86"/>
			<stop  offset="0.4636" style="stop-color:#958072;stop-opacity:0.4561"/>
			<stop  offset="0.822" style="stop-color:#DED7D2;stop-opacity:0.1439"/>
			<stop  offset="0.9872" style="stop-color:#FFFFFF;stop-opacity:0"/>
		</linearGradient>
		<path opacity="0.75" fill="url(#SVGID_10_)" d="M70.11,118.906v-19.74h-7.542C62.568,99.166,64.04,115.965,70.11,118.906
			L70.11,118.906z"/>
		<rect x="100.665" y="119.482" fill="#F6F6F6" width="33.723" height="1.023"/>
		<rect x="40.472" y="120.506" fill="#F4A3A5" width="121.816" height="3.092"/>
		<linearGradient id="SVGID_11_" gradientUnits="userSpaceOnUse" x1="48.5903" y1="124.0684" x2="48.5903" y2="180.2747">
			<stop  offset="0" style="stop-color:#42283F;stop-opacity:0.86"/>
			<stop  offset="0.4055" style="stop-color:#887589;stop-opacity:0.5113"/>
			<stop  offset="0.8112" style="stop-color:#D9D3DB;stop-opacity:0.1624"/>
			<stop  offset="1" style="stop-color:#FFFFFF;stop-opacity:0"/>
		</linearGradient>
		<rect x="47.043" y="123.598" opacity="0.75" fill="url(#SVGID_11_)" width="3.095" height="59.99"/>
		<path fill="none" stroke="#E4F1F3" stroke-width="0.6666" stroke-miterlimit="10" d="M73.904,106.867
			c0.041,13.28,10.373,23.305,23.72,23.264"/>
		<circle fill="none" stroke="#E4F1F3" stroke-width="0.3333" stroke-miterlimit="10" cx="73.905" cy="106.867" r="0.515"/>
		<path fill="#2C9DD5" d="M94.364,146.488c7.679,13.727,26.018,46.268,26.018,46.268l6.32-3.555c0,0-8.406-42.348-17.254-51.197
			C100.601,129.156,90.317,139.256,94.364,146.488z"/>
		<path fill="#60280F" d="M118.999,51.588v-2.851c-12.51-8.417-26.859,5.173-14.955,16.37l-0.029-2.115L118.999,51.588z"/>
		<path fill="#F2D8C0" d="M118.999,59.911l-1.583,10.582h-1.572c-10.33-1.598-11.736-5.386-11.736-5.386v-2.113
			c-3.693-3.693,0.101-6.048,1.591-6.048l-0.005-3.518c5.692,2.07,11.004-1.38,11.004-1.38s2.254-1.84,2.254-0.461v4.476
			c0,0-0.704,0.17-0.704,1.25C118.249,58.393,118.999,59.911,118.999,59.911z"/>
		<path fill="#CDB4A0" d="M115.844,70.493V52.521c0.204-0.038,3.155-2.485,3.155-0.933l-0.046,4.475c0,0-0.704,0.141-0.704,1.222
			c0,1.081,0.75,2.626,0.75,2.626l-1.569,10.584L115.844,70.493z"/>
		<linearGradient id="SVGID_12_" gradientUnits="userSpaceOnUse" x1="109.7861" y1="63.5068" x2="110.9028" y2="61.4427">
			<stop  offset="0.0621" style="stop-color:#FFFFFF"/>
			<stop  offset="1" style="stop-color:#FFFFFF;stop-opacity:0"/>
		</linearGradient>
		<path opacity="0.45" fill="url(#SVGID_12_)" d="M105.982,60.326c0,0.502,0.306,2.655,3.504,2.655c3.197,0,6.614,0,6.614,0
			l0.032-2.655C104.959,56.772,105.982,59.401,105.982,60.326z"/>
		<path fill="#CDB4A0" d="M112.116,78.313c1.087,0.514,2.296,0.953,3.644,1.294l0.017-9.066l-3.66-0.78L112.116,78.313z"/>
		<rect x="118.606" y="89.161" fill="#238FCF" width="6.89" height="1.433"/>
		
			<linearGradient id="SVGID_13_" gradientUnits="userSpaceOnUse" x1="193.4033" y1="209.4609" x2="194.2073" y2="183.018" gradientTransform="matrix(-1 0 0 1 267.4902 0)">
			<stop  offset="0" style="stop-color:#42253E;stop-opacity:0.86"/>
			<stop  offset="0.0156" style="stop-color:#442740;stop-opacity:0.8466"/>
			<stop  offset="0.5067" style="stop-color:#998695;stop-opacity:0.4242"/>
			<stop  offset="0.8444" style="stop-color:#DFD9DE;stop-opacity:0.1338"/>
			<stop  offset="1" style="stop-color:#FFFFFF;stop-opacity:0"/>
		</linearGradient>
		<path fill="url(#SVGID_13_)" d="M85.954,196.131c0,0,1.655,4.783,1.012,7.818c0,0-5.86,0.527-8.048-0.186l0.046-1.102
			c0,0-0.005-2.646-8.953,1.203l-9.35-0.285l0.184-2.76c0,0,8.259,0.424,15.176-7.541C81.057,187.482,77.769,200.27,85.954,196.131z
			"/>
		
			<linearGradient id="SVGID_14_" gradientUnits="userSpaceOnUse" x1="-15.7246" y1="239.9717" x2="-14.9208" y2="213.5328" gradientTransform="matrix(-0.7071 0.7071 0.7071 0.7071 -50.6362 50.3366)">
			<stop  offset="0" style="stop-color:#42253E;stop-opacity:0.86"/>
			<stop  offset="0.0156" style="stop-color:#442740;stop-opacity:0.8466"/>
			<stop  offset="0.5067" style="stop-color:#998695;stop-opacity:0.4242"/>
			<stop  offset="0.8444" style="stop-color:#DFD9DE;stop-opacity:0.1338"/>
			<stop  offset="1" style="stop-color:#FFFFFF;stop-opacity:0"/>
		</linearGradient>
		<path fill="url(#SVGID_14_)" d="M129.133,191.086c0,0,4.553,2.211,6.244,4.811c0,0-3.771,4.518-5.821,5.563l-0.748-0.813
			c0,0-1.875-1.867-5.479,7.182l-6.813,6.412l-1.821-2.082c0,0,6.139-5.543,5.398-16.064
			C119.555,188.436,126.272,199.801,129.133,191.086z"/>
		
			<linearGradient id="SVGID_15_" gradientUnits="userSpaceOnUse" x1="154.0894" y1="133.5654" x2="154.0894" y2="230.8778" gradientTransform="matrix(1 0 0 1 0 -9.5898)">
			<stop  offset="0" style="stop-color:#42253E;stop-opacity:0.86"/>
			<stop  offset="0.0156" style="stop-color:#442740;stop-opacity:0.8466"/>
			<stop  offset="0.5067" style="stop-color:#998695;stop-opacity:0.4242"/>
			<stop  offset="0.8444" style="stop-color:#DFD9DE;stop-opacity:0.1338"/>
			<stop  offset="1" style="stop-color:#FFFFFF;stop-opacity:0"/>
		</linearGradient>
		<rect x="152.654" y="123.342" opacity="0.75" fill="url(#SVGID_15_)" width="2.872" height="80.758"/>
		<path fill="#2C9DD5" d="M100.665,71.018c0,0-0.742,24.803,11.452,43.558l-0.817,0.266C111.3,114.842,89.863,92.363,100.665,71.018
			z"/>
		<circle fill="none" stroke="#FFFFFF" stroke-width="1.3331" stroke-miterlimit="10" cx="92.952" cy="39.425" r="2.63"/>
		<g>
			<path fill="#E5E4E4" d="M113.063,135.424c-0.457,1.984-4.569-1.955-4.569-1.955l-1.553-1.541l-1.936-1.01
				c0,0-5.006-2.719-3.257-3.756c1.75-1.037,2.848-0.396,4.04,0.477c0.647,0.473,0.174,0.816,0.43,1.004
				c0.253,0.186,2.037,1.49,2.037,1.49s1.783,1.299,2.04,1.486c0.256,0.186,0.44-0.371,1.087,0.098
				C112.574,132.592,113.517,133.441,113.063,135.424z"/>
			<path fill="#FFFFFF" d="M113.063,135.424c-0.124,1.84-1.616,5.793-2.819,7.615c-0.863,1.316-2.95,1.932-3.329-0.289
				c-0.384-2.221-0.486-3.256-0.864-3.529c-0.373-0.273-2.873-2.137-2.873-2.137s-2.536-1.813-2.909-2.086
				c-0.376-0.273-1.396-0.057-3.626,0.254c-2.233,0.311-2.279-1.861-1.291-3.086c1.37-1.697,4.68-4.328,6.396-5.004
				c0.911-0.359,2.441,0.334,3.375,1.016c1.152,0.844-1.127,1.748,1.819,3.75c2.805,2.195,2.973-0.25,4.126,0.594
				C112,133.201,113.127,134.447,113.063,135.424z"/>
			<circle fill="#F4A3A5" cx="102.626" cy="129.778" r="1.402"/>
			<circle fill="#5EA79C" cx="110.305" cy="135.384" r="1.402"/>
			<circle fill="#A8A5A4" cx="103.701" cy="133.488" r="0.96"/>
			<circle fill="#A8A5A4" cx="106.653" cy="135.644" r="0.961"/>
		</g>
	</g>
	<g>
		<g>
			
				<linearGradient id="SVGID_16_" gradientUnits="userSpaceOnUse" x1="389.0186" y1="-396.7114" x2="490.8341" y2="-426.6905" gradientTransform="matrix(0 -1 1 0 703.3774 489.9492)">
				<stop  offset="0" style="stop-color:#00A19A;stop-opacity:0.65"/>
				<stop  offset="0.4636" style="stop-color:#A6D0CC;stop-opacity:0.3448"/>
				<stop  offset="0.822" style="stop-color:#E8F2F1;stop-opacity:0.1088"/>
				<stop  offset="0.9872" style="stop-color:#FFFFFF;stop-opacity:0"/>
				<stop  offset="1" style="stop-color:#B9AAA0;stop-opacity:0.2714"/>
			</linearGradient>
			<circle fill="url(#SVGID_16_)" cx="291.821" cy="50.515" r="49.012"/>
		</g>
		<linearGradient id="SVGID_17_" gradientUnits="userSpaceOnUse" x1="319.2197" y1="31.6323" x2="319.1983" y2="32.7484">
			<stop  offset="0" style="stop-color:#F6F6F6;stop-opacity:0.64"/>
			<stop  offset="0.0754" style="stop-color:#F7F7F7;stop-opacity:0.5914"/>
			<stop  offset="0.4104" style="stop-color:#FBFCFC;stop-opacity:0.3754"/>
			<stop  offset="0.8151" style="stop-color:#FFFFFF;stop-opacity:0"/>
		</linearGradient>
		<path fill="url(#SVGID_17_)" d="M319.183,32.713v-1.06c0,0.357,0.018,0.71,0.053,1.06H319.183z"/>
		<linearGradient id="SVGID_18_" gradientUnits="userSpaceOnUse" x1="340.5596" y1="31.6318" x2="340.5382" y2="32.749">
			<stop  offset="0" style="stop-color:#F6F6F6;stop-opacity:0.64"/>
			<stop  offset="0.0754" style="stop-color:#F7F7F7;stop-opacity:0.5914"/>
			<stop  offset="0.4104" style="stop-color:#FBFCFC;stop-opacity:0.3754"/>
			<stop  offset="0.8151" style="stop-color:#FFFFFF;stop-opacity:0"/>
		</linearGradient>
		<path fill="url(#SVGID_18_)" d="M340.513,32.713c0.035-0.35,0.052-0.703,0.052-1.06v1.06H340.513z"/>
		<linearGradient id="SVGID_19_" gradientUnits="userSpaceOnUse" x1="253.2021" y1="150.1133" x2="253.4092" y2="168.0185">
			<stop  offset="0" style="stop-color:#50485D;stop-opacity:0.86"/>
			<stop  offset="0.2568" style="stop-color:#787285;stop-opacity:0.6363"/>
			<stop  offset="0.7554" style="stop-color:#D4D1D9;stop-opacity:0.202"/>
			<stop  offset="0.9872" style="stop-color:#FFFFFF;stop-opacity:0"/>
			<stop  offset="1" style="stop-color:#B9AAA0;stop-opacity:0.2714"/>
		</linearGradient>
		<rect x="251.743" y="148.187" fill="url(#SVGID_19_)" width="3.097" height="19.421"/>
		
			<linearGradient id="SVGID_20_" gradientUnits="userSpaceOnUse" x1="252.0586" y1="3602.2197" x2="251.9912" y2="3591.6145" gradientTransform="matrix(1 0 0 -1 0 3768.125)">
			<stop  offset="0" style="stop-color:#E191A2;stop-opacity:0.86"/>
			<stop  offset="0.2318" style="stop-color:#E8AFBA;stop-opacity:0.6581"/>
			<stop  offset="0.7475" style="stop-color:#F8E9EC;stop-opacity:0.2088"/>
			<stop  offset="0.9872" style="stop-color:#FFFFFF;stop-opacity:0"/>
			<stop  offset="1" style="stop-color:#B9AAA0;stop-opacity:0.2714"/>
		</linearGradient>
		<path fill="url(#SVGID_20_)" d="M271.674,174.788c0-3.968-8.807-7.181-19.672-7.181c-10.863,0-19.671,3.213-19.671,7.181H271.674z
			"/>
		
			<circle opacity="0.5" fill="none" stroke="#086FB4" stroke-width="1.334" stroke-miterlimit="10" cx="271.478" cy="175.715" r="2.632"/>
		<linearGradient id="SVGID_21_" gradientUnits="userSpaceOnUse" x1="269.2109" y1="175.7402" x2="271.198" y2="178.0853">
			<stop  offset="0" style="stop-color:#4E2E1F;stop-opacity:0.82"/>
			<stop  offset="0.2462" style="stop-color:#4A2C1C;stop-opacity:0.6181"/>
			<stop  offset="1" style="stop-color:#422817;stop-opacity:0"/>
		</linearGradient>
		<path opacity="0.42" fill="url(#SVGID_21_)" d="M272.038,176.727c0,1.101-0.893,1.991-1.993,1.991
			c-1.102,0-1.995-0.891-1.995-1.991c0-1.104,0.894-1.997,1.995-1.997C271.146,174.729,272.038,175.622,272.038,176.727z"/>
		
			<circle opacity="0.5" fill="none" stroke="#086FB4" stroke-width="1.334" stroke-miterlimit="10" cx="253.687" cy="175.715" r="2.632"/>
		
			<circle opacity="0.5" fill="none" stroke="#086FB4" stroke-width="1.334" stroke-miterlimit="10" cx="234.188" cy="175.715" r="2.632"/>
		<path opacity="0.5" fill="none" stroke="#086FB4" stroke-width="1.334" stroke-miterlimit="10" d="M268.304,171.339
			c0,0-12.342-11.954-32.097,0"/>
		
			<circle opacity="0.5" fill="none" stroke="#086FB4" stroke-width="1.334" stroke-miterlimit="10" cx="268.277" cy="175.715" r="2.632"/>
		<linearGradient id="SVGID_22_" gradientUnits="userSpaceOnUse" x1="266.0107" y1="175.7402" x2="267.9973" y2="178.0847">
			<stop  offset="0" style="stop-color:#4E2E1F;stop-opacity:0.82"/>
			<stop  offset="0.2462" style="stop-color:#4A2C1C;stop-opacity:0.6181"/>
			<stop  offset="1" style="stop-color:#422817;stop-opacity:0"/>
		</linearGradient>
		<path opacity="0.42" fill="url(#SVGID_22_)" d="M268.839,176.727c0,1.101-0.894,1.991-1.995,1.991c-1.1,0-1.993-0.891-1.993-1.991
			c0-1.104,0.894-1.997,1.993-1.997C267.945,174.729,268.839,175.622,268.839,176.727z"/>
		<path fill="#5EA79C" d="M225.683,133.474c0,5.825,8.807,10.55,19.672,10.55c10.864,0,19.672-4.725,19.672-10.55H225.683z"/>
		<path fill="#96D0C3" d="M265.026,133.474c0-5.83-8.808-10.555-19.672-10.555c-10.865,0-19.672,4.725-19.672,10.555H265.026z"/>
		<path opacity="0.5" fill="none" stroke="#51529A" stroke-width="1.0005" stroke-miterlimit="10" d="M228.214,133.672
			c0,0,8.669,14.833,30.911,8.64"/>
		<polygon fill="#4F3F93" points="275.778,61.853 275.778,121.11 251.824,121.11 		"/>
		
			<linearGradient id="SVGID_23_" gradientUnits="userSpaceOnUse" x1="188.7617" y1="114.3887" x2="229.5337" y2="172.2721" gradientTransform="matrix(-1 0 0 1 524.7031 0)">
			<stop  offset="0" style="stop-color:#5E343B;stop-opacity:0.86"/>
			<stop  offset="0.4507" style="stop-color:#A28689;stop-opacity:0.4724"/>
			<stop  offset="0.8267" style="stop-color:#E2D9DA;stop-opacity:0.149"/>
			<stop  offset="1" style="stop-color:#FFFFFF;stop-opacity:0"/>
			<stop  offset="1" style="stop-color:#B6A499;stop-opacity:0.2714"/>
		</linearGradient>
		<rect x="284.827" y="123.929" fill="url(#SVGID_23_)" width="42.265" height="66.05"/>
		<polygon fill="#4F3F93" points="283.468,123.929 251.559,123.929 267.69,140.417 		"/>
		<path fill="#96D0C3" d="M237.889,117.154c-18.578,0-19.981-61.23,0.695-61.23c6.256,0,7.501,0.038,24.188,0.038
			c16.692,0,13.55,10.397,12.627,15.042C268.506,105.682,237.889,117.154,237.889,117.154z"/>
		<linearGradient id="SVGID_24_" gradientUnits="userSpaceOnUse" x1="248.5293" y1="34.4116" x2="250.4834" y2="94.7028">
			<stop  offset="0" style="stop-color:#FFFFFF;stop-opacity:0.86"/>
			<stop  offset="1" style="stop-color:#FFFFFF;stop-opacity:0"/>
			<stop  offset="1" style="stop-color:#B6A499;stop-opacity:0.2714"/>
		</linearGradient>
		<path fill="url(#SVGID_24_)" d="M237.889,117.154c-18.578,0-19.981-61.23,0.695-61.23c6.256,0,7.501,0.038,24.188,0.038
			c16.692,0,13.55,10.397,12.627,15.042C268.506,105.682,237.889,117.154,237.889,117.154z"/>
		<path fill="#4F3F93" d="M235.411,79.583c6.15-15.967,35.888-23.804,40.367-17.729l18.196,33.011L253.57,121.11l-8.928-0.938
			L235.411,79.583z"/>
		<polygon fill="#E4F1F2" points="257.132,104.108 247.685,71.293 263.09,63.615 262.772,104.108 		"/>
		<path fill="#4F3F93" d="M237.168,112.652l-6.621,17.136c0,12.302,39.208,21.822,39.208,21.822l12.175-8.58l-28.359-21.92
			L237.168,112.652z"/>
		<path fill="#F18960" d="M261.11,75.999c0,0-2.667,2.884-2.667,11.79c0,8.907,1.61,12.051,1.61,12.051
			S266.113,75.999,261.11,75.999z"/>
		<path fill="#7478B8" d="M247.712,72.782V94.36l-12.301-14.778c0,0-7.167,37.553,9.231,37.553c16.399,0,21.929-28.483,7.182-44.354
			H247.712z"/>
		<path fill="#7478B8" d="M275.778,61.697l18.196,33.167c0,0-4.561,26.247-40.404,26.247l0.679-2.744l24.348-19.208
			C278.597,99.158,268.345,81.143,275.778,61.697z"/>
		
			<linearGradient id="SVGID_25_" gradientUnits="userSpaceOnUse" x1="-110.3491" y1="103.9131" x2="-56.5747" y2="42.6646" gradientTransform="matrix(-1 0 0 1 194.8125 0)">
			<stop  offset="0" style="stop-color:#F6F6F6;stop-opacity:0.64"/>
			<stop  offset="0.1838" style="stop-color:#F7F7F7;stop-opacity:0.5224"/>
			<stop  offset="1" style="stop-color:#FBFCFC;stop-opacity:0"/>
		</linearGradient>
		<polygon fill="url(#SVGID_25_)" points="288.474,109.474 288.474,88.258 319.184,88.258 263.639,32.713 237.68,58.677 		"/>
		<path fill="#BDC8DC" d="M260.389,62.309c0,0,3.985,41.884-6.14,55.851c7.048-4.102,22.507-26.952,15.08-42.503h-6.665l5.81-5.799
			l-8.913-13.22L260.389,62.309z"/>
		<path fill="#F18960" d="M257.132,72.092c0,0,3.979,2.07,3.979,3.907c0,1.835,0.395-17.415-1.55-19.361
			C257.615,54.693,257.132,72.092,257.132,72.092z"/>
		<path fill="#F18960" d="M241.562,60.173l-2.978-4.25c0.865-4.657,6.005-9.574,10.859-9.574c5.638,0,10.856,0.366,10.856,15.617"/>
		<path fill="#F1D8C1" d="M241.562,60.173l2.907,3.97c2.245-0.265,2.654,2.893,2.654,2.893l10.009,5.056l2.886-2.115
			c0,0,1.663-13.414-3.078-14.673c-4.057,1.986-6.342-3.397-6.342-3.397S247.393,60.173,241.562,60.173z"/>
		
			<linearGradient id="SVGID_26_" gradientUnits="userSpaceOnUse" x1="186.8369" y1="103.5645" x2="187.8745" y2="101.6466" gradientTransform="matrix(-0.8302 0.5575 0.5575 0.8302 353.666 -126.5941)">
			<stop  offset="0.0621" style="stop-color:#FFFFFF"/>
			<stop  offset="1" style="stop-color:#FFFFFF;stop-opacity:0"/>
		</linearGradient>
		<path opacity="0.45" fill="url(#SVGID_26_)" d="M257.575,59.124c0.261,0.387,1.143,2.206-1.326,3.861
			c-2.465,1.656-5.1,3.426-5.1,3.426l-1.401-2.031C256.524,55.854,257.096,58.412,257.575,59.124z"/>
		<path fill="#F1D8C1" d="M252.587,69.292c-2.837-1.951-3.521-0.582-5.667-0.937c-2.144-0.354-2.402-6.935-7.312-5.256
			c2.604,3.093,2.761,7.307,2.761,7.307s2.646,1.986,6.523,2.626C252.771,73.674,253.528,69.939,252.587,69.292z"/>
		<path fill="#4F3F93" d="M273.024,140.066c-1.017-6.942-12.647-12.972-15.86-1.061c-4.47,21.237,8.286,58.199,8.286,58.199
			l13.719-3.337L273.024,140.066z"/>
		<path fill="#7478B8" d="M280.092,124.805c6.242-3.211,17.908,2.74,10.091,12.285c-14.675,15.989-52.16,27.116-52.16,27.116
			l-5.265-13.102L280.092,124.805z"/>
		
			<linearGradient id="SVGID_27_" gradientUnits="userSpaceOnUse" x1="214.2422" y1="134.1221" x2="214.2422" y2="231.4991" gradientTransform="matrix(1 0 0 1 0 -9.5898)">
			<stop  offset="0" style="stop-color:#42253E;stop-opacity:0.86"/>
			<stop  offset="0.0156" style="stop-color:#442740;stop-opacity:0.8466"/>
			<stop  offset="0.5067" style="stop-color:#998695;stop-opacity:0.4242"/>
			<stop  offset="0.8444" style="stop-color:#DFD9DE;stop-opacity:0.1338"/>
			<stop  offset="1" style="stop-color:#FFFFFF;stop-opacity:0"/>
		</linearGradient>
		<rect x="212.805" y="123.898" opacity="0.75" fill="url(#SVGID_27_)" width="2.874" height="80.812"/>
		
			<linearGradient id="SVGID_28_" gradientUnits="userSpaceOnUse" x1="320.0859" y1="134.1348" x2="320.0859" y2="233.3782" gradientTransform="matrix(1 0 0 1 0 -9.5898)">
			<stop  offset="0" style="stop-color:#42253E;stop-opacity:0.86"/>
			<stop  offset="0.0156" style="stop-color:#442740;stop-opacity:0.8466"/>
			<stop  offset="0.5067" style="stop-color:#998695;stop-opacity:0.4242"/>
			<stop  offset="0.8444" style="stop-color:#DFD9DE;stop-opacity:0.1338"/>
			<stop  offset="1" style="stop-color:#FFFFFF;stop-opacity:0"/>
		</linearGradient>
		<rect x="318.648" y="123.898" opacity="0.75" fill="url(#SVGID_28_)" width="2.876" height="82.36"/>
		<rect x="206.182" y="121.11" fill="#F18960" width="120.91" height="2.818"/>
		<path fill="#F1D8C1" d="M255.391,121.078h-15.361C242.75,114.482,255.128,115.031,255.391,121.078z"/>
		<linearGradient id="SVGID_29_" gradientUnits="userSpaceOnUse" x1="281.6777" y1="209.8252" x2="282.4245" y2="185.2645">
			<stop  offset="0" style="stop-color:#42253E;stop-opacity:0.86"/>
			<stop  offset="0.0156" style="stop-color:#442740;stop-opacity:0.8466"/>
			<stop  offset="0.5067" style="stop-color:#998695;stop-opacity:0.4242"/>
			<stop  offset="0.8444" style="stop-color:#DFD9DE;stop-opacity:0.1338"/>
			<stop  offset="1" style="stop-color:#FFFFFF;stop-opacity:0"/>
		</linearGradient>
		<path fill="url(#SVGID_29_)" d="M270.655,197.442c0,0-1.538,4.441-0.94,7.262c0,0,5.443,0.49,7.473-0.171l-0.04-1.026
			c0,0,0.005-2.457,8.315,1.121l8.686-0.265l-0.173-2.564c0,0-7.669,0.394-14.095-7.005
			C275.204,189.41,278.257,201.288,270.655,197.442z"/>
		<linearGradient id="SVGID_30_" gradientUnits="userSpaceOnUse" x1="218.2305" y1="159.2676" x2="236.8137" y2="167.8321">
			<stop  offset="0" style="stop-color:#42253E;stop-opacity:0.86"/>
			<stop  offset="0.0156" style="stop-color:#442740;stop-opacity:0.8466"/>
			<stop  offset="0.5067" style="stop-color:#998695;stop-opacity:0.4242"/>
			<stop  offset="0.8444" style="stop-color:#DFD9DE;stop-opacity:0.1338"/>
			<stop  offset="1" style="stop-color:#FFFFFF;stop-opacity:0"/>
		</linearGradient>
		<path fill="url(#SVGID_30_)" d="M230.626,151.64c0,0-4.442-1.539-7.263-0.942c0,0-0.486,5.443,0.172,7.477l1.025-0.043
			c0,0,2.46,0.006-1.119,8.315l0.264,8.686l2.565-0.17c0,0-0.395-7.673,7.006-14.098C238.66,156.187,226.781,159.241,230.626,151.64
			z"/>
		
			<linearGradient id="SVGID_31_" gradientUnits="userSpaceOnUse" x1="-789.647" y1="3634.4385" x2="-763.1504" y2="3634.4385" gradientTransform="matrix(0.3915 0.3939 0.392 -0.3896 -816.3926 1843.1765)">
			<stop  offset="0" style="stop-color:#422817;stop-opacity:0.86"/>
			<stop  offset="0.4636" style="stop-color:#958072;stop-opacity:0.4561"/>
			<stop  offset="0.822" style="stop-color:#DED7D2;stop-opacity:0.1439"/>
			<stop  offset="0.9872" style="stop-color:#FFFFFF;stop-opacity:0"/>
		</linearGradient>
		<path opacity="0.52" fill="url(#SVGID_31_)" d="M314.727,121.434c-5.73-5.763-15.023-5.815-20.759-0.115"/>
		
			<linearGradient id="SVGID_32_" gradientUnits="userSpaceOnUse" x1="620.8818" y1="98.9224" x2="581.092" y2="98.9224" gradientTransform="matrix(-1 0 0 1 909.4922 0)">
			<stop  offset="0" style="stop-color:#42283F;stop-opacity:0.86"/>
			<stop  offset="0.4055" style="stop-color:#887589;stop-opacity:0.5113"/>
			<stop  offset="0.8112" style="stop-color:#D9D3DB;stop-opacity:0.1624"/>
			<stop  offset="1" style="stop-color:#FFFFFF;stop-opacity:0"/>
		</linearGradient>
		<rect x="288.609" y="88.259" opacity="0.75" fill="url(#SVGID_32_)" width="31.478" height="21.325"/>
		
			<linearGradient id="SVGID_33_" gradientUnits="userSpaceOnUse" x1="597.5986" y1="109.583" x2="605.1445" y2="109.583" gradientTransform="matrix(-1 0 0 1 909.4922 0)">
			<stop  offset="0" style="stop-color:#422817;stop-opacity:0.86"/>
			<stop  offset="0.4636" style="stop-color:#958072;stop-opacity:0.4561"/>
			<stop  offset="0.822" style="stop-color:#DED7D2;stop-opacity:0.1439"/>
			<stop  offset="0.9872" style="stop-color:#FFFFFF;stop-opacity:0"/>
		</linearGradient>
		<path opacity="0.75" fill="url(#SVGID_33_)" d="M304.348,119.46V99.706h7.546C311.894,99.706,310.423,116.518,304.348,119.46
			L304.348,119.46z"/>
		<rect x="240.029" y="120.034" fill="#F6F6F6" width="33.745" height="1.024"/>
		<circle fill="none" stroke="#E4F1F3" stroke-width="0.3335" stroke-miterlimit="10" cx="300.551" cy="107.411" r="0.515"/>
		<path fill="#CDB4A0" d="M241.562,60.173l2.907,3.97c2.245-0.265,2.654,2.893,2.654,2.893l10.009,5.056l0.812-0.595l-11.84-13.123
			C244.673,59.448,243.554,60.11,241.562,60.173z"/>
		<g>
			<path fill="#FFFFFF" d="M267.727,129.672c3.622,5.185-16.798,16.203-19.796,11.785
				C245.415,137.752,265.57,126.586,267.727,129.672z"/>
			<path fill="#F18960" d="M261.38,129.142c-4.051,2.164-7.372,4.062-11.297,6.451c-2.394,1.366-4.002-3.48,3.114-7.592
				C260.313,123.886,263.778,127.771,261.38,129.142z"/>
			<path fill="#E5E4E4" d="M264.595,130.789c2.666,3.813-12.359,11.919-14.564,8.669
				C248.18,136.733,263.008,128.519,264.595,130.789z"/>
			<path fill="#F18960" d="M261.063,135.014c-2.768,1.581-2.878,1.644-2.878,1.644s-0.113,0.064-2.88,1.644
				c-5.167,2.95-6.409,0.775-4.011-0.596c4.018-2.219,5.646-3.225,5.646-3.225s1.694-0.892,5.65-3.224
				C264.987,129.884,266.231,132.063,261.063,135.014z"/>
			<path fill="#F4A3A5" d="M262.444,129.881c0.346,0.611,0.356,1.258,0.026,1.446l-11.156,6.373
				c-0.335,0.189-0.884-0.151-1.233-0.758l0,0c-0.345-0.607-0.356-1.255-0.024-1.444l11.158-6.372
				C261.546,128.938,262.097,129.276,262.444,129.881L262.444,129.881z"/>
			<g>
				<path fill="none" stroke="#5EA79C" stroke-width="1.5007" stroke-miterlimit="10" d="M261.8,128.755
					c-0.188-0.331-0.577-0.463-1.578,0.106c-0.999,0.572-0.345,1.785-1.788,2.609c-1.444,0.825-1.754-0.588-3.157,0.215
					c-1.401,0.802-0.254,1.734-1.786,2.609c-1.534,0.874-2.215-0.323-3.156,0.212c-0.943,0.539-1.083,0.976-0.894,1.307"/>
			</g>
			<g>
				<path fill="none" stroke="#5EA79C" stroke-width="1.5007" stroke-miterlimit="10" d="M263.072,130.98
					c-0.191-0.331-0.58-0.465-1.581,0.108c-0.999,0.568-0.343,1.783-1.786,2.607c-1.442,0.823-1.753-0.586-3.154,0.214
					c-1.405,0.802-0.259,1.734-1.792,2.61c-1.53,0.875-2.212-0.322-3.154,0.215c-0.943,0.535-1.085,0.973-0.895,1.304"/>
			</g>
			<path fill-rule="evenodd" clip-rule="evenodd" fill="#FFFFFF" d="M254.92,128.909c0.024-0.124,0.008-0.149-0.119-0.096
				C254.83,128.913,254.834,128.906,254.92,128.909L254.92,128.909z"/>
			<path fill-rule="evenodd" clip-rule="evenodd" fill="#FFFFFF" d="M252.568,128.99c-0.027-0.049-0.05-0.056-0.125-0.089
				c-0.029,0.055-0.055,0.103-0.056,0.157l-0.193-0.124l-0.163,0.09c0.034,0.102,0.029,0.02,0.027,0.152
				c0.026,0.004,0.048,0.009,0.065,0.016c0.013,0.004,0.013,0.008,0.022,0.004c0.119,0.031,0.013,0.016,0.177-0.077
				c0.056,0.024,0.07,0.08,0.155,0.079C252.593,129.196,252.673,129.055,252.568,128.99L252.568,128.99z"/>
			<path fill-rule="evenodd" clip-rule="evenodd" fill="#FFFFFF" d="M255.28,128.903c0.16-0.151-0.117-0.31-0.259-0.097
				C255.04,128.813,255.27,128.902,255.28,128.903L255.28,128.903z"/>
			<path fill-rule="evenodd" clip-rule="evenodd" fill="#FFFFFF" d="M255.662,128.874c0.094-0.055,0.162-0.1,0.164-0.215
				c-0.146-0.141-0.262-0.098-0.313,0.104L255.662,128.874L255.662,128.874z"/>
			<path fill-rule="evenodd" clip-rule="evenodd" fill="#FFFFFF" d="M253.61,129.57c-0.114-0.004-0.244,0.03-0.315,0.089
				c-0.008,0.142,0.056,0.241,0.214,0.154c0.068-0.033,0.077-0.065,0.126-0.116c0.008-0.01,0.017-0.02,0.023-0.027
				c0.055,0.038,0.1-0.007,0.165-0.066c-0.039-0.035-0.086-0.087-0.132-0.102C253.637,129.522,253.621,129.531,253.61,129.57
				L253.61,129.57z"/>
			<path fill-rule="evenodd" clip-rule="evenodd" fill="#FFFFFF" d="M252.223,130.087c-0.168-0.185-0.401-0.089-0.476,0.119
				C251.926,130.401,252.186,130.339,252.223,130.087L252.223,130.087z"/>
			<path fill-rule="evenodd" clip-rule="evenodd" fill="#FFFFFF" d="M251.453,130.5c0.04,0.01,0.019,0.025,0.065-0.003
				C251.493,130.444,251.481,130.451,251.453,130.5L251.453,130.5z"/>
			<path fill-rule="evenodd" clip-rule="evenodd" fill="#FFFFFF" d="M251.781,129.654c-0.021-0.055-0.016-0.044-0.06-0.018
				C251.742,129.685,251.741,129.68,251.781,129.654L251.781,129.654z"/>
			<path fill-rule="evenodd" clip-rule="evenodd" fill="#FFFFFF" d="M251.659,129.644
				C251.572,129.752,251.782,129.713,251.659,129.644L251.659,129.644z"/>
			<path fill-rule="evenodd" clip-rule="evenodd" fill="#FFFFFF" d="M251.006,130.959
				C250.919,131.069,251.127,131.03,251.006,130.959L251.006,130.959z"/>
			<path fill-rule="evenodd" clip-rule="evenodd" fill="#FFFFFF" d="M255.253,128.208c-0.051-0.032-0.009-0.022-0.064-0.021
				c-0.012,0.046-0.014,0.06,0.046,0.064L255.253,128.208L255.253,128.208z"/>
			<path fill-rule="evenodd" clip-rule="evenodd" fill="#FFFFFF" d="M253.211,128.849c0.045,0.007,0.058,0.038,0.097-0.019
				C253.255,128.793,253.25,128.801,253.211,128.849L253.211,128.849z"/>
			<path fill-rule="evenodd" clip-rule="evenodd" fill="#FFFFFF" d="M254.908,128.485c-0.031-0.06-0.05-0.049-0.085-0.004
				C254.871,128.517,254.87,128.521,254.908,128.485L254.908,128.485z"/>
			<path fill-rule="evenodd" clip-rule="evenodd" fill="#FFFFFF" d="M254.257,129.799c-0.006-0.01-0.011-0.017-0.018-0.022
				c0.02-0.017,0.033-0.044,0.036-0.085c-0.067-0.097-0.203-0.078-0.202,0.054c0.029,0.025,0.065,0.042,0.1,0.047l-0.003,0.004
				C254.218,129.832,254.217,129.837,254.257,129.799L254.257,129.799z"/>
			<path fill-rule="evenodd" clip-rule="evenodd" fill="#FFFFFF" d="M253.666,128.701c-0.018-0.059-0.038-0.067-0.083-0.025
				C253.6,128.722,253.623,128.745,253.666,128.701L253.666,128.701z"/>
			<path fill-rule="evenodd" clip-rule="evenodd" fill="#FFFFFF" d="M253.012,130.017c-0.02-0.058-0.04-0.066-0.083-0.025
				C252.945,130.037,252.97,130.06,253.012,130.017L253.012,130.017z"/>
			<path fill-rule="evenodd" clip-rule="evenodd" fill="#FFFFFF" d="M252.852,129.731c-0.016-0.042-0.016-0.04-0.067-0.051
				l-0.017,0.049C252.81,129.761,252.813,129.761,252.852,129.731L252.852,129.731z"/>
			<path fill-rule="evenodd" clip-rule="evenodd" fill="#FFFFFF" d="M251.316,130.236c-0.049-0.019-0.03-0.022-0.082,0.008
				c0.011,0.046,0.005,0.032,0.049,0.054C251.324,130.264,251.313,130.287,251.316,130.236L251.316,130.236z"/>
			<path fill-rule="evenodd" clip-rule="evenodd" fill="#FFFFFF" d="M250.646,130.336c-0.047,0.033-0.046,0.061,0.011,0.086
				l0.042-0.058L250.646,130.336L250.646,130.336z"/>
			<path fill-rule="evenodd" clip-rule="evenodd" fill="#FFFFFF" d="M251.132,129.854c-0.002-0.06-0.001-0.049-0.055-0.063
				l-0.025,0.041C251.087,129.873,251.083,129.874,251.132,129.854L251.132,129.854z"/>
			<path fill-rule="evenodd" clip-rule="evenodd" fill="#FFFFFF" d="M251.597,130.106c0.041-0.032,0.032-0.012,0.035-0.063
				c-0.042-0.035-0.015-0.031-0.074-0.015C251.551,130.093,251.553,130.077,251.597,130.106L251.597,130.106z"/>
			<path fill-rule="evenodd" clip-rule="evenodd" fill="#FFFFFF" d="M257.66,127.095c0.025-0.127,0.008-0.147-0.12-0.097
				C257.57,127.099,257.573,127.09,257.66,127.095L257.66,127.095z"/>
			<path fill-rule="evenodd" clip-rule="evenodd" fill="#FFFFFF" d="M255.309,127.175c-0.027-0.049-0.051-0.056-0.125-0.09
				c-0.027,0.057-0.053,0.104-0.054,0.158l-0.193-0.123l-0.163,0.09c0.035,0.103,0.031,0.019,0.029,0.151
				c0.023,0.005,0.045,0.009,0.064,0.013c0.011,0.007,0.011,0.012,0.021,0.006c0.119,0.03,0.013,0.019,0.177-0.072
				c0.056,0.022,0.07,0.078,0.153,0.075C255.333,127.381,255.414,127.237,255.309,127.175L255.309,127.175z"/>
			<path fill-rule="evenodd" clip-rule="evenodd" fill="#FFFFFF" d="M258.022,127.087c0.158-0.147-0.119-0.308-0.26-0.098
				C257.78,126.998,258.01,127.086,258.022,127.087L258.022,127.087z"/>
			<path fill-rule="evenodd" clip-rule="evenodd" fill="#FFFFFF" d="M258.403,127.063c0.093-0.06,0.162-0.104,0.164-0.22
				c-0.146-0.14-0.262-0.097-0.313,0.106L258.403,127.063L258.403,127.063z"/>
			<path fill-rule="evenodd" clip-rule="evenodd" fill="#FFFFFF" d="M256.351,127.756c-0.116-0.004-0.243,0.031-0.315,0.091
				c-0.008,0.138,0.058,0.241,0.213,0.154c0.068-0.036,0.076-0.067,0.126-0.118c0.009-0.01,0.019-0.018,0.023-0.026
				c0.055,0.036,0.1-0.006,0.167-0.066c-0.039-0.035-0.086-0.088-0.134-0.101C256.376,127.706,256.36,127.716,256.351,127.756
				L256.351,127.756z"/>
			<path fill-rule="evenodd" clip-rule="evenodd" fill="#FFFFFF" d="M254.965,128.273c-0.168-0.183-0.402-0.089-0.477,0.113
				C254.669,128.583,254.926,128.523,254.965,128.273L254.965,128.273z"/>
			<path fill-rule="evenodd" clip-rule="evenodd" fill="#FFFFFF" d="M254.194,128.683c0.042,0.013,0.019,0.024,0.064-0.003
				C254.234,128.63,254.224,128.637,254.194,128.683L254.194,128.683z"/>
			<path fill-rule="evenodd" clip-rule="evenodd" fill="#FFFFFF" d="M254.521,127.843c-0.02-0.058-0.014-0.05-0.058-0.021
				C254.483,127.872,254.481,127.866,254.521,127.843L254.521,127.843z"/>
			<path fill-rule="evenodd" clip-rule="evenodd" fill="#FFFFFF" d="M254.399,127.83
				C254.313,127.938,254.522,127.897,254.399,127.83L254.399,127.83z"/>
			<path fill-rule="evenodd" clip-rule="evenodd" fill="#FFFFFF" d="M253.746,129.145
				C253.661,129.253,253.867,129.212,253.746,129.145L253.746,129.145z"/>
			<path fill-rule="evenodd" clip-rule="evenodd" fill="#FFFFFF" d="M257.991,126.392c-0.046-0.032-0.008-0.02-0.06-0.019
				c-0.014,0.047-0.016,0.06,0.045,0.063L257.991,126.392L257.991,126.392z"/>
			<path fill-rule="evenodd" clip-rule="evenodd" fill="#FFFFFF" d="M255.951,127.036c0.047,0.005,0.059,0.037,0.096-0.02
				C255.996,126.978,255.99,126.985,255.951,127.036L255.951,127.036z"/>
			<path fill-rule="evenodd" clip-rule="evenodd" fill="#FFFFFF" d="M257.65,126.669c-0.033-0.057-0.052-0.047-0.086-0.004
				C257.612,126.702,257.61,126.706,257.65,126.669L257.65,126.669z"/>
			<path fill-rule="evenodd" clip-rule="evenodd" fill="#FFFFFF" d="M256.998,127.984c-0.005-0.01-0.011-0.019-0.015-0.023
				c0.017-0.017,0.028-0.042,0.033-0.082c-0.067-0.099-0.203-0.083-0.202,0.051c0.027,0.025,0.065,0.042,0.1,0.048l-0.003,0.004
				C256.959,128.02,256.958,128.023,256.998,127.984L256.998,127.984z"/>
			<path fill-rule="evenodd" clip-rule="evenodd" fill="#FFFFFF" d="M256.406,126.889c-0.017-0.062-0.039-0.069-0.084-0.025
				C256.34,126.91,256.363,126.931,256.406,126.889L256.406,126.889z"/>
			<path fill-rule="evenodd" clip-rule="evenodd" fill="#FFFFFF" d="M255.753,128.202c-0.02-0.061-0.04-0.068-0.083-0.024
				C255.686,128.222,255.71,128.245,255.753,128.202L255.753,128.202z"/>
			<path fill-rule="evenodd" clip-rule="evenodd" fill="#FFFFFF" d="M255.595,127.918c-0.017-0.044-0.017-0.04-0.069-0.051
				l-0.018,0.049C255.551,127.946,255.557,127.946,255.595,127.918L255.595,127.918z"/>
			<path fill-rule="evenodd" clip-rule="evenodd" fill="#FFFFFF" d="M254.059,128.42c-0.051-0.02-0.032-0.023-0.081,0.006
				c0.01,0.049,0.004,0.034,0.047,0.06C254.065,128.448,254.055,128.471,254.059,128.42L254.059,128.42z"/>
			<path fill-rule="evenodd" clip-rule="evenodd" fill="#FFFFFF" d="M253.389,128.52c-0.052,0.032-0.05,0.06,0.01,0.086l0.042-0.059
				L253.389,128.52L253.389,128.52z"/>
			<path fill-rule="evenodd" clip-rule="evenodd" fill="#FFFFFF" d="M253.874,128.041c-0.002-0.063-0.001-0.053-0.056-0.066
				l-0.023,0.043C253.828,128.061,253.824,128.063,253.874,128.041L253.874,128.041z"/>
			<path fill-rule="evenodd" clip-rule="evenodd" fill="#FFFFFF" d="M254.337,128.292c0.041-0.032,0.033-0.014,0.036-0.063
				c-0.044-0.036-0.015-0.032-0.076-0.014C254.291,128.275,254.292,128.262,254.337,128.292L254.337,128.292z"/>
		</g>
	</g>
	<g>
		<g>
			<polygon fill-rule="evenodd" clip-rule="evenodd" fill="#FDC532" points="146.51,42.641 139.413,24.316 151.414,40.963 			"/>
			<polygon fill-rule="evenodd" clip-rule="evenodd" fill="#F8AA00" points="153.221,42.641 155.801,39.931 139.413,24.316 
				151.414,40.963 			"/>
			<polygon fill-rule="evenodd" clip-rule="evenodd" fill="#FFE28A" points="163.8,37.092 155.799,39.932 152.454,36.742 
				139.411,24.317 156.125,33.072 			"/>
		</g>
		<path opacity="0.5" fill-rule="evenodd" clip-rule="evenodd" fill="#006EB5" d="M339.782,45.386c-4.93,0-8.93,4.008-8.93,8.929
			s4,8.93,8.93,8.93c4.922,0,8.921-4.009,8.921-8.93S344.704,45.386,339.782,45.386L339.782,45.386z M339.782,61.241L339.782,61.241
			c-3.821,0-6.925-3.104-6.925-6.925c0-3.813,3.104-6.917,6.925-6.917c3.813,0,6.917,3.104,6.917,6.917
			C346.699,58.137,343.596,61.241,339.782,61.241z"/>
		<linearGradient id="SVGID_34_" gradientUnits="userSpaceOnUse" x1="327.3975" y1="50.2607" x2="345.5361" y2="50.2607">
			<stop  offset="0" style="stop-color:#F6F6F6;stop-opacity:0.64"/>
			<stop  offset="0.1838" style="stop-color:#F7F7F7;stop-opacity:0.5224"/>
			<stop  offset="1" style="stop-color:#FBFCFC;stop-opacity:0"/>
		</linearGradient>
		<circle fill-rule="evenodd" clip-rule="evenodd" fill="url(#SVGID_34_)" cx="336.467" cy="50.26" r="9.07"/>
		<polygon fill-rule="evenodd" clip-rule="evenodd" fill="#FDC532" points="299.165,52.529 316.645,44.867 296.961,48.003 		"/>
		<polygon fill-rule="evenodd" clip-rule="evenodd" fill="#F8AA00" points="294.569,47.908 294.668,44.274 316.645,44.867 
			296.961,48.003 		"/>
		<polygon fill-rule="evenodd" clip-rule="evenodd" fill="#FFE28A" points="316.644,44.867 299.152,44.396 294.666,44.275 
			291.142,36.821 299.152,39.347 		"/>
		<path fill-rule="evenodd" clip-rule="evenodd" fill="#FFFFFF" d="M319.88,65.216c-2.739,0-4.963,2.225-4.963,4.954
			c0,2.737,2.224,4.961,4.963,4.961c2.729,0,4.953-2.225,4.953-4.961C324.833,67.441,322.608,65.216,319.88,65.216L319.88,65.216z
			 M319.88,73.127L319.88,73.127c-1.63,0-2.959-1.328-2.959-2.957c0-1.63,1.329-2.95,2.959-2.95c1.629,0,2.948,1.32,2.948,2.95
			C322.828,71.8,321.509,73.127,319.88,73.127z"/>
	</g>
</g>
</svg>
