<?xml version="1.0" encoding="utf-8"?>
<!-- Generator: Adobe Illustrator 15.0.0, SVG Export Plug-In . SVG Version: 6.00 Build 0)  -->
<!DOCTYPE svg PUBLIC "-//W3C//DTD SVG 1.1//EN" "http://www.w3.org/Graphics/SVG/1.1/DTD/svg11.dtd">
<svg version="1.1" id="Layer_1" xmlns="http://www.w3.org/2000/svg" xmlns:xlink="http://www.w3.org/1999/xlink" x="0px" y="0px"
	 width="168px" height="154px" viewBox="0 0 168 154" enable-background="new 0 0 168 154" xml:space="preserve">
<g>
	<g>
		
			<linearGradient id="SVGID_1_" gradientUnits="userSpaceOnUse" x1="134.8604" y1="123.96" x2="-17.6089" y2="123.96" gradientTransform="matrix(0.9659 -0.2588 0.2588 0.9659 -10.4927 -9.5406)">
			<stop  offset="0" style="stop-color:#FFF9BE"/>
			<stop  offset="0.6242" style="stop-color:#FFF9BE"/>
			<stop  offset="1" style="stop-color:#FFF9BE;stop-opacity:0"/>
		</linearGradient>
		<polygon fill="url(#SVGID_1_)" points="156.202,91.539 8.934,131 0.226,98.501 147.495,59.041 		"/>
		<polygon fill="#FFF9BE" points="137.112,51.346 167.997,70.963 151.058,103.395 		"/>
	</g>
	<path fill="#DCEFED" d="M61.174,98.094c0,0,7.236,12.534,17.743,12.042l2.314-6.652C81.231,103.483,66.467,92.475,61.174,98.094z"
		/>
	
		<linearGradient id="SVGID_2_" gradientUnits="userSpaceOnUse" x1="216.5967" y1="66.3267" x2="215.3015" y2="133.9155" gradientTransform="matrix(-0.4724 -1.763 1.7509 -0.4691 6.1945 484.5915)">
		<stop  offset="0" style="stop-color:#F1F1F2;stop-opacity:0.65"/>
		<stop  offset="0.4323" style="stop-color:#FAFAFB;stop-opacity:0.345"/>
		<stop  offset="0.9212" style="stop-color:#FFFFFF;stop-opacity:0"/>
	</linearGradient>
	<polygon fill="url(#SVGID_2_)" points="129.621,23.39 139.654,60.836 27.951,90.766 17.917,53.321 	"/>
	<g>
		
			<rect x="12.708" y="61.766" transform="matrix(-0.9659 -0.2588 0.2588 -0.9659 36.2814 181.0471)" fill="#86C0E0" width="34.701" height="52.739"/>
		<path fill="#F5F3EF" d="M8.016,107.553c0,0,1.505-1.367-1.133-4.23l31.408,8.428l12.554-46.856
			c0.086,4.344,1.133,4.233,1.133,4.233l-12.552,46.855L8.016,107.553z"/>
		
			<rect x="10.501" y="56.913" transform="matrix(-0.9659 -0.2588 0.2588 -0.9659 33.1971 170.9381)" fill="#9CD3F4" width="34.7" height="52.741"/>
		<path fill="#F5F3EF" d="M6.437,97.009c-0.759-0.371-1.359-1.057-1.595-1.936c-0.432-1.614,0.53-3.281,2.144-3.712
			c1.53-0.412,3.105,0.431,3.634,1.896c0.667-0.164,1.34-0.307,2.007-0.476c-0.805-2.594-3.528-4.119-6.173-3.41
			c-2.711,0.727-4.327,3.523-3.6,6.233c0.433,1.617,1.6,2.843,3.047,3.415L6.437,97.009z"/>
		<path fill="#F5F3EF" d="M13.778,69.674c-0.759-0.371-1.359-1.058-1.595-1.936c-0.433-1.614,0.53-3.281,2.145-3.713
			c1.53-0.41,3.104,0.433,3.634,1.897c0.668-0.165,1.34-0.307,2.006-0.476c-0.805-2.594-3.527-4.119-6.173-3.409
			c-2.712,0.725-4.326,3.521-3.6,6.233c0.433,1.615,1.601,2.842,3.047,3.414L13.778,69.674z"/>
		<path fill="#F5F3EF" d="M10.296,82.725c-0.758-0.372-1.359-1.058-1.594-1.936c-0.433-1.615,0.529-3.281,2.144-3.714
			c1.53-0.409,3.104,0.434,3.633,1.896c0.668-0.163,1.34-0.306,2.007-0.476c-0.804-2.594-3.527-4.118-6.172-3.408
			c-2.711,0.726-4.327,3.521-3.6,6.233c0.433,1.614,1.6,2.842,3.047,3.415L10.296,82.725z"/>
		
			<linearGradient id="SVGID_3_" gradientUnits="userSpaceOnUse" x1="13.2466" y1="148.8281" x2="27.3463" y2="68.4801" gradientTransform="matrix(0.9659 -0.2588 0.2588 0.9659 -15.898 -8.7457)">
			<stop  offset="0.0703" style="stop-color:#6AB686;stop-opacity:0.5"/>
			<stop  offset="0.3727" style="stop-color:#A8D0B1;stop-opacity:0.3351"/>
			<stop  offset="0.7921" style="stop-color:#E8F2EA;stop-opacity:0.1064"/>
			<stop  offset="0.9872" style="stop-color:#FFFFFF;stop-opacity:0"/>
			<stop  offset="1" style="stop-color:#AD9E96;stop-opacity:0.2714"/>
		</linearGradient>
		<polygon fill="url(#SVGID_3_)" points="7.775,106.652 41.294,115.636 54.943,64.69 21.426,55.711 		"/>
		<g>
			<g>
				<path fill="#F5F3EF" d="M19.266,69.448l-0.052-0.161l-0.122-0.251l-0.053-0.084l-0.227-0.213l-0.096-0.071l-0.131-0.059
					l-0.083-0.06l-0.159-0.041l-0.155-0.063l-0.203-0.034l-0.13-0.058l-0.432-0.098l-0.165-0.078l-0.237,0.074l-0.155,0.187
					l-0.056,0.242l-0.118,0.361l-0.018,0.124l-0.128,0.451l-0.056,0.211l-0.019,0.14l-0.046,0.104l-0.059,0.298l-0.105,0.317
					l-0.193,0.737l-0.062,0.186l-0.031,0.146l-0.006,0.096l-0.043,0.089l-0.028,0.148l-0.112,0.376l-0.012,0.09l-0.209,0.729
					l0.059,0.251l0.174,0.112l0.165,0.077l0.246-0.065l0.134-0.202l0.143-0.533l0.049-0.122l0.225-0.842l0.009-0.069l0.025-0.031
					l0.025-0.007l0.671,0.135l0.364-0.009l0.258-0.065l0.277-0.141l0.317-0.249l0.09-0.103l0.206-0.31l0.059-0.135l0.028-0.095
					l0.056-0.099l0.075-0.229l0.093-0.577l0.003-0.173L19.266,69.448z M18.492,69.888l-0.041,0.299l-0.083,0.342l-0.087,0.22
					l-0.115,0.193L18.1,70.995l-0.087,0.103l-0.176,0.108l-0.081,0.022l-0.122,0.002l-0.109,0.016l-0.199-0.009l-0.146-0.034
					l-0.152-0.053l-0.04-0.04l-0.009-0.048l0.086-0.224l0.037-0.215l0.053-0.143l0.044-0.221l0.305-1.082l0.021-0.081l0.035-0.056
					l0.018-0.006l0.193,0.075l0.144,0.021l0.245,0.091l0.175,0.105l0.093,0.134l0.06,0.263L18.492,69.888z"/>
			</g>
			<g>
				<polygon fill="#F5F3EF" points="22.22,69.785 22.179,70.003 21.999,70.155 21.713,70.177 21.405,70.059 21.146,70.013 
					21.054,69.959 20.83,69.906 20.64,69.881 20.584,69.897 20.524,69.981 20.414,70.372 20.354,70.636 20.314,70.735 
					20.243,71.066 20.193,71.191 20.183,71.277 20.146,71.396 20.149,71.451 20.18,71.473 20.243,71.494 20.345,71.51 
					21.141,71.743 21.281,71.762 21.464,71.921 21.496,72.183 21.334,72.405 21.125,72.468 20.814,72.405 20.737,72.362 
					20.516,72.31 20.414,72.266 20.308,72.254 19.991,72.166 19.925,72.209 19.916,72.275 19.866,72.434 19.85,72.546 19.757,72.9 
					19.508,73.765 19.515,73.86 19.546,73.889 19.772,73.945 19.866,73.992 19.969,74.004 20.23,74.073 20.345,74.125 
					20.435,74.139 20.73,74.225 20.886,74.334 20.948,74.561 20.871,74.762 20.755,74.902 20.516,74.955 20.373,74.874 
					20.071,74.787 19.922,74.769 19.82,74.725 19.577,74.675 19.493,74.635 19.375,74.613 19.292,74.579 19.077,74.551 
					18.772,74.444 18.638,74.324 18.585,74.101 18.837,73.227 18.909,72.871 18.993,72.639 19.023,72.483 19.092,72.304 
					19.104,72.183 19.135,72.033 19.322,71.439 19.337,71.33 19.505,70.733 19.63,70.212 19.729,69.922 19.739,69.81 19.891,69.195 
					20.012,69.023 20.249,68.977 20.373,69.049 20.482,69.045 20.603,69.113 20.927,69.169 21.514,69.351 22.012,69.485 
					22.148,69.639 				"/>
			</g>
			<g>
				<polygon fill="#F5F3EF" points="24.913,71.29 24.782,71.784 24.642,72.089 24.39,72.391 24.291,72.449 23.989,72.648 
					24.001,72.66 24.157,72.895 24.272,73.162 24.328,73.438 24.34,73.798 24.331,73.97 24.225,74.364 24.072,74.7 23.846,75.036 
					23.634,75.231 23.544,75.291 23.423,75.344 23.273,75.443 23.05,75.505 22.636,75.564 22.475,75.499 22.067,75.409 
					21.877,75.329 21.71,75.188 21.585,75.102 21.523,75.018 21.412,74.908 21.268,74.638 21.253,74.461 21.408,74.191 
					21.675,74.188 21.859,74.286 21.943,74.415 21.999,74.458 22.167,74.626 22.509,74.762 22.739,74.799 23.081,74.663 
					23.312,74.42 23.395,74.249 23.503,73.983 23.575,73.574 23.572,73.487 23.55,73.403 23.507,73.31 23.435,73.208 23.407,73.131 
					23.364,73.084 23.24,73.004 23.187,72.953 23.133,72.947 22.742,72.842 22.599,72.778 22.425,72.657 22.35,72.425 
					22.435,72.217 22.574,72.099 22.768,72.062 23.14,72.148 23.333,72.126 23.622,72.033 23.833,71.852 23.955,71.681 
					24.06,71.386 24.091,71.249 24.107,71.042 24.063,70.896 24.02,70.802 23.914,70.704 23.824,70.664 23.656,70.63 23.513,70.571 
					23.289,70.569 23.24,70.58 23.149,70.624 22.978,70.674 22.751,70.68 22.543,70.475 22.564,70.201 22.727,70.013 22.863,69.941 
					23.249,69.822 23.883,69.875 24.406,70.131 24.617,70.289 24.688,70.385 24.835,70.652 24.869,70.779 24.906,71.011 				"/>
			</g>
			<g>
				<polygon fill="#F5F3EF" points="28.226,71.209 28.198,71.488 28.114,71.615 27.934,71.943 27.863,72.021 27.741,72.27 
					27.676,72.344 27.636,72.428 27.536,72.564 27.362,72.91 27.306,72.976 27.067,73.407 26.955,73.565 26.902,73.687 
					26.768,73.914 26.687,74.017 26.516,74.347 26.436,74.458 26.321,74.666 26.255,74.741 26.09,75.053 25.926,75.319 
					25.67,75.657 25.549,75.775 25.267,75.972 25.052,76.056 24.825,76.087 24.505,76.05 24.325,75.894 24.272,75.648 
					24.384,75.412 24.583,75.315 24.8,75.322 25.021,75.201 25.104,75.096 25.182,75.027 25.397,74.666 25.459,74.495 
					25.478,74.367 25.397,73.531 25.4,73.385 25.363,73.041 25.363,72.895 25.351,72.831 25.316,72.439 25.319,72.287 
					25.313,72.191 25.279,71.965 25.282,71.821 25.257,71.721 25.245,71.591 25.248,71.448 25.167,70.661 25.308,70.478 
					25.518,70.425 25.718,70.478 25.898,70.603 26,70.826 26.016,70.941 26.093,72.062 26.118,72.18 26.109,72.315 26.118,72.431 
					26.159,72.679 26.153,72.794 26.187,73.013 26.19,73.382 27.173,71.663 27.247,71.501 27.31,71.433 27.369,71.29 27.437,71.206 
					27.626,71.038 27.962,71.088 				"/>
			</g>
			<g>
				<polygon fill="#F5F3EF" points="30.991,72.226 30.754,73.162 30.602,73.643 30.552,73.882 30.515,73.995 30.496,74.116 
					30.449,74.237 30.366,74.638 30.284,74.883 30.279,74.959 30.107,75.519 30.095,75.611 29.999,75.92 29.965,76.106 
					29.853,76.464 29.828,76.643 29.759,76.808 29.663,77.099 29.544,77.24 29.324,77.271 29.131,77.233 28.976,77.07 
					28.932,76.812 29.004,76.588 29.163,76.01 29.178,75.872 29.218,75.751 29.271,75.533 29.349,75.297 29.371,75.186 
					29.482,74.821 29.536,74.545 29.579,74.436 29.594,74.355 29.65,74.206 29.746,73.811 29.837,73.497 29.881,73.279 
					29.952,73.019 30.001,72.895 30.095,72.456 30.092,72.428 30.042,72.378 29.952,72.344 29.635,72.275 29.523,72.238 
					29.383,72.223 29.302,72.194 29.262,72.197 29.224,72.244 29.174,72.354 29.032,72.784 29.01,72.92 28.833,73.407 
					28.733,73.724 28.562,74.193 28.528,74.33 28.422,74.561 28.411,74.646 28.189,75.257 27.767,76.047 27.667,76.159 
					27.617,76.246 27.493,76.373 27.256,76.521 27.138,76.557 27.045,76.605 26.862,76.662 26.64,76.559 26.526,76.352 
					26.52,76.165 26.573,75.976 26.74,75.847 26.958,75.735 27.173,75.511 27.344,75.22 27.437,74.999 27.505,74.765 27.573,74.632 
					27.601,74.52 27.707,74.277 27.738,74.156 28.491,71.89 28.535,71.695 28.6,71.551 28.724,71.377 28.958,71.342 29.199,71.416 
					29.365,71.442 29.442,71.482 29.52,71.505 29.682,71.517 29.777,71.561 30.083,71.646 30.219,71.66 30.545,71.768 
					30.795,71.827 30.972,72.018 				"/>
			</g>
			<g>
				<path fill="#F5F3EF" d="M33.599,75.553l-0.083-0.454l-0.124-0.269l-0.147-0.195l-0.416-0.301l-0.43-0.165l-0.183-0.047
					l-0.103-0.04l-0.053-0.044l-0.003-0.009l0.321-1.254l0.053-0.235l-0.059-0.242l-0.265-0.115l-0.307-0.034l-0.137,0.192
					l-0.071,0.313l-0.214,0.862l-0.052,0.117l-0.022,0.155l-0.395,1.425l-0.071,0.342l-0.041,0.08l-0.072,0.293l-0.019,0.109
					l-0.03,0.071l-0.028,0.131l-0.053,0.136l-0.192,0.79l-0.013,0.277l0.158,0.17l0.538,0.146h0.1l0.083,0.04l0.653,0.121
					l0.274-0.014l0.146-0.029l0.122-0.048l0.261-0.17l0.205-0.164l0.262-0.326l0.099-0.19l0.044-0.121l0.062-0.118l0.18-0.746
					l0.028-0.15l0.003-0.13L33.599,75.553z M32.793,75.564l-0.021,0.341l-0.062,0.291l-0.124,0.392l-0.158,0.308l-0.233,0.206
					l-0.171,0.055l-0.083,0.003l-0.134-0.005l-0.093,0.005l-0.314-0.077l-0.077-0.03l-0.044-0.035l-0.003-0.039l0.088-0.328
					l0.025-0.152l0.112-0.354l0.037-0.172l0.038-0.112l0.021-0.115l0.044-0.104l0.118-0.488l0.015-0.09l0.041-0.101l0.022-0.1
					l0.031-0.047l0.062-0.019l0.1,0.047l0.346,0.086l0.127,0.063l0.125,0.101l0.108,0.164l0.047,0.192L32.793,75.564z"/>
			</g>
			<g>
				<polygon fill="#F5F3EF" points="36.73,73.522 36.727,73.823 36.568,74.054 36.285,74.067 35.763,73.902 35.679,73.895 
					35.635,73.908 35.592,73.954 35.576,73.998 35.558,74.145 35.508,74.271 35.452,74.535 35.421,74.597 35.349,74.883 
					35.309,74.965 35.268,75.217 35.185,75.418 35.175,75.511 34.862,76.736 34.814,76.839 34.795,76.937 34.721,77.176 
					34.69,77.346 34.485,78.074 34.426,78.363 34.323,78.524 34.075,78.559 33.742,78.4 33.667,78.204 33.698,77.954 33.748,77.783 
					33.757,77.697 33.841,77.44 33.91,77.154 34.031,76.755 34.049,76.615 34.093,76.507 34.108,76.416 34.227,76.035 
					34.239,75.932 34.298,75.707 34.379,75.462 34.395,75.35 34.824,73.739 34.812,73.681 34.787,73.655 34.597,73.611 
					34.488,73.568 34.339,73.54 34.097,73.433 33.935,73.308 33.913,73.024 34.062,72.842 34.295,72.772 34.503,72.837 
					34.684,72.862 34.798,72.913 35.066,72.969 35.147,73.01 35.496,73.084 35.576,73.115 35.707,73.118 35.84,73.184 
					36.055,73.246 36.316,73.286 36.528,73.382 				"/>
			</g>
			<g>
				<path fill="#F5F3EF" d="M38.278,74.41l0.015-0.164l-0.009-0.137l-0.078-0.207l-0.13-0.106l-0.13-0.072l-0.194-0.034
					l-0.214,0.046l-0.13,0.118l-0.174,0.277l-0.043,0.103l-0.239,0.417l-0.094,0.208l-0.068,0.088l-0.047,0.121l-0.316,0.566
					l-0.028,0.073l-0.144,0.225l-0.277,0.55l-0.239,0.407l-0.32,0.659l-0.065,0.095l-0.054,0.123l-0.071,0.096l-0.295,0.558
					l-0.006,0.218l0.152,0.195l0.242,0.065l0.18-0.068l0.155-0.112l0.094-0.109l0.525-1.019l0.056-0.063l0.06-0.01l0.45,0.105
					l0.184,0.072l0.289,0.081l0.04,0.033l0.032,0.094v0.19l-0.012,0.149l0.003,0.108l-0.028,0.286l0.019,0.108l-0.038,0.407
					l0.091,0.161l0.174,0.178l0.202,0.053l0.206-0.04l0.125-0.199l0.028-0.43l-0.009-0.46l0.021-0.108l-0.009-0.143l0.034-0.257
					l-0.016-0.354L38.2,77.43l-0.009-0.099l0.021-0.626l0.019-0.146l-0.003-0.446l0.025-0.158l-0.016-0.122l0.031-0.38l-0.016-0.438
					l0.028-0.256L38.278,74.41z M36.686,76.839l0.087-0.228l0.119-0.177l0.059-0.102l0.053-0.148L37.115,76l0.33-0.665l0.06-0.072
					l-0.028,0.252l-0.003,0.192l-0.037,0.271l0.024,0.113v0.094l-0.024,0.157l0.015,0.122l-0.031,0.337l-0.007,0.226v0.003
					L36.686,76.839z"/>
			</g>
			<g>
				<polygon fill="#F5F3EF" points="41.698,74.853 41.698,75.154 41.54,75.384 41.256,75.396 40.731,75.235 40.65,75.226 
					40.604,75.239 40.56,75.286 40.545,75.329 40.529,75.475 40.476,75.604 40.42,75.869 40.392,75.932 40.32,76.215 40.28,76.295 
					40.236,76.547 40.156,76.749 40.146,76.842 39.832,78.071 39.783,78.173 39.764,78.267 39.692,78.506 39.662,78.68 
					39.454,79.404 39.397,79.696 39.295,79.854 39.045,79.893 38.713,79.733 38.636,79.535 38.67,79.282 38.719,79.118 
					38.729,79.032 38.813,78.77 38.881,78.487 39.002,78.087 39.018,77.946 39.062,77.84 39.08,77.747 39.195,77.368 39.211,77.263 
					39.27,77.039 39.351,76.792 39.366,76.681 39.795,75.073 39.783,75.012 39.758,74.986 39.568,74.943 39.459,74.898 
					39.307,74.871 39.068,74.765 38.906,74.638 38.884,74.355 39.034,74.172 39.267,74.104 39.472,74.172 39.652,74.197 
					39.77,74.243 40.035,74.3 40.119,74.343 40.467,74.415 40.548,74.448 40.675,74.448 40.809,74.517 41.023,74.579 41.288,74.619 
					41.499,74.716 				"/>
			</g>
			<g>
				<polygon fill="#F5F3EF" points="45.755,76.1 45.715,76.257 45.646,76.6 45.6,76.74 45.588,76.842 45.513,77.126 45.422,77.378 
					45.252,78.102 45.195,78.242 44.906,79.414 44.811,79.662 44.773,79.907 44.708,80.07 44.68,80.204 44.637,80.34 44.497,81.025 
					44.347,81.224 44.121,81.248 43.952,81.187 43.788,81.087 43.703,80.869 43.772,80.489 43.824,80.353 43.834,80.278 
					43.887,80.135 43.896,80.055 43.958,79.846 43.999,79.65 44.043,79.553 44.238,78.739 44.291,78.607 44.334,78.391 
					44.384,78.254 44.403,78.155 44.642,77.327 44.829,76.541 44.884,76.413 44.966,75.954 45.097,75.767 45.333,75.701 
					45.52,75.784 45.666,75.896 				"/>
				<path fill="#F5F3EF" d="M43.968,78.332l-0.084-0.457l-0.127-0.265l-0.146-0.195l-0.414-0.306l-0.429-0.161l-0.183-0.05
					l-0.103-0.04l-0.052-0.041l-0.007-0.013l0.32-1.249l0.053-0.236l-0.059-0.246l-0.261-0.112l-0.308-0.032l-0.159,0.217
					l-0.049,0.288l-0.215,0.861l-0.056,0.118l-0.019,0.155l-0.398,1.426l-0.068,0.338l-0.041,0.08l-0.075,0.293l-0.015,0.108
					l-0.031,0.074l-0.027,0.132l-0.053,0.133l-0.193,0.792l-0.016,0.277l0.162,0.169l0.538,0.147h0.1l0.083,0.038l0.652,0.121
					l0.271-0.013l0.149-0.031l0.118-0.046l0.262-0.167l0.208-0.165l0.258-0.331l0.103-0.189l0.043-0.121l0.062-0.118l0.181-0.746
					l0.027-0.146v-0.131L43.968,78.332z M43.163,78.344l-0.022,0.339l-0.062,0.294l-0.125,0.387l-0.162,0.308l-0.23,0.209
					l-0.171,0.056h-0.084l-0.133-0.006l-0.094,0.006l-0.317-0.074l-0.074-0.035l-0.043-0.03l-0.007-0.044l0.09-0.323l0.025-0.155
					l0.108-0.354l0.037-0.167l0.041-0.113l0.022-0.114l0.043-0.109l0.137-0.591l0.037-0.087l0.022-0.099l0.031-0.048l0.062-0.018
					l0.1,0.047l0.345,0.083l0.125,0.069l0.127,0.096l0.053,0.065l0.056,0.104l0.043,0.188L43.163,78.344z"/>
			</g>
		</g>
	</g>
	<g>
		<path fill="#BC7258" d="M84.311,70.589c-10.643,0-9.147,7.57-16.167,7.57l7.402,2.833l8.694-6.022L84.311,70.589z"/>
		
			<linearGradient id="SVGID_4_" gradientUnits="userSpaceOnUse" x1="-5917.708" y1="93.2832" x2="-5915.9922" y2="90.1116" gradientTransform="matrix(1 0 0 1 5992 0)">
			<stop  offset="0.0621" style="stop-color:#FFFFFF"/>
			<stop  offset="1" style="stop-color:#FFFFFF;stop-opacity:0"/>
		</linearGradient>
		<path opacity="0.45" fill="url(#SVGID_4_)" d="M68.449,88.396c0,0.773,0.469,4.079,5.382,4.079c4.206,0,8.656,0,9.853,0
			c0.199,0,0.308,0,0.308,0l0.051-4.079C66.878,82.936,68.449,86.975,68.449,88.396z"/>
		<path fill="#F1875D" d="M95.681,83.133c0,0-1.147,20.351-14.45,20.351c-13.303,0-8.198-31.081-8.198-31.081l11.01-3.115
			L95.681,83.133z"/>
		<path fill="#BC7258" d="M88.712,69.238c0,3.271-4.485,5.753-4.485,5.753c0-9.906-4.115-5.465-4.115-15.659
			c0-10.193,10.007-14.913,14.536-14.913c4.531,0,20.286-0.104,20.286,14.877c-0.126,15.228,9.817,4.782,13.971,8.18
			c4.152,3.399,0.125,8.936,6.671,8.936c6.543,0,1.351,6.719,1.351,6.719H95.695L88.712,69.238z"/>
		<path fill="#BC7258" d="M84.311,74.972c0,0,3.26-9.432-3.178-9.312c1.966,5.813-7.277,0.95-11.958,0.803
			c-8.591-0.268-15.135,3.846-15.135,13.686c0,8.072,9.271,14.763,7.135,17.945c2.427-0.975,3.249-0.426,4.677,0.699
			c-0.047-1.178-1.059-5.473-1.059-8.989C64.792,80.576,84.311,74.972,84.311,74.972z"/>
		<path fill="#9E6252" d="M76.228,76.449c0,0,12.903-4.595,10.521-13.787c0,0,1.147,1.933,1.951,2.221
			C88.706,66.561,91.222,77.369,76.228,76.449z"/>
		<path fill="#EED2B9" d="M84.229,75.042c0.376,0.588,1.571,8.091,11.451,8.091c0-8.308-1.147-8.095,7.363-8.095l-14.332-5.751
			C88.712,72.557,84.229,75.042,84.229,75.042z"/>
		<path fill="#DCEFED" d="M119.935,78.649l0.004,19.345c13.665,0,18.135-15.196,18.135-15.196l-0.633-4.164L119.935,78.649z"/>
		<path fill="#9BA9D7" d="M119.935,120.304c8.915-0.292,7.436-19.194,0-22.31c0,0,4.832-2.063,4.832-8.324l-4.832,1.503
			C119.935,91.173,119.935,111.315,119.935,120.304z"/>
		<path fill="#BC7258" d="M114.445,65.65l-1.746-14.535c5.618,10.684,14.148,4.396,22.029,6.282
			c4.783,1.145,8.002,4.842,8.002,10.84c0,6.248-0.245,14.561-5.124,14.561l0.047-3.289L114.445,65.65z"/>
		<path fill="#9E6252" d="M103.675,50.283l-0.99,13.49l5.145-0.024c0,0,9.144,0.79,12.105-1.214c0,0,15.857,6.055,13.047,2.097
			C132.195,57.046,109.497,65.102,103.675,50.283z"/>
		<path fill="#EED2B9" d="M114.98,74.841l2.461,16.458h2.443c16.068-2.485,18.256-8.377,18.256-8.377v-4.424
			c4.618-4.876,1.916-9.548-4.632-8.269l0.006-5.474c0-3.182-14.956-2.146-14.956-2.146s-3.507,1.021-3.507,3.166v3.08
			c0,0,1.094,0.266,1.094,1.943C116.146,72.481,114.98,74.841,114.98,74.841z"/>
		
			<linearGradient id="SVGID_5_" gradientUnits="userSpaceOnUse" x1="241.9072" y1="79.5967" x2="243.6442" y2="76.3861" gradientTransform="matrix(-1 0 0 1 371.25 0)">
			<stop  offset="0.0621" style="stop-color:#FFFFFF"/>
			<stop  offset="1" style="stop-color:#FFFFFF;stop-opacity:0"/>
		</linearGradient>
		<path opacity="0.45" fill="url(#SVGID_5_)" d="M135.26,74.648c0,0.781-0.476,4.129-5.448,4.129c-4.976,0-10.288,0-10.288,0
			l-0.051-4.129C136.851,69.122,135.26,73.21,135.26,74.648z"/>
		<path fill="#DBBAA3" d="M95.681,83.133c0-8.308-1.147-8.095,7.363-8.095l-14.332-5.751c3.152,1.961,2.098,7.52,2.098,13.087
			C90.81,82.374,93.636,83.133,95.681,83.133z"/>
		<path fill="#BC7258" d="M135.26,74.648c0,0-0.957-4.646,1.627-4.646c2.585,0-3.381-1.52-3.381-1.52s0,2.952,0,4.56
			C133.506,74.648,135.26,74.648,135.26,74.648z"/>
		<path fill="#EED2B9" d="M103.675,50.283c0,0,1.069,3.585,1.069,8.24c0,4.657,3.085,5.226,3.085,5.226
			c0.252,1.386-2.077,1.951-2.077,1.951s-1.008,3.399-1.008,8.307c0,3.01-11.516-1.167-16.028-4.72c0,0-0.017-4.322-0.017-4.404
			c-1.399,0-2.957-2.769-1.321-5.097c1.636-2.33,4.971-0.379,4.971-0.379S103.675,56.701,103.675,50.283z"/>
		
			<linearGradient id="SVGID_6_" gradientUnits="userSpaceOnUse" x1="2322.1533" y1="66.356" x2="2323.6504" y2="63.5889" gradientTransform="matrix(1 0 0 1 -2224.5781 0)">
			<stop  offset="0.0621" style="stop-color:#FFFFFF"/>
			<stop  offset="1" style="stop-color:#FFFFFF;stop-opacity:0"/>
		</linearGradient>
		<path opacity="0.45" fill="url(#SVGID_6_)" d="M92.477,62.092c0,0.675,0.41,3.559,4.696,3.559s8.864,0,8.864,0l0.045-3.559
			C91.107,57.33,92.477,60.854,92.477,62.092z"/>
		<path fill="#EED2B9" d="M85.7,91.509c0,0-0.447,0.966-2.018,0.966l-2.452,11.009c-15.871-2.584-17.361-6.61-17.361-6.61v-3.417
			c-5.99-2.945-3.147-9.78,0.008-9.78s4.533-7.885,4.533-7.885c4.373,4.728,7.817,0.658,7.817,0.658s5.712,0.368,8.005-1.409
			l0.007,7.208c0,0-1.082,0.276-1.082,2.021C83.158,86.018,85.7,91.509,85.7,91.509z"/>
		<path fill="#BC7258" d="M75.303,97.321c0,0,1.425-4.847,8.381-4.847l-2.453,11.009c-13.011-0.413-17.361-6.61-17.361-6.61v-3.417
			l0.008-9.78l-3.196-4.756l7.729-3.129v13.257C68.411,89.048,69.224,97.321,75.303,97.321z"/>
		<path fill="#DBBAA3" d="M119.935,91.3V62.535c-0.32-0.061-4.954,0.127-4.954,3.115l0.072,3.146c0,0,1.104,0.221,1.104,1.918
			s-1.177,4.126-1.177,4.126l2.461,16.458L119.935,91.3z"/>
		
			<linearGradient id="SVGID_7_" gradientUnits="userSpaceOnUse" x1="341.4092" y1="93.0508" x2="342.9447" y2="90.2126" gradientTransform="matrix(1 0 0 1 -267.7363 0)">
			<stop  offset="0.0621" style="stop-color:#FFFFFF"/>
			<stop  offset="1" style="stop-color:#FFFFFF;stop-opacity:0"/>
		</linearGradient>
		<path opacity="0.45" fill="url(#SVGID_7_)" d="M68.445,88.677c0,0.692,0.419,3.65,4.815,3.65c4.396,0,9.092,0,9.092,0l0.045-3.65
			C67.039,83.792,68.445,87.406,68.445,88.677z"/>
	</g>
	<g>
		<path fill="#9CD3F4" d="M115.299,96.819c0,0,0.473,2.454-2.784,3.186l-0.002-0.001c0.061,1.193-0.127,2.417-0.598,3.6
			c-1.755,4.409-6.757,6.56-11.166,4.807c-4.411-1.757-6.564-6.757-4.809-11.165c1.754-4.412,6.753-6.564,11.167-4.808
			c2.421,0.963,4.162,2.907,4.948,5.194C113.175,98.151,115.299,96.819,115.299,96.819z"/>
		<linearGradient id="SVGID_8_" gradientUnits="userSpaceOnUse" x1="89.5605" y1="99.1221" x2="109.5547" y2="99.1221">
			<stop  offset="0.0703" style="stop-color:#6AB686;stop-opacity:0.5"/>
			<stop  offset="0.3727" style="stop-color:#A8D0B1;stop-opacity:0.3351"/>
			<stop  offset="0.7921" style="stop-color:#E8F2EA;stop-opacity:0.1064"/>
			<stop  offset="0.9872" style="stop-color:#FFFFFF;stop-opacity:0"/>
			<stop  offset="1" style="stop-color:#AD9E96;stop-opacity:0.2714"/>
		</linearGradient>
		<path fill="url(#SVGID_8_)" d="M89.584,95.52c0,0-0.473,2.452,2.784,3.186l0.003-0.001c-0.062,1.192,0.125,2.416,0.598,3.601
			c1.755,4.407,6.756,6.559,11.165,4.804c4.412-1.755,6.563-6.755,4.811-11.164c-1.757-4.411-6.757-6.563-11.168-4.808
			c-2.422,0.964-4.163,2.906-4.949,5.195C91.71,96.852,89.584,95.52,89.584,95.52z"/>
		<path fill="#FFFFFF" d="M108.666,99.009h-9.849c-0.259,0-0.468-0.208-0.468-0.466c0-0.257,0.209-0.467,0.468-0.467h9.849
			c0.259,0,0.467,0.21,0.467,0.467C109.133,98.801,108.925,99.009,108.666,99.009z"/>
		<path fill="#FFFFFF" d="M108.666,100.889h-9.849c-0.259,0-0.468-0.21-0.468-0.466c0-0.259,0.209-0.467,0.468-0.467h9.849
			c0.259,0,0.467,0.208,0.467,0.467C109.133,100.679,108.925,100.889,108.666,100.889z"/>
		<path fill="#FFFFFF" d="M108.666,102.793h-9.849c-0.259,0-0.468-0.208-0.468-0.466s0.209-0.466,0.468-0.466h9.849
			c0.259,0,0.467,0.208,0.467,0.466S108.925,102.793,108.666,102.793z"/>
	</g>
</g>
</svg>
