<?xml version="1.0" encoding="utf-8"?>
<!-- Generator: Adobe Illustrator 15.0.0, SVG Export Plug-In . SVG Version: 6.00 Build 0)  -->
<!DOCTYPE svg PUBLIC "-//W3C//DTD SVG 1.1//EN" "http://www.w3.org/Graphics/SVG/1.1/DTD/svg11.dtd">
<svg version="1.1" id="Layer_1" xmlns="http://www.w3.org/2000/svg" xmlns:xlink="http://www.w3.org/1999/xlink" x="0px" y="0px"
	 width="168px" height="154px" viewBox="0 0 168 154" enable-background="new 0 0 168 154" xml:space="preserve">
<g>
	<g>
		<polygon fill-rule="evenodd" clip-rule="evenodd" fill="#FDC632" points="8.72,125.752 43.142,125.752 74.749,94.146 
			40.326,94.146 		"/>
		<polygon fill-rule="evenodd" clip-rule="evenodd" fill="#FFE68B" points="7.64,122.306 41.752,126.909 77.303,99.815 
			43.189,95.21 		"/>
		<circle fill-rule="evenodd" clip-rule="evenodd" fill="#ECCFE5" cx="29.984" cy="22.21" r="12.083"/>
		<circle fill-rule="evenodd" clip-rule="evenodd" fill="#ECCFE5" cx="144.795" cy="128.78" r="15.565"/>
		<g>
			<polygon fill-rule="evenodd" clip-rule="evenodd" fill="#F8F5F0" points="34.226,24.94 34.944,27.725 28.15,29.476 
				27.433,26.691 29.107,26.259 27.147,18.658 25.624,19.05 24.906,16.265 31.398,14.591 32.116,17.376 30.591,17.771 
				32.551,25.372 			"/>
		</g>
		<g>
			<polygon fill-rule="evenodd" clip-rule="evenodd" fill="#F8F5F0" points="143.217,131.372 142.669,134.445 135.174,133.109 
				135.721,130.036 137.568,130.366 139.063,121.977 137.382,121.678 137.929,118.604 145.092,119.881 144.545,122.953 
				142.863,122.654 141.368,131.042 			"/>
			<polygon fill-rule="evenodd" clip-rule="evenodd" fill="#F8F5F0" points="152.706,133.063 152.158,136.135 144.662,134.8 
				145.21,131.727 147.058,132.057 148.553,123.668 146.871,123.368 147.418,120.295 154.581,121.57 154.034,124.644 
				152.353,124.345 150.858,132.732 			"/>
		</g>
		<path fill-rule="evenodd" clip-rule="evenodd" fill="#99D1F3" d="M57.667,112.672H35.577H57.667z"/>
		<path fill-rule="evenodd" clip-rule="evenodd" fill="#99D1F3" d="M35.577,113.495h22.089c0.455,0,0.824-0.368,0.824-0.823
			s-0.369-0.824-0.824-0.824H35.577c-0.455,0-0.825,0.369-0.825,0.824S35.122,113.495,35.577,113.495z"/>
		<path fill-rule="evenodd" clip-rule="evenodd" fill="#99D1F3" d="M54.447,116.65H32.358H54.447z"/>
		<path fill-rule="evenodd" clip-rule="evenodd" fill="#99D1F3" d="M32.358,117.475h22.089c0.455,0,0.824-0.369,0.824-0.824
			s-0.37-0.824-0.824-0.824H32.358c-0.455,0-0.825,0.369-0.825,0.824S31.903,117.475,32.358,117.475z"/>
		<path fill-rule="evenodd" clip-rule="evenodd" fill="#99D1F3" d="M51.083,120.359h-22.09H51.083z"/>
		<path fill-rule="evenodd" clip-rule="evenodd" fill="#99D1F3" d="M28.993,121.184h22.09c0.454,0,0.824-0.369,0.824-0.824
			c0-0.456-0.37-0.825-0.824-0.825h-22.09c-0.455,0-0.824,0.369-0.824,0.825C28.169,120.814,28.538,121.184,28.993,121.184z"/>
		<path fill-rule="evenodd" clip-rule="evenodd" fill="#ECCFE5" d="M13.66,15.956c-0.431-0.067-0.738-0.461-0.69-0.901
			c0.386-3.618,4.395-6.564,4.565-6.688c0.368-0.267,0.883-0.185,1.15,0.183c0.268,0.367,0.186,0.882-0.182,1.15
			c-0.036,0.026-3.587,2.644-3.895,5.529c-0.048,0.453-0.454,0.78-0.907,0.732C13.688,15.96,13.674,15.959,13.66,15.956z"/>
		<path fill-rule="evenodd" clip-rule="evenodd" fill="#ECCFE5" d="M11.769,11.504c-0.016-0.003-0.032-0.005-0.049-0.009
			c-0.444-0.097-0.727-0.535-0.63-0.98c0.766-3.532,5.037-6.016,5.218-6.119c0.395-0.226,0.897-0.091,1.124,0.304
			c0.226,0.395,0.09,0.898-0.304,1.125c-0.038,0.023-3.818,2.228-4.428,5.039C12.608,11.293,12.197,11.571,11.769,11.504z"/>
		<path fill-rule="evenodd" clip-rule="evenodd" fill="#ECCFE5" d="M159.086,143.528c-0.01,0.019-0.02,0.036-0.031,0.054
			c-6.396,10.201-16.825,5.416-16.931,5.367c-0.514-0.244-0.732-0.857-0.49-1.372c0.244-0.511,0.856-0.733,1.371-0.491
			c0.365,0.172,8.893,4.029,14.304-4.598c0.303-0.482,0.938-0.628,1.42-0.326C159.193,142.453,159.346,143.055,159.086,143.528z"/>
		<path fill-rule="evenodd" clip-rule="evenodd" fill="#FFFFFF" d="M50.286,32.829c-5.317,0-9.643-4.327-9.643-9.643
			s4.326-9.642,9.643-9.642c5.316,0,9.642,4.326,9.642,9.642S55.603,32.829,50.286,32.829L50.286,32.829z M50.286,17.441
			L50.286,17.441c-3.167,0-5.744,2.577-5.744,5.744c0,3.167,2.577,5.744,5.744,5.744c3.167,0,5.743-2.577,5.743-5.744
			C56.029,20.018,53.454,17.441,50.286,17.441z"/>
		<g>
			<path fill-rule="evenodd" clip-rule="evenodd" fill="#00A598" d="M154.009,82.541c0,3.17-2.381,5.739-5.317,5.739H71.138
				c-2.936,0-5.317-2.569-5.317-5.739V41.409c0-3.17,2.382-5.739,5.317-5.739h77.553c2.937,0,5.317,2.569,5.317,5.739V82.541z"/>
			<path fill-rule="evenodd" clip-rule="evenodd" fill="#94CFCF" d="M148.515,82.541c0,3.17-2.382,5.739-5.317,5.739H65.645
				c-2.938,0-5.318-2.569-5.318-5.739V41.409c0-3.17,2.38-5.739,5.318-5.739h77.553c2.936,0,5.317,2.569,5.317,5.739V82.541z"/>
			<path fill-rule="evenodd" clip-rule="evenodd" fill="#F8F5F0" d="M145.423,77.599c0,2.599-2.214,4.707-4.944,4.707H68.362
				c-2.73,0-4.944-2.108-4.944-4.707V43.878c0-2.599,2.214-4.707,4.944-4.707h72.117c2.73,0,4.944,2.108,4.944,4.707V77.599z"/>
			<path fill-rule="evenodd" clip-rule="evenodd" fill="#00ACA0" d="M118.798,108.685c13.818,0,11.069-20.404,11.069-20.404H95.472
				c0,0,3.023,20.438-11.572,20.438L118.798,108.685z"/>
			<path fill-rule="evenodd" clip-rule="evenodd" fill="#30B4A6" d="M111.203,108.718c0,0,6.82-20.438-15.731-20.438
				c0,0,3.023,20.438-11.572,20.438H111.203z"/>
			<path fill-rule="evenodd" clip-rule="evenodd" fill="#94CFCF" d="M76.78,58.661c0,1.136-0.368,2.071-1.1,2.803
				c-0.69,0.687-1.907,1.052-3.653,1.098l-0.081,2c-0.022,0.535-0.032,1.175-0.032,1.916l-2.49-0.113
				c0.237-5.088,0.36-8.868,0.372-11.337c0.884-0.048,1.578-0.071,2.085-0.071c1.735,0,2.99,0.352,3.766,1.057
				C76.402,56.717,76.78,57.6,76.78,58.661L76.78,58.661z M74.29,58.661L74.29,58.661c0-0.61-0.156-1.057-0.469-1.338
				c-0.301-0.271-0.797-0.408-1.486-0.408H72.27l-0.162,3.689c0.162,0.01,0.387,0.014,0.679,0.014
				C73.789,60.516,74.29,59.863,74.29,58.661z"/>
			<path fill-rule="evenodd" clip-rule="evenodd" fill="#94CFCF" d="M85.056,63.084c0.021,0.947-0.302,1.737-0.97,2.366
				c-0.755,0.695-1.698,1.042-2.829,1.042c-0.905-0.009-2.07-0.445-3.492-1.309l1.229-1.958c0.873,0.77,1.626,1.169,2.263,1.197
				c0.636-0.028,0.959-0.473,0.969-1.337c-0.032-0.32-0.119-0.606-0.258-0.86c-0.141-0.253-0.48-0.536-1.02-0.844
				c-1.25-0.451-2.095-0.991-2.537-1.621c-0.388-0.535-0.583-1.159-0.583-1.873c0-0.854,0.318-1.554,0.954-2.099
				c0.647-0.555,1.493-0.831,2.539-0.831c0.895,0,1.643,0.292,2.247,0.874c0.398,0.375,0.834,1.009,1.309,1.901l-2.36,1.071
				c-0.194-0.724-0.373-1.207-0.534-1.451c-0.162-0.226-0.382-0.338-0.663-0.338c-0.443,0-0.663,0.291-0.663,0.873
				c0,0.357,0.096,0.639,0.29,0.845c0.152,0.15,0.432,0.319,0.842,0.507c1.25,0.544,2.112,1.161,2.586,1.846
				C84.818,61.712,85.045,62.379,85.056,63.084z"/>
			<path fill-rule="evenodd" clip-rule="evenodd" fill="#94CFCF" d="M93.735,55.746c-0.766,1.239-1.793,3.177-3.088,5.815
				l-0.387,4.93l-2.521-0.113c0.129-1.004,0.264-2.61,0.403-4.817l-2.166-5.915l2.279-0.676c0.237,1.052,0.614,2.404,1.132,4.057
				c0.313-0.639,0.997-1.953,2.053-3.944L93.735,55.746z"/>
			<path fill-rule="evenodd" clip-rule="evenodd" fill="#94CFCF" d="M103.146,63.493c-0.757,1.107-1.485,1.864-2.187,2.267
				c-0.81,0.479-1.597,0.723-2.361,0.732c-1.348,0.01-2.513-0.559-3.494-1.704c-0.912-1.07-1.368-2.466-1.368-4.183
				c0-1.681,0.472-3.052,1.415-4.113c0.903-1.033,2.135-1.55,3.692-1.55c0.749,0,1.48,0.235,2.197,0.705
				c0.655,0.404,1.263,1.094,1.825,2.07l-1.38,0.901c-0.328-0.6-0.779-1.056-1.355-1.364c-0.421-0.236-0.85-0.353-1.287-0.353
				c-0.949,0-1.737,0.337-2.361,1.014c-0.701,0.778-1.051,1.676-1.051,2.689c0,1.118,0.322,2.057,0.97,2.817
				c0.647,0.733,1.379,1.099,2.197,1.099c0.584,0,1.22-0.236,1.905-0.705c0.608-0.403,1.149-1.008,1.625-1.816L103.146,63.493z"/>
			<path fill-rule="evenodd" clip-rule="evenodd" fill="#94CFCF" d="M111.486,55.041l-0.064,1.593
				c-0.032,0.797-0.048,3.553-0.048,8.267v1.59l-2.846-0.069c0.065-0.564,0.103-1.123,0.113-1.677l0.081-3.099
				c-0.291,0-0.689,0-1.196,0c-0.517,0.01-0.884,0.014-1.1,0.014c-0.021,0.723-0.031,1.803-0.031,3.24v1.59l-2.699-0.069
				c0.053-0.517,0.091-1.075,0.112-1.677l0.324-9.732l2.585,0.028l-0.064,1.593c-0.043,0.628-0.092,1.544-0.145,2.745h2.278
				l0.13-4.366L111.486,55.041z"/>
			<path fill-rule="evenodd" clip-rule="evenodd" fill="#94CFCF" d="M119.262,61.041c0,1.408-0.351,2.686-1.051,3.832
				c-0.668,1.081-1.541,1.619-2.619,1.619c-0.97,0-1.82-0.487-2.553-1.463c-0.711-0.968-1.067-2.282-1.067-3.944
				c0-1.372,0.242-2.63,0.728-3.775c0.657-1.568,1.638-2.352,2.941-2.352c0.646,0,1.234,0.202,1.763,0.605
				c0.55,0.46,1.066,1.151,1.552,2.071l-0.324,0.141C119.051,59.032,119.262,60.122,119.262,61.041L119.262,61.041z M116.772,61.041
				L116.772,61.041c0-1.145-0.243-2.173-0.728-3.084l0.533-0.168c-0.055-0.104-0.14-0.253-0.259-0.452
				c-0.205-0.253-0.431-0.38-0.679-0.38c-0.345,0-0.624,0.38-0.84,1.141c-0.227,0.761-0.34,1.757-0.34,2.987
				c0,0.582,0.07,1.21,0.21,1.887c0.205,1.014,0.512,1.521,0.921,1.521c0.432,0,0.755-0.507,0.971-1.521
				C116.702,62.304,116.772,61.661,116.772,61.041z"/>
			<path fill-rule="evenodd" clip-rule="evenodd" fill="#94CFCF" d="M120.533,63.887c0.398,0,0.743,0.122,1.034,0.366
				c0.28,0.244,0.437,0.563,0.47,0.957c-0.033,0.356-0.189,0.662-0.47,0.915c-0.28,0.246-0.625,0.38-1.034,0.409
				c-0.432-0.028-0.792-0.169-1.083-0.423c-0.291-0.243-0.437-0.545-0.437-0.901c0-0.385,0.146-0.703,0.437-0.957
				C119.729,64.008,120.091,63.887,120.533,63.887z"/>
			<path fill-rule="evenodd" clip-rule="evenodd" fill="#94CFCF" d="M131.188,65.618l-2.456,0.846
				c-0.819-2.188-1.525-3.902-2.118-5.141c-0.044,0-0.097,0-0.161,0l-0.194,5.141l-2.569-0.113l0.112-1.943
				c0.173-2.958,0.26-6.052,0.26-9.282c0.656-0.113,1.48-0.169,2.472-0.169c1.628,0,2.776,0.31,3.443,0.93
				c0.646,0.62,0.971,1.375,0.971,2.267c0,0.762-0.324,1.451-0.971,2.071c-0.259,0.264-0.593,0.47-1.002,0.621l0.712,1.619
				c0.269,0.583,0.538,1.179,0.808,1.79C130.762,64.843,130.993,65.299,131.188,65.618L131.188,65.618z M128.344,58.153
				L128.344,58.153c-0.022-0.375-0.124-0.661-0.308-0.858c-0.193-0.178-0.598-0.267-1.213-0.267h-0.21l-0.081,2.408
				c0.496-0.047,0.873-0.136,1.132-0.268C128.084,58.971,128.312,58.632,128.344,58.153z"/>
			<path fill-rule="evenodd" clip-rule="evenodd" fill="#94CFCF" d="M139.415,55.041c-0.129,0.949-0.204,2.46-0.227,4.536
				c-0.031,2.779-0.35,4.605-0.952,5.479c-0.68,0.967-1.574,1.446-2.685,1.436c-1.013-0.009-1.868-0.398-2.569-1.168
				c-0.658-0.741-0.986-1.799-0.986-3.169c0-0.451,0.032-1.234,0.097-2.353c0.098-1.708,0.146-3.294,0.146-4.76l2.845,0.169
				l-0.227,3.647c-0.108,1.728-0.162,2.827-0.162,3.296c0,1.521,0.285,2.309,0.856,2.367c0.356-0.01,0.609-0.4,0.762-1.169
				c0.182-0.902,0.273-2.986,0.273-6.254v-2.155L139.415,55.041z"/>
			<path fill-rule="evenodd" clip-rule="evenodd" fill="#94CFCF" d="M78.75,106.903c0,0.983,0.798,1.781,1.781,1.781h37.649
				c0.983,0,1.78-0.798,1.78-1.781s-0.797-1.78-1.78-1.78H80.53C79.548,105.123,78.75,105.92,78.75,106.903z"/>
			<path fill-rule="evenodd" clip-rule="evenodd" fill="#00A598" d="M119.96,106.903c0-0.53-0.232-1.008-0.601-1.334l10.635-10.635
				c-0.443,5.953-2.654,13.75-11.196,13.75h-0.618C119.163,108.685,119.96,107.886,119.96,106.903z"/>
		</g>
	</g>
</g>
</svg>
