<?xml version="1.0" encoding="utf-8"?>
<!-- Generator: Adobe Illustrator 16.0.0, SVG Export Plug-In . SVG Version: 6.00 Build 0)  -->
<!DOCTYPE svg PUBLIC "-//W3C//DTD SVG 1.1//EN" "http://www.w3.org/Graphics/SVG/1.1/DTD/svg11.dtd">
<svg version="1.1" id="Layer_1" xmlns="http://www.w3.org/2000/svg" xmlns:xlink="http://www.w3.org/1999/xlink" x="0px" y="0px"
	 width="48px" height="48px" viewBox="0 0 48 48" enable-background="new 0 0 48 48" xml:space="preserve">
<g>
	<path fill-rule="evenodd" clip-rule="evenodd" fill="#FFFFFF" d="M13.213,45.595c5.953,0,10.808-4.851,10.808-10.797
		C24.021,28.851,19.166,24,13.213,24S2.405,28.851,2.405,34.798C2.405,40.744,7.261,45.595,13.213,45.595z"/>
	
		<circle fill-rule="evenodd" clip-rule="evenodd" fill="none" stroke="#B3C1D6" stroke-width="1.3329" stroke-linecap="round" stroke-linejoin="round" stroke-miterlimit="10" cx="27.578" cy="21.885" r="17.329"/>
	
		<polyline fill-rule="evenodd" clip-rule="evenodd" fill="none" stroke="#B3C1D6" stroke-width="1.2796" stroke-linecap="round" stroke-linejoin="round" stroke-miterlimit="10" points="
		15.253,9.704 12.915,17.886 16.914,21.885 24.246,21.219 22.246,24.551 22.246,26.551 24.913,28.55 26.245,35.215 29.578,31.216 
		30.911,26.551 32.91,23.218 30.244,21.219 26.245,20.552 24.913,16.553 27.578,13.887 28.911,15.22 30.244,8.555 28.252,4.569 	"/>
	
		<polyline fill-rule="evenodd" clip-rule="evenodd" fill="none" stroke="#B3C1D6" stroke-width="1.3329" stroke-linecap="round" stroke-linejoin="round" stroke-miterlimit="10" points="
		37.976,8.021 36.909,11.221 34.244,15.22 35.576,17.886 40.908,19.219 42.241,23.218 44.327,26.348 	"/>
</g>
</svg>
