<?xml version="1.0" encoding="utf-8"?>
<!-- Generator: Adobe Illustrator 15.0.0, SVG Export Plug-In . SVG Version: 6.00 Build 0)  -->
<!DOCTYPE svg PUBLIC "-//W3C//DTD SVG 1.1//EN" "http://www.w3.org/Graphics/SVG/1.1/DTD/svg11.dtd">
<svg version="1.1" id="Layer_1" xmlns="http://www.w3.org/2000/svg" xmlns:xlink="http://www.w3.org/1999/xlink" x="0px" y="0px"
	 width="144px" height="180px" viewBox="0 0 144 180" enable-background="new 0 0 144 180" xml:space="preserve">
<g>
	<path fill-rule="evenodd" clip-rule="evenodd" fill="#28508B" d="M67.777,167.741c-0.024,0.005-0.048,0.009-0.071,0.012
		c-13.907,2.003-17.517-10.89-17.552-11.021c-0.171-0.641,0.209-1.3,0.851-1.471c0.638-0.169,1.299,0.209,1.472,0.85
		c0.123,0.453,3.124,10.956,14.886,9.264c0.656-0.095,1.266,0.361,1.361,1.018C68.815,167.025,68.396,167.614,67.777,167.741z"/>
	<path fill-rule="evenodd" clip-rule="evenodd" fill="#28508B" d="M61.743,171.061c-0.017,0.003-0.035,0.006-0.053,0.009
		c-10.375,1.494-13.067-8.125-13.094-8.223c-0.128-0.479,0.156-0.97,0.635-1.098c0.476-0.126,0.969,0.155,1.098,0.634
		c0.092,0.338,2.33,8.174,11.105,6.911c0.489-0.071,0.945,0.27,1.015,0.76C62.518,170.526,62.204,170.966,61.743,171.061z"/>
	<path fill-rule="evenodd" clip-rule="evenodd" fill="#C791C0" d="M16.855,25.375c-0.195,0-0.395-0.04-0.584-0.125
		c-0.729-0.324-1.057-1.176-0.732-1.905c0.16-0.358,4.002-8.769,12.847-8.412c0.796,0.033,1.415,0.705,1.381,1.501
		c-0.033,0.796-0.717,1.404-1.501,1.382c-6.888-0.292-10.06,6.631-10.091,6.701C17.937,25.056,17.409,25.375,16.855,25.375z"/>
	<path fill-rule="evenodd" clip-rule="evenodd" fill="#C791C0" d="M10.823,24.424c-0.219,0-0.441-0.05-0.65-0.155
		c-0.711-0.359-0.997-1.228-0.637-1.938C9.832,21.744,16.96,7.99,32.188,8.809c0.795,0.042,1.406,0.723,1.364,1.518
		c-0.043,0.796-0.73,1.403-1.519,1.363c-13.368-0.714-19.857,11.815-19.921,11.942C11.857,24.134,11.35,24.424,10.823,24.424z"/>
	<g>
		<g>
			<g>
				<path fill-rule="evenodd" clip-rule="evenodd" fill="#B3C1D6" d="M71.068,128.917l13.863-12.01h12.123v21.479
					c0,0-0.954,11.542-25.986,11.542V128.917z"/>
				<path fill-rule="evenodd" clip-rule="evenodd" fill="#DCE7F7" d="M71.068,128.917h22.897l0.047,20.116
					c0,0-10.387,7.628-32.748,5.944L71.068,128.917z"/>
			</g>
			<g>
				<path fill-rule="evenodd" clip-rule="evenodd" fill="#DBB8A0" d="M89.903,122.39c4.966-3.997,9.936-25.639,20.577-38.585
					c0.922-1.092-5.415-2.445-8.016,1.707c-3.371,5.405-8.925,9.825-8.925,9.825l-2.187-11.781c0,0,2.589-4.301-0.049-7.744
					c-2.024-2.661-4.72-2.031-5.87-1.071c-0.979,0.821-18.349,8.943-16.144,23.291c1.266,8.228,4.253,20.989,4.253,20.989
					l-2.476,9.896L89.903,122.39z"/>
				<path fill-rule="evenodd" clip-rule="evenodd" fill="#DBB8A0" d="M89.903,122.39c4.966-3.997,9.936-25.639,20.577-38.585
					c0.922-1.092-5.415-2.445-8.016,1.707c-3.371,5.405-8.925,9.825-8.925,9.825S73.707,110.19,89.903,122.39z"/>
				<path fill-rule="evenodd" clip-rule="evenodd" fill="#9CD2F3" d="M75.913,92.461c-0.765,0-1.527-0.041-2.289-0.123
					c-13.703-1.471-21.308-15.705-21.625-16.311l5.684-2.985c0.063,0.118,6.376,11.834,16.657,12.916
					c7.19,0.756,14.947-3.779,23.059-13.48l4.925,4.119C93.513,87.134,84.639,92.461,75.913,92.461z"/>
				<g>
					<path fill-rule="evenodd" clip-rule="evenodd" fill="#EBD0B6" d="M90.814,72.988c2.713,5.57,6.24,13.744,6.24,13.744
						c-1.486,4.007-6.893,0.235-6.893,0.235L83.76,73.774C83.76,73.774,88.1,67.418,90.814,72.988z"/>
					<path fill-rule="evenodd" clip-rule="evenodd" fill="#EBD0B6" d="M91,91.182c-4.385,1.63-7.646-1.535-7.646-1.535
						c-0.182-0.394-0.437-0.947-0.735-1.611c-1.068-2.361-2.745-6.074-4.04-8.781c-0.235-0.496-0.461-0.958-0.667-1.371l4.837-3.399
						c0.337,0.322,0.674,0.735,1.024,1.255c0.24,0.371,0.49,0.798,0.74,1.279c1.202,2.462,2.606,5.516,3.804,8.161
						C89.827,88.507,91,91.182,91,91.182z"/>
					<path fill-rule="evenodd" clip-rule="evenodd" fill="#EBD0B6" d="M84.691,94.706c-2.852,3.217-6.767,0.327-6.925,0.207
						l2.293,4.481c-1.442,2.126-5.564,0-5.564,0s-3.212-4.693-4.573-8.892c-0.279-0.86-0.48-1.697-0.563-2.472
						c-0.231-2.236,0.548-3.929,3.386-3.996l-0.663-2.06l0.956-0.671l3.992-2.804h0.004c0.409,0.101,0.77,0.428,1.044,1.077
						c0.004,0.014,0.014,0.034,0.023,0.053c0.549,1.289,2.241,5.155,3.775,8.651C83.359,91.667,84.691,94.706,84.691,94.706z"/>
				</g>
			</g>
			<circle fill-rule="evenodd" clip-rule="evenodd" fill="#28508B" cx="89.042" cy="135.695" r="3.051"/>
		</g>
		<g>
			<polygon fill-rule="evenodd" clip-rule="evenodd" fill="#9CD2F3" points="133.249,55.132 130.393,67.977 125.267,68.732 
				97.773,72.791 97.043,72.901 91.19,73.762 88.993,74.089 85.642,74.579 84.252,74.786 83.174,74.945 81.799,75.147 
				61.313,78.172 54.018,79.249 15.114,84.991 28.525,26.313 31.93,27.25 38.687,29.111 85.17,41.903 127.306,53.497 
				127.373,53.517 			"/>
			<linearGradient id="SVGID_1_" gradientUnits="userSpaceOnUse" x1="117.2148" y1="88.4932" x2="82.1491" y2="51.4866">
				<stop  offset="0.1232" style="stop-color:#F1F1F2;stop-opacity:0.85"/>
				<stop  offset="0.2847" style="stop-color:#F3F3F4;stop-opacity:0.6934"/>
				<stop  offset="1" style="stop-color:#F8F8F9;stop-opacity:0"/>
				<stop  offset="1" style="stop-color:#FFFFFF;stop-opacity:0"/>
			</linearGradient>
			<path fill-rule="evenodd" clip-rule="evenodd" fill="url(#SVGID_1_)" d="M127.393,53.463c0,0.015-0.01,0.034-0.02,0.053
				c-0.029,0.077-0.063,0.154-0.101,0.235c-2.333,5.309-7.896,11.056-20.665,12.917c-22.702,3.318-46.944,6.857-46.944,6.857
				l-2.991-18.813C67.824,49.29,77.23,45.091,85.17,41.903l42.136,11.594v-0.005L127.393,53.463z"/>
			<linearGradient id="SVGID_2_" gradientUnits="userSpaceOnUse" x1="20.4956" y1="95.1768" x2="32.5838" y2="39.3241">
				<stop  offset="0.1232" style="stop-color:#F1F1F2;stop-opacity:0.85"/>
				<stop  offset="0.2847" style="stop-color:#F3F3F4;stop-opacity:0.6934"/>
				<stop  offset="1" style="stop-color:#F8F8F9;stop-opacity:0"/>
				<stop  offset="1" style="stop-color:#FFFFFF;stop-opacity:0"/>
			</linearGradient>
			<polygon fill-rule="evenodd" clip-rule="evenodd" fill="url(#SVGID_2_)" points="39.447,25.793 26.708,81.515 19.279,82.611 
				32.69,23.932 			"/>
			<polygon fill-rule="evenodd" clip-rule="evenodd" fill="#B3C1D6" points="134.62,51.299 132.052,68.799 125.262,68.766 
				125.267,68.732 127.272,53.752 127.306,53.497 127.306,53.492 127.393,53.463 			"/>
		</g>
	</g>
</g>
</svg>
