<?xml version="1.0" encoding="utf-8"?>
<!-- Generator: Adobe Illustrator 16.0.0, SVG Export Plug-In . SVG Version: 6.00 Build 0)  -->
<!DOCTYPE svg PUBLIC "-//W3C//DTD SVG 1.1//EN" "http://www.w3.org/Graphics/SVG/1.1/DTD/svg11.dtd">
<svg version="1.1" id="Layer_1" xmlns="http://www.w3.org/2000/svg" xmlns:xlink="http://www.w3.org/1999/xlink" x="0px" y="0px"
	 width="48px" height="48px" viewBox="0 0 48 48" enable-background="new 0 0 48 48" xml:space="preserve">
<g>
	<path fill-rule="evenodd" clip-rule="evenodd" fill="#FFFFFF" d="M13.213,45.6c5.953,0,10.808-4.851,10.808-10.798
		c0-5.946-4.855-10.797-10.808-10.797S2.405,28.855,2.405,34.802C2.405,40.749,7.261,45.6,13.213,45.6z"/>
	
		<path fill-rule="evenodd" clip-rule="evenodd" fill="none" stroke="#B3C1D6" stroke-width="1.2796" stroke-linecap="round" stroke-linejoin="round" stroke-miterlimit="10" d="
		M13.055,25.173h-2.13c-1.333,0-1.333-1.333-1.333-1.333v-6.665c0,0,0-1.333,1.333-1.333l2.13,0"/>
	
		<path fill-rule="evenodd" clip-rule="evenodd" fill="none" stroke="#B3C1D6" stroke-width="1.2796" stroke-linecap="round" stroke-linejoin="round" stroke-miterlimit="10" d="
		M39.455,25.173h2.13c1.333,0,1.333-1.333,1.333-1.333v-6.665c0,0,0-1.333-1.333-1.333l-2.13,0"/>
	
		<line fill-rule="evenodd" clip-rule="evenodd" fill="none" stroke="#B3C1D6" stroke-width="1.2796" stroke-linecap="round" stroke-linejoin="round" stroke-miterlimit="10" x1="10.925" y1="5.178" x2="10.925" y2="15.842"/>
	
		<path fill-rule="evenodd" clip-rule="evenodd" fill="none" stroke="#B3C1D6" stroke-width="1.2796" stroke-linecap="round" stroke-linejoin="round" stroke-miterlimit="10" d="
		M40.252,20.507c0,7.728-6.264,13.997-13.997,13.997c-7.733,0-13.997-6.269-13.997-13.997c0-7.73,6.264-13.997,13.997-13.997
		C33.988,6.511,40.252,12.777,40.252,20.507z"/>
	
		<path fill-rule="evenodd" clip-rule="evenodd" fill="none" stroke="#B3C1D6" stroke-width="1.2796" stroke-linecap="round" stroke-linejoin="round" stroke-miterlimit="10" d="
		M37.586,28.726V17.175c-3.61-1.986-7.332-2.666-11.331-2.666s-7.721,0.68-11.331,2.666v11.551"/>
	
		<path fill-rule="evenodd" clip-rule="evenodd" fill="none" stroke="#B3C1D6" stroke-width="1.2796" stroke-linecap="round" stroke-linejoin="round" stroke-miterlimit="10" d="
		M37.586,19.841c-3.61-1.986-7.332-2.666-11.331-2.666s-7.721,0.68-11.331,2.666"/>
	
		<path fill-rule="evenodd" clip-rule="evenodd" fill="none" stroke="#B3C1D6" stroke-width="1.2796" stroke-linecap="round" stroke-linejoin="round" stroke-miterlimit="10" d="
		M30.921,30.505c2.61,0,6.665-3.332,6.665-7.332"/>
	
		<ellipse fill-rule="evenodd" clip-rule="evenodd" fill="none" stroke="#B3C1D6" stroke-width="1.2796" stroke-linecap="round" stroke-linejoin="round" stroke-miterlimit="10" cx="28.921" cy="30.505" rx="2" ry="1.333"/>
	
		<line fill-rule="evenodd" clip-rule="evenodd" fill="none" stroke="#B3C1D6" stroke-width="1.2796" stroke-linecap="round" stroke-linejoin="round" stroke-miterlimit="10" x1="20.257" y1="21.174" x2="24.255" y2="21.174"/>
	
		<line fill-rule="evenodd" clip-rule="evenodd" fill="none" stroke="#B3C1D6" stroke-width="1.2796" stroke-linecap="round" stroke-linejoin="round" stroke-miterlimit="10" x1="28.255" y1="21.174" x2="32.254" y2="21.174"/>
	
		<circle fill-rule="evenodd" clip-rule="evenodd" fill="none" stroke="#B3C1D6" stroke-width="1.2796" stroke-linecap="round" stroke-linejoin="round" stroke-miterlimit="10" cx="22.256" cy="21.84" r="0.667"/>
	
		<circle fill-rule="evenodd" clip-rule="evenodd" fill="none" stroke="#B3C1D6" stroke-width="1.2796" stroke-linecap="round" stroke-linejoin="round" stroke-miterlimit="10" cx="30.254" cy="21.84" r="0.667"/>
	
		<line fill-rule="evenodd" clip-rule="evenodd" fill="none" stroke="#B3C1D6" stroke-width="1.2796" stroke-linecap="round" stroke-linejoin="round" stroke-miterlimit="10" x1="25.589" y1="26.506" x2="26.922" y2="26.506"/>
	
		<path fill-rule="evenodd" clip-rule="evenodd" fill="none" stroke="#B3C1D6" stroke-width="1.2796" stroke-linecap="round" stroke-linejoin="round" stroke-miterlimit="10" d="
		M17.591,18.611c0,6.562,0.009,11.107,3.999,15.097"/>
	
		<path fill-rule="evenodd" clip-rule="evenodd" fill="none" stroke="#B3C1D6" stroke-width="1.2796" stroke-linecap="round" stroke-linejoin="round" stroke-miterlimit="10" d="
		M34.92,18.611c0,6.562-0.011,11.107-3.999,15.097"/>
	
		<path fill-rule="evenodd" clip-rule="evenodd" fill="none" stroke="#B3C1D6" stroke-width="1.2796" stroke-linecap="round" stroke-linejoin="round" stroke-miterlimit="10" d="
		M36.836,29.669c0.781-0.781,2.049-0.692,2.83,0.089s0.781,2.047,0,2.827c-3.539,3.772-7.762,5.918-13.411,5.918
		s-9.873-2.146-13.411-5.918c-0.781-0.781-0.781-2.046,0-2.827s2.049-0.869,2.83-0.089"/>
</g>
</svg>
