<?xml version="1.0" encoding="utf-8"?>
<!-- Generator: Adobe Illustrator 16.0.0, SVG Export Plug-In . SVG Version: 6.00 Build 0)  -->
<!DOCTYPE svg PUBLIC "-//W3C//DTD SVG 1.1//EN" "http://www.w3.org/Graphics/SVG/1.1/DTD/svg11.dtd">
<svg version="1.1" id="Layer_1" xmlns="http://www.w3.org/2000/svg" xmlns:xlink="http://www.w3.org/1999/xlink" x="0px" y="0px"
	 width="170px" height="154px" viewBox="0 0 170 154" enable-background="new 0 0 170 154" xml:space="preserve">
<g>
	<g>
		<path fill-rule="evenodd" clip-rule="evenodd" fill="#FFFFFF" d="M29.036,49.292c-5.243,0-9.509-4.266-9.509-9.509
			s4.266-9.508,9.509-9.508c5.242,0,9.508,4.265,9.508,9.508S34.278,49.292,29.036,49.292L29.036,49.292z M29.036,34.12
			L29.036,34.12c-3.123,0-5.664,2.541-5.664,5.663c0,3.123,2.541,5.664,5.664,5.664c3.123,0,5.663-2.541,5.663-5.664
			C34.699,36.66,32.159,34.12,29.036,34.12z"/>
		<path fill-rule="evenodd" clip-rule="evenodd" fill="#FFFFFF" d="M120.711,93.914c-16.633,0-30.165-13.533-30.165-30.165
			c0-16.631,13.532-30.163,30.165-30.163c16.631,0,30.162,13.532,30.162,30.163C150.873,80.381,137.342,93.914,120.711,93.914
			L120.711,93.914z M120.711,45.783L120.711,45.783c-9.907,0-17.968,8.061-17.968,17.966c0,9.907,8.061,17.967,17.968,17.967
			c9.906,0,17.966-8.06,17.966-17.967C138.677,53.844,130.617,45.783,120.711,45.783z"/>
		<g>
			<path fill-rule="evenodd" clip-rule="evenodd" fill="#00A89C" d="M131.314,98.313c0,3.125-2.348,5.659-5.244,5.659H49.598
				c-2.895,0-5.244-2.534-5.244-5.659v-40.56c0-3.125,2.349-5.659,5.244-5.659h76.473c2.896,0,5.244,2.534,5.244,5.659V98.313z"/>
			<path fill-rule="evenodd" clip-rule="evenodd" fill="#97D1D0" d="M125.896,98.313c0,3.125-2.348,5.659-5.244,5.659H44.18
				c-2.896,0-5.244-2.534-5.244-5.659v-40.56c0-3.125,2.348-5.659,5.244-5.659h76.472c2.896,0,5.244,2.534,5.244,5.659V98.313z"/>
			<path fill-rule="evenodd" clip-rule="evenodd" fill="#F6F4F0" d="M122.849,93.439c0,2.563-2.184,4.64-4.876,4.64H46.86
				c-2.693,0-4.876-2.077-4.876-4.64V60.187c0-2.563,2.184-4.64,4.876-4.64h71.112c2.692,0,4.876,2.078,4.876,4.64V93.439z"/>
			<path fill-rule="evenodd" clip-rule="evenodd" fill="#00AEA3" d="M96.594,124.092c13.626,0,10.916-20.12,10.916-20.12H73.592
				c0,0,2.982,20.153-11.411,20.153L96.594,124.092z"/>
			<path fill-rule="evenodd" clip-rule="evenodd" fill="#3CB7AA" d="M89.104,124.125c0,0,6.727-20.153-15.512-20.153
				c0,0,2.982,20.153-11.411,20.153H89.104z"/>
			<path fill-rule="evenodd" clip-rule="evenodd" fill="#97D1D0" d="M55.161,74.765c0,1.12-0.362,2.042-1.084,2.764
				c-0.681,0.676-1.881,1.037-3.603,1.083l-0.08,1.973c-0.021,0.527-0.032,1.157-0.032,1.889l-2.455-0.111
				c0.233-5.019,0.355-8.745,0.366-11.18c0.872-0.046,1.557-0.069,2.056-0.069c1.711,0,2.949,0.347,3.714,1.042
				C54.788,72.848,55.161,73.719,55.161,74.765L55.161,74.765z M52.706,74.765L52.706,74.765c0-0.602-0.155-1.042-0.463-1.319
				c-0.297-0.269-0.786-0.403-1.466-0.403h-0.063l-0.16,3.639c0.16,0.009,0.383,0.013,0.67,0.013
				C52.211,76.593,52.706,75.95,52.706,74.765z"/>
			<path fill-rule="evenodd" clip-rule="evenodd" fill="#97D1D0" d="M63.321,79.125c0.021,0.936-0.297,1.714-0.956,2.334
				c-0.744,0.685-1.674,1.027-2.79,1.027c-0.893-0.009-2.041-0.439-3.443-1.292l1.211-1.93c0.861,0.759,1.604,1.152,2.231,1.181
				c0.627-0.028,0.945-0.468,0.956-1.32c-0.032-0.314-0.117-0.597-0.255-0.847s-0.473-0.528-1.004-0.833
				C58.04,77,57.206,76.468,56.77,75.848c-0.382-0.528-0.574-1.144-0.574-1.848c0-0.842,0.313-1.532,0.94-2.069
				c0.638-0.546,1.472-0.819,2.502-0.819c0.882,0,1.621,0.287,2.216,0.861c0.393,0.371,0.823,0.995,1.291,1.875l-2.327,1.056
				c-0.191-0.713-0.367-1.189-0.526-1.43c-0.159-0.223-0.377-0.333-0.654-0.333c-0.436,0-0.653,0.287-0.653,0.861
				c0,0.352,0.095,0.63,0.287,0.833c0.149,0.148,0.425,0.315,0.83,0.5c1.232,0.537,2.082,1.144,2.55,1.819
				C63.087,77.773,63.311,78.432,63.321,79.125z"/>
			<path fill-rule="evenodd" clip-rule="evenodd" fill="#97D1D0" d="M71.881,71.89c-0.755,1.222-1.769,3.134-3.045,5.735
				l-0.382,4.861l-2.487-0.111c0.128-0.99,0.26-2.573,0.398-4.75l-2.136-5.833l2.248-0.667c0.233,1.038,0.605,2.371,1.116,4
				c0.308-0.629,0.982-1.926,2.023-3.889L71.881,71.89z"/>
			<path fill-rule="evenodd" clip-rule="evenodd" fill="#97D1D0" d="M81.159,79.528c-0.746,1.093-1.464,1.838-2.155,2.236
				c-0.799,0.472-1.575,0.713-2.328,0.722c-1.33,0.009-2.478-0.551-3.446-1.681c-0.899-1.056-1.348-2.431-1.348-4.124
				c0-1.658,0.465-3.01,1.394-4.056c0.891-1.019,2.105-1.528,3.642-1.528c0.738,0,1.459,0.231,2.167,0.694
				c0.645,0.398,1.245,1.079,1.798,2.042l-1.36,0.889c-0.323-0.592-0.769-1.042-1.337-1.347c-0.415-0.231-0.838-0.347-1.268-0.347
				c-0.937,0-1.713,0.333-2.328,1c-0.691,0.769-1.038,1.653-1.038,2.653c0,1.102,0.319,2.027,0.957,2.777
				c0.638,0.722,1.36,1.083,2.167,1.083c0.576,0,1.202-0.231,1.878-0.694c0.599-0.398,1.133-0.995,1.603-1.792L81.159,79.528z"/>
			<path fill-rule="evenodd" clip-rule="evenodd" fill="#97D1D0" d="M89.385,71.195l-0.064,1.569
				c-0.031,0.787-0.048,3.504-0.048,8.152v1.569l-2.805-0.069c0.063-0.556,0.101-1.106,0.111-1.653l0.08-3.055
				c-0.287,0-0.681,0-1.18,0c-0.51,0.009-0.872,0.014-1.084,0.014c-0.021,0.713-0.032,1.777-0.032,3.194v1.569l-2.662-0.069
				c0.053-0.509,0.09-1.061,0.112-1.653l0.319-9.596l2.55,0.028l-0.063,1.569c-0.043,0.621-0.091,1.523-0.144,2.708h2.248
				l0.127-4.305L89.385,71.195z"/>
			<path fill-rule="evenodd" clip-rule="evenodd" fill="#97D1D0" d="M97.051,77.112c0,1.388-0.345,2.648-1.036,3.777
				c-0.658,1.065-1.519,1.598-2.582,1.598c-0.956,0-1.795-0.481-2.519-1.444c-0.7-0.953-1.052-2.25-1.052-3.889
				c0-1.352,0.239-2.592,0.718-3.722c0.647-1.546,1.615-2.32,2.9-2.32c0.638,0,1.217,0.199,1.738,0.597
				c0.542,0.454,1.052,1.135,1.529,2.042L96.43,73.89C96.844,75.13,97.051,76.204,97.051,77.112L97.051,77.112z M94.597,77.112
				L94.597,77.112c0-1.13-0.239-2.144-0.718-3.042l0.526-0.167c-0.054-0.102-0.139-0.25-0.255-0.444
				c-0.202-0.25-0.426-0.375-0.67-0.375c-0.34,0-0.616,0.375-0.829,1.125c-0.223,0.75-0.334,1.731-0.334,2.944
				c0,0.574,0.069,1.194,0.207,1.861c0.202,1,0.504,1.5,0.908,1.5c0.426,0,0.744-0.5,0.957-1.5
				C94.527,78.356,94.597,77.723,94.597,77.112z"/>
			<path fill-rule="evenodd" clip-rule="evenodd" fill="#97D1D0" d="M98.305,79.917c0.394,0,0.733,0.121,1.02,0.361
				c0.276,0.241,0.432,0.556,0.463,0.944c-0.031,0.352-0.187,0.652-0.463,0.902c-0.275,0.241-0.615,0.375-1.02,0.403
				c-0.425-0.028-0.781-0.167-1.068-0.417c-0.286-0.24-0.43-0.537-0.43-0.889c0-0.38,0.144-0.694,0.43-0.944
				C97.513,80.038,97.869,79.917,98.305,79.917z"/>
			<path fill-rule="evenodd" clip-rule="evenodd" fill="#97D1D0" d="M108.812,81.625l-2.423,0.834
				c-0.808-2.157-1.504-3.848-2.088-5.07c-0.043,0-0.096,0-0.159,0l-0.191,5.07l-2.534-0.111l0.111-1.917
				c0.17-2.916,0.256-5.967,0.256-9.152c0.647-0.111,1.46-0.167,2.438-0.167c1.604,0,2.736,0.306,3.396,0.917
				c0.637,0.611,0.956,1.356,0.956,2.236c0,0.75-0.319,1.43-0.956,2.042c-0.255,0.259-0.584,0.463-0.988,0.611l0.702,1.598
				c0.265,0.574,0.53,1.162,0.796,1.764C108.392,80.861,108.62,81.311,108.812,81.625L108.812,81.625z M106.007,74.265
				L106.007,74.265c-0.021-0.37-0.123-0.653-0.304-0.847c-0.191-0.176-0.589-0.264-1.195-0.264h-0.207l-0.08,2.375
				c0.489-0.046,0.861-0.134,1.116-0.264C105.751,75.07,105.975,74.736,106.007,74.265z"/>
			<path fill-rule="evenodd" clip-rule="evenodd" fill="#97D1D0" d="M116.925,71.195c-0.128,0.935-0.202,2.426-0.224,4.472
				c-0.031,2.741-0.345,4.542-0.939,5.402c-0.67,0.954-1.552,1.426-2.646,1.417c-0.999-0.009-1.844-0.394-2.534-1.152
				c-0.648-0.731-0.973-1.773-0.973-3.125c0-0.444,0.032-1.217,0.096-2.319c0.096-1.685,0.144-3.25,0.144-4.694l2.805,0.167
				l-0.223,3.597c-0.106,1.704-0.159,2.787-0.159,3.25c0,1.5,0.281,2.277,0.845,2.333c0.351-0.009,0.601-0.394,0.749-1.152
				c0.181-0.89,0.271-2.944,0.271-6.167v-2.125L116.925,71.195z"/>
			<path fill-rule="evenodd" clip-rule="evenodd" fill="#97D1D0" d="M57.104,122.336c0,0.969,0.787,1.756,1.755,1.756h37.125
				c0.97,0,1.755-0.787,1.755-1.756c0-0.971-0.785-1.757-1.755-1.757H58.859C57.89,120.579,57.104,121.365,57.104,122.336z"/>
			<path fill-rule="evenodd" clip-rule="evenodd" fill="#00A89C" d="M97.739,122.336c0-0.524-0.229-0.994-0.592-1.316l10.487-10.487
				c-0.438,5.872-2.619,13.559-11.041,13.559h-0.609C96.954,124.091,97.739,123.305,97.739,122.336z"/>
		</g>
	</g>
</g>
</svg>
