<?xml version="1.0" encoding="utf-8"?>
<!-- Generator: Adobe Illustrator 16.0.0, SVG Export Plug-In . SVG Version: 6.00 Build 0)  -->
<!DOCTYPE svg PUBLIC "-//W3C//DTD SVG 1.1//EN" "http://www.w3.org/Graphics/SVG/1.1/DTD/svg11.dtd">
<svg version="1.1" id="Layer_1" xmlns="http://www.w3.org/2000/svg" xmlns:xlink="http://www.w3.org/1999/xlink" x="0px" y="0px"
	 width="48px" height="48px" viewBox="0 0 48 48" enable-background="new 0 0 48 48" xml:space="preserve">
<g>
	<path fill-rule="evenodd" clip-rule="evenodd" fill="#FFFFFF" d="M13.211,45.151c5.954,0,10.811-4.852,10.811-10.801
		c0-5.948-4.856-10.799-10.811-10.799S2.4,28.402,2.4,34.351C2.4,40.3,7.257,45.151,13.211,45.151z"/>
	
		<path fill-rule="evenodd" clip-rule="evenodd" fill="none" stroke="#B3C1D6" stroke-width="1.3331" stroke-linecap="round" stroke-linejoin="round" stroke-miterlimit="10" d="
		M23.958,10.352c4,0,4,10.667,4,10.667c0,6.667,9.333,8,9.333,16H10.625c0-8,9.333-9.333,9.333-16
		C19.958,21.018,19.958,10.352,23.958,10.352z"/>
	
		<line fill-rule="evenodd" clip-rule="evenodd" fill="none" stroke="#B3C1D6" stroke-width="1.3331" stroke-linecap="round" stroke-linejoin="round" stroke-miterlimit="10" x1="19.958" y1="21.018" x2="19.958" y2="37.018"/>
	
		<line fill-rule="evenodd" clip-rule="evenodd" fill="none" stroke="#B3C1D6" stroke-width="1.3331" stroke-linecap="round" stroke-linejoin="round" stroke-miterlimit="10" x1="27.959" y1="21.018" x2="27.959" y2="37.018"/>
	
		<line fill-rule="evenodd" clip-rule="evenodd" fill="none" stroke="#B3C1D6" stroke-width="1.3331" stroke-linecap="round" stroke-linejoin="round" stroke-miterlimit="10" x1="23.958" y1="31.686" x2="23.958" y2="37.02"/>
	
		<path fill-rule="evenodd" clip-rule="evenodd" fill="none" stroke="#B3C1D6" stroke-width="1.3331" stroke-linecap="round" stroke-linejoin="round" stroke-miterlimit="10" d="
		M22.625,22.353c0-0.737,0.597-1.333,1.333-1.333c0.737,0,1.333,0.596,1.333,1.333"/>
	
		<line fill-rule="evenodd" clip-rule="evenodd" fill="none" stroke="#B3C1D6" stroke-width="1.3331" stroke-linecap="round" stroke-linejoin="round" stroke-miterlimit="10" x1="20.247" y1="17.018" x2="27.697" y2="17.018"/>
	
		<path fill-rule="evenodd" clip-rule="evenodd" fill="none" stroke="#B3C1D6" stroke-width="1.3331" stroke-linecap="round" stroke-linejoin="round" stroke-miterlimit="10" d="
		M17.292,26.61c0,0,0-4.205,0-9.592c0-4.667,3.333-12,6.667-12c3.333,0,6.667,7.333,6.667,12c0,5.278,0,9.592,0,9.592"/>
	
		<polyline fill-rule="evenodd" clip-rule="evenodd" fill="none" stroke="#B3C1D6" stroke-width="1.3331" stroke-linecap="round" stroke-linejoin="round" stroke-miterlimit="10" points="
		11.959,32.281 11.959,17.02 14.625,13.018 17.292,17.018 	"/>
	
		<polyline fill-rule="evenodd" clip-rule="evenodd" fill="none" stroke="#B3C1D6" stroke-width="1.3331" stroke-linecap="round" stroke-linejoin="round" stroke-miterlimit="10" points="
		35.959,32.281 35.959,17.02 33.292,13.018 30.626,17.018 	"/>
	
		<path fill-rule="evenodd" clip-rule="evenodd" fill="none" stroke="#B3C1D6" stroke-width="1.3331" stroke-linecap="round" stroke-linejoin="round" stroke-miterlimit="10" d="
		M26.625,39.685c0-1.473-1.193-2.667-2.667-2.667c-1.472,0-2.667,1.194-2.667,2.667v1.333h5.333V39.685z"/>
	
		<path fill-rule="evenodd" clip-rule="evenodd" fill="none" stroke="#B3C1D6" stroke-width="1.3331" stroke-linecap="round" stroke-linejoin="round" stroke-miterlimit="10" d="
		M17.292,39.685c0-1.473-1.194-2.667-2.667-2.667s-2.667,1.194-2.667,2.667v1.333h5.333V39.685z"/>
	
		<path fill-rule="evenodd" clip-rule="evenodd" fill="none" stroke="#B3C1D6" stroke-width="1.3331" stroke-linecap="round" stroke-linejoin="round" stroke-miterlimit="10" d="
		M35.959,39.685c0-1.473-1.194-2.667-2.667-2.667s-2.667,1.194-2.667,2.667l0.001,1.333h5.333V39.685z"/>
	
		<line fill-rule="evenodd" clip-rule="evenodd" fill="none" stroke="#B3C1D6" stroke-width="1.3331" stroke-linecap="round" stroke-linejoin="round" stroke-miterlimit="10" x1="11.959" y1="17.02" x2="17.292" y2="17.02"/>
	
		<line fill-rule="evenodd" clip-rule="evenodd" fill="none" stroke="#B3C1D6" stroke-width="1.3331" stroke-linecap="round" stroke-linejoin="round" stroke-miterlimit="10" x1="30.626" y1="17.018" x2="35.959" y2="17.018"/>
</g>
</svg>
