<?xml version="1.0" encoding="utf-8"?>
<!-- Generator: Adobe Illustrator 15.0.0, SVG Export Plug-In . SVG Version: 6.00 Build 0)  -->
<!DOCTYPE svg PUBLIC "-//W3C//DTD SVG 1.1//EN" "http://www.w3.org/Graphics/SVG/1.1/DTD/svg11.dtd">
<svg version="1.1" id="Layer_1" xmlns="http://www.w3.org/2000/svg" xmlns:xlink="http://www.w3.org/1999/xlink" x="0px" y="0px"
	 width="168px" height="152px" viewBox="0 0 168 152" enable-background="new 0 0 168 152" xml:space="preserve">
<g>
	<g>
		<path fill="#F1875D" d="M127.074,71.606L91.52,104.288c0,0-14.925,0-31.852,0H42.672c-16.291,0-25.871-5.059-31.462-12.913
			c-0.002-0.003-0.002-0.003-0.002-0.006C4.7,82.226,3.591,69.292,3.591,56.131c0-30.871,23.975-48.154,42.36-48.154
			c18.385,0,29.439,7.399,35.06,13.512C83.537,24.24,127.074,71.606,127.074,71.606z"/>
		<polygon fill="#DD694E" points="67.382,35.472 57.998,25.262 48.113,25.262 31.412,40.613 37.424,61.554 42.673,104.286 
			91.52,104.285 91.357,61.554 		"/>
		<path fill="#EED2B9" d="M28.437,51.778c-2.071-2.253-1.937-6.651,2.975-11.165c0,0-4.831-5.461-0.843-8.588
			c4.542-3.561,7.313,2.639,7.313,2.639l10.23-9.402h9.885c0,0-1.905,12.556-4.036,14.169c-2.132,1.614-0.322,10.006-0.322,10.006
			l-3.218,0.168l-9.693,11.948h-3.305C37.424,61.554,29.215,52.623,28.437,51.778z"/>
		<path fill="#EED2B9" d="M67.382,35.472c0,0-1.43,13.291-1.43,16.765c0,4.646-3.61,10.188-3.61,10.188l3.61,1.92V80.49l1.714,1.865
			l23.826-7.858v-9.38c0,0,9.648-4.6,4.205-11.155c-2.406-2.902-4.996-2.626-7.09-1.474c-2.486,1.366-3.369,2.412-6.875-1.402
			L67.382,35.472z"/>
		<polygon fill="#DBBAA3" points="77.502,82.355 91.52,104.285 91.52,74.322 67.666,82.355 		"/>
		<path fill="#DD694E" d="M59.667,104.288H42.672c-16.291,0-25.871-5.059-31.462-12.913c-0.002-0.003-0.002-0.003-0.002-0.006
			c-7.93-23.027,15.964-29.817,15.964-29.817h10.25L59.667,104.288z"/>
		<path fill="#EED2B9" d="M37.424,61.554l8.522,9.271c0,0-1.178,4.091,2.669,5.284l9.224,3.121c0,0-0.239,1.874-1.296,3.125
			L68.901,95.8l-9.234,8.486h-19.13l-7.333-7.978c0,0-7.958,2.91-7.958-8.658h7.066c0,0-6.054-6.584-7.605-8.272
			c-1.552-1.688-1.417-4.834,3.229-9.105C33.24,65.399,37.424,61.554,37.424,61.554z"/>
		<path fill="#DBBAA3" d="M73.657,109.132"/>
		<path fill="#DBBAA3" d="M32.322,44.459"/>
		
			<linearGradient id="SVGID_1_" gradientUnits="userSpaceOnUse" x1="2231.0518" y1="63.1182" x2="2233.0112" y2="59.4965" gradientTransform="matrix(-1 0 0 1 2309.8516 0)">
			<stop  offset="0.0621" style="stop-color:#FFFFFF"/>
			<stop  offset="1" style="stop-color:#FFFFFF;stop-opacity:0"/>
		</linearGradient>
		<path opacity="0.5" fill="url(#SVGID_1_)" d="M85.471,57.537c0,0.883-0.535,4.659-6.143,4.659c-5.61,0-11.602,0-11.602,0
			l-0.06-4.659C87.264,51.305,85.471,55.916,85.471,57.537z"/>
		
			<linearGradient id="SVGID_2_" gradientUnits="userSpaceOnUse" x1="2512.9443" y1="-43.9761" x2="2514.7488" y2="-47.3112" gradientTransform="matrix(0.7161 0.698 -0.698 0.7161 -1791.4871 -1678.3832)">
			<stop  offset="0.0621" style="stop-color:#FFFFFF"/>
			<stop  offset="1" style="stop-color:#FFFFFF;stop-opacity:0"/>
		</linearGradient>
		<path opacity="0.5" fill="url(#SVGID_2_)" d="M37.916,36.193c-0.568,0.582-2.641,3.416,1.058,7.021
			c3.7,3.606,7.65,7.457,7.65,7.457l3.033-3.035C40.737,30.929,38.957,35.124,37.916,36.193z"/>
		
			<linearGradient id="SVGID_3_" gradientUnits="userSpaceOnUse" x1="2578.1299" y1="88.2207" x2="2579.9341" y2="84.8857" gradientTransform="matrix(0.698 -0.7161 0.7161 0.698 -1817.639 1873.7341)">
			<stop  offset="0.0621" style="stop-color:#FFFFFF"/>
			<stop  offset="1" style="stop-color:#FFFFFF;stop-opacity:0"/>
		</linearGradient>
		<path opacity="0.5" fill="url(#SVGID_3_)" d="M37.102,89.924c0.582,0.569,3.416,2.643,7.021-1.058
			c3.606-3.699,7.457-7.65,7.457-7.65l-3.034-3.032C31.838,87.103,36.032,88.885,37.102,89.924z"/>
		<polygon fill="#F39D9E" points="50.63,104.288 59.667,104.288 59.667,114.12 		"/>
		<polygon fill="#F39D9E" points="59.667,114.12 50.63,136.206 59.667,146.039 		"/>
	</g>
	<g>
		<g>
			<path fill="#DAE5F6" d="M159.557,51.96c0,0-8.967-2.344-10.389-10.64h7.158C155.025,48.825,159.557,51.96,159.557,51.96z"/>
			<rect x="122.893" y="18.35" fill="#DAE5F6" width="43.107" height="22.971"/>
		</g>
		<polygon fill="#9CD3F4" points="145.932,48.213 123.301,48.213 112.52,48.213 112.52,26.932 145.932,26.932 		"/>
		<path fill="#9CD3F4" d="M123.301,56.092c0,0,5.234-0.927,5.234-7.879h-5.234V56.092z"/>
		<polygon fill="#9CD3F4" points="150.607,9.933 156.166,11.725 154.555,30.68 151.699,30.68 		"/>
		<circle fill="#9CD3F4" cx="153.385" cy="35.673" r="1.975"/>
		<g>
			<path fill="#FFFFFF" d="M138.768,34.622h-19.086c-0.396,0-0.715-0.32-0.715-0.715s0.318-0.715,0.715-0.715h19.086
				c0.396,0,0.717,0.32,0.717,0.715S139.164,34.622,138.768,34.622z"/>
			<path fill="#FFFFFF" d="M138.768,38.262h-19.086c-0.396,0-0.715-0.32-0.715-0.716c0-0.394,0.318-0.715,0.715-0.715h19.086
				c0.396,0,0.717,0.321,0.717,0.715C139.484,37.942,139.164,38.262,138.768,38.262z"/>
			<path fill="#FFFFFF" d="M138.768,41.953h-19.086c-0.396,0-0.715-0.32-0.715-0.714c0-0.395,0.318-0.716,0.715-0.716h19.086
				c0.396,0,0.717,0.321,0.717,0.716C139.484,41.633,139.164,41.953,138.768,41.953z"/>
		</g>
		<linearGradient id="SVGID_4_" gradientUnits="userSpaceOnUse" x1="113.4395" y1="34.9385" x2="155.0078" y2="34.9385">
			<stop  offset="0" style="stop-color:#F1F1F2;stop-opacity:0.65"/>
			<stop  offset="0.1843" style="stop-color:#F3F3F4;stop-opacity:0.5302"/>
			<stop  offset="1" style="stop-color:#F8F8F9;stop-opacity:0"/>
			<stop  offset="1" style="stop-color:#FFFFFF;stop-opacity:0"/>
		</linearGradient>
		<rect x="113.439" y="22.862" fill="url(#SVGID_4_)" width="41.568" height="24.153"/>
	</g>
	<g>
		
			<rect x="125.854" y="98.118" transform="matrix(-0.6769 -0.7361 0.7361 -0.6769 135.6388 273.5637)" fill="#9CD3F4" width="4.011" height="17.789"/>
		
			<rect x="108.391" y="65.862" transform="matrix(-0.6768 -0.7362 0.7362 -0.6768 120.1831 232.7823)" fill="#9CD3F4" width="5.604" height="48.292"/>
		<polygon fill="#9CD3F4" points="134.369,103.752 129.217,108.487 124.066,113.224 137.498,131.772 151.965,118.473 		"/>
		<polygon fill="#9CD3F4" points="96.559,108.723 119.018,110.618 132.115,98.579 132.115,76.043 		"/>
		<path fill="#9CD3F4" d="M139.318,131.514l12.23-11.378C151.549,120.136,154.631,133.321,139.318,131.514z"/>
		<linearGradient id="SVGID_5_" gradientUnits="userSpaceOnUse" x1="121.8281" y1="104.8105" x2="135.0391" y2="104.8105">
			<stop  offset="0" style="stop-color:#F1F1F2;stop-opacity:0.65"/>
			<stop  offset="0.1843" style="stop-color:#F3F3F4;stop-opacity:0.5302"/>
			<stop  offset="1" style="stop-color:#F8F8F9;stop-opacity:0"/>
			<stop  offset="1" style="stop-color:#FFFFFF;stop-opacity:0"/>
		</linearGradient>
		<polygon fill="url(#SVGID_5_)" points="121.828,108.605 124.094,111.072 135.039,101.015 132.771,98.548 		"/>
		<linearGradient id="SVGID_6_" gradientUnits="userSpaceOnUse" x1="93.3398" y1="86.0078" x2="132.6836" y2="86.0078">
			<stop  offset="0" style="stop-color:#F1F1F2;stop-opacity:0.65"/>
			<stop  offset="0.1843" style="stop-color:#F3F3F4;stop-opacity:0.5302"/>
			<stop  offset="1" style="stop-color:#F8F8F9;stop-opacity:0"/>
			<stop  offset="1" style="stop-color:#FFFFFF;stop-opacity:0"/>
		</linearGradient>
		<polygon fill="url(#SVGID_6_)" points="93.34,100.285 97.129,104.41 132.684,71.729 128.891,67.604 		"/>
		<linearGradient id="SVGID_7_" gradientUnits="userSpaceOnUse" x1="126.1895" y1="114.3701" x2="149.4492" y2="114.3701">
			<stop  offset="0" style="stop-color:#F1F1F2;stop-opacity:0.65"/>
			<stop  offset="0.1843" style="stop-color:#F3F3F4;stop-opacity:0.5302"/>
			<stop  offset="1" style="stop-color:#F8F8F9;stop-opacity:0"/>
			<stop  offset="1" style="stop-color:#FFFFFF;stop-opacity:0"/>
		</linearGradient>
		<polygon fill="url(#SVGID_7_)" points="135.514,102.504 130.854,106.79 126.189,111.075 140.123,126.236 149.449,117.662 		"/>
		<linearGradient id="SVGID_8_" gradientUnits="userSpaceOnUse" x1="99.0586" y1="90.9131" x2="132.209" y2="90.9131">
			<stop  offset="0" style="stop-color:#F1F1F2;stop-opacity:0.65"/>
			<stop  offset="0.1843" style="stop-color:#F3F3F4;stop-opacity:0.5302"/>
			<stop  offset="1" style="stop-color:#F8F8F9;stop-opacity:0"/>
			<stop  offset="1" style="stop-color:#FFFFFF;stop-opacity:0"/>
		</linearGradient>
		<polygon fill="url(#SVGID_8_)" points="99.059,105.263 119.996,107.032 132.209,95.807 132.209,74.793 		"/>
	</g>
</g>
</svg>
