<?xml version="1.0" encoding="utf-8"?>
<!-- Generator: Adobe Illustrator 15.0.0, SVG Export Plug-In . SVG Version: 6.00 Build 0)  -->
<!DOCTYPE svg PUBLIC "-//W3C//DTD SVG 1.1//EN" "http://www.w3.org/Graphics/SVG/1.1/DTD/svg11.dtd">
<svg version="1.1" id="Layer_1" xmlns="http://www.w3.org/2000/svg" xmlns:xlink="http://www.w3.org/1999/xlink" x="0px" y="0px"
	 width="168px" height="152px" viewBox="0 0 168 152" enable-background="new 0 0 168 152" xml:space="preserve">
<g>
	<g>
		<polygon fill="#FFFFFF" points="84.223,69.906 101.235,83.198 84.306,96.422 67.293,83.131 		"/>
		<polygon fill="#C6E4E0" points="50.21,123.064 67.142,136.294 84.309,122.883 67.398,109.707 		"/>
		<polygon fill="#FFFFFF" points="84.309,122.883 84.306,96.422 101.24,109.652 		"/>
		<polygon fill="#FFFFFF" points="33.291,109.824 50.441,96.423 67.398,109.707 50.21,123.064 		"/>
		<polygon fill="#FFFFFF" points="118.402,123.061 135.331,109.835 118.165,96.431 101.24,109.652 		"/>
		<polygon fill="#C6E4E0" points="84.306,96.422 101.235,83.198 118.165,96.431 101.24,109.652 		"/>
		<polygon fill="#C6E4E0" points="84.309,122.883 101.24,109.652 118.402,123.061 101.471,136.29 		"/>
	</g>
	<g>
		
			<line fill="none" stroke="#231F21" stroke-width="0.3702" stroke-miterlimit="10" x1="73.145" y1="68.892" x2="83.255" y2="60.993"/>
		<path fill="#BC7258" d="M91.671,48.408c0,0-2.47-7.274-14.413-7.274c-11.944,0-17.273,10.091-17.273,16.015
			c0,6.951,3.202,10.615,6.58,12.546c3.765,2.153,7.986,3.213,7.986,7.776c0,4.563,9.582-5.623,9.582-5.623L91.671,48.408z"/>
		<polygon fill="#5DA99D" points="74.551,77.47 50.442,96.423 67.398,109.707 60.954,114.67 77.887,127.898 84.309,122.883 
			84.355,81.07 		"/>
		<path fill="#FFFFFF" d="M74.551,69.05c0,0,0,33.444,0,38.277c0,4.832,0.729,8.501,5.244,12.028l4.514,3.527V75.725L74.551,69.05z"
			/>
		<path fill="none" stroke="#231F21" stroke-width="0.3702" stroke-miterlimit="10" d="M76.49,58.523"/>
		<polygon fill="#DCEFEC" points="74.551,70.795 74.551,90.476 84.309,82.853 84.309,77.483 		"/>
		<path fill="#EED2B9" d="M77.258,67.423c0,0,2.778-0.961,2.778-3.577c0-2.615,0-6.348,0-6.348l11.635-9.091v7.594
			c0,0-1.577,0.745,0,4.117c1.578,3.373,2.266,4.843,2.266,4.843l-2.266,1.832V77.47H80.644c0,0-6.093,0.652-6.093-6.675v-3.819
			c0,0-3.108,0.014-3.108-4.03c0-4.998,5.815-4.167,5.815-1.91V67.423z"/>
		<path fill="#F39D9E" d="M80.036,77.47c0,0,0.043,5.346,4.272,5.346v-5.332L80.036,77.47z"/>
		<polygon fill="#F39D9E" points="84.309,82.815 84.309,122.883 94.623,114.824 		"/>
		<polygon fill="#FFFFFF" points="67.142,136.294 84.309,122.883 101.471,136.29 84.304,149.702 		"/>
		<rect x="58.767" y="136.29" fill="#5DA99D" width="42.704" height="4.068"/>
		<path fill="#99D2D1" d="M58.767,136.29c0,0,12.701-2.067,12.701-13.407l6.419,5.016l6.422-5.016l12.41,9.696l4.752,3.711H58.767z"
			/>
		
			<linearGradient id="SVGID_1_" gradientUnits="userSpaceOnUse" x1="-757.5693" y1="440.1055" x2="-754.8823" y2="435.1389" gradientTransform="matrix(1 -0.011 0.011 1 835.8916 -378.7518)">
			<stop  offset="0.1266" style="stop-color:#FFFFFF"/>
			<stop  offset="1" style="stop-color:#FFFFFF;stop-opacity:0"/>
		</linearGradient>
		<path fill="url(#SVGID_1_)" d="M80.549,64.307c0.005,0.5,0.331,2.631,3.504,2.596c3.174-0.035,6.563-0.072,6.563-0.072
			l0.004-2.634C79.494,60.792,80.539,63.391,80.549,64.307z"/>
	</g>
	<g>
		<polygon fill="#5DA99D" points="130.205,41.604 159.273,64.315 134.879,83.364 141.52,88.21 124.585,101.439 118.165,96.423 
			118.117,54.612 		"/>
		<path fill="#FFFFFF" d="M132.486,43.387c0,0,0,29.25,0,34.083c0,4.832-1.14,8.662-5.654,12.189l-8.667,6.764V51.025
			L132.486,43.387z"/>
		<polygon fill="#DCEFEC" points="132.486,43.387 132.487,67.546 118.165,56.356 118.165,54.599 		"/>
		<path fill="#F39D9E" d="M122.853,51.025c0,0,0.19,5.332-4.688,5.332v-5.332H122.853z"/>
		<polygon fill="#F39D9E" points="118.165,56.356 118.165,96.423 107.851,88.365 		"/>
		<rect x="106.207" y="105.756" fill="#5DA99D" width="42.703" height="4.068"/>
		<path fill="#99D2D1" d="M106.207,105.756l11.958-9.325l6.42,5.009l10.489-8.193c0,0,0.477,8.34,9.885,8.34v4.17H106.207z"/>
		<path fill="#F1855D" d="M111.369,21.253c0,0,0.991-10.835,16.1-10.835s15.492,15.017,15.492,15.017s0.742,9.189-10.474,17.953
			C121.271,52.15,111.369,21.253,111.369,21.253z"/>
		<path fill="#DBBAA3" d="M118.165,21.253h-6.796v6.105c0,0,2.024,1.995,0,5.492l3.374,18.16l3.422,0.014V21.253z"/>
		<path fill="#EED2B9" d="M118.165,21.253h5.998c0,0,2.669-0.088,2.669,2.853v7.673l5.652-4.421c0,0,4.29-1.411,4.29,2.73
			c0,4.143-4.288,4.143-4.288,4.143l0.001,9.156l-9.776,7.638h-4.546V21.253z"/>
		
			<linearGradient id="SVGID_2_" gradientUnits="userSpaceOnUse" x1="-663.9136" y1="410.3438" x2="-661.2265" y2="405.377" gradientTransform="matrix(-1 -0.011 -0.011 1 -534.6123 -378.7518)">
			<stop  offset="0.1266" style="stop-color:#FFFFFF"/>
			<stop  offset="1" style="stop-color:#FFFFFF;stop-opacity:0"/>
		</linearGradient>
		<path fill="url(#SVGID_2_)" d="M127.403,33.517c-0.006,0.499-0.332,2.631-3.506,2.596c-3.172-0.035-6.563-0.072-6.563-0.072
			l-0.003-2.634C128.457,30.001,127.413,32.599,127.403,33.517z"/>
		<linearGradient id="SVGID_3_" gradientUnits="userSpaceOnUse" x1="123.2422" y1="2.8862" x2="130.1047" y2="14.1495">
			<stop  offset="0.1266" style="stop-color:#FFFFFF"/>
			<stop  offset="1" style="stop-color:#FFFFFF;stop-opacity:0"/>
		</linearGradient>
		<polygon fill="url(#SVGID_3_)" points="140.422,8.22 137.759,13.712 115.907,13.712 113.244,8.22 119.604,5.323 121.014,6.806 
			123.202,5.959 124.196,2.145 129.47,2.145 130.464,5.959 132.651,6.806 134.063,5.323 		"/>
	</g>
	<g>
		<path fill="#F39D9E" d="M45.893,84.94c-3.782,0-6.859-3.077-6.859-6.858c0-3.782,3.077-6.858,6.859-6.858s6.857,3.077,6.857,6.858
			C52.75,81.863,49.675,84.94,45.893,84.94z M45.893,73.675c-2.431,0-4.407,1.976-4.407,4.407c0,2.43,1.977,4.407,4.407,4.407
			c2.43,0,4.406-1.978,4.406-4.407C50.299,75.651,48.322,73.675,45.893,73.675z"/>
		<g>
			<g>
				<polygon fill="#F39D9E" points="36.667,63.953 34.34,65.091 30.504,60.994 26.518,65.091 24.289,63.946 28.82,59.193 
					24.823,54.866 27.144,53.684 30.556,57.357 34.01,53.684 36.317,54.87 32.211,59.186 				"/>
			</g>
		</g>
		<g>
			<polygon fill="#FFFFFF" points="9.577,77.097 8.727,76.009 20.089,67.132 30.298,75.108 48.355,61 49.206,62.088 30.298,76.859 
				20.089,68.884 			"/>
			<polygon fill="#FFFFFF" points="54.039,57.436 44.357,59.245 51.963,65.188 			"/>
		</g>
	</g>
</g>
</svg>
