<?xml version="1.0" encoding="utf-8"?>
<!-- Generator: Adobe Illustrator 15.0.0, SVG Export Plug-In . SVG Version: 6.00 Build 0)  -->
<!DOCTYPE svg PUBLIC "-//W3C//DTD SVG 1.1//EN" "http://www.w3.org/Graphics/SVG/1.1/DTD/svg11.dtd">
<svg version="1.1" id="Layer_1" xmlns="http://www.w3.org/2000/svg" xmlns:xlink="http://www.w3.org/1999/xlink" x="0px" y="0px"
	 width="168px" height="152px" viewBox="0 0 168 152" enable-background="new 0 0 168 152" xml:space="preserve">
<g>
	<g>
		<polygon fill="#BDCBDB" points="85.917,60.72 106.568,48.01 111.957,60.72 125.552,100.691 85.917,121.72 		"/>
		<polygon fill="#DAE5F6" points="93.632,60.72 106.568,70.487 106.568,48.409 		"/>
		<polygon fill="#DAE5F6" points="125.461,100.719 138.396,110.484 138.396,88.406 		"/>
		<path fill="#F1855D" d="M77.093,14.71c0,0,7.526-13.586,25.899-13.586c18.372,0,25.784,17.755,25.784,25.475
			s-5.983,18.687-5.983,18.687s-9.508,9.14-16.217,15.435l0.007-14.709l-7.022-5.901L77.093,14.71z"/>
		<path fill="#EED2B9" d="M73.761,41.061c0,0,1.621,2.418,4.253,2.418L78.005,60.72c0,0,11.738,0,16.228,0
			c6.084,0,12.378-4.199,12.378-11.966c0-4.481,0-5.433,0-5.433c10.033-4.931,7.584-15.974,2.301-15.974
			c-1.422,0-4.064,0.762-4.453,1.915l-0.385,9.844c-4.015,0-4.015-7.425-4.015-8.235L77.093,14.71l-0.014,12.071
			c0,0,1.812,0.464,1.812,3.386C78.891,33.096,73.761,41.061,73.761,41.061z"/>
		
			<linearGradient id="SVGID_1_" gradientUnits="userSpaceOnUse" x1="540.249" y1="44.2593" x2="542.8209" y2="39.5055" gradientTransform="matrix(-1 0 0 1 630.5488 0)">
			<stop  offset="0.0621" style="stop-color:#FFFFFF"/>
			<stop  offset="1" style="stop-color:#FFFFFF;stop-opacity:0"/>
		</linearGradient>
		<path opacity="0.5" fill="url(#SVGID_1_)" d="M99.057,36.933c0,1.158-0.701,6.114-8.064,6.114c-7.364,0-15.23,0-15.23,0
			l-0.077-6.114C101.411,28.752,99.057,34.805,99.057,36.933z"/>
		<polygon fill="#BDCBDB" points="117.7,129.774 138.399,118.792 138.396,110.484 125.518,100.664 117.7,104.856 		"/>
		<path fill="#F39D9E" d="M117.7,100.762h7.716c0,0-0.962,8.646-7.716,8.646V100.762z"/>
		<path fill="#BC7258" d="M106.576,60.72c0-4.015,8.3-16.026,23.126-16.026c15.507,0,25.938,8.707,25.938,23.541
			c0,17.763-15.734,24.838-17.245,25.642l0,0c0,0,0.011-4.427,0.011-10.317C138.406,68.104,106.576,63.499,106.576,60.72z"/>
		<path fill="#EED2B9" d="M104.121,86.001c0,0,0.749,1.616,3.382,1.616l-0.009,17.48l30.894-11.581l0.019-9.958
			c10.034-4.933,5.278-14.735-0.007-14.735c-5.283,0-5.313,5.793-5.313-0.975c0-3.807-0.913-7.128-7.621-7.128h-18.889
			c0,5.896-0.008,9.767-0.008,9.767s1.812,0.464,1.812,3.385C108.38,76.802,104.121,86.001,104.121,86.001z"/>
		<path fill="#BC7258" d="M121.537,95.734c0,0-2.385-8.117-14.035-8.117c0,0-0.008,15.626-0.008,17.48
			c0,1.852,2.5,3.848,4.999,2.521c2.498-1.326,25.902-13.743,25.902-13.743l0.017-3.41l-0.013-21.643l-5.318-9.15v22.206
			C133.081,81.879,131.72,95.734,121.537,95.734z"/>
		
			<linearGradient id="SVGID_2_" gradientUnits="userSpaceOnUse" x1="507.8262" y1="87.3467" x2="510.3981" y2="82.5928" gradientTransform="matrix(-1 0 0 1 630.5488 0)">
			<stop  offset="0.0621" style="stop-color:#FFFFFF"/>
			<stop  offset="1" style="stop-color:#FFFFFF;stop-opacity:0"/>
		</linearGradient>
		<path opacity="0.45" fill="url(#SVGID_2_)" d="M131.48,80.021c0,1.158-0.703,6.115-8.066,6.115s-15.229,0-15.229,0l-0.077-6.115
			C133.835,71.84,131.48,77.893,131.48,80.021z"/>
		<path fill="#F39D9E" d="M85.917,60.72h7.715c0,0-0.962,8.646-7.715,8.646V60.72z"/>
		<path fill="#F39D9E" d="M85.917,69.366v52.354l7.695-4.082c0,0,0.02-34.916,0.02-36.846S92.156,69.366,85.917,69.366z"/>
		<path fill="#F39D9E" d="M117.7,109.408v20.366l7.716-4.092c0,0,0-2.919,0-4.849C125.416,118.902,123.939,109.408,117.7,109.408z"
			/>
	</g>
	<g>
		<path fill="#BDCBDB" d="M55.593,43.749v45.701H30.362c-0.423-0.025-0.741,0-0.862,0c-0.516,0-1.541,0.271-3.094,1.096
			c-1.557,0.824-5.521,2.927-5.521,2.927c-1.826,0.97-3.118,0.933-3.118,0.933s-4.787,0.488-4.787-4.955V43.749H55.593z"/>
		<path fill="#231F21" d="M30.362,89.604H29.5v-0.309c0.028,0,0.069-0.002,0.119-0.004c0.164-0.006,0.427-0.016,0.751,0.004
			L30.362,89.604z"/>
		<path fill="#BDCBDB" d="M76.899,94.404v32.099l-16.295,8.647l-26.317,13.966c7.482-3.971,6.175-13.966,6.175-13.966h-6.175V94.404
			c0-4.184-2.522-4.862-3.924-4.955h42.974C74.895,89.542,76.899,90.221,76.899,94.404z"/>
		<path fill="#9BA9B7" d="M34.287,94.404v0.014H17.467c0.188,0,0.3-0.014,0.3-0.014s1.292,0.037,3.118-0.933
			c0,0,3.965-2.103,5.521-2.927c1.553-0.824,2.578-1.096,3.094-1.096c0.121,0,0.438-0.025,0.862,0
			C31.765,89.542,34.287,90.221,34.287,94.404z"/>
		<linearGradient id="SVGID_3_" gradientUnits="userSpaceOnUse" x1="35.3706" y1="93.2578" x2="33.6336" y2="50.6811">
			<stop  offset="0.0621" style="stop-color:#FFFFFF"/>
			<stop  offset="1" style="stop-color:#FFFFFF;stop-opacity:0"/>
		</linearGradient>
		<path opacity="0.45" fill="url(#SVGID_3_)" d="M55.593,43.749v45.701H30.362c-0.423-0.025-0.741,0-0.862,0
			c-0.516,0-1.541,0.271-3.094,1.096c-1.557,0.824-5.521,2.927-5.521,2.927c-1.826,0.97-3.118,0.933-3.118,0.933
			s-4.787,0.488-4.787-4.955V43.749H55.593z"/>
		<linearGradient id="SVGID_4_" gradientUnits="userSpaceOnUse" x1="60.8765" y1="90.4463" x2="61.6608" y2="119.805">
			<stop  offset="0.0621" style="stop-color:#FFFFFF"/>
			<stop  offset="1" style="stop-color:#FFFFFF;stop-opacity:0"/>
		</linearGradient>
		<path opacity="0.45" fill="url(#SVGID_4_)" d="M84.183,94.404v32.099l-16.296,8.647L41.57,149.116
			c7.481-3.971,6.175-13.966,6.175-13.966H41.57V94.404c0-4.184-2.523-4.862-3.925-4.955H80.62
			C82.178,89.542,84.183,90.221,84.183,94.404z"/>
		<path fill="#FFFFFF" d="M70.42,105.291H48.794c-0.565,0-1.023-0.404-1.023-0.902s0.458-0.903,1.023-0.903H70.42
			c0.565,0,1.024,0.405,1.024,0.903S70.985,105.291,70.42,105.291z"/>
		<path fill="#FFFFFF" d="M70.42,111.397H48.794c-0.565,0-1.023-0.404-1.023-0.902c0-0.499,0.458-0.902,1.023-0.902H70.42
			c0.565,0,1.024,0.403,1.024,0.902C71.444,110.993,70.985,111.397,70.42,111.397z"/>
		<path fill="#FFFFFF" d="M70.42,117.554H48.794c-0.565,0-1.023-0.403-1.023-0.902s0.458-0.902,1.023-0.902H70.42
			c0.565,0,1.024,0.403,1.024,0.902S70.985,117.554,70.42,117.554z"/>
		<rect x="39.382" y="101.996" fill="#EEE1F0" width="4.477" height="4.478"/>
		<rect x="39.382" y="108.257" fill="#EEE1F0" width="4.477" height="4.477"/>
		<rect x="39.382" y="114.413" fill="#EEE1F0" width="4.477" height="4.477"/>
	</g>
	<g>
		<g>
			<path fill="#F4A09C" d="M59.146,43.797c0.951,6.308-1.133,11.691-6.251,16.147l-2.306,1.874
				c-3.446,2.994-5.255,6.321-5.427,9.984l0,0l-9.567-0.55l0.123-1.737c0.869-4.205,2.748-7.617,5.638-10.235l3.441-3.209
				c3.856-3.588,5.561-7.603,5.115-12.047c-0.547-2.147-1.7-3.89-3.458-5.226c-1.808-1.28-3.773-1.759-5.894-1.44
				c-4.247,0.639-8.066,4.296-11.458,10.965l-0.985,2.331l-5.912-5.439c4.486-9.017,10.239-14.055,17.261-15.113
				c5.006-0.754,9.386,0.236,13.138,2.968C56.286,35.717,58.467,39.293,59.146,43.797z"/>
		</g>
		<path fill="#F1875D" d="M29.35,51.217l-0.709,2.677c0,0-5.503,5.01-8.412-2.237l0.709-2.676L29.35,51.217z"/>
		<g>
			<path fill="#D89696" d="M45.923,72.063l-2.33-0.111l0.076-1.592c0.176-3.772,2.034-7.221,5.523-10.252l0.03-0.024l2.162-1.757
				c4.541-3.962,6.341-8.6,5.5-14.181c-0.598-3.966-2.463-7.026-5.705-9.356c-3.321-2.417-7.098-3.266-11.551-2.595
				c-6.199,0.933-11.391,5.521-15.428,13.636l-2.087-1.04c4.395-8.835,10.172-13.849,17.168-14.903
				c5.021-0.756,9.483,0.257,13.266,3.014c3.72,2.673,5.958,6.342,6.645,10.897c0.956,6.349-1.16,11.833-6.291,16.3l-0.03,0.025
				l-2.162,1.757c-3.022,2.629-4.563,5.439-4.71,8.589L45.923,72.063z"/>
		</g>
		<g>
			<path fill="#F9CBCB" d="M37.503,71.549l-2.458-0.248l0.287-2.786c0.92-4.447,2.944-8.115,6.019-10.899l3.427-3.198
				c3.565-3.316,5.115-6.891,4.739-10.927c-0.486-1.838-1.459-3.293-2.969-4.446c-1.547-1.09-3.177-1.487-4.981-1.215
				c-3.809,0.573-7.354,4.041-10.539,10.303l-2.203-1.12c3.569-7.016,7.732-10.927,12.375-11.626
				c2.438-0.367,4.723,0.189,6.792,1.653l0.034,0.024c1.979,1.503,3.293,3.49,3.909,5.905l0.032,0.181
				c0.485,4.827-1.367,9.227-5.503,13.075l-3.439,3.209c-2.676,2.425-4.441,5.623-5.258,9.519L37.503,71.549z"/>
		</g>
		
			<rect x="20.939" y="45.765" transform="matrix(0.9311 0.3648 -0.3648 0.9311 19.4506 -6.1109)" fill="#DAE5F6" width="9.917" height="5.307"/>
		<g>
			<path fill="#EED2B9" d="M42.509,81.121c-1.626-0.072-3.08,0.028-4.289,0.193l-3.552-7.755c1.788-0.514,6.074-1.457,11.396-0.649
				L42.509,81.121z"/>
			<path fill="#F1875D" d="M42.508,81.121c-1.625-0.072-3.079,0.028-4.287,0.192l2.162,4.718L42.508,81.121z"/>
			<path fill="#E56E4E" d="M40.383,86.03l0.716-4.93c0.453-0.007,0.924-0.001,1.41,0.021L40.383,86.03z"/>
			<path fill="#DBBAA3" d="M42.509,81.121c-0.486-0.021-0.958-0.027-1.41-0.021l1.235-8.501c1.166,0.018,2.417,0.112,3.73,0.311
				L42.509,81.121z"/>
		</g>
	</g>
</g>
</svg>
