<?xml version="1.0" encoding="utf-8"?>
<!-- Generator: Adobe Illustrator 15.0.0, SVG Export Plug-In . SVG Version: 6.00 Build 0)  -->
<!DOCTYPE svg PUBLIC "-//W3C//DTD SVG 1.1//EN" "http://www.w3.org/Graphics/SVG/1.1/DTD/svg11.dtd">
<svg version="1.1" id="Layer_1" xmlns="http://www.w3.org/2000/svg" xmlns:xlink="http://www.w3.org/1999/xlink" x="0px" y="0px"
	 width="168px" height="152px" viewBox="0 0 168 152" enable-background="new 0 0 168 152" xml:space="preserve">
<g>
	<path fill="#638C9C" d="M110.06,9.285v53.843c0,2.587-2.099,4.684-4.686,4.684h-85.59c-2.587,0-4.685-2.097-4.685-4.684V9.285
		c0-2.587,2.097-4.685,4.685-4.685h85.59C107.961,4.6,110.06,6.697,110.06,9.285z"/>
	<path fill="none" stroke="#231F21" stroke-width="0.822" stroke-miterlimit="10" d="M110.06,92.911"/>
	<path fill="none" stroke="#231F21" stroke-width="0.822" stroke-miterlimit="10" d="M120.925,81.271"/>
	<g>
		<path fill="#77AEC6" d="M103.626,9.285v53.843c0,2.587-2.098,4.684-4.686,4.684H13.352c-2.588,0-4.686-2.097-4.686-4.684V9.285
			c0-2.587,2.098-4.685,4.686-4.685H98.94C101.528,4.6,103.626,6.697,103.626,9.285z"/>
		<path fill="#DAE5F6" d="M98.849,12.582v40.356H13.443V12.582c0-1.421,1.154-2.576,2.576-2.576h80.253
			C97.693,10.006,98.849,11.161,98.849,12.582z"/>
		<path fill="#9CD3F4" d="M103.626,52.938v10.189c0,2.587-2.098,4.684-4.686,4.684H13.352c-2.588,0-4.686-2.097-4.686-4.684V52.938
			H103.626z"/>
		<path fill="#9CD3F4" d="M78.732,80.587v3.819H29.971c-1.057,0-1.913-0.855-1.913-1.908c0-1.055,0.855-1.911,1.913-1.911H78.732z"
			/>
		<path fill="#77AEC6" d="M78.732,67.812v12.775H34.958c2.938,0,3.951-1.795,3.951-3.274l-0.002-9.5H78.732z"/>
		<path fill="#FFFFFF" d="M56.146,61.365c-1.376,0-2.496-1.119-2.496-2.494c0-1.376,1.12-2.494,2.496-2.494
			c1.374,0,2.494,1.118,2.494,2.494C58.641,60.246,57.521,61.365,56.146,61.365z M56.146,57.495c-0.759,0-1.376,0.618-1.376,1.376
			s0.617,1.375,1.376,1.375c0.757,0,1.375-0.617,1.375-1.375S56.903,57.495,56.146,57.495z"/>
		<path fill="none" stroke="#231F21" stroke-width="0.822" stroke-miterlimit="10" d="M16.057,14.035"/>
		<path fill="none" stroke="#231F21" stroke-width="0.822" stroke-miterlimit="10" d="M26.922,2.395"/>
		<linearGradient id="SVGID_1_" gradientUnits="userSpaceOnUse" x1="107.4893" y1="78.4131" x2="27.1135" y2="4.5099">
			<stop  offset="0" style="stop-color:#FFFFFF"/>
			<stop  offset="1" style="stop-color:#FFFFFF;stop-opacity:0"/>
		</linearGradient>
		<path fill="url(#SVGID_1_)" d="M122.632,31.339l-7.972,9.501l-4.526-3.795l-7.021,8.369l-4.265-3.581l-9.317,11.105L58.076,90.424
			L13.443,52.938V12.582c0-1.421,1.155-2.576,2.576-2.576h80.254c0.575,0,1.108,0.19,1.541,0.512l0.191,0.16L122.632,31.339z"/>
		<g>
			<path fill="#F4A09C" d="M25.803,31.377c0,1.255-0.405,2.288-1.214,3.097c-0.763,0.758-2.108,1.162-4.037,1.214l-0.089,2.21
				c-0.024,0.591-0.036,1.297-0.036,2.117l-2.75-0.125c0.261-5.624,0.398-9.8,0.41-12.529c0.977-0.052,1.744-0.078,2.304-0.078
				c1.917,0,3.305,0.39,4.162,1.168C25.387,29.229,25.803,30.205,25.803,31.377z M23.052,31.377c0-0.675-0.173-1.167-0.518-1.479
				c-0.333-0.301-0.881-0.452-1.643-0.452H20.82l-0.179,4.078c0.179,0.011,0.429,0.016,0.75,0.016
				C22.499,33.427,23.052,32.705,23.052,31.377z"/>
			<path fill="#F4A09C" d="M34.949,36.264c0.023,1.048-0.333,1.92-1.072,2.615c-0.833,0.769-1.876,1.152-3.125,1.152
				c-1-0.01-2.287-0.492-3.858-1.447l1.357-2.164c0.964,0.851,1.798,1.292,2.501,1.324c0.703-0.032,1.059-0.524,1.071-1.479
				c-0.035-0.353-0.131-0.668-0.285-0.949c-0.155-0.28-0.53-0.591-1.125-0.934c-1.381-0.498-2.316-1.094-2.805-1.789
				c-0.428-0.592-0.644-1.282-0.644-2.071c0-0.944,0.351-1.717,1.054-2.318c0.714-0.613,1.649-0.919,2.805-0.919
				c0.988,0,1.816,0.322,2.482,0.965c0.44,0.415,0.923,1.116,1.446,2.101l-2.607,1.183c-0.215-0.799-0.411-1.333-0.589-1.603
				c-0.178-0.249-0.423-0.374-0.732-0.374c-0.488,0-0.733,0.322-0.733,0.965c0,0.395,0.108,0.707,0.322,0.934
				c0.167,0.167,0.476,0.353,0.928,0.561c1.381,0.601,2.334,1.281,2.858,2.038C34.687,34.75,34.937,35.486,34.949,36.264z"/>
			<path fill="#F4A09C" d="M44.542,28.155c-0.846,1.37-1.983,3.512-3.412,6.428L40.7,40.03l-2.786-0.123
				c0.143-1.112,0.291-2.886,0.447-5.324l-2.394-6.537l2.519-0.747c0.262,1.163,0.678,2.656,1.25,4.482
				c0.346-0.706,1.102-2.158,2.268-4.358L44.542,28.155z"/>
			<path fill="#F4A09C" d="M53.454,32.232l-2.769,0.234c0-0.363,0.006-0.602,0.018-0.716c-0.035-0.654-0.119-1.183-0.249-1.588
				c-0.144-0.445-0.352-0.669-0.625-0.669c-0.607,0-1.078,0.41-1.412,1.229c-0.369,0.903-0.555,1.972-0.555,3.207
				c0,0.716,0.079,1.448,0.233,2.194c0.262,1.13,0.648,1.696,1.161,1.696c0.416-0.051,0.792-0.403,1.124-1.058
				c0.239-0.436,0.419-0.918,0.537-1.448l2.464,1.479c-0.536,1.027-1.249,1.858-2.143,2.491c-0.667,0.456-1.327,0.706-1.982,0.747
				c-0.811-0.03-1.513-0.28-2.107-0.747c-0.632-0.519-1.114-1.172-1.447-1.961c-0.394-1.006-0.589-2.138-0.589-3.393
				c0-1.411,0.184-2.568,0.553-3.471c0.894-2.116,2.28-3.175,4.163-3.175c1.309,0,2.279,0.576,2.91,1.728
				C53.191,29.862,53.431,30.936,53.454,32.232z"/>
			<path fill="#F4A09C" d="M63.011,27.377l-0.072,1.759c-0.035,0.881-0.053,3.927-0.053,9.136v1.758l-3.145-0.077
				c0.072-0.623,0.113-1.24,0.125-1.852l0.09-3.424c-0.322,0-0.763,0-1.321,0c-0.572,0.01-0.978,0.016-1.215,0.016
				c-0.025,0.798-0.036,1.991-0.036,3.58v1.758L54.4,39.953c0.061-0.57,0.102-1.188,0.125-1.852l0.357-10.755l2.858,0.032
				l-0.072,1.759c-0.047,0.694-0.101,1.706-0.16,3.035h2.518l0.144-4.825L63.011,27.377z"/>
			<path fill="#F4A09C" d="M71.603,34.007c0,1.557-0.388,2.968-1.162,4.234c-0.738,1.193-1.702,1.79-2.893,1.79
				c-1.072,0-2.013-0.539-2.822-1.618c-0.786-1.069-1.179-2.522-1.179-4.358c0-1.514,0.268-2.904,0.803-4.171
				c0.727-1.732,1.81-2.6,3.252-2.6c0.715,0,1.363,0.224,1.947,0.67c0.606,0.509,1.179,1.271,1.714,2.288l-0.356,0.155
				C71.37,31.787,71.603,32.99,71.603,34.007z M68.852,34.007c0-1.266-0.269-2.402-0.804-3.408l0.589-0.188
				c-0.059-0.113-0.154-0.28-0.285-0.498c-0.227-0.281-0.477-0.42-0.75-0.42c-0.382,0-0.691,0.42-0.93,1.261
				c-0.25,0.84-0.376,1.94-0.376,3.299c0,0.645,0.079,1.339,0.233,2.086c0.227,1.121,0.564,1.68,1.019,1.68
				c0.477,0,0.832-0.559,1.072-1.68C68.773,35.404,68.852,34.693,68.852,34.007z"/>
			<path fill="#F4A09C" d="M74.55,37.151c0.44,0,0.822,0.136,1.143,0.405c0.31,0.271,0.482,0.622,0.519,1.058
				c-0.036,0.394-0.209,0.732-0.519,1.012c-0.31,0.27-0.69,0.419-1.143,0.451c-0.477-0.032-0.875-0.187-1.197-0.467
				c-0.32-0.27-0.481-0.602-0.481-0.996c0-0.425,0.161-0.778,0.481-1.058C73.662,37.287,74.062,37.151,74.55,37.151z"/>
			<path fill="#F4A09C" d="M86.498,39.067L83.783,40c-0.905-2.418-1.686-4.312-2.34-5.681c-0.048,0-0.106,0-0.179,0L81.05,40
				l-2.839-0.125l0.124-2.147c0.191-3.268,0.287-6.688,0.287-10.257c0.726-0.125,1.637-0.187,2.732-0.187
				c1.798,0,3.065,0.343,3.805,1.028c0.713,0.685,1.071,1.52,1.071,2.506c0,0.84-0.358,1.603-1.071,2.288
				c-0.285,0.291-0.655,0.52-1.107,0.685l0.785,1.79c0.299,0.644,0.596,1.302,0.894,1.977
				C86.028,38.209,86.284,38.713,86.498,39.067z M83.355,30.817c-0.024-0.415-0.137-0.731-0.341-0.95
				c-0.213-0.197-0.661-0.296-1.339-0.296h-0.232l-0.089,2.661c0.548-0.051,0.965-0.15,1.251-0.295
				C83.069,31.719,83.319,31.346,83.355,30.817z"/>
			<path fill="#F4A09C" d="M95.592,27.377c-0.145,1.047-0.228,2.718-0.251,5.012c-0.035,3.071-0.387,5.089-1.053,6.053
				c-0.752,1.069-1.74,1.599-2.967,1.588c-1.119-0.01-2.065-0.441-2.841-1.292c-0.726-0.819-1.088-1.987-1.088-3.502
				c0-0.498,0.035-1.364,0.107-2.6c0.106-1.888,0.16-3.641,0.16-5.26l3.145,0.187l-0.252,4.03c-0.119,1.909-0.178,3.123-0.178,3.642
				c0,1.682,0.314,2.552,0.946,2.615c0.394-0.01,0.674-0.441,0.84-1.292c0.202-0.997,0.304-3.299,0.304-6.911v-2.381L95.592,27.377z
				"/>
		</g>
	</g>
	<g>
		<g>
			
				<rect x="96.544" y="39.59" transform="matrix(0.7661 0.6428 -0.6428 0.7661 74.1235 -61.0459)" fill="#F4F2EF" width="48.76" height="63.43"/>
			
				<rect x="84.047" y="45.298" transform="matrix(0.766 0.6428 -0.6428 0.766 74.872 -51.679)" fill="#EEE1F0" width="48.761" height="63.428"/>
			<polygon fill="#BCC9E6" points="136.2,73.177 102.451,113.398 85.456,113.398 58.075,90.424 98.849,41.833 			"/>
			<polygon fill="#77AEC6" points="85.456,113.398 92.478,105.031 102.451,113.398 			"/>
		</g>
		<g>
			
				<rect x="71.687" y="80.461" transform="matrix(0.7661 0.6427 -0.6427 0.7661 71.8958 -28.8458)" fill="#DAE5F6" width="7.782" height="7.784"/>
			
				<rect x="81.693" y="68.535" transform="matrix(0.7661 0.6428 -0.6428 0.7661 66.5763 -38.0675)" fill="#DAE5F6" width="7.783" height="7.784"/>
			
				<rect x="91.699" y="56.611" transform="matrix(0.766 0.6428 -0.6428 0.766 61.2609 -47.2914)" fill="#DAE5F6" width="7.782" height="7.784"/>
			<path fill="#DAE5F6" d="M121.548,82.702c-0.252,0-0.507-0.084-0.716-0.26l-19.294-16.111c-0.473-0.396-0.537-1.102-0.142-1.577
				c0.396-0.474,1.103-0.537,1.577-0.142l19.292,16.114c0.475,0.396,0.538,1.1,0.142,1.574
				C122.187,82.566,121.868,82.702,121.548,82.702z"/>
			<path fill="#DAE5F6" d="M111.355,94.85c-0.252,0-0.507-0.084-0.716-0.26L91.368,78.497c-0.474-0.396-0.538-1.102-0.142-1.576
				c0.396-0.473,1.103-0.537,1.575-0.142l19.271,16.093c0.476,0.397,0.537,1.103,0.142,1.576
				C111.993,94.714,111.675,94.85,111.355,94.85z"/>
			<path fill="#DAE5F6" d="M101.072,106.923c-0.253,0-0.507-0.085-0.717-0.26L81.145,90.619c-0.475-0.396-0.537-1.103-0.142-1.574
				c0.396-0.475,1.102-0.539,1.576-0.142l19.21,16.042c0.476,0.397,0.538,1.102,0.143,1.576
				C101.711,106.787,101.393,106.923,101.072,106.923z"/>
		</g>
		<g>
			<path fill="#77AEC6" d="M76.545,77.119l-0.386,7.006l6.864-1.602l0.722,1.656l-9.616,2.38l0.657-9.85L76.545,77.119z"/>
		</g>
	</g>
	<g>
		<g>
			<path fill="#9CD3F4" d="M43.111,92.911l10.659,8.944c-0.354,2.212-1.518,4.652-3.402,6.897c-1.883,2.243-4.101,3.833-6.216,4.567
				l-10.66-8.946L43.111,92.911z"/>
			<path fill="#77AEC6" d="M39.416,89.811l3.696,3.101l-9.619,11.463l-3.696-3.102c0.355-2.21,1.535-4.669,3.418-6.915
				C35.098,92.114,37.3,90.542,39.416,89.811z"/>
			<path fill="#638C9C" d="M43.909,90.434l14.355,12.046c-0.354,2.21-1.517,4.649-3.4,6.895c-1.885,2.246-4.101,3.834-6.218,4.569
				c-1.604,0.709-3.434,0.267-4.494-0.623c0.785-0.273,1.583-0.663,2.371-1.159c1.341-0.843,2.659-1.995,3.845-3.408
				c1.885-2.245,3.049-4.686,3.402-6.897L39.416,89.811C39.416,89.811,41.765,88.634,43.909,90.434z"/>
			<path fill="#9CD3F4" d="M36.801,98.504c-0.253,0-0.509-0.086-0.718-0.262l-1.922-1.613c-0.474-0.397-0.536-1.104-0.138-1.576
				c0.397-0.473,1.103-0.535,1.577-0.138l1.922,1.611c0.472,0.397,0.534,1.104,0.137,1.576
				C37.438,98.368,37.121,98.504,36.801,98.504z"/>
			<path fill="#9CD3F4" d="M49.78,116.453c0,0,7.101-2.563,9.617-11.463l6.997,15.637L49.78,116.453z"/>
			<polygon fill="#638C9C" points="59.826,118.976 63.629,114.443 66.395,120.627 			"/>
		</g>
		
			<linearGradient id="SVGID_2_" gradientUnits="userSpaceOnUse" x1="32.3589" y1="275.0938" x2="47.3247" y2="275.0938" gradientTransform="matrix(0.6428 -0.766 0.766 0.6428 -203.3326 -48.6435)">
			<stop  offset="0" style="stop-color:#FFFFFF"/>
			<stop  offset="1" style="stop-color:#FFFFFF;stop-opacity:0"/>
		</linearGradient>
		<path fill="url(#SVGID_2_)" d="M37.919,89.472l3.696,3.104l-9.619,11.463l-3.695-3.102c0.354-2.212,1.534-4.672,3.417-6.915
			C33.602,91.776,35.804,90.206,37.919,89.472z"/>
		<path fill="#F4F2EF" d="M32.763,94.896L29.78,92.39c-1.002-0.83-2.39-1.265-3.248-1.265H11.874c-2.155,0-3.908-1.754-3.908-3.908
			v-9.666c0-1.79,1.208-3.301,2.849-3.763l-0.073-0.146l28.165,0v1.399H11.875c-1.384,0-2.509,1.125-2.509,2.51v9.666
			c0,1.383,1.125,2.509,2.509,2.509h14.659c1.119,0,2.84,0.498,4.164,1.607v0.002l2.965,2.489L32.763,94.896z"/>
	</g>
</g>
</svg>
