<?xml version="1.0" encoding="utf-8"?>
<!-- Generator: Adobe Illustrator 15.0.0, SVG Export Plug-In . SVG Version: 6.00 Build 0)  -->
<!DOCTYPE svg PUBLIC "-//W3C//DTD SVG 1.1//EN" "http://www.w3.org/Graphics/SVG/1.1/DTD/svg11.dtd">
<svg version="1.1" id="Layer_1" xmlns="http://www.w3.org/2000/svg" xmlns:xlink="http://www.w3.org/1999/xlink" x="0px" y="0px"
	 width="168px" height="152px" viewBox="0 0 168 152" enable-background="new 0 0 168 152" xml:space="preserve">
<g>
	<g>
		<g>
			<path fill="#F4A09C" d="M124.426,76.982c-2.044,7.227-9.558,11.429-16.785,9.387c-7.227-2.045-11.428-9.559-9.386-16.785
				c0.225-0.794,0.865-2.27,0.865-2.27l12.133,5.944l-0.381-13.568c1.373-0.047,2.775,0.115,4.167,0.507
				C122.266,62.242,126.468,69.755,124.426,76.982z"/>
			
				<linearGradient id="SVGID_1_" gradientUnits="userSpaceOnUse" x1="-140.7905" y1="-26.7617" x2="-113.5957" y2="-26.7617" gradientTransform="matrix(0.9623 0.272 -0.272 0.9623 229.2856 131.8542)">
				<stop  offset="0" style="stop-color:#FFFFFF;stop-opacity:0.81"/>
				<stop  offset="1" style="stop-color:#FFFFFF;stop-opacity:0"/>
			</linearGradient>
			<circle fill="url(#SVGID_1_)" cx="114.167" cy="71.504" r="13.597"/>
			<path fill="#BCC9E6" d="M110.613,72.258l-13.894-10.2c0,0,5.735-6.496,11.804-6.376L110.613,72.258z"/>
		</g>
		<path fill="#FFF9BE" d="M124.426,76.982l-13.173-3.724l-0.381-13.568c1.373-0.047,2.775,0.115,4.167,0.507
			c4.342,1.229,7.592,4.431,9.053,8.359C125.061,71.168,125.24,74.098,124.426,76.982z"/>
	</g>
	<g>
		<g>
			<circle fill="#F2D291" cx="69.125" cy="125.205" r="13.899"/>
			<circle fill="#FFF9BE" cx="69.126" cy="125.205" r="12.109"/>
			<path fill="#F39D9E" d="M69.731,140.329c-3.123,0-5.137-1.251-5.261-1.33l0.908-1.429c0.156,0.098,3.912,2.384,9.134-0.052
				l0.715,1.533C73.18,140.008,71.313,140.329,69.731,140.329z"/>
			<path fill="#F39D9E" d="M69.774,142.837c-2.454,0-4.043-0.988-4.142-1.051l0.911-1.426l-0.455,0.713l0.45-0.716
				c0.118,0.073,2.916,1.766,6.811-0.052l0.716,1.535C72.467,142.586,71.011,142.837,69.774,142.837z"/>
			<path fill="#F39D9E" d="M72.766,143.677c-3.257,2.813-5.64,0-5.64,0H72.766z"/>
		</g>
		
			<rect x="57.444" y="129.688" transform="matrix(0.2611 0.9653 -0.9653 0.2611 173.257 33.8247)" fill="#F39D9E" width="14.177" height="0.802"/>
		
			<rect x="73.612" y="123.001" transform="matrix(0.9648 0.2631 -0.2631 0.9648 36.8366 -14.8902)" fill="#F39D9E" width="0.802" height="14.175"/>
		<path fill="#F39D9E" d="M75.486,126.066c-2.169,0-3.076-0.493-3.878-0.928c-0.647-0.353-1.159-0.631-2.482-0.631
			c-1.344,0-1.838,0.283-2.463,0.644c-0.748,0.429-1.597,0.915-3.603,0.915v-1.691c1.555,0,2.113-0.321,2.759-0.692
			c0.709-0.406,1.512-0.867,3.307-0.867c1.754,0,2.571,0.443,3.292,0.835c0.684,0.373,1.33,0.725,3.068,0.725V126.066z"/>
		
			<linearGradient id="SVGID_2_" gradientUnits="userSpaceOnUse" x1="-169.9502" y1="36.3203" x2="-147.2808" y2="36.3203" gradientTransform="matrix(0.9623 0.272 -0.272 0.9623 229.2856 131.8542)">
			<stop  offset="0" style="stop-color:#FFFFFF;stop-opacity:0.81"/>
			<stop  offset="1" style="stop-color:#FFFFFF;stop-opacity:0"/>
		</linearGradient>
		<circle fill="url(#SVGID_2_)" cx="66.771" cy="123.662" r="11.335"/>
	</g>
	<path fill="#9BA9D7" d="M110.586,75.174l-5.583,13.186c0,0,1.214,1.809,4.438,1.254L110.586,75.174z"/>
	<g>
		<path fill="#BCC9E6" d="M64.392,73.34c0,14.21-9.61,26.19-22.7,29.75c-0.16,0.05-0.3-0.01-0.3-0.01
			c-5.971-0.22-5.73-7.08-5.73-7.08h0.15l-5.521-4.32l-7.02-5.51h-0.011v16.19c0.33,0.109-2.31-0.301-6.949-3.44
			c-4.101-2.77-7.511-6.5-9.881-10.87c-2.38-4.37-3.729-9.39-3.729-14.71c0-11.36,6.149-21.281,15.3-26.632
			c0.034-0.021,0.07-0.04,0.104-0.06c4.543-2.633,9.815-4.148,15.445-4.148C50.581,42.5,64.392,56.31,64.392,73.34z"/>
		<polygon fill="#F39D9E" points="41.69,103.094 41.69,134.96 34.568,126.118 		"/>
		<path fill="#BB7359" d="M50.431,57.7c0,0-3,12.35-8.739,22.319c-3.04,5.271-6.851,9.881-11.38,11.65
			c-0.011,0.01-0.021,0.01-0.021,0.01l-7.02-5.51h-0.011v5.86c0-8.94-15.89-9.561-15.89-25.64c0-4.32,2.92-22.63,22.35-22.63
			C49.161,43.76,50.431,57.7,50.431,57.7z"/>
		<path fill="#DBBAA3" d="M41.69,57.701h8.742v7.853c0,0-2.605,2.567,0,7.065l-4.34,23.359l-4.402,0.02V57.701z"/>
		<path fill="#F4F2EF" d="M41.691,100.6v2.261l-0.3,0.22c-5.971-0.22-5.73-7.08-5.73-7.08h0.15L41.691,100.6z"/>
		<path fill="#EED2B9" d="M41.69,57.701h-8.805c0,0-3.434-0.113-3.434,3.67v10.751l-5.081-3.973v-2.962c0,0-5.853-1.584-5.853,3.743
			c0,5.329,4.749,5.465,4.749,5.465v11.777l12.575,9.825h5.848V57.701z"/>
		
			<linearGradient id="SVGID_3_" gradientUnits="userSpaceOnUse" x1="-95.1812" y1="458.0996" x2="-91.7248" y2="451.711" gradientTransform="matrix(1 -0.011 0.011 1 123.3125 -378.7518)">
			<stop  offset="0.1266" style="stop-color:#FFFFFF"/>
			<stop  offset="1" style="stop-color:#FFFFFF;stop-opacity:0"/>
		</linearGradient>
		<path fill="url(#SVGID_3_)" d="M29.808,73.476c0.008,0.641,0.427,3.384,4.508,3.34c4.081-0.047,8.441-0.095,8.441-0.095
			l0.005-3.388C28.451,68.955,29.795,72.296,29.808,73.476z"/>
		<path fill="#F39D9E" d="M41.691,96v7.09c-0.101,0-0.2,0-0.3-0.01c-5.971-0.22-5.73-7.08-5.73-7.08H41.691z"/>
	</g>
	<g>
		<path fill="#BCC9E6" d="M91.911,4.6c0,0,0,0-0.01,0c-2.59-1.4-5.55-2.2-8.69-2.2c-9.819,0-17.859,7.76-18.31,17.47
			c-0.01,0.28-0.021,0.56-0.021,0.85c0,0.28,0.011,0.55,0.021,0.82v0.03c0.45,9.71,8.49,17.47,18.31,17.47
			c10.101,0,18.32-8.22,18.32-18.32C101.531,13.76,97.631,7.7,91.911,4.6z M83.211,35.66c-3.26,0-6.28-1.05-8.74-2.83
			c-3.54-2.56-5.92-6.63-6.17-11.26c-0.02-0.28-0.029-0.57-0.029-0.85c0-0.28,0.01-0.57,0.029-0.85
			c0.431-7.84,6.95-14.09,14.91-14.09c7.3,0,13.391,5.25,14.69,12.19c0,0.01,0,0.01,0,0.01c0.16,0.89,0.25,1.8,0.25,2.74
			C98.151,28.96,91.441,35.66,83.211,35.66z"/>
		<path fill="#BCC9E6" d="M83.211,9.59c-5.85,0-10.66,4.54-11.1,10.28c-0.021,0.28-0.03,0.56-0.03,0.85c0,0.29,0.01,0.57,0.03,0.85
			c0.439,5.74,5.25,10.28,11.1,10.28c6.13,0,11.13-4.99,11.13-11.13C94.341,14.58,89.341,9.59,83.211,9.59z M83.211,28.46
			c-3.979,0-7.28-3.02-7.7-6.89c-0.029-0.28-0.05-0.56-0.05-0.85c0-0.29,0.021-0.57,0.05-0.85c0.42-3.87,3.721-6.89,7.7-6.89
			c4.271,0,7.74,3.47,7.74,7.74S87.481,28.46,83.211,28.46z"/>
		<circle fill="#BCC9E6" cx="83.209" cy="20.719" r="3.265"/>
		<linearGradient id="SVGID_4_" gradientUnits="userSpaceOnUse" x1="64.3916" y1="17.4541" x2="97.916" y2="17.4541">
			<stop  offset="0.0621" style="stop-color:#FFFFFF"/>
			<stop  offset="1" style="stop-color:#FFFFFF;stop-opacity:0"/>
		</linearGradient>
		<circle opacity="0.45" fill="url(#SVGID_4_)" cx="81.154" cy="17.454" r="16.762"/>
		<rect x="51.481" y="19.873" fill="#9BA9D7" width="31.727" height="1.693"/>
		<polygon fill="#BCC9E6" points="62.959,20.719 51.072,20.719 48.569,16.111 60.457,16.111 		"/>
		<polygon fill="#9BA9D7" points="62.959,20.719 51.072,20.719 48.569,25.327 60.457,25.327 		"/>
		<circle fill="#9BA9D7" cx="83.208" cy="20.719" r="1.361"/>
	</g>
	<g>
		<g>
			<line fill="none" x1="63.061" y1="87.017" x2="110.872" y2="110.279"/>
			
				<rect x="60.381" y="97.237" transform="matrix(0.8992 0.4375 -0.4375 0.8992 51.9245 -28.1064)" fill="#BCC9E6" width="53.17" height="2.821"/>
		</g>
		<polygon fill="#BCC9E6" points="115.074,46.095 101.361,51.213 100.652,49.965 99.951,48.725 114.085,43.452 114.579,44.774 		"/>
		<line fill="none" x1="100.652" y1="49.965" x2="99.315" y2="50.467"/>
		<polygon fill="#BCC9E6" points="100.024,51.708 64.889,64.816 63.898,62.172 98.613,49.227 99.315,50.467 		"/>
		<polygon fill="#BCC9E6" points="101.361,51.213 100.024,51.708 99.315,50.467 98.613,49.227 99.951,48.725 100.652,49.965 		"/>
		<g>
			<polygon fill="#CED8EE" points="103.71,55.334 102.483,56.028 100.024,51.708 99.315,50.467 98.613,49.227 92.02,37.64 
				93.246,36.946 99.951,48.725 100.652,49.965 101.361,51.213 			"/>
			
				<rect x="117.196" y="88.984" transform="matrix(0.4944 0.8692 -0.8692 0.4944 139.8658 -61.0787)" fill="#CED8EE" width="10.481" height="1.41"/>
			
				<rect x="62.899" y="32.998" transform="matrix(0.7505 0.6609 -0.6609 0.7505 44.2649 -31.316)" fill="#CED8EE" width="1.412" height="19.929"/>
			
				<rect x="49.304" y="105.469" transform="matrix(0.5336 0.8458 -0.8458 0.5336 116.1853 1.6732)" fill="#CED8EE" width="14.543" height="1.41"/>
			<rect x="84.569" y="125.362" fill="#CED8EE" width="24.26" height="1.41"/>
			
				<rect x="101.461" y="26.643" transform="matrix(0.9659 0.2591 -0.2591 0.9659 10.7699 -27.0259)" fill="#CED8EE" width="12.926" height="1.411"/>
			
				<rect x="120.859" y="55.618" transform="matrix(0.805 0.5933 -0.5933 0.805 58.8815 -60.5657)" fill="#CED8EE" width="1.41" height="7.32"/>
			<rect x="66.196" y="73.274" fill="#CED8EE" width="29.762" height="1.41"/>
		</g>
		<g>
			<line fill="none" x1="137.36" y1="60.15" x2="137.36" y2="92.912"/>
			<rect x="135.949" y="60.15" fill="#BCC9E6" width="2.822" height="32.762"/>
		</g>
	</g>
	<g>
		<path fill="#BB7359" d="M167,120.487c0,15.74-12.76,28.499-28.502,28.499c-1.565,0-3.103-0.126-4.602-0.371
			c-13.553-2.198-23.897-13.954-23.897-28.128c0-10.74,5.941-20.089,14.715-24.947c4.086-2.263,8.785-3.551,13.784-3.551
			C154.24,91.989,167,104.749,167,120.487z"/>
		<path fill="#9E6252" d="M133.896,109.988v38.627c-13.553-2.198-23.897-13.954-23.897-28.128c0-10.74,6.078-20.481,15.521-25.376
			L133.896,109.988z"/>
		<path fill="#DBBAA3" d="M147.673,124.423v23.055c-2.881,0.979-5.964,1.509-9.175,1.509c-1.565,0-3.103-0.126-4.602-0.371v-24.192
			H147.673z"/>
		<path fill="#EED2B9" d="M147.671,124.423l-0.003,9.278c-6.995,5.492-17.2,6.093-17.2,6.093l-3.188-1.186l-1.022-12.761
			c0,0-3.249-0.388-3.219-2.449c0,0,3.58-1.604,3.588-8.813c0.013-7.207,2.524-13.093,2.524-13.093s5.747,10.526,7.023,12.35
			c1.277,1.825,4.341,4.69,9.344,3.081c1.724-0.554,3.531-0.355,4.548,1.095C152.591,121.626,147.671,124.423,147.671,124.423z"/>
		
			<linearGradient id="SVGID_5_" gradientUnits="userSpaceOnUse" x1="2173.6465" y1="125.585" x2="2175.2173" y2="122.6816" gradientTransform="matrix(-1 0 0 1 2309.8516 0)">
			<stop  offset="0.0621" style="stop-color:#FFFFFF"/>
			<stop  offset="1" style="stop-color:#FFFFFF;stop-opacity:0"/>
		</linearGradient>
		<path opacity="0.5" fill="url(#SVGID_5_)" d="M141.553,121.11c0,0.708-0.429,3.734-4.925,3.734c-4.499,0-9.302,0-9.302,0
			l-0.047-3.734C142.991,116.114,141.553,119.811,141.553,121.11z"/>
	</g>
	<g>
		<path fill="#9BA9D7" d="M163.941,35.68c0,4.66-1.28,9.03-3.521,12.76l-1.979-2.35l-11.67,6.69c-0.061,0.03-0.091,0.05-0.091,0.05
			c-0.909,0.52-2.25,1.28-3.56,2.03v2.92c0,1.19,0.42,2.62-3.47,2.77c-0.21,0.01-0.44,0.01-0.681,0.01c-0.069,0-0.13,0-0.199-0.01
			c-0.471,0-0.94-0.01-1.41-0.06c-0.47-0.02-0.95-0.06-1.41-0.13c-12.28-1.51-21.79-11.98-21.79-24.68
			c0-10.15,6.08-18.88,14.79-22.74c3.09-1.39,6.5-2.15,10.1-2.15c0.38,0,0.761,0.01,1.141,0.03c0.25,0.01,0.5,0.03,0.739,0.05
			C153.801,11.82,163.941,22.56,163.941,35.68z"/>
		<path fill="#F4F2EF" d="M158.441,46.09l-11.67,6.69c-0.061,0.03-0.091,0.05-0.091,0.05c-0.909,0.52-2.25,1.28-3.56,2.03v2.92
			c0,1.19,0.42,2.62-3.47,2.77c-0.21,0.01-0.44,0.01-0.681,0.01v-6.41l1.921-0.79l7.739-3.21L158.441,46.09z"/>
		<path fill="#F39D9E" d="M139.651,60.55c-0.21,0.01-0.44,0.01-0.681,0.01v-4.9l0.971-0.38l3.18-1.24c0,0,0,0.33,0,0.82v2.92
			C143.121,58.97,143.541,60.4,139.651,60.55z"/>
		<path fill="#BB7359" d="M120.189,36.702c-3.641-3.64-1.32-25.951,18.176-25.951c19.882,0,17.628,20.371,16.453,22.231
			c-1.175,1.86-2.32,5.932,1.049,10.064L142.187,32.54l-3.75-4.442L120.189,36.702z"/>
		<path fill="#DBBAA3" d="M158.441,46.09l-11.67,6.69c-0.061,0.03-0.091,0.05-0.091,0.05c-0.909,0.52-2.25,1.28-3.56,2.03
			l-1.19,0.68c-0.1,0.06-0.199,0.12-0.3,0.17l-0.55,0.32c-1.22,0.7-2.11,1.21-2.11,1.21l0.971-1.96l0.95-1.92l7.81-15.82l1.02-2.05
			l5.49,6.67L158.441,46.09z"/>
		<path fill="#EED2B9" d="M149.721,35.49v8.27c0,2.95-0.489,5-1.09,6.39c-0.72,1.72-1.59,2.43-1.859,2.63
			c-0.061,0.03-0.091,0.05-0.091,0.05c-0.909,0.52-2.25,1.28-3.56,2.03c-0.4,0.23-0.8,0.46-1.19,0.68c-0.1,0.06-0.199,0.12-0.3,0.17
			c-0.189,0.11-0.37,0.22-0.55,0.32c-1.22,0.7-2.11,1.21-2.11,1.21l-7.029-8.32h-3.37c0,0,0.1-0.85-0.771-4.9
			c-0.859-4.04-4.17-3.25-4.17-3.25l-3.439-4.07l10.68-9.03c0.021-0.01,0.04-0.02,0.06-0.04c1.49-1.24,5.171-2.29,7.5,0.46
			l0.011,0.01l3.55,4.21c0,0,0.01,0,0.02,0.01l0.181,0.22c0-0.01,0-0.01,0-0.02C142.221,29.44,149.721,26.12,149.721,35.49z"/>
		<polygon fill="#F39D9E" points="138.972,60.565 138.972,91.989 146.094,83.146 		"/>
		
			<linearGradient id="SVGID_6_" gradientUnits="userSpaceOnUse" x1="2132.4258" y1="49.9785" x2="2134.6062" y2="45.9482" gradientTransform="matrix(-0.8655 0.5009 0.5009 0.8655 1960.6268 -1070.7405)">
			<stop  offset="0.0621" style="stop-color:#FFFFFF"/>
			<stop  offset="1" style="stop-color:#FFFFFF;stop-opacity:0"/>
		</linearGradient>
		<path opacity="0.45" fill="url(#SVGID_6_)" d="M142.766,33.519c0.373,0.647,1.563,3.646-2.723,6.125
			c-4.286,2.481-8.862,5.13-8.862,5.13l-2.018-3.383C141.496,28.166,142.078,32.333,142.766,33.519z"/>
	</g>
</g>
</svg>
