<?xml version="1.0" encoding="utf-8"?>
<!-- Generator: Adobe Illustrator 15.0.0, SVG Export Plug-In . SVG Version: 6.00 Build 0)  -->
<!DOCTYPE svg PUBLIC "-//W3C//DTD SVG 1.1//EN" "http://www.w3.org/Graphics/SVG/1.1/DTD/svg11.dtd">
<svg version="1.1" id="Layer_1" xmlns="http://www.w3.org/2000/svg" xmlns:xlink="http://www.w3.org/1999/xlink" x="0px" y="0px"
	 width="130px" height="139px" viewBox="0 0 130 139" enable-background="new 0 0 130 139" xml:space="preserve">
<g>
	<g>
		<path fill="#EED2B9" d="M95.381,95.359c-3.093,2.508-5.583,5.057-7.524,7.318l-19.094-8.398
			c2.432-3.844,8.729-12.531,19.771-19.705L95.381,95.359z"/>
		<path fill="#93ADDA" d="M77.381,40.721c-21.253,12.726-34.679,30.33-40.673,39.462l-12.125-5.332
			c6.279-9.896,22.275-31.877,48.549-47.032L77.381,40.721z"/>
		<path fill="#93ADDA" d="M11.954,69.298c7.895-12.257,26.528-37.374,56.483-55.729l-4.385-13.31
			C28.308,21.619,7.206,52.141-0.074,64.009L11.954,69.298z"/>
		<path fill="#93ADDA" d="M88.533,74.576c-11.041,7.172-17.339,15.859-19.771,19.705l-19.477-8.564
			c3.141-5.162,14.198-21.346,32.559-31.45L88.533,74.576z"/>
		<path fill="#F1875D" d="M95.38,95.359c-3.091,2.506-5.582,5.055-7.524,7.316l11.617,5.109L95.38,95.359z"/>
		<linearGradient id="SVGID_1_" gradientUnits="userSpaceOnUse" x1="32.4434" y1="49.3809" x2="51.9651" y2="49.3809">
			<stop  offset="0" style="stop-color:#F1F1F2;stop-opacity:0.65"/>
			<stop  offset="0.1843" style="stop-color:#F3F3F4;stop-opacity:0.5302"/>
			<stop  offset="1" style="stop-color:#F8F8F9;stop-opacity:0"/>
			<stop  offset="1" style="stop-color:#FFFFFF;stop-opacity:0"/>
		</linearGradient>
		<path fill="url(#SVGID_1_)" d="M77.38,40.72c-15.372,9.207-26.651,20.964-33.981,30.221l-10.955-7.198
			c8.488-10.885,21.982-25.136,40.688-35.923L77.38,40.72z"/>
		<linearGradient id="SVGID_2_" gradientUnits="userSpaceOnUse" x1="10.1802" y1="28.2993" x2="36.4212" y2="28.2993">
			<stop  offset="0" style="stop-color:#F1F1F2;stop-opacity:0.65"/>
			<stop  offset="0.1843" style="stop-color:#F3F3F4;stop-opacity:0.5302"/>
			<stop  offset="1" style="stop-color:#F8F8F9;stop-opacity:0"/>
			<stop  offset="1" style="stop-color:#FFFFFF;stop-opacity:0"/>
		</linearGradient>
		<path fill="url(#SVGID_2_)" d="M68.437,13.57C46.907,26.762,31.228,43.445,21.177,56.339L10.18,49.113
			C21.127,34.718,38.991,15.236,64.052,0.26L68.437,13.57z"/>
		<linearGradient id="SVGID_3_" gradientUnits="userSpaceOnUse" x1="54.4844" y1="71.9941" x2="68.3711" y2="71.9941">
			<stop  offset="0" style="stop-color:#F1F1F2;stop-opacity:0.65"/>
			<stop  offset="0.1843" style="stop-color:#F3F3F4;stop-opacity:0.5302"/>
			<stop  offset="1" style="stop-color:#F8F8F9;stop-opacity:0"/>
			<stop  offset="1" style="stop-color:#FFFFFF;stop-opacity:0"/>
		</linearGradient>
		<path fill="url(#SVGID_3_)" d="M88.533,74.574c-7.75,5.037-13.168,10.82-16.547,15.146h-0.003L54.484,78.227
			c5.517-7.141,14.704-16.995,27.361-23.959L88.533,74.574z"/>
		<path fill="#7FA0D2" d="M77.38,40.72c-5.541,3.319-10.55,6.97-15.035,10.712l-7.271-11.038c5.36-4.426,11.376-8.722,18.059-12.574
			L77.38,40.72z"/>
		<path fill="#7FA0D2" d="M68.437,13.57c-7.747,4.748-14.74,9.946-20.982,15.262l-7.443-11.298
			C47.119,11.493,55.129,5.591,64.052,0.26L68.437,13.57z"/>
		<path fill="#7FA0D2" d="M88.533,74.574c-2.725,1.77-5.162,3.633-7.321,5.494L69.667,62.546v-0.003
			c3.616-2.956,7.678-5.799,12.179-8.275L88.533,74.574z"/>
		<path fill="#E56E4E" d="M99.472,107.785l-6.704-10.176c0.816-0.748,1.687-1.502,2.613-2.25L99.472,107.785z"/>
		<path fill="#DBBAA3" d="M95.381,95.359c-0.927,0.748-1.797,1.502-2.613,2.25L81.212,80.068c2.159-1.861,4.597-3.725,7.321-5.494
			L95.381,95.359z"/>
	</g>
	<g>
		<path fill="#34578D" d="M56.191,113.258c5.958,1.855,9.289,8.189,7.433,14.15c-1.851,5.959-8.186,9.289-14.146,7.434
			c-5.961-1.852-9.29-8.186-7.437-14.148C43.897,114.732,50.231,111.404,56.191,113.258z"/>
		
			<linearGradient id="SVGID_4_" gradientUnits="userSpaceOnUse" x1="-425.9844" y1="-10.9722" x2="-406.7043" y2="-6.8313" gradientTransform="matrix(0.297 -0.9548 0.9548 0.297 185.6591 -263.6381)">
			<stop  offset="0" style="stop-color:#F1F1F2;stop-opacity:0.65"/>
			<stop  offset="0.1843" style="stop-color:#F3F3F4;stop-opacity:0.5302"/>
			<stop  offset="1" style="stop-color:#F8F8F9;stop-opacity:0"/>
			<stop  offset="1" style="stop-color:#FFFFFF;stop-opacity:0"/>
		</linearGradient>
		<circle fill="url(#SVGID_4_)" cx="54.952" cy="128.675" r="9.858"/>
		<path fill="#34578D" d="M75.008,112.324c2.341,0.73,3.648,3.217,2.921,5.559c-0.729,2.34-3.216,3.646-5.557,2.92
			c-2.34-0.729-3.647-3.215-2.923-5.555C70.18,112.906,72.667,111.6,75.008,112.324z"/>
		<path fill="#34578D" d="M35.095,132.496c-0.014-0.018-0.027-0.035-0.038-0.057c-7.215-10.971,2.262-19.143,2.358-19.223
			c0.474-0.398,1.184-0.34,1.583,0.137c0.396,0.473,0.339,1.182-0.135,1.582c-0.335,0.285-8.031,6.99-1.93,16.271
			c0.34,0.52,0.198,1.213-0.321,1.557C36.112,133.092,35.449,132.969,35.095,132.496z"/>
	</g>
	<g>
		<path fill="#E0B5D6" d="M128.397,84.902c-0.702,0.572-1.731,0.469-2.302-0.234c-8.165-10.016-15.526-13.365-15.601-13.396
			c-0.827-0.371-1.199-1.336-0.83-2.159c0.363-0.828,1.327-1.201,2.152-0.837c0.175,0.077,2.486,1.115,5.929,3.701
			c2.991,2.246,6.839,5.658,10.888,10.623C129.204,83.303,129.097,84.332,128.397,84.902z"/>
	</g>
	<g>
		<path fill="#E0B5D6" d="M122.096,88.238c-0.66,0.617-1.696,0.588-2.313-0.072c-5.666-6.045-10.506-7.871-10.556-7.887
			c-0.847-0.313-1.286-1.25-0.978-2.098c0.306-0.838,1.22-1.279,2.06-0.992c0.009,0.004,0.021,0.006,0.03,0.01
			c0.225,0.08,5.579,2.055,11.831,8.729C122.787,86.586,122.755,87.621,122.096,88.238z"/>
	</g>
</g>
</svg>
