<?xml version="1.0" encoding="utf-8"?>
<!-- Generator: Adobe Illustrator 15.0.0, SVG Export Plug-In . SVG Version: 6.00 Build 0)  -->
<!DOCTYPE svg PUBLIC "-//W3C//DTD SVG 1.1//EN" "http://www.w3.org/Graphics/SVG/1.1/DTD/svg11.dtd">
<svg version="1.1" id="Layer_1" xmlns="http://www.w3.org/2000/svg" xmlns:xlink="http://www.w3.org/1999/xlink" x="0px" y="0px"
	 width="168px" height="175px" viewBox="0 0 168 175" enable-background="new 0 0 168 175" xml:space="preserve">
<g>
	<polygon opacity="0.45" fill-rule="evenodd" clip-rule="evenodd" fill="#FBFAF9" points="103.001,100.953 103.001,175.036 
		50.27,138.11 50.27,100.953 	"/>
	<path fill-rule="evenodd" clip-rule="evenodd" fill="#DCC9DE" d="M151.479,88.825L140.83,96.28v38.277c0,0-34.133,0-51.68,0
		c-19.568,0-21.708-15.578-21.708-23.353c0-5.1,0-10.252,0-10.252H66.96c-2.986,0-16.69,0-16.69,0c0-0.208-0.004-0.413-0.015-0.617
		c-0.008-0.171-0.016-0.337-0.035-0.498c0-11.501-24.686-36.943-24.686-37.638c0-5.342,0.808-11.983,3.7-18.836
		c0-0.004,0.004-0.004,0.004-0.008C36.921,25.145,55.025,5.55,84.612,5.55c59.127-0.471,63.943,44.998,63.943,44.998
		c-4.636,1.352-7.726,5.551-7.726,10.622C140.83,68.076,151.479,88.825,151.479,88.825z"/>
	<path fill-rule="evenodd" clip-rule="evenodd" fill="#24226A" d="M82.347,79.614l3.839-2.688c0,0-5.837-13.343-5.829-14.985
		c0.004-1.639,1.562-3.137,1.562-3.137c1.078-8.314-1.669-13.971-3.291-16.487l26.826-18.782c0,0-3.432,8.995-3.448,20.01
		c-0.014,11.014-7.31,12.354-7.31,12.354c-0.599,3.273,4.904,4.621,4.904,4.621l6.333,23.916l-23.587,16.517V79.614z"/>
	<path fill-rule="evenodd" clip-rule="evenodd" fill="#EED2B9" d="M131.109,58.539v8.271c-10.689,8.392-25.163,17.672-25.163,17.672
		l-0.013-0.047L99.601,60.52c0,0-5.503-1.348-4.904-4.621c0,0,7.296-1.34,7.31-12.354c0.017-11.015,3.448-20.01,3.448-20.01
		s10.706,15.29,12.657,18.075c1.952,2.79,4.46,7.851,9.707,5.469c2.52-1.143,5.396-0.543,6.95,1.673
		C138.628,54.264,131.109,58.539,131.109,58.539z"/>
	<rect x="50.27" y="79.613" fill-rule="evenodd" clip-rule="evenodd" fill="#DBBAA1" width="17.173" height="21.34"/>
	<path fill-rule="evenodd" clip-rule="evenodd" fill="#FFFFFF" d="M86.184,76.925l-3.835,2.688v21.34H66.96
		c-0.633,0-1.271-0.03-1.916-0.089c-7.215-0.664-14.577-5.098-14.774-13.746v-7.505c0,0-8.575-1.178-6.755-9.254
		c1.819-8.08,10.676-5.35,10.676-5.35v7.381l5.052-3.538V55.89l19.386-13.573c1.622,2.515,4.368,8.173,3.291,16.489
		c0,0-1.557,1.495-1.565,3.136C80.348,63.584,86.184,76.925,86.184,76.925z"/>
	<path fill-rule="evenodd" clip-rule="evenodd" fill="#EED2B9" d="M86.184,76.925l-3.835,2.688v21.34H66.96
		c-0.633,0-1.271-0.03-1.916-0.089c-7.215-0.664-14.577-5.098-14.774-13.746v-7.505c0,0-8.575-1.178-6.755-9.254
		c1.819-8.08,10.676-5.35,10.676-5.35v7.381l5.052-3.538V55.89l19.386-13.573c1.622,2.515,4.368,8.173,3.291,16.489
		c0,0-1.557,1.495-1.565,3.136C80.348,63.584,86.184,76.925,86.184,76.925z"/>
	<g>
		<path fill-rule="evenodd" clip-rule="evenodd" fill="#24226A" d="M78.629,42.317L64.385,52.29
			c-5.039,3.527-5.14,6.814-5.142,10.307v0.048v0.167v6.041c0,4.291-5.052,5.549-5.052,5.549v-9.392c0,0-8.856-2.73-10.676,5.35
			c-1.819,8.077,6.755,9.254,6.755,9.254v21.34c0-15.643-24.735-17.381-24.735-38.753c0-12.227,6.894-27.274,26.269-29.226
			C66.93,31.45,77.532,40.83,77.532,40.83S77.996,41.336,78.629,42.317L78.629,42.317z M59.243,62.329v0.268V62.329z"/>
	</g>
	<path fill-rule="evenodd" clip-rule="evenodd" fill="#DBBAA1" d="M140.83,134.558c0,0-17.442-0.505-17.442-12.323l-26.186,4.039
		l5.801,8.284H140.83z"/>
	<path fill-rule="evenodd" clip-rule="evenodd" fill="#EED2B9" d="M120.077,110.912c-2.831,1.982,0,5.078,0,5.078l11.032-7.725
		c0,0,8.506,7.911-0.48,13.78c-2.632,1.721-7.241,0.188-7.241,0.188s-5.311,3.718-9.057,6.341
		c-3.744,2.622-11.877,5.198-17.135-2.311s-10.75-15.353-10.75-15.353l15.877-11.117v-6.573c0,0,11.528,0,12.705,0
		s5.578-0.201,5.578-6.228l10.503-7.408c0,0,0,5.622,0,7.752c0,2.131-0.033,3.705,2.001,6.627c2.034,2.925,3.658,5.26,3.658,5.26
		L120.077,110.912z"/>
	<path fill-rule="evenodd" clip-rule="evenodd" fill="#F39B9C" d="M50.27,100.953v8.111c0,0,7.08-1.545,7.08-8.111H50.27z"/>
	<path fill-rule="evenodd" clip-rule="evenodd" fill="#99A8D6" d="M103.003,134.558v8.11c0,0,7.08-1.545,7.08-8.11H103.003z"/>
	<polygon fill-rule="evenodd" clip-rule="evenodd" fill="#F39B9C" points="50.27,109.064 50.269,138.111 62.658,146.736 	"/>
	<polygon fill-rule="evenodd" clip-rule="evenodd" fill="#99A8D6" points="103.003,142.668 103.003,175.036 94.352,168.979 	"/>
	<linearGradient id="SVGID_1_" gradientUnits="userSpaceOnUse" x1="63.2632" y1="85.6641" x2="69.236" y2="76.4367">
		<stop  offset="0.1232" style="stop-color:#F1F1F2;stop-opacity:0.85"/>
		<stop  offset="0.2847" style="stop-color:#F3F3F4;stop-opacity:0.6934"/>
		<stop  offset="1" style="stop-color:#F8F8F9;stop-opacity:0"/>
		<stop  offset="1" style="stop-color:#FFFFFF;stop-opacity:0"/>
	</linearGradient>
	<path fill-rule="evenodd" clip-rule="evenodd" fill="url(#SVGID_1_)" d="M59.02,75.011c0,1.001,0.607,5.278,6.964,5.278
		c6.357,0,13.147,0,13.147,0l0.066-5.278C56.988,67.949,59.02,73.174,59.02,75.011z"/>
	<linearGradient id="SVGID_2_" gradientUnits="userSpaceOnUse" x1="119.3535" y1="64.0298" x2="112.153" y2="53.3948">
		<stop  offset="0.1232" style="stop-color:#F1F1F2;stop-opacity:0.85"/>
		<stop  offset="0.2847" style="stop-color:#F3F3F4;stop-opacity:0.6934"/>
		<stop  offset="1" style="stop-color:#F8F8F9;stop-opacity:0"/>
		<stop  offset="1" style="stop-color:#FFFFFF;stop-opacity:0"/>
	</linearGradient>
	<path fill-rule="evenodd" clip-rule="evenodd" fill="url(#SVGID_2_)" d="M123.18,53.165c0,1.001-0.606,5.278-6.963,5.278
		c-6.358,0-13.147,0-13.147,0l-0.066-5.278C125.213,46.102,123.18,51.327,123.18,53.165z"/>
	<linearGradient id="SVGID_3_" gradientUnits="userSpaceOnUse" x1="107.3398" y1="111.7207" x2="111.7237" y2="103.5342">
		<stop  offset="0.1232" style="stop-color:#F1F1F2;stop-opacity:0.85"/>
		<stop  offset="0.2847" style="stop-color:#F3F3F4;stop-opacity:0.6934"/>
		<stop  offset="1" style="stop-color:#F8F8F9;stop-opacity:0"/>
		<stop  offset="1" style="stop-color:#FFFFFF;stop-opacity:0"/>
	</linearGradient>
	<path fill-rule="evenodd" clip-rule="evenodd" fill="url(#SVGID_3_)" d="M118.579,111.385c-0.82,0.574-4.672,2.53-8.317-2.676
		c-3.647-5.208-7.541-10.77-7.541-10.77l4.286-3.083C125.53,108.999,120.084,110.331,118.579,111.385z"/>
	<g>
		<path opacity="0.45" fill-rule="evenodd" clip-rule="evenodd" fill="#FFFFFF" d="M151.479-0.236c-5.328,0-9.646,4.318-9.646,9.646
			s4.318,9.646,9.646,9.646c5.327,0,9.646-4.318,9.646-9.646S156.807-0.236,151.479-0.236L151.479-0.236z M151.479,17.145
			L151.479,17.145c-4.266,0-7.735-3.47-7.735-7.735c0-4.265,3.47-7.734,7.735-7.734c4.265,0,7.733,3.469,7.733,7.734
			C159.213,13.675,155.744,17.145,151.479,17.145z"/>
		<linearGradient id="SVGID_4_" gradientUnits="userSpaceOnUse" x1="24.8677" y1="87.5527" x2="25.385" y2="122.2422">
			<stop  offset="0.1232" style="stop-color:#F1F1F2;stop-opacity:0.85"/>
			<stop  offset="0.2847" style="stop-color:#F3F3F4;stop-opacity:0.6934"/>
			<stop  offset="1" style="stop-color:#F8F8F9;stop-opacity:0"/>
			<stop  offset="1" style="stop-color:#FFFFFF;stop-opacity:0"/>
		</linearGradient>
		<circle fill-rule="evenodd" clip-rule="evenodd" fill="url(#SVGID_4_)" cx="25.188" cy="109.065" r="17.344"/>
		<g>
			<path opacity="0.45" fill-rule="evenodd" clip-rule="evenodd" fill="#FFFFFF" d="M13.997,117.734
				c-3.268,0-5.917,2.648-5.917,5.916s2.649,5.916,5.917,5.916c3.267,0,5.916-2.648,5.916-5.916S17.264,117.734,13.997,117.734
				L13.997,117.734z M13.997,128.395L13.997,128.395c-2.616,0-4.744-2.128-4.744-4.744c0-2.615,2.128-4.743,4.744-4.743
				c2.615,0,4.743,2.128,4.743,4.743C18.74,126.267,16.612,128.395,13.997,128.395z"/>
			<path opacity="0.45" fill-rule="evenodd" clip-rule="evenodd" fill="#FFFFFF" d="M13.997,130.771
				c-3.927,0-7.122-3.194-7.122-7.121c0-3.926,3.195-7.121,7.122-7.121c3.926,0,7.121,3.195,7.121,7.121
				C21.118,127.577,17.923,130.771,13.997,130.771L13.997,130.771z M13.997,120.112L13.997,120.112
				c-1.952,0-3.539,1.587-3.539,3.538s1.587,3.539,3.539,3.539c1.951,0,3.538-1.588,3.538-3.539S15.948,120.112,13.997,120.112z"/>
		</g>
	</g>
</g>
</svg>
