<?xml version="1.0" encoding="utf-8"?>
<!-- Generator: Adobe Illustrator 15.0.0, SVG Export Plug-In . SVG Version: 6.00 Build 0)  -->
<!DOCTYPE svg PUBLIC "-//W3C//DTD SVG 1.1//EN" "http://www.w3.org/Graphics/SVG/1.1/DTD/svg11.dtd">
<svg version="1.1" id="Layer_1" xmlns="http://www.w3.org/2000/svg" xmlns:xlink="http://www.w3.org/1999/xlink" x="0px" y="0px"
	 width="94px" height="96px" viewBox="0 0 94 96" enable-background="new 0 0 94 96" xml:space="preserve">
<g>
	<g>
		<g>
			<circle fill-rule="evenodd" clip-rule="evenodd" fill="#FCE7E7" cx="45.639" cy="48" r="38.4"/>
		</g>
		
			<linearGradient id="SVGID_1_" gradientUnits="userSpaceOnUse" x1="-74.127" y1="3169.7793" x2="-67.8243" y2="3083.9531" gradientTransform="matrix(1 0 0 -0.4511 114.541 1446.2845)">
			<stop  offset="0" style="stop-color:#57313B;stop-opacity:0.65"/>
			<stop  offset="0.0875" style="stop-color:#724E57;stop-opacity:0.561"/>
			<stop  offset="0.2269" style="stop-color:#9D8389;stop-opacity:0.4192"/>
			<stop  offset="0.3566" style="stop-color:#C4B5B8;stop-opacity:0.2872"/>
			<stop  offset="0.4726" style="stop-color:#E3DBDD;stop-opacity:0.1692"/>
			<stop  offset="0.5706" style="stop-color:#F7F5F6;stop-opacity:0.0695"/>
			<stop  offset="0.6389" style="stop-color:#FFFFFF;stop-opacity:0"/>
			<stop  offset="1" style="stop-color:#AD9E96;stop-opacity:0.2714"/>
		</linearGradient>
		<path fill="url(#SVGID_1_)" d="M11.625,42.208h62.79V22.594c0,0-2.748,8.893-9.113,8.893c-6.363,0-6.98-8.893-12.967-8.893
			c-5.987,0-3.887,3.514-8.944,3.514c-5.056,0-4.659-6.551-10.47-6.551c-5.811,0-3.418,8.392-10.76,8.392
			C14.819,27.948,11.625,42.208,11.625,42.208L11.625,42.208z"/>
		<rect x="10.701" y="42.232" fill-rule="evenodd" clip-rule="evenodd" fill="#CA81B2" width="65.044" height="0.836"/>
		<path fill-rule="evenodd" clip-rule="evenodd" fill="#F07E51" d="M79.635,33.481c0,2.067,2.833,3.636,2.833,3.636
			c0-6.261,4.613-6.738,4.613-13.182c0-6.442-6.323-9.425-9.188-9.425c-2.863,0-14.833-1.989-14.833,12.687
			c0.079,9.624-6.205,3.021-8.829,5.17c-2.626,2.147-0.08,5.647-4.217,5.647c-4.136,0-5.17,4.217-5.17,4.217l30.385-0.001
			L79.635,33.481z"/>
		<path fill-rule="evenodd" clip-rule="evenodd" fill="#645BA5" d="M75.107,42.231v30.387c0,0,13.584-13.991,7.362-35.5
			L75.107,42.231z"/>
		<path fill-rule="evenodd" clip-rule="evenodd" fill="#E07552" d="M80.91,28.601c0,0-0.498,5.004,2.215,4.881
			c0,0-0.655,1.402-0.655,3.636C82.47,39.326,74.947,31.054,80.91,28.601z"/>
		<path fill-rule="evenodd" clip-rule="evenodd" fill="#EED2B9" d="M82.47,37.118c-0.239,0.373-0.993,5.114-7.237,5.114
			c0-5.25,0.726-5.115-4.653-5.115l9.058-3.635C79.637,35.548,82.47,37.118,82.47,37.118z"/>
		<path fill-rule="evenodd" clip-rule="evenodd" fill="#E07552" d="M70.179,21.471c0,0-3.727,11.506,8.802,5.285
			C75.024,26.796,70.179,21.471,70.179,21.471z"/>
		<path fill-rule="evenodd" clip-rule="evenodd" fill="#DBB8A0" d="M75.232,42.232c0-5.25,0.726-5.115-4.653-5.115l9.058-3.635
			c-1.992,1.239-1.326,4.753-1.326,8.271C78.311,41.752,76.524,42.232,75.232,42.232z"/>
		<path fill-rule="evenodd" clip-rule="evenodd" fill="#EED2B9" d="M70.179,21.471c0,0-0.676,2.266-0.676,5.208
			c0,2.943-1.949,3.303-1.949,3.303c-0.158,0.875,1.313,1.233,1.313,1.233s0.637,2.148,0.637,5.25c0,1.901,7.279-0.738,10.132-2.984
			c0,0,0.01-2.731,0.01-2.784c0.885,0,1.869-1.75,0.835-3.221c-1.034-1.472-3.142-0.239-3.142-0.239S70.179,25.527,70.179,21.471z"
			/>
		<linearGradient id="SVGID_2_" gradientUnits="userSpaceOnUse" x1="75.7559" y1="33.9023" x2="72.2429" y2="28.5339">
			<stop  offset="0.1232" style="stop-color:#FFFFFF;stop-opacity:0.85"/>
			<stop  offset="0.3351" style="stop-color:#FCFCFD;stop-opacity:0.6445"/>
			<stop  offset="1" style="stop-color:#F7F6F8;stop-opacity:0"/>
			<stop  offset="1" style="stop-color:#FFFFFF;stop-opacity:0"/>
		</linearGradient>
		<path fill-rule="evenodd" clip-rule="evenodd" fill="url(#SVGID_2_)" d="M77.256,28.934c0,0.427-0.258,2.25-2.967,2.25
			s-5.604,0-5.604,0l-0.027-2.25C78.123,25.924,77.256,28.151,77.256,28.934z"/>
		<g>
			<path fill="#CC83B3" d="M49.026,63.803c0,8.572-6.95,15.523-15.524,15.523c-8.574,0-15.524-6.951-15.524-15.523
				c0-0.943,0.245-2.763,0.245-2.763l15.176,2.763l-4.632-14.788c1.493-0.478,3.084-0.736,4.736-0.736
				C42.076,48.278,49.026,55.229,49.026,63.803z"/>
			<linearGradient id="SVGID_3_" gradientUnits="userSpaceOnUse" x1="15.4644" y1="62.4033" x2="46.5117" y2="62.4033">
				<stop  offset="0" style="stop-color:#6AB686;stop-opacity:0.5"/>
				<stop  offset="0.3256" style="stop-color:#A8D0B1;stop-opacity:0.3351"/>
				<stop  offset="0.7771" style="stop-color:#E8F2EA;stop-opacity:0.1064"/>
				<stop  offset="0.9872" style="stop-color:#FFFFFF;stop-opacity:0"/>
				<stop  offset="1" style="stop-color:#AD9E96;stop-opacity:0.2714"/>
			</linearGradient>
			<circle fill="url(#SVGID_3_)" cx="30.988" cy="62.402" r="15.524"/>
			<path fill="#8DCCC0" d="M32.386,62.902l-18.432-6.891c0,0,4.283-8.918,10.988-10.671L32.386,62.902z"/>
			<path fill="#FFF9BE" d="M49.026,63.803H33.399l-4.632-14.788c1.493-0.478,3.084-0.736,4.736-0.736
				c5.152,0,9.716,2.509,12.54,6.372C47.919,57.217,49.026,60.381,49.026,63.803z"/>
		</g>
		<path fill-rule="evenodd" clip-rule="evenodd" fill="#645BA5" d="M75.17,42.232L62.597,62.886l-0.907,12.523
			C63.938,76,91.384,54.949,75.17,42.232z"/>
		<path fill-rule="evenodd" clip-rule="evenodd" fill="#7A76B6" d="M62.597,62.886L48.836,49.027l-3.587,3.392
			c5.905,0,9.715,22.502,16.441,22.99C61.689,75.409,69.574,70.092,62.597,62.886z"/>
		<path fill-rule="evenodd" clip-rule="evenodd" fill="#EED2B9" d="M47.621,48.605c0,0-2.873,5.159-8.119,2.327l-3.024-2.014
			c0.787-1.056,2.799,1.061,3.439,0.101c1.037-1.557-2.221-2.994-3.229-3.476c-1.01-0.482-1.72,0.708-3.525-1.326l4.992,0.496
			L47.621,48.605z"/>
	</g>
</g>
</svg>
