<?xml version="1.0" encoding="utf-8"?>
<!-- Generator: Adobe Illustrator 15.0.0, SVG Export Plug-In . SVG Version: 6.00 Build 0)  -->
<!DOCTYPE svg PUBLIC "-//W3C//DTD SVG 1.1//EN" "http://www.w3.org/Graphics/SVG/1.1/DTD/svg11.dtd">
<svg version="1.1" id="Layer_1" xmlns="http://www.w3.org/2000/svg" xmlns:xlink="http://www.w3.org/1999/xlink" x="0px" y="0px"
	 width="109px" height="204px" viewBox="0 0 109 204" enable-background="new 0 0 109 204" xml:space="preserve">
<g>
	<g>
		<path fill-rule="evenodd" clip-rule="evenodd" fill="#E8E8E0" d="M6.133,85.578c8.468,50.299,75.574,94.986,75.574,94.986
			c10.624-0.625,19.707-2.212,27.502-4.549v-64.379l-15.375,26.632c-12.833-27.064-67.643-37.801-51.686-54.724
			C42.148,83.544,13.388,97.266,6.133,85.578z"/>
		<path fill-rule="evenodd" clip-rule="evenodd" fill="#D2D2C7" d="M6.133,85.577c8.468,50.301,75.574,94.988,75.574,94.988
			c-50.057-50.061-55.516-80.096-39.559-97.02C42.148,83.544,13.388,97.266,6.133,85.577z"/>
		<path fill-rule="evenodd" clip-rule="evenodd" fill="#EED2B9" d="M54.969,30.526c0,0-6.793-1.941-7.404,2.573
			c-0.61,4.515-0.61,4.515-0.61,4.515S21.821,69.145,11.519,67.75c1.178-5.972-10.261-11.093-10.261-11.093l11.308,28.523
			c0,0,32.667,9.113,40.889-25.648C53.455,59.531,48.392,54.324,54.969,30.526z"/>
		<path fill-rule="evenodd" clip-rule="evenodd" fill="#DBB8A0" d="M11.519,67.75c1.178-5.972-10.261-11.093-10.261-11.093
			l11.308,28.523c0,0,21.398,4.986,29.621-29.775C42.187,55.404,21.821,69.145,11.519,67.75z"/>
		<g>
			<path fill-rule="evenodd" clip-rule="evenodd" fill="#24226A" d="M15.001,8.828c-0.479,3.546-7.539,55.758-7.539,55.758
				s-0.469,3.457,3.443,3.984c3.908,0.529,13.688,1.852,13.688,1.852s9.775,1.321,13.688,1.85c3.914,0.532,4.381-2.924,4.381-2.924
				s7.064-52.213,7.543-55.761c0.479-3.546-2.895-4.28-2.895-4.28L18.93,5.468C18.93,5.468,15.482,5.279,15.001,8.828z"/>
			<path fill-rule="evenodd" clip-rule="evenodd" fill="#FFFFFF" d="M11.132,60.726c0.863,0.118,14.508,1.961,14.508,1.961
				s13.644,1.848,14.506,1.963c0.861,0.117,0.855-0.482,0.855-0.482s6.113-45.198,6.232-46.087c0.119-0.881-0.584-0.805-0.584-0.805
				l-29.201-3.949c0,0-0.656-0.262-0.777,0.624c-0.122,0.888-6.233,46.083-6.233,46.083S10.266,60.608,11.132,60.726z"/>
			<path fill-rule="evenodd" clip-rule="evenodd" fill="#AEBCD4" d="M26.8,10.515c-0.074,0.553,0.314,1.062,0.867,1.138l8.459,1.142
				c0.554,0.076,1.063-0.313,1.137-0.865c0.075-0.552-0.313-1.06-0.865-1.136L27.937,9.65C27.384,9.576,26.875,9.962,26.8,10.515z"
				/>
			<path fill-rule="evenodd" clip-rule="evenodd" fill="#E0B3D5" d="M22.722,66.463c-0.179,1.308,0.736,2.509,2.044,2.687
				c1.306,0.176,2.508-0.74,2.685-2.045c0.178-1.306-0.74-2.51-2.044-2.688C24.1,64.244,22.896,65.158,22.722,66.463z"/>
			<path fill-rule="evenodd" clip-rule="evenodd" fill="#E7EDF4" d="M17.068,27.582c0.734,0.099,12.318,1.666,12.318,1.666
				s11.586,1.567,12.318,1.666c0.731,0.099,0.676-0.043,0.676-0.043s1.378-10.168,1.402-10.368c0.027-0.199-0.557-0.239-0.557-0.239
				L18.431,16.91c0,0-0.572-0.116-0.598,0.083c-0.029,0.2-1.404,10.368-1.404,10.368S16.332,27.481,17.068,27.582z"/>
			<path fill-rule="evenodd" clip-rule="evenodd" fill="#E7EDF4" d="M15.36,41.61c0.732,0.1,12.318,1.666,12.318,1.666
				s11.586,1.568,12.318,1.667c0.731,0.099,0.677-0.043,0.677-0.043s1.377-10.169,1.402-10.369c0.026-0.198-0.557-0.238-0.557-0.238
				l-24.795-3.354c0,0-0.572-0.116-0.6,0.083c-0.027,0.2-1.402,10.369-1.402,10.369S14.624,41.511,15.36,41.61z"/>
			<path fill-rule="evenodd" clip-rule="evenodd" fill="#CCE8E8" d="M34.534,29.943c0.23,0.032,3.876,0.524,3.876,0.524
				s3.645,0.493,3.875,0.524s0.225-0.104,0.225-0.104s1.376-10.168,1.402-10.369c0.027-0.198-0.16-0.185-0.16-0.185l-7.801-1.055
				c0,0-0.177-0.063-0.203,0.137c-0.028,0.2-1.402,10.368-1.402,10.368S34.302,29.912,34.534,29.943z"/>
			<path fill-rule="evenodd" clip-rule="evenodd" fill="#F0D6E9" d="M32.698,43.955c0.23,0.031,3.876,0.523,3.876,0.523
				s3.645,0.494,3.875,0.524c0.23,0.031,0.224-0.104,0.224-0.104s1.376-10.169,1.402-10.369c0.028-0.199-0.16-0.185-0.16-0.185
				l-7.8-1.056c0,0-0.177-0.063-0.204,0.137c-0.027,0.2-1.402,10.368-1.402,10.368S32.466,43.924,32.698,43.955z"/>
		</g>
		<path fill-rule="evenodd" clip-rule="evenodd" fill="#EED2B9" d="M13.852,15.742l-1.515,11.205c0,0-13.267-15.938-3.209-16.337
			L13.852,15.742z"/>
		<path fill-rule="evenodd" clip-rule="evenodd" fill="#EED2B9" d="M12.552,27.502l-0.314,2.332c0,0,5.222,6.75,7.984,10.803
			c2.764,4.057-3.269,9.41-6.348,5.164c-3.077-4.247-9.678-13.35-9.678-13.35S3.183,26.234,12.552,27.502z"/>
		<path fill-rule="evenodd" clip-rule="evenodd" fill="#EED2B9" d="M7.244,39.369c2.067,2.604,12.049,15.175,12.049,15.175
			c3.648,4.869-5.857,5.809-5.857,5.809l1.875,2.059c1.813,4.311-4.361,4.512-4.361,4.512s-18.27-13.74-7.269-18.172l-2.666-3.905
			C-2.809,39.225,5.173,36.764,7.244,39.369z"/>
		<path fill-rule="evenodd" clip-rule="evenodd" fill="#114A88" d="M92.407,193.793c-0.024,0.019-0.049,0.035-0.074,0.051
			c-14.696,9.425-25.418-3.296-25.524-3.427c-0.523-0.637-0.433-1.578,0.205-2.103c0.634-0.52,1.576-0.433,2.102,0.203
			c0.373,0.45,9.174,10.782,21.605,2.812c0.693-0.445,1.618-0.243,2.063,0.451C93.213,192.449,93.041,193.332,92.407,193.793z"/>
		<path fill-rule="evenodd" clip-rule="evenodd" fill="#114A88" d="M87.293,200.653c-0.02,0.014-0.037,0.026-0.056,0.038
			c-10.965,7.031-18.963-2.46-19.043-2.557c-0.39-0.476-0.322-1.178,0.153-1.568c0.474-0.387,1.176-0.323,1.568,0.151
			c0.278,0.336,6.844,8.044,16.118,2.098c0.518-0.332,1.207-0.182,1.539,0.336C87.893,199.651,87.766,200.31,87.293,200.653z"/>
		<path fill-rule="evenodd" clip-rule="evenodd" fill="#99D1F3" d="M50.302,3.398c0.183-0.606,0.812-0.968,1.433-0.813
			c5.121,1.274,8.554,7.619,8.699,7.889c0.31,0.583,0.09,1.305-0.492,1.616c-0.581,0.311-1.305,0.091-1.617-0.49
			c-0.03-0.056-3.082-5.679-7.166-6.696c-0.642-0.16-1.032-0.808-0.872-1.449C50.292,3.437,50.297,3.417,50.302,3.398z"/>
		<path fill-rule="evenodd" clip-rule="evenodd" fill="#99D1F3" d="M57.074,1.566c0.007-0.022,0.014-0.044,0.022-0.067
			c0.228-0.62,0.914-0.938,1.534-0.71c4.921,1.803,7.637,8.432,7.751,8.714c0.246,0.611-0.049,1.307-0.662,1.554
			c-0.611,0.247-1.308-0.049-1.556-0.66c-0.024-0.06-2.438-5.928-6.355-7.363C57.21,2.815,56.893,2.167,57.074,1.566z"/>
		<g>
			<g>
				<path fill="#9CD3F4" d="M59.898,54.655c0,0-1.02,5.284,5.996,6.864l0.006-0.002c-0.132,2.568,0.273,5.205,1.288,7.754
					c3.78,9.499,14.557,14.133,24.057,10.354c9.505-3.783,14.144-14.555,10.362-24.053c-3.783-9.506-14.555-14.144-24.06-10.36
					c-5.219,2.077-8.969,6.263-10.663,11.192C64.474,57.525,59.898,54.655,59.898,54.655z"/>
				
					<linearGradient id="SVGID_1_" gradientUnits="userSpaceOnUse" x1="10.2959" y1="65.5156" x2="53.3735" y2="65.5156" gradientTransform="matrix(1 0 0 1 49.5508 0)">
					<stop  offset="0.0703" style="stop-color:#6AB6D6;stop-opacity:0.5"/>
					<stop  offset="0.3388" style="stop-color:#A2CDE4;stop-opacity:0.3535"/>
					<stop  offset="0.7814" style="stop-color:#E6F1F8;stop-opacity:0.1122"/>
					<stop  offset="0.9872" style="stop-color:#FFFFFF;stop-opacity:0"/>
					<stop  offset="1" style="stop-color:#AD9E96;stop-opacity:0.2714"/>
				</linearGradient>
				<path fill="url(#SVGID_1_)" d="M59.898,57.754c0,0-1.019,5.284,5.996,6.864l0.006-0.002c-0.132,2.568,0.273,5.205,1.288,7.754
					c3.78,9.5,14.557,14.134,24.057,10.354c9.505-3.784,14.144-14.556,10.362-24.054c-3.783-9.505-14.555-14.144-24.06-10.361
					c-5.219,2.077-8.969,6.264-10.663,11.193C64.474,60.624,59.898,57.754,59.898,57.754z"/>
			</g>
			<g>
				<path fill="#FFFFFF" d="M80.905,61.087c0.807,0,1.504,0.273,2.094,0.818c0.566,0.567,0.883,1.309,0.948,2.224
					c-0.065,0.851-0.382,1.559-0.948,2.126c-0.568,0.567-1.266,0.883-2.094,0.948c-0.873-0.065-1.613-0.392-2.226-0.98
					c-0.565-0.545-0.849-1.243-0.849-2.094c0-0.894,0.283-1.635,0.849-2.224C79.271,61.36,80.011,61.087,80.905,61.087z
					 M80.938,39.892l5.658,0.294l-3.073,19.592l-4.023-0.523L80.938,39.892z"/>
			</g>
		</g>
	</g>
</g>
</svg>
