<?xml version="1.0" encoding="utf-8"?>
<!-- Generator: Adobe Illustrator 16.0.0, SVG Export Plug-In . SVG Version: 6.00 Build 0)  -->
<!DOCTYPE svg PUBLIC "-//W3C//DTD SVG 1.1//EN" "http://www.w3.org/Graphics/SVG/1.1/DTD/svg11.dtd">
<svg version="1.1" id="Layer_1" xmlns="http://www.w3.org/2000/svg" xmlns:xlink="http://www.w3.org/1999/xlink" x="0px" y="0px"
	 width="72px" height="81px" viewBox="0 0 72 81" enable-background="new 0 0 72 81" xml:space="preserve">
<g>
	<path fill-rule="evenodd" clip-rule="evenodd" fill="#F39B9C" d="M17.497,81.028c-0.022-0.252,0.117-0.5,0.362-0.604
		c14.278-6.077,24.958-15.724,32.037-28.939c7.1-13.252,10.593-30.104,10.479-50.552c-0.002-0.33,0.265-0.599,0.595-0.6
		s0.599,0.265,0.6,0.595c0.114,20.649-3.426,37.69-10.619,51.119c-7.022,13.109-17.517,22.771-31.48,28.98H17.497z"/>
	<path fill-rule="evenodd" clip-rule="evenodd" fill="#F39B9C" d="M71.578,10.69c0.234,0.234,0.234,0.614,0,0.848
		c-0.233,0.234-0.613,0.234-0.848,0L60.972,1.78l-9.758,9.758c-0.234,0.234-0.614,0.234-0.849,0c-0.233-0.234-0.233-0.614,0-0.848
		L60.548,0.507c0.234-0.234,0.614-0.234,0.849,0L71.578,10.69z"/>
	<g>
		
			<line fill-rule="evenodd" clip-rule="evenodd" fill="none" stroke="#0C1239" stroke-width="1.2237" stroke-linejoin="round" stroke-miterlimit="10" x1="13.556" y1="74.055" x2="10.095" y2="70.594"/>
		
			<line fill-rule="evenodd" clip-rule="evenodd" fill="none" stroke="#0C1239" stroke-width="1.2237" stroke-linejoin="round" stroke-miterlimit="10" x1="4.903" y1="65.402" x2="8.364" y2="68.863"/>
		
			<rect x="16.989" y="56.777" transform="matrix(0.7071 0.7071 -0.7071 0.7071 47.7194 3.5413)" fill-rule="evenodd" clip-rule="evenodd" fill="none" stroke="#0C1239" stroke-width="1.2237" stroke-linecap="round" stroke-linejoin="round" stroke-miterlimit="10" width="5.191" height="5.191"/>
		
			<path fill-rule="evenodd" clip-rule="evenodd" fill="none" stroke="#0C1239" stroke-width="1.2237" stroke-linecap="round" stroke-linejoin="round" stroke-miterlimit="10" d="
			M31.628,54.626c-1.947,1.947-5.906,3.481-8.342,1.046c-2.437-2.436-0.902-6.395,1.045-8.342c1.938-1.938,5.146-1.884,7.164,0.134
			C33.513,49.48,33.567,52.688,31.628,54.626z"/>
		
			<path fill-rule="evenodd" clip-rule="evenodd" fill="none" stroke="#0C1239" stroke-width="1.2237" stroke-linecap="round" stroke-linejoin="round" stroke-miterlimit="10" d="
			M24.332,47.33c0,0,1.773-0.208,4.461,2.48s2.835,4.816,2.835,4.816"/>
		
			<line fill-rule="evenodd" clip-rule="evenodd" fill="none" stroke="#0C1239" stroke-width="1.2237" stroke-linecap="round" stroke-linejoin="round" stroke-miterlimit="10" x1="12.243" y1="49.583" x2="12.243" y2="54.479"/>
		
			<path fill-rule="evenodd" clip-rule="evenodd" fill="none" stroke="#0C1239" stroke-width="1.2237" stroke-linecap="round" stroke-linejoin="round" stroke-miterlimit="10" d="
			M22.045,52.314c0,0-2.688-2.73-6.132-2.73c-3.443-0.001-6.118,0-6.118,0c-1.116,0-2.447,0.872-2.447,2.447
			s1.331,2.447,2.447,2.447h6.119L3.173,67.133c-0.419,0.419-0.708,1.056-0.719,1.728c0,0.592,0.196,1.212,0.719,1.733
			c1.114,1.114,2.671,0.789,3.46,0l5.192-5.191c0.479-0.478,1.253-0.478,1.73,0c0.478,0.478,0.478,1.253,0,1.73l-5.191,5.191
			c-0.789,0.789-1.114,2.349,0,3.462c0.521,0.521,1.139,0.728,1.73,0.719c0.673-0.011,1.312-0.299,1.731-0.72l12.654-12.741"/>
		
			<line fill-rule="evenodd" clip-rule="evenodd" fill="none" stroke="#0C1239" stroke-width="1.2237" stroke-linecap="round" stroke-linejoin="round" stroke-miterlimit="10" x1="29.375" y1="66.715" x2="24.479" y2="66.715"/>
		
			<path fill-rule="evenodd" clip-rule="evenodd" fill="none" stroke="#0C1239" stroke-width="1.2237" stroke-linecap="round" stroke-linejoin="round" stroke-miterlimit="10" d="
			M26.65,56.92c0,0,2.725,2.682,2.725,6.124c0,3.443,0,6.118,0,6.118c0,1.117-0.873,2.448-2.448,2.448
			c-1.575-0.001-2.447-1.332-2.447-2.448v-6.118"/>
		
			<path fill-rule="evenodd" clip-rule="evenodd" fill="none" stroke="#0C1239" stroke-width="1.2237" stroke-linecap="round" stroke-linejoin="round" stroke-miterlimit="10" d="
			M18.482,50.094l1.968-1.969c0.717-0.717,1.879-0.718,2.596,0l0.35,0.35"/>
		
			<path fill-rule="evenodd" clip-rule="evenodd" fill="none" stroke="#0C1239" stroke-width="1.2237" stroke-linecap="round" stroke-linejoin="round" stroke-miterlimit="10" d="
			M28.865,60.478l1.969-1.97c0.717-0.717,0.717-1.879,0-2.596l-0.35-0.35"/>
		
			<path fill-rule="evenodd" clip-rule="evenodd" fill="none" stroke="#0C1239" stroke-width="1.2237" stroke-linecap="round" stroke-linejoin="round" stroke-miterlimit="10" d="
			M0.006,43.465c0,0,1.719,3.671,5.507,3.671c4.354,0,4.895-2.447,8.565-2.447c3.059,0,5.507,4.284,5.507,4.284"/>
	</g>
</g>
</svg>
