<?xml version="1.0" encoding="utf-8"?>
<!-- Generator: Adobe Illustrator 16.0.0, SVG Export Plug-In . SVG Version: 6.00 Build 0)  -->
<!DOCTYPE svg PUBLIC "-//W3C//DTD SVG 1.1//EN" "http://www.w3.org/Graphics/SVG/1.1/DTD/svg11.dtd">
<svg version="1.1" id="Layer_1" xmlns="http://www.w3.org/2000/svg" xmlns:xlink="http://www.w3.org/1999/xlink" x="0px" y="0px"
	 width="43px" height="41px" viewBox="0 0 43 41" enable-background="new 0 0 43 41" xml:space="preserve">
<g>
	<path fill="none" stroke="#9F2A54" stroke-width="1.5446" stroke-linecap="round" stroke-miterlimit="10" d="M0.745,39.91
		C5.359,33.369,12.987,29.097,21.6,29.097c8.612,0,16.24,4.273,20.855,10.813"/>
	
		<path fill="none" stroke="#9F2A54" stroke-width="1.5446" stroke-linecap="round" stroke-linejoin="round" stroke-miterlimit="10" d="
		M16.193,35.275L10.014,3.943l14.248-2.616c1.242-0.228,2.436,0.594,2.663,1.837c0.228,1.241,1.42,2.064,2.662,1.836l6.75-1.239
		l3.028,16.497l-6.749,1.24c-1.243,0.228-2.435-0.594-2.664-1.837c-0.228-1.242-1.419-2.064-2.662-1.836l-14.01,2.681"/>
	
		<line fill="none" stroke="#9F2A54" stroke-width="1.5446" stroke-linecap="round" stroke-linejoin="round" stroke-miterlimit="10" x1="26.925" y1="3.165" x2="29.953" y2="19.662"/>
	
		<path fill="none" stroke="#9F2A54" stroke-width="1.5446" stroke-linecap="round" stroke-linejoin="round" stroke-miterlimit="10" d="
		M28.938,37.792c-2.979-0.844-5.221-2.307-5.008-3.27c0.213-0.964,2.8-1.061,5.778-0.219c2.979,0.844,5.22,2.307,5.007,3.271"/>
	
		<path fill="none" stroke="#9F2A54" stroke-width="1.5446" stroke-linecap="round" stroke-linejoin="round" stroke-miterlimit="10" d="
		M11.757,37.892c-1.162,0.615-2.539,0.634-3.075,0.042c-0.535-0.593-0.029-1.57,1.133-2.185c1.162-0.615,2.538-0.633,3.075-0.041"/>
</g>
</svg>
