<?xml version="1.0" encoding="utf-8"?>
<!-- Generator: Adobe Illustrator 15.0.0, SVG Export Plug-In . SVG Version: 6.00 Build 0)  -->
<!DOCTYPE svg PUBLIC "-//W3C//DTD SVG 1.1//EN" "http://www.w3.org/Graphics/SVG/1.1/DTD/svg11.dtd">
<svg version="1.1" id="Layer_1" xmlns="http://www.w3.org/2000/svg" xmlns:xlink="http://www.w3.org/1999/xlink" x="0px" y="0px"
	 width="168px" height="154px" viewBox="0 0 168 154" enable-background="new 0 0 168 154" xml:space="preserve">
<g>
	<g>
		<path fill-rule="evenodd" clip-rule="evenodd" fill="#C6E1DF" d="M85.396,141.553c35.36,0,64.2-28.84,64.2-64.199
			s-28.84-64.201-64.2-64.201c-35.361,0-64.2,28.841-64.2,64.201S50.035,141.553,85.396,141.553"/>
		<path fill-rule="evenodd" clip-rule="evenodd" fill="#DEEFED" d="M26.892,65.394c0,0-3.261,17.03,20.227,23.677V65.414
			L26.892,65.394z"/>
		<path fill-rule="evenodd" clip-rule="evenodd" fill="#F08357" d="M52.542,46.72v-4.912c-21.547-14.497-46.154,8.912-25.65,28.198
			l-0.006-3.663L52.542,46.72z"/>
		<path fill-rule="evenodd" clip-rule="evenodd" fill="#F39B9C" d="M47.111,79.276v9.788c0,0-6.332-1.711-6.332-13.862
			L47.111,79.276z"/>
		<path fill-rule="evenodd" clip-rule="evenodd" fill="#F39B9C" d="M47.111,89.064v40.036c-3.323-1.746-7.473-6.103-11.654-11.355
			c0.08-0.872,0.316-3.122,0.798-6.017C37.529,104.03,40.555,91.814,47.111,89.064"/>
		<path fill-rule="evenodd" clip-rule="evenodd" fill="#EED2B9" d="M52.542,61.057l-2.728,18.227h-2.707
			c-17.792-2.753-20.216-9.276-20.216-9.276v-3.642c-6.36-6.36,0.176-10.417,2.743-10.417l-0.008-6.061
			c0-5.927,7.242,0.388,11.278-2.341c0.533,1.604-4.705,3.541-4.705,3.541c6.888,2.01,12.38-3.576,12.38-3.576
			s3.883-3.169,3.883-0.795v7.71c0,0-1.213,0.294-1.213,2.151C51.25,58.441,52.542,61.057,52.542,61.057"/>
		<path fill-rule="evenodd" clip-rule="evenodd" fill="#6A73B6" d="M47.108,70.006c0,0,12.65,6.002,13.221,66.473l-0.219-0.095
			h-0.003l-0.217-0.095l-0.003-0.001l-0.219-0.095l-0.001-0.001l-0.218-0.096h-0.002L59.229,136l-0.002-0.001l-0.215-0.097
			l-0.002-0.002l-0.218-0.099v-0.001l-0.218-0.099v-0.001l-0.218-0.1l0,0l-0.215-0.101l-0.002-0.002l-0.215-0.102l-0.002-0.001
			l-0.215-0.103h-0.002l-0.212-0.103l-0.003-0.001l-0.212-0.104l-0.002-0.002l-0.213-0.104l-0.001-0.001l-0.214-0.105h-0.002
			l-0.211-0.106l-0.002-0.001l-0.211-0.106l-0.002-0.001l-0.21-0.107l-0.003-0.002l-0.212-0.107v-0.001l-0.21-0.109l-0.001-0.001
			l-0.211-0.11h-0.001l-0.21-0.111h-0.002l-0.209-0.111l-0.002-0.001l-0.208-0.112l-0.002-0.001l-0.208-0.114h-0.002l-0.208-0.113
			h-0.001l-0.209-0.116h-0.001l-0.206-0.115l-0.003-0.001l-0.207-0.115v-0.001l-0.206-0.117l-0.001-0.001l-0.208-0.117v-0.001
			l-0.205-0.119h-0.002l-0.205-0.119v-0.002l-0.205-0.119h-0.001l-0.205-0.121l-0.001-0.002l-0.202-0.12h-0.002l-0.202-0.122
			l-0.001-0.001l-0.204-0.123v-0.002l-0.202-0.123l-0.204-0.125l-0.202-0.125h-0.001l-0.2-0.127l-0.202-0.127l-0.201-0.127
			l-0.201-0.13l0,0l-0.198-0.129l-0.198-0.129h-0.003l-0.197-0.132h-0.001l-0.198-0.131v-0.002l-0.197-0.131v-0.001l-0.197-0.132
			v-0.002l-0.197-0.132l-0.196-0.135l-0.196-0.135l-0.194-0.136l-0.194-0.137l-0.194-0.137l-0.194-0.138l-0.192-0.139l-0.192-0.141
			l-0.193-0.139l-0.19-0.141l-0.192-0.142V70.006z M47.108,132.766L47.108,132.766l0.003-3.665l-0.001-0.002h-0.001v-0.001V132.766z
			"/>
		<path fill-rule="evenodd" clip-rule="evenodd" fill="#DBBAA1" d="M47.108,79.283V48.327c0.353-0.066,5.436-4.281,5.436-1.607
			l-0.081,7.707c0,0-1.212,0.244-1.212,2.104c0,1.861,1.292,4.526,1.292,4.526L49.84,79.288L47.108,79.283z"/>
		<path fill-rule="evenodd" clip-rule="evenodd" fill="#6366AC" d="M47.111,129.101c-10.816-1.557-31.384-28.913-31.384-40.816
			c0,0,12.389-7.131,5.499-7.131c-6.887,0-8.564-11.146-8.564-11.146h14.231c0,17.387,4.57,31.601,9.363,41.721
			C41.548,122.899,47.111,129.101,47.111,129.101"/>
		<path fill-rule="evenodd" clip-rule="evenodd" fill="#F08357" d="M47.108,66.343c0,0-6.202,1.29-6.202,3.663v8.032
			c0,0,5.175,1.262,6.202,1.245c1.027-0.019,2.732,0.005,2.732,0.005l1.462-9.864C51.302,69.424,49.524,67.343,47.108,66.343"/>
		<path fill-rule="evenodd" clip-rule="evenodd" fill="#D46D57" d="M47.108,66.343v12.94c1.027-0.019,2.732,0.005,2.732,0.005
			l1.462-9.864C51.302,69.424,49.524,67.343,47.108,66.343"/>
		<path fill-rule="evenodd" clip-rule="evenodd" fill="#DEEFED" d="M141.748,61.705c-2.208,3.507-7.585,8.808-19.913,8.808V50.287
			c8.214-9.66,16.648,0.971,19.913,6.024V61.705z"/>
		<path fill-rule="evenodd" clip-rule="evenodd" fill="#BE794F" d="M116.271,31.592V26.68c9.259-4.536,18.86-5.967,25.478-3.302
			c19.918,9.971,0.581,24.279,0,34.823c-1.48-0.857-3.594-3.254-3.594-9.979C138.154,37.876,116.271,31.592,116.271,31.592"/>
		<path fill-rule="evenodd" clip-rule="evenodd" fill="#F39B9C" d="M121.835,126.049c0,11.779,11.689-23.504,11.689-23.504
			s-1.946-27.95-11.689-32.032c0,0,6.332-2.701,6.332-10.908l-6.332,1.969V126.049z"/>
		<path fill-rule="evenodd" clip-rule="evenodd" fill="#AA6B4A" d="M116.271,26.68c11.931,0,10.254,8.487,18.125,8.487l-8.298,3.177
			l-9.749-6.752L116.271,26.68z"/>
		<path fill-rule="evenodd" clip-rule="evenodd" fill="#EED2B9" d="M114.711,49.167c0,0,0.544,1.749,2.306,1.749l2.707,11.005
			c17.794-2.753,19.464-7.04,19.464-7.04v-3.641c1.11-0.52,1.949-1.152,2.561-1.847v-7.24c-0.712-0.815-1.627-1.333-2.567-1.333
			c-3.538,0,0.007-8.422,0.007-8.422c-9.521,7.893-18.954-0.014-18.954-0.014s-3.885-3.169-3.885-0.794v7.71
			c0,0,1.214,0.294,1.214,2.153C117.563,43.313,114.711,49.167,114.711,49.167"/>
		<path fill-rule="evenodd" clip-rule="evenodd" fill="#BE794F" d="M139.18,40.82l0.008-8.422l-4.792,2.767
			C134.396,35.165,133.723,40.82,139.18,40.82"/>
		<path fill-rule="evenodd" clip-rule="evenodd" fill="#DBBAA1" d="M117.563,41.453v-10.66c0,0-1.214-0.525-1.214,0.797v7.71
			C116.349,39.3,117.563,39.874,117.563,41.453"/>
		<path fill-rule="evenodd" clip-rule="evenodd" fill="#0071B6" d="M141.748,74.121l-16.939,32.987v26.031
			c1.653,0.309,9.25-5.289,16.939-13.721C165.61,90.848,151.948,52.848,141.748,74.121"/>
		<path fill-rule="evenodd" clip-rule="evenodd" fill="#1B9CD6" d="M124.808,107.108L94.274,80.514l-6.909,7.552
			c0,0,23.463,45.074,37.442,45.074C124.808,133.14,140.314,120.961,124.808,107.108"/>
		<path fill-rule="evenodd" clip-rule="evenodd" fill="#DEEFED" d="M103.957,72.461l-3.405,10.362c0,0-27.394-18.318-34.043-23.827
			c0,0,7.348-3.816,6.956-7.381C85.147,47.718,90.467,69.839,103.957,72.461"/>
		<path fill-rule="evenodd" clip-rule="evenodd" fill="#FEF4EF" d="M103.957,75.332l-3.405,10.362c0,0-27.394-18.317-34.043-23.828
			c0,0,7.348-3.813,6.956-7.379C85.147,50.588,90.467,72.709,103.957,75.332"/>
		<path fill-rule="evenodd" clip-rule="evenodd" fill="#EED2B9" d="M93.684,77.849l-5.933,6.712c0,0-7.259,0.031-12.758-12.048
			c-3.105-3.112-1.337-5.276-1.337-5.276s7.244,4.925,8.808,3.31c1.562-1.612-5.018-1.433-1.917-4.972
			c0.723,1.426,1.696,1.39,8.104,3.494C92.286,72.604,93.684,77.849,93.684,77.849"/>
		<path fill-rule="evenodd" clip-rule="evenodd" fill="#DBBAA1" d="M119.723,80.824l-6.063-9.161
			c-6.396-2.748-9.166-0.656-9.166-0.656c-3.074,2.793-5.329,4.167-7.058,4.675c1.204,2.833,5.976,0.354,9.599-1.868
			c1.536-0.941,2.284-0.346,3.075,0.724c0.79,1.065,0.71,5.379-5.489,2.263c-2.405-1.032-3.904,1.366-3.904,1.366
			c9.014,3.561,7.798,6.515,12.501,8.533c2.77,1.188,3.59,0.917,3.59,0.917L119.723,80.824z"/>
		
			<rect x="94.933" y="72.94" transform="matrix(-0.8626 0.5059 -0.5059 -0.8626 236.6519 82.6515)" fill-rule="evenodd" clip-rule="evenodd" fill="#0071B6" width="24.335" height="1.051"/>
	</g>
	<g>
		<defs>
			<path id="SVGID_1_" d="M29.832,61.233c0,0.853,0.511,4.465,5.796,4.571h11.634l0.054-4.377v-0.194
				c-7.294-2.32-11.571-3.11-14.07-3.11C29.151,58.123,29.832,60.243,29.832,61.233"/>
		</defs>
		<clipPath id="SVGID_2_">
			<use xlink:href="#SVGID_1_"  overflow="visible"/>
		</clipPath>
		<g clip-path="url(#SVGID_2_)">
			<defs>
				<rect id="SVGID_3_" x="28.069" y="55.11" width="19.247" height="10.694"/>
			</defs>
			<clipPath id="SVGID_4_">
				<use xlink:href="#SVGID_3_"  overflow="visible"/>
			</clipPath>
		</g>
	</g>
	<g>
		
			<linearGradient id="SVGID_5_" gradientUnits="userSpaceOnUse" x1="-6260.8892" y1="52.0645" x2="-6258.9375" y2="48.4574" gradientTransform="matrix(-1 0 0 1 -6132.833 0)">
			<stop  offset="0.0621" style="stop-color:#FFFFFF"/>
			<stop  offset="1" style="stop-color:#FFFFFF;stop-opacity:0"/>
		</linearGradient>
		<path opacity="0.45" fill="url(#SVGID_5_)" d="M134.703,46.506c0,0.878-0.534,4.639-6.123,4.639c-5.587,0-11.557,0-11.557,0
			l-0.058-4.639C136.488,40.299,134.703,44.891,134.703,46.506z"/>
		<linearGradient id="SVGID_6_" gradientUnits="userSpaceOnUse" x1="36.1875" y1="66.7583" x2="38.1389" y2="63.1514">
			<stop  offset="0.0621" style="stop-color:#FFFFFF"/>
			<stop  offset="1" style="stop-color:#FFFFFF;stop-opacity:0"/>
		</linearGradient>
		<path opacity="0.45" fill="url(#SVGID_6_)" d="M29.541,61.199c0,0.879,0.533,4.639,6.122,4.639c5.587,0,11.557,0,11.557,0
			l0.057-4.639C27.755,54.991,29.541,59.584,29.541,61.199z"/>
		<path fill="#9CD3F4" d="M102.699,51.209c0,0-3.839,2.458-7.279-2.567v-0.006c-1.98,0.91-4.178,1.415-6.506,1.415
			c-8.655,0-15.68-7.028-15.68-15.688c0-8.666,7.024-15.688,15.68-15.688c8.668,0,15.688,7.022,15.688,15.688
			c0,4.757-2.118,9.021-5.467,11.897C99.008,48.508,102.699,51.209,102.699,51.209z"/>
		<path fill="#9CD3F4" d="M63.086,112.479c0,0-0.747,3.867,4.389,5.021h0.003c-0.094,1.878,0.202,3.811,0.945,5.676
			c2.769,6.957,10.659,10.35,17.611,7.578c6.963-2.765,10.358-10.652,7.59-17.608c-2.771-6.957-10.656-10.353-17.616-7.586
			c-3.821,1.521-6.568,4.588-7.808,8.196C66.435,114.579,63.086,112.479,63.086,112.479z"/>
		<g>
			<path fill="#FFFFFF" d="M94.928,29.998c0,2.233-0.871,3.987-2.618,5.262l-0.78,0.53c-1.177,0.854-1.874,1.914-2.089,3.173
				l-0.104,0.579l-2.844-0.958l0.202-0.906c0.451-1.41,1.174-2.492,2.167-3.249l1.182-0.932c1.325-1.04,2.022-2.341,2.09-3.904
				c-0.067-0.772-0.337-1.436-0.807-1.988c-0.484-0.538-1.058-0.806-1.713-0.806c-1.307,0-2.629,1.065-3.953,3.198l-0.402,0.756
				l-1.537-2.192c1.763-2.887,3.726-4.331,5.893-4.331c1.545,0,2.822,0.571,3.831,1.71C94.433,27.052,94.928,28.402,94.928,29.998z
				 M90.697,42.842c-0.049,0.62-0.293,1.156-0.73,1.611c-0.451,0.454-0.998,0.704-1.636,0.756c-0.656-0.052-1.216-0.302-1.688-0.756
				c-0.451-0.455-0.68-0.991-0.68-1.611c0-0.673,0.229-1.235,0.68-1.69c0.453-0.451,1.014-0.679,1.688-0.679
				c0.653,0,1.208,0.236,1.661,0.705C90.412,41.631,90.648,42.186,90.697,42.842z"/>
		</g>
		<path fill="#FFFFFF" d="M89.085,115.78h-15.54c-0.321,0-0.58-0.263-0.58-0.584c0-0.323,0.259-0.584,0.58-0.584h15.54
			c0.321,0,0.583,0.261,0.583,0.584C89.668,115.518,89.406,115.78,89.085,115.78z"/>
		<path fill="#FFFFFF" d="M89.085,118.742h-15.54c-0.321,0-0.58-0.264-0.58-0.582c0-0.323,0.259-0.586,0.58-0.586h15.54
			c0.321,0,0.583,0.263,0.583,0.586C89.668,118.479,89.406,118.742,89.085,118.742z"/>
		<path fill="#FFFFFF" d="M89.085,121.748h-15.54c-0.321,0-0.58-0.264-0.58-0.585c0-0.32,0.259-0.581,0.58-0.581h15.54
			c0.321,0,0.583,0.261,0.583,0.581C89.668,121.484,89.406,121.748,89.085,121.748z"/>
		
			<linearGradient id="SVGID_7_" gradientUnits="userSpaceOnUse" x1="108.7881" y1="-145.1606" x2="141.1249" y2="-138.2155" gradientTransform="matrix(0.6014 0.7989 -0.7989 0.6014 -105.1833 12.9523)">
			<stop  offset="0" style="stop-color:#F1F1F2;stop-opacity:0.65"/>
			<stop  offset="0.1843" style="stop-color:#F3F3F4;stop-opacity:0.5302"/>
			<stop  offset="1" style="stop-color:#F8F8F9;stop-opacity:0"/>
			<stop  offset="1" style="stop-color:#FFFFFF;stop-opacity:0"/>
		</linearGradient>
		<circle fill="url(#SVGID_7_)" cx="85.238" cy="32.057" r="16.533"/>
		
			<linearGradient id="SVGID_8_" gradientUnits="userSpaceOnUse" x1="83.373" y1="-68.2266" x2="110.8099" y2="-62.3338" gradientTransform="matrix(0.8766 -0.4811 0.4811 0.8766 26.7854 224.9901)">
			<stop  offset="0" style="stop-color:#F1F1F2;stop-opacity:0.65"/>
			<stop  offset="0.1843" style="stop-color:#F3F3F4;stop-opacity:0.5302"/>
			<stop  offset="1" style="stop-color:#F8F8F9;stop-opacity:0"/>
			<stop  offset="1" style="stop-color:#FFFFFF;stop-opacity:0"/>
		</linearGradient>
		<path fill="url(#SVGID_8_)" d="M96.81,113.105c3.725,6.793,1.239,15.32-5.55,19.046c-6.791,3.726-15.319,1.242-19.047-5.55
			s-1.244-15.318,5.55-19.047C84.552,103.829,93.079,106.314,96.81,113.105z"/>
	</g>
</g>
</svg>
