<?xml version="1.0" encoding="utf-8"?>
<!-- Generator: Adobe Illustrator 15.0.0, SVG Export Plug-In . SVG Version: 6.00 Build 0)  -->
<!DOCTYPE svg PUBLIC "-//W3C//DTD SVG 1.1//EN" "http://www.w3.org/Graphics/SVG/1.1/DTD/svg11.dtd">
<svg version="1.1" id="Layer_1" xmlns="http://www.w3.org/2000/svg" xmlns:xlink="http://www.w3.org/1999/xlink" x="0px" y="0px"
	 width="146px" height="148px" viewBox="0 0 146 148" enable-background="new 0 0 146 148" xml:space="preserve">
<g>
	<g>
		
			<rect x="64.896" y="37.769" transform="matrix(0.9421 0.3353 -0.3353 0.9421 19.1003 -19.7897)" fill-rule="evenodd" clip-rule="evenodd" fill="#F08357" width="3.936" height="15.308"/>
		<circle fill-rule="evenodd" clip-rule="evenodd" fill="#F08357" cx="75.378" cy="65.471" r="8.514"/>
		<path fill-rule="evenodd" clip-rule="evenodd" fill="#E56B46" d="M83.893,65.471c0,3.779-2.463,6.98-5.871,8.089l-0.84-2.168
			l-4.458-11.514l-0.84-2.168c1.066-0.482,2.25-0.751,3.493-0.751C80.081,56.958,83.893,60.771,83.893,65.471z"/>
		<path fill-rule="evenodd" clip-rule="evenodd" fill="#F08357" d="M75.378,71.66c-3.413,0-6.189-2.776-6.189-6.189
			s2.776-6.189,6.189-6.189c3.413,0,6.188,2.776,6.188,6.189S78.791,71.66,75.378,71.66z"/>
		<path fill-rule="evenodd" clip-rule="evenodd" fill="#E56B46" d="M77.182,71.392c-0.571,0.174-1.178,0.269-1.805,0.269
			c-3.411,0-6.187-2.779-6.187-6.19c0-2.464,1.447-4.596,3.533-5.593L77.182,71.392z"/>
		
			<rect x="63.017" y="48.651" transform="matrix(0.9421 0.3353 -0.3353 0.9421 20.7615 -18.854)" fill-rule="evenodd" clip-rule="evenodd" fill="#E56B46" width="3.936" height="4.101"/>
	</g>
	<g>
		<path fill-rule="evenodd" clip-rule="evenodd" fill="#EED2B9" d="M48.505,30.168v1.093c0,0,19.682,6.014,31.819-2.078
			l27.336,19.682c0,0,0.984,2.078-1.421,3.5l-13.122-3.608c0,0-3.718-1.203-5.248-0.109l-3.5,2.296l-0.026,1.421l20.666,11.262
			c0,0,11.946,6.561,21.459,0s14.215-11.153,14.215-11.153s-6.779-1.203-22.963-13.45L87.322,15.188L48.505,30.168z"/>
		<path fill-rule="evenodd" clip-rule="evenodd" fill="#90ACDA" d="M143.307,46.46c0,0,2.187-1.312,3.062-14.652l-7.217-21.432
			l-18.588,23.837C120.563,34.213,127.124,42.743,143.307,46.46z"/>
		<polygon fill-rule="evenodd" clip-rule="evenodd" fill="#7C9FD1" points="132.153,6.659 120.563,34.213 136.463,13.825 		"/>
		<path fill="#FFFFFF" d="M137.977,23.319c-1.59,0-2.884-1.293-2.884-2.883c0-1.589,1.294-2.882,2.884-2.882
			s2.883,1.293,2.883,2.882C140.859,22.026,139.566,23.319,137.977,23.319z M137.977,19.354c-0.598,0-1.083,0.486-1.083,1.083
			c0,0.597,0.485,1.083,1.083,1.083c0.597,0,1.082-0.486,1.082-1.083C139.059,19.839,138.573,19.354,137.977,19.354z"/>
		<path fill-rule="evenodd" clip-rule="evenodd" fill="#90ACDA" d="M88.777,7.085c-0.085-0.144-0.142-0.307-0.163-0.483
			c-0.078-0.676,0.406-1.289,1.082-1.368c0.334-0.038,8.187-0.866,11.771,5.792c0.32,0.6,0.096,1.346-0.505,1.667
			c-0.6,0.323-1.345,0.083-1.668-0.503c-2.778-5.192-9.248-4.514-9.313-4.507C89.482,7.741,89.018,7.493,88.777,7.085z"/>
		<path fill-rule="evenodd" clip-rule="evenodd" fill="#90ACDA" d="M86.855,2.236C86.759,2.075,86.7,1.89,86.688,1.69
			c-0.045-0.68,0.47-1.266,1.148-1.31c0.56-0.038,13.771-0.774,19.786,10.781c0.315,0.601,0.08,1.347-0.523,1.66
			c-0.604,0.313-1.349,0.074-1.662-0.523c-5.285-10.141-17.318-9.467-17.439-9.458C87.518,2.87,87.084,2.624,86.855,2.236z"/>
		<polygon fill-rule="evenodd" clip-rule="evenodd" fill="#DBBAA1" points="51.129,19.125 51.895,22.077 61.189,24.482 
			79.559,17.375 		"/>
		<polygon fill-rule="evenodd" clip-rule="evenodd" fill="#DBBAA1" points="59.658,12.235 59.658,15.188 64.879,17.894 
			76.224,17.019 		"/>
	</g>
	<g>
		<path fill-rule="evenodd" clip-rule="evenodd" fill="#EED2B9" d="M103.886,74.871l-0.641-0.886c0,0-19.473,6.658-24.568,20.327
			l-33.685,0.066c0,0-2.014-1.107-0.898-3.668l12.748-4.764c0,0,3.717-1.204,4.317-2.987l1.49-3.91l-0.811-1.169l-23.346,2.982
			c0,0-13.524,1.683-17.39,12.573c-3.865,10.89-4.984,17.366-4.984,17.366s6.199-2.997,26.488-2.555l38.6,1.507L103.886,74.871z"/>
		<polygon fill-rule="evenodd" clip-rule="evenodd" fill="#DBBAA1" points="108.23,85.358 105.88,83.414 96.938,86.91 
			86.216,103.434 		"/>
		<polygon fill-rule="evenodd" clip-rule="evenodd" fill="#DBBAA1" points="105.354,95.938 103.625,93.546 97.808,94.412 
			89.127,101.767 		"/>
		<polygon fill-rule="evenodd" clip-rule="evenodd" fill="#90ACDA" points="16.118,116.441 40.085,109.88 44.896,142.684 
			16.118,123.221 		"/>
		<polygon fill-rule="evenodd" clip-rule="evenodd" fill="#7C9FD1" points="19.528,131.64 19.528,125.527 43.314,141.614 
			43.314,148.042 		"/>
		<path fill="#FFFFFF" d="M38.882,135.099c-1.589,0-2.882-1.293-2.882-2.883s1.293-2.883,2.882-2.883s2.882,1.293,2.882,2.883
			S40.472,135.099,38.882,135.099z M38.882,131.134c-0.597,0-1.083,0.485-1.083,1.082s0.486,1.082,1.083,1.082
			s1.083-0.485,1.083-1.082S39.479,131.134,38.882,131.134z"/>
		<path fill-rule="evenodd" clip-rule="evenodd" fill="#90ACDA" d="M13.117,141.355c-0.003,0.156-0.038,0.314-0.108,0.467
			c-0.269,0.577-0.955,0.828-1.534,0.56c-0.285-0.133-6.956-3.324-6.549-10.393c0.039-0.636,0.583-1.121,1.22-1.083
			c0.637,0.037,1.114,0.594,1.084,1.22c-0.33,5.505,5.164,8.137,5.219,8.163C12.876,140.487,13.124,140.914,13.117,141.355z"/>
		<path fill-rule="evenodd" clip-rule="evenodd" fill="#90ACDA" d="M12.271,146.167c-0.002,0.176-0.046,0.353-0.133,0.518
			c-0.297,0.564-0.996,0.78-1.559,0.482c-0.465-0.245-11.366-6.137-10.498-18.304c0.042-0.634,0.597-1.114,1.231-1.067
			c0.636,0.045,1.112,0.603,1.07,1.232c-0.758,10.681,9.172,16.045,9.273,16.098C12.054,145.337,12.279,145.746,12.271,146.167z"/>
	</g>
</g>
</svg>
