<?xml version="1.0" encoding="utf-8"?>
<!-- Generator: Adobe Illustrator 15.0.0, SVG Export Plug-In . SVG Version: 6.00 Build 0)  -->
<!DOCTYPE svg PUBLIC "-//W3C//DTD SVG 1.1//EN" "http://www.w3.org/Graphics/SVG/1.1/DTD/svg11.dtd">
<svg version="1.1" id="Layer_1" xmlns="http://www.w3.org/2000/svg" xmlns:xlink="http://www.w3.org/1999/xlink" x="0px" y="0px"
	 width="170px" height="154px" viewBox="0 0 170 154" enable-background="new 0 0 170 154" xml:space="preserve">
<g>
	<g>
		<g>
			<path fill-rule="evenodd" clip-rule="evenodd" fill="#9CD2F3" d="M21.903,41.081c0,0-0.691,3.586,4.069,4.659l0.004-0.001
				c-0.089,1.743,0.185,3.532,0.875,5.263c2.566,6.447,9.88,9.592,16.327,7.027c6.451-2.568,9.599-9.879,7.033-16.325
				c-2.567-6.452-9.877-9.6-16.329-7.031c-3.542,1.409-6.087,4.25-7.237,7.596C25.009,43.028,21.903,41.081,21.903,41.081z"/>
			<g>
				<path fill-rule="evenodd" clip-rule="evenodd" fill="#FFFFFF" d="M43.658,46.85H33.071c-0.277,0-0.501-0.225-0.501-0.501
					c0-0.277,0.225-0.501,0.501-0.501h10.587c0.276,0,0.5,0.224,0.5,0.501C44.158,46.625,43.934,46.85,43.658,46.85z"/>
				<path fill-rule="evenodd" clip-rule="evenodd" fill="#FFFFFF" d="M43.658,47.648H33.071c-0.716,0-1.299-0.583-1.299-1.299
					c0-0.716,0.583-1.299,1.299-1.299h10.587c0.716,0,1.298,0.583,1.298,1.299C44.956,47.065,44.374,47.648,43.658,47.648z"/>
			</g>
		</g>
		<path fill-rule="evenodd" clip-rule="evenodd" fill="#F39B9C" d="M134.607,81.223c0,0.068,0,0.139-0.002,0.207
			c-0.109,29.209-23.766,52.865-52.975,52.975c-0.068,0.002-0.139,0.002-0.207,0.002c-0.098,0-0.195-0.002-0.291-0.007
			c-0.007,0-0.014-0.002-0.021,0h-0.027c-0.032-0.002-0.065-0.002-0.098-0.007c-0.02,0.002-0.039,0-0.059-0.002
			c-0.052-0.005-0.104-0.009-0.157-0.014c-0.027-0.003-0.055-0.003-0.082-0.005c-0.104-0.009-0.207-0.022-0.309-0.034
			c-0.007-0.002-0.016-0.002-0.022-0.004c-2.439-0.312-4.77-1.681-6.918-3.936l-0.002-0.002c-0.595-0.769-1.187-1.474-1.775-2.119
			c-2.096-2.316-4.135-3.892-6.193-4.949c-0.957-1.531-1.791-3.121-2.489-4.689c-0.432,0.178-0.857,0.346-1.28,0.507
			c-2.962,1.128-5.722,1.853-8.197,2.14c-1.007,0.025-2.051,0.068-3.133,0.115c-2.723-0.141-4.958-0.975-6.554-2.57
			c-1.833-1.832-2.662-4.504-2.591-7.789c0.12-0.971,0.202-1.889,0.248-2.762c0.004-0.093,0.009-0.187,0.011-0.279
			c0.354-2.183,1.025-4.565,1.991-7.095c0.037-0.099,0.075-0.198,0.114-0.296c0.503-1.298,1.083-2.637,1.737-4.006
			c-4.744-1.723-8.688-3.782-11.591-6.078c-0.002-0.003-0.004-0.005-0.007-0.005c-0.066-0.063-0.129-0.125-0.196-0.187
			c-0.645-0.607-1.316-1.223-2.012-1.859c-1.498-1.594-2.517-3.278-2.982-5.028c-0.004-0.019-0.011-0.034-0.014-0.05
			c-0.17-0.637-0.266-1.283-0.284-1.936v-0.057c-0.002-0.061-0.002-0.12-0.002-0.182c0-0.271,0.002-0.538,0.007-0.809v-0.003
			c0.432-28.879,23.883-52.179,52.822-52.37h0.045c0.08-0.002,0.159-0.002,0.241-0.002h0.07c0.068,0,0.139,0,0.207,0.002
			c0.009,0,0.02,0,0.029,0.002c0.057,0.002,0.114,0.004,0.173,0.007c0.011,0.002,0.021,0.002,0.032,0.002
			c0.016,0,0.03,0.002,0.046,0.004c0.195,0.009,0.391,0.029,0.586,0.054c0.08,0.012,0.157,0.023,0.236,0.035
			c0.082,0.013,0.167,0.027,0.248,0.045c0.084,0.016,0.166,0.034,0.248,0.052c0.084,0.019,0.168,0.039,0.252,0.06
			c0.093,0.022,0.188,0.047,0.279,0.073c1.384,0.391,2.73,1.118,4.021,2.164c0.005,0.004,0.012,0.009,0.016,0.013
			c0.063,0.062,0.128,0.123,0.193,0.189c0.002,0,0.005,0.002,0.007,0.004c0.402,0.384,0.825,0.785,1.269,1.189
			c0.012,0.011,0.022,0.023,0.034,0.034c2.496,2.589,4.749,6.37,6.651,11.06c0.282,0.689,0.555,1.4,0.818,2.128
			c5.136-2.453,9.825-3.874,13.72-4.104c0.007-0.002,0.011-0.002,0.016,0c0.368-0.022,0.729-0.034,1.085-0.034
			c0.195,0,0.386,0.004,0.577,0.009c0.536,0.018,1.053,0.064,1.553,0.132c0.27,0.039,0.534,0.086,0.793,0.139
			c1.646,0.348,3.049,1.021,4.174,2.03c0.002,0,0.005,0.002,0.007,0.007c0.041,0.034,0.082,0.07,0.123,0.106
			c0.05,0.045,0.098,0.091,0.145,0.137c0.008,0.007,0.015,0.014,0.021,0.021v0.002h0.003c0.005,0.005,0.009,0.009,0.014,0.014
			c4.078,4.081,3.185,12.326-1.544,22.229c1.316,0.477,2.569,0.979,3.756,1.509c3.354,1.487,6.174,3.165,8.348,4.985
			c0.027,0.023,0.057,0.048,0.084,0.07c0.163,0.139,0.332,0.275,0.502,0.412C133.016,75.392,134.607,78.233,134.607,81.223z"/>
		<path fill-rule="evenodd" clip-rule="evenodd" fill="#FFFFFF" d="M102.66,81.563h-3.07v-0.682h2.728v0.134h0.341L102.66,81.563
			L102.66,81.563z M96.861,81.563L96.861,81.563h-2.728v-0.682h2.728V81.563L96.861,81.563z M91.405,81.563L91.405,81.563h-2.728
			v-0.682h2.728V81.563L91.405,81.563z M85.95,81.563L85.95,81.563h-2.728v-0.682h2.728V81.563L85.95,81.563z M80.494,81.563
			L80.494,81.563h-2.728v-0.682h2.728V81.563L80.494,81.563z M75.038,81.563L75.038,81.563H72.31v-0.682h2.728V81.563L75.038,81.563
			z M69.583,81.563L69.583,81.563h-2.728v-0.682h2.728V81.563L69.583,81.563z M64.126,81.563L64.126,81.563h-2.728v-0.682h2.728
			V81.563L64.126,81.563z M60.817,79.434L60.817,79.434l-0.682-0.009c0.012-0.913,0.033-1.833,0.063-2.734l0.681,0.022
			C60.85,77.609,60.829,78.525,60.817,79.434L60.817,79.434z M101.945,78.296L101.945,78.296c-0.02-0.909-0.048-1.824-0.086-2.719
			l0.682-0.028c0.037,0.9,0.066,1.819,0.086,2.733L101.945,78.296L101.945,78.296z M60.998,73.995L60.998,73.995l-0.681-0.036
			c0.049-0.911,0.107-1.829,0.174-2.73l0.68,0.051C61.104,72.175,61.046,73.089,60.998,73.995L60.998,73.995z M101.719,72.86
			L101.719,72.86c-0.057-0.902-0.122-1.814-0.197-2.713l0.68-0.057c0.075,0.903,0.142,1.821,0.198,2.727L101.719,72.86
			L101.719,72.86z M61.402,68.568L61.402,68.568l-0.679-0.065c0.087-0.907,0.185-1.822,0.292-2.72l0.677,0.081
			C61.587,66.756,61.489,67.666,61.402,68.568L61.402,68.568z M101.266,67.439L101.266,67.439c-0.096-0.907-0.202-1.816-0.315-2.701
			l0.677-0.087c0.114,0.89,0.221,1.804,0.317,2.716L101.266,67.439L101.266,67.439z M62.044,63.165L62.044,63.165l-0.675-0.096
			c0.065-0.461,0.134-0.92,0.204-1.375l0.047-0.289c0.055-0.348,0.11-0.693,0.168-1.038l0.673,0.112
			c-0.073,0.437-0.144,0.876-0.212,1.318l-0.046,0.289C62.148,62.444,62.096,62.804,62.044,63.165L62.044,63.165z M100.872,62.086
			L100.872,62.086h-0.293l-0.006-0.041l-0.001,0l-0.04-0.249c-0.125-0.812-0.262-1.629-0.404-2.431l0.672-0.12
			c0.126,0.711,0.248,1.436,0.361,2.158h0.001l0.085,0.54L100.872,62V62.086L100.872,62.086z M62.944,57.803L62.944,57.803
			l-0.669-0.13c0.175-0.902,0.362-1.804,0.558-2.68l0.666,0.148C63.305,56.011,63.118,56.907,62.944,57.803L62.944,57.803z
			 M99.616,56.696L99.616,56.696c-0.185-0.896-0.381-1.79-0.584-2.655l0.664-0.156c0.205,0.872,0.402,1.771,0.588,2.673
			L99.616,56.696L99.616,56.696z M64.128,52.496L64.128,52.496l-0.661-0.168c0.228-0.895,0.468-1.784,0.717-2.644l0.655,0.189
			C64.592,50.727,64.354,51.608,64.128,52.496L64.128,52.496z M98.369,51.406L98.369,51.406c-0.236-0.883-0.487-1.762-0.746-2.612
			l0.651-0.199c0.262,0.857,0.516,1.743,0.754,2.634L98.369,51.406L98.369,51.406z M65.639,47.278L65.639,47.278l-0.648-0.212
			c0.29-0.883,0.595-1.754,0.907-2.588l0.639,0.239C66.228,45.542,65.926,46.404,65.639,47.278L65.639,47.278z M96.783,46.212
			L96.783,46.212c-0.109-0.316-0.221-0.629-0.333-0.938c-0.197-0.543-0.402-1.083-0.608-1.606l0.634-0.25
			c0.209,0.528,0.416,1.075,0.615,1.624c0.114,0.313,0.227,0.629,0.337,0.948L96.783,46.212L96.783,46.212z M67.543,42.198
			L67.543,42.198l-0.627-0.269c0.369-0.863,0.755-1.702,1.147-2.495l0.611,0.302C68.289,40.518,67.908,41.346,67.543,42.198
			L67.543,42.198z M94.785,41.171L94.785,41.171c-0.383-0.844-0.783-1.663-1.188-2.433l0.604-0.318
			c0.411,0.782,0.817,1.612,1.206,2.469L94.785,41.171L94.785,41.171z M69.951,37.351L69.951,37.351l-0.59-0.342
			c0.477-0.824,0.974-1.606,1.476-2.327l0.56,0.39C70.906,35.777,70.419,36.544,69.951,37.351L69.951,37.351z M92.254,36.394
			L92.254,36.394c-0.495-0.794-1.008-1.542-1.525-2.222l0.543-0.413c0.53,0.697,1.056,1.462,1.562,2.274L92.254,36.394
			L92.254,36.394z M73.046,32.948L73.046,32.948L72.532,32.5c0.639-0.733,1.299-1.392,1.964-1.96l0.443,0.519
			C74.3,31.605,73.663,32.241,73.046,32.948L73.046,32.948z M88.982,32.132L88.982,32.132c-0.396-0.407-0.797-0.782-1.191-1.114
			l-0.02-0.016c-0.264-0.222-0.53-0.434-0.797-0.627l0.402-0.551c0.274,0.2,0.551,0.417,0.822,0.646l0.019,0.015
			c0.415,0.349,0.837,0.743,1.253,1.17L88.982,32.132L88.982,32.132z M77.11,29.54L77.11,29.54l-0.328-0.598
			c0.857-0.471,1.738-0.813,2.617-1.016l0.153,0.665C78.734,28.78,77.913,29.099,77.11,29.54L77.11,29.54z M84.683,29.063
			L84.683,29.063c-0.66-0.276-1.334-0.471-2.004-0.58l-0.23-0.033c-0.096-0.012-0.197-0.024-0.298-0.034l0.063-0.679
			c0.109,0.01,0.218,0.022,0.327,0.037l0.242,0.035c0.729,0.118,1.455,0.328,2.164,0.625L84.683,29.063z"/>
		<path fill-rule="evenodd" clip-rule="evenodd" fill="#F39B9C" d="M117.455,65.844c-1.616,3.385-3.68,6.963-6.146,10.634v0.002
			c-4.172,6.204-9.489,12.672-15.738,18.921c-2.318,2.318-4.669,4.51-7.024,6.561c-6.708,5.845-13.458,10.557-19.68,13.879
			c0,0,0,0,0,0.002c-0.022,0.012-0.043,0.022-0.066,0.034c-2.003,1.068-3.949,1.993-5.82,2.762c-0.432,0.178-0.857,0.346-1.28,0.507
			c-2.962,1.128-5.722,1.853-8.197,2.14c-4.174,0.484-7.541-0.277-9.718-2.455c-2.369-2.369-3.063-6.143-2.301-10.83
			c0.354-2.183,1.025-4.565,1.991-7.095c0.037-0.099,0.075-0.198,0.114-0.296c0.503-1.298,1.083-2.637,1.737-4.006
			c0.416-0.873,0.862-1.757,1.339-2.655c0.025-0.049,0.05-0.098,0.077-0.147c0.937-1.757,1.982-3.558,3.135-5.388
			c2.942-4.662,6.565-9.516,10.775-14.346c2.051-2.355,4.24-4.704,6.558-7.022c2.319-2.319,4.667-4.51,7.022-6.559
			c7.748-6.754,15.554-11.996,22.537-15.329c5.136-2.453,9.825-3.874,13.72-4.104c0.007-0.002,0.011-0.002,0.016,0
			c0.368-0.022,0.729-0.034,1.085-0.034c0.195,0,0.386,0.004,0.577,0.009c0.536,0.018,1.053,0.064,1.553,0.132
			c0.27,0.039,0.534,0.086,0.793,0.139c1.646,0.348,3.049,1.021,4.174,2.03c0.002,0,0.005,0.002,0.007,0.007
			c0.041,0.034,0.082,0.07,0.123,0.106c0.05,0.045,0.098,0.091,0.145,0.137c0.008,0.007,0.015,0.014,0.021,0.021v0.002h0.003
			c0.005,0.005,0.009,0.009,0.014,0.014C123.077,47.696,122.184,55.942,117.455,65.844z"/>
		<path fill-rule="evenodd" clip-rule="evenodd" fill="#E17856" d="M97.407,115.406c-0.025,0.077-0.05,0.154-0.075,0.229
			c-15.271,0.354-15.956,18.767-15.956,18.767c-6.081,0-11.555-6.593-15.379-17.118c-1.744-4.795-3.142-10.407-4.099-16.586
			c0.004,0,0.009,0.002,0.013,0.002l18.598,7.704L97.407,115.406z"/>
		<path fill-rule="evenodd" clip-rule="evenodd" fill="#DCE7F7" d="M104.31,85.814c-0.598,0.271-1.291,0.521-2.096,0.741
			c-0.023,0.611-0.053,1.219-0.085,1.823c-0.225,4.292-0.654,8.421-1.259,12.324c-0.835,5.387-2.005,10.348-3.449,14.708l-16.897-7
			l-18.598-7.706l-0.014-0.005c-0.6-3.874-1.027-7.973-1.254-12.228c-0.194-7.25-0.194-7.25,0-14.501h0.077
			c9.346,0,21.874-5.108,29.369-13.394c3.917-4.331,6.461-9.527,6.461-15.32c0.045-0.025,0.093-0.048,0.139-0.068
			c1.584,6.875,2.318,12.169,2.714,16.34c0.835,8.711,0.207,12.524,2.84,15.602c0,0,0,0,0,0.002c1.152,1.343,2.928,2.548,5.72,3.959
			c0,0,0.004,0.021,0.007,0.06c0,0,0.002,0.002,0,0.005C108.033,81.584,108.135,84.09,104.31,85.814z"/>
		<linearGradient id="SVGID_1_" gradientUnits="userSpaceOnUse" x1="76.811" y1="92.3125" x2="82.3383" y2="81.6536">
			<stop  offset="0.1232" style="stop-color:#F1F1F2;stop-opacity:0.85"/>
			<stop  offset="0.2847" style="stop-color:#F3F3F4;stop-opacity:0.6934"/>
			<stop  offset="1" style="stop-color:#F8F8F9;stop-opacity:0"/>
			<stop  offset="1" style="stop-color:#FFFFFF;stop-opacity:0"/>
		</linearGradient>
		<path fill-rule="evenodd" clip-rule="evenodd" fill="url(#SVGID_1_)" d="M67.424,79.044c0,1.487,0.902,7.844,10.348,7.844
			c9.447,0,19.538,0,19.538,0l0.098-7.844C64.403,68.549,67.424,76.314,67.424,79.044z"/>
		<path fill-rule="evenodd" clip-rule="evenodd" fill="#F39B9C" d="M81.439,134.406l-0.017-0.004c0,0,0.685-18.412,15.957-18.767
			C97.379,115.636,91.463,134.406,81.439,134.406z"/>
		<path fill-rule="evenodd" clip-rule="evenodd" fill="#DCE7F7" d="M66.507,68.568C76.967,58.109,88.004,50.11,97.597,45.492
			c0,6.135-2.694,11.639-6.843,16.226c-7.938,8.776-21.208,14.187-31.106,14.187C61.795,73.444,64.085,70.991,66.507,68.568z"/>
		<path fill-rule="evenodd" clip-rule="evenodd" fill="#FFFFFF" d="M81.732,134.402H81.05v-1.964h0.682V134.402L81.732,134.402z
			 M81.732,130.475L81.732,130.475H81.05v-1.964h0.682V130.475L81.732,130.475z M81.732,126.547L81.732,126.547H81.05v-1.963h0.682
			V126.547L81.732,126.547z M81.732,122.619L81.732,122.619H81.05v-1.963h0.682V122.619L81.732,122.619z M81.732,118.692
			L81.732,118.692H81.05v-1.964h0.682V118.692L81.732,118.692z M81.732,114.765L81.732,114.765H81.05v-1.964h0.682V114.765
			L81.732,114.765z M81.732,110.838L81.732,110.838H81.05v-1.964h0.682V110.838L81.732,110.838z M81.732,106.91L81.732,106.91H81.05
			v-1.964h0.682V106.91L81.732,106.91z M81.732,102.982L81.732,102.982H81.05v-1.964h0.682V102.982L81.732,102.982z M81.732,99.055
			L81.732,99.055H81.05v-1.964h0.682V99.055L81.732,99.055z M81.732,95.128L81.732,95.128H81.05v-1.964h0.682V95.128L81.732,95.128z
			 M81.732,91.2L81.732,91.2H81.05v-1.964h0.682V91.2L81.732,91.2z M81.732,87.272L81.732,87.272H81.05v-1.964h0.682V87.272
			L81.732,87.272z M81.732,83.345L81.732,83.345H81.05v-1.963h0.682V83.345L81.732,83.345z M81.731,79.418L81.731,79.418H81.05
			v-1.964h0.682V79.418L81.731,79.418z M81.731,75.49L81.731,75.49H81.05v-1.964h0.682V75.49L81.731,75.49z M81.731,71.563
			L81.731,71.563H81.05v-1.963h0.682V71.563L81.731,71.563z M81.731,67.635L81.731,67.635H81.05v-1.964h0.682V67.635L81.731,67.635z
			 M81.731,63.708L81.731,63.708H81.05v-1.963h0.682V63.708L81.731,63.708z M81.731,59.78L81.731,59.78H81.05v-1.964h0.682V59.78
			L81.731,59.78z M81.731,55.853L81.731,55.853H81.05v-1.964h0.682V55.853L81.731,55.853z M81.731,51.925L81.731,51.925H81.05
			v-1.963h0.682V51.925L81.731,51.925z M81.731,47.998L81.731,47.998H81.05v-1.964h0.682V47.998L81.731,47.998z M81.731,44.07
			L81.731,44.07H81.05v-1.964h0.682V44.07L81.731,44.07z M81.731,40.143L81.731,40.143H81.05v-1.964h0.682V40.143L81.731,40.143z
			 M81.731,36.216L81.731,36.216H81.05v-1.964h0.682V36.216L81.731,36.216z M81.731,32.288L81.731,32.288H81.05v-1.964h0.682V32.288
			L81.731,32.288z M81.731,28.361L81.731,28.361H81.05v-0.322h0.682V28.361z"/>
		<path fill-rule="evenodd" clip-rule="evenodd" fill="#FFFFFF" d="M44.025,119.071l-0.482-0.482l1.389-1.389l0.482,0.482
			L44.025,119.071L44.025,119.071z M46.802,116.294L46.802,116.294l-0.482-0.482l1.388-1.389l0.482,0.482L46.802,116.294
			L46.802,116.294z M49.58,113.517L49.58,113.517l-0.482-0.482l1.389-1.389l0.482,0.482L49.58,113.517L49.58,113.517z
			 M52.356,110.739L52.356,110.739l-0.482-0.482l1.389-1.389l0.482,0.482L52.356,110.739L52.356,110.739z M55.134,107.962
			L55.134,107.962l-0.482-0.481l1.388-1.389l0.482,0.482L55.134,107.962L55.134,107.962z M57.911,105.186L57.911,105.186
			l-0.482-0.482l1.389-1.389l0.482,0.482L57.911,105.186L57.911,105.186z M60.688,102.408L60.688,102.408l-0.482-0.482l1.389-1.389
			l0.482,0.482L60.688,102.408L60.688,102.408z M63.465,99.631L63.465,99.631l-0.482-0.482l1.389-1.389l0.482,0.482L63.465,99.631
			L63.465,99.631z M66.243,96.854L66.243,96.854l-0.482-0.482l1.389-1.389l0.482,0.482L66.243,96.854L66.243,96.854z M69.02,94.076
			L69.02,94.076l-0.482-0.482l1.389-1.388l0.482,0.481L69.02,94.076L69.02,94.076z M71.797,91.299L71.797,91.299l-0.482-0.481
			l1.389-1.39l0.482,0.482L71.797,91.299L71.797,91.299z M74.574,88.521L74.574,88.521l-0.482-0.482l1.389-1.388l0.482,0.481
			L74.574,88.521L74.574,88.521z M77.351,85.744L77.351,85.744l-0.482-0.481l1.389-1.389l0.482,0.481L77.351,85.744L77.351,85.744z
			 M80.128,82.968L80.128,82.968l-0.482-0.482l1.388-1.389l0.482,0.482L80.128,82.968L80.128,82.968z M82.906,80.19L82.906,80.19
			l-0.482-0.482l1.388-1.389l0.482,0.482L82.906,80.19L82.906,80.19z M85.683,77.413L85.683,77.413l-0.482-0.482l1.389-1.388
			l0.481,0.482L85.683,77.413L85.683,77.413z M88.46,74.636L88.46,74.636l-0.482-0.482l1.389-1.389l0.482,0.482L88.46,74.636
			L88.46,74.636z M91.237,71.859L91.237,71.859l-0.482-0.482l1.389-1.389l0.482,0.482L91.237,71.859L91.237,71.859z M94.015,69.082
			L94.015,69.082l-0.482-0.482l1.389-1.388l0.482,0.482L94.015,69.082L94.015,69.082z M96.792,66.304L96.792,66.304l-0.482-0.482
			l1.389-1.389l0.482,0.482L96.792,66.304L96.792,66.304z M99.569,63.527L99.569,63.527l-0.482-0.482l1.389-1.389l0.482,0.482
			L99.569,63.527L99.569,63.527z M102.347,60.75L102.347,60.75l-0.482-0.482l1.389-1.388l0.482,0.482L102.347,60.75L102.347,60.75z
			 M105.123,57.973L105.123,57.973l-0.482-0.482l1.389-1.389l0.482,0.482L105.123,57.973L105.123,57.973z M107.9,55.196
			L107.9,55.196l-0.482-0.483l1.389-1.388l0.482,0.482L107.9,55.196L107.9,55.196z M110.678,52.418L110.678,52.418l-0.482-0.482
			l1.389-1.389l0.482,0.482L110.678,52.418L110.678,52.418z M113.455,49.641L113.455,49.641l-0.482-0.482l1.389-1.389l0.482,0.482
			L113.455,49.641L113.455,49.641z M116.232,46.864L116.232,46.864l-0.482-0.482l1.389-1.388l0.482,0.482L116.232,46.864
			L116.232,46.864z M119.01,44.086L119.01,44.086l-0.482-0.482l0.229-0.229l0.482,0.482L119.01,44.086z"/>
		<path fill-rule="evenodd" clip-rule="evenodd" fill="#FFFFFF" d="M134.607,81.563h-2.729v-0.682h2.729V81.563L134.607,81.563z
			 M129.151,81.563L129.151,81.563h-2.728v-0.682h2.728V81.563L129.151,81.563z M123.695,81.563L123.695,81.563h-2.728v-0.682h2.728
			V81.563L123.695,81.563z M118.239,81.563L118.239,81.563h-2.728v-0.682h2.728V81.563L118.239,81.563z M112.784,81.563
			L112.784,81.563h-2.729v-0.682h2.729V81.563L112.784,81.563z M107.328,81.563L107.328,81.563H104.6v-0.682h2.729V81.563
			L107.328,81.563z M101.872,81.563L101.872,81.563h-2.729v-0.682h2.729V81.563L101.872,81.563z M96.416,81.563L96.416,81.563
			h-2.728v-0.682h2.728V81.563L96.416,81.563z M90.96,81.563L90.96,81.563h-2.728v-0.682h2.728V81.563L90.96,81.563z M85.504,81.563
			L85.504,81.563h-2.728v-0.682h2.728V81.563L85.504,81.563z M80.048,81.563L80.048,81.563h-2.728v-0.682h2.728V81.563
			L80.048,81.563z M74.593,81.563L74.593,81.563h-2.728v-0.682h2.728V81.563L74.593,81.563z M69.137,81.563L69.137,81.563h-2.728
			v-0.682h2.728V81.563L69.137,81.563z M63.681,81.563L63.681,81.563h-2.728v-0.682h2.728V81.563L63.681,81.563z M58.225,81.563
			L58.225,81.563h-2.728v-0.682h2.728V81.563L58.225,81.563z M52.769,81.563L52.769,81.563h-2.728v-0.682h2.728V81.563
			L52.769,81.563z M47.313,81.563L47.313,81.563h-2.728v-0.682h2.728V81.563L47.313,81.563z M41.857,81.563L41.857,81.563h-2.728
			v-0.682h2.728V81.563L41.857,81.563z M36.401,81.563L36.401,81.563h-2.728v-0.682h2.728V81.563L36.401,81.563z M30.945,81.563
			L30.945,81.563h-2.708v-0.682h2.708V81.563z"/>
		<path fill-rule="evenodd" clip-rule="evenodd" fill="#FFFFFF" d="M81.391,134.748c-0.295,0-0.589-0.002-0.883-0.007l0.011-0.682
			c0.65,0.011,1.303,0.009,1.951-0.004l0.014,0.682C82.121,134.745,81.756,134.748,81.391,134.748L81.391,134.748z M78.534,134.674
			L78.534,134.674c-0.655-0.035-1.318-0.082-1.97-0.141l0.061-0.679c0.644,0.058,1.299,0.104,1.946,0.138L78.534,134.674
			L78.534,134.674z M84.458,134.662L84.458,134.662l-0.039-0.682c0.649-0.036,1.303-0.085,1.945-0.145l0.063,0.679
			C85.778,134.575,85.115,134.625,84.458,134.662L84.458,134.662z M74.599,134.321L74.599,134.321
			c-0.648-0.082-1.307-0.178-1.955-0.284l0.111-0.673c0.64,0.104,1.29,0.199,1.93,0.28L74.599,134.321L74.599,134.321z
			 M88.392,134.295L88.392,134.295l-0.089-0.677c0.643-0.084,1.291-0.181,1.93-0.288l0.113,0.673
			C89.699,134.111,89.042,134.21,88.392,134.295L88.392,134.295z M70.701,133.681L70.701,133.681
			c-0.645-0.131-1.294-0.274-1.929-0.429l0.16-0.662c0.627,0.151,1.267,0.293,1.904,0.423L70.701,133.681L70.701,133.681z
			 M92.287,133.639L92.287,133.639l-0.138-0.668c0.632-0.131,1.271-0.275,1.902-0.431l0.163,0.662
			C93.576,133.359,92.928,133.506,92.287,133.639L92.287,133.639z M66.86,132.753L66.86,132.753
			c-0.629-0.178-1.266-0.37-1.892-0.571l0.209-0.649c0.618,0.199,1.246,0.389,1.867,0.563L66.86,132.753L66.86,132.753z
			 M96.124,132.694L96.124,132.694l-0.188-0.655c0.621-0.177,1.249-0.369,1.865-0.57l0.212,0.648
			C97.389,132.32,96.753,132.516,96.124,132.694L96.124,132.694z M63.094,131.539L63.094,131.539
			c-0.618-0.225-1.24-0.464-1.849-0.711l0.257-0.632c0.601,0.244,1.215,0.48,1.825,0.702L63.094,131.539L63.094,131.539z
			 M99.88,131.469L99.88,131.469l-0.235-0.64c0.607-0.224,1.219-0.462,1.817-0.708l0.26,0.631
			C101.114,131.002,100.495,131.243,99.88,131.469L99.88,131.469z M59.425,130.048L59.425,130.048c-0.598-0.27-1.2-0.555-1.79-0.847
			l0.303-0.611c0.583,0.289,1.177,0.57,1.767,0.836L59.425,130.048L59.425,130.048z M103.53,129.97L103.53,129.97l-0.283-0.621
			c0.59-0.268,1.181-0.55,1.757-0.838l0.305,0.609C104.725,129.412,104.127,129.697,103.53,129.97L103.53,129.97z M55.878,128.289
			L55.878,128.289c-0.578-0.314-1.157-0.644-1.721-0.978l0.347-0.587c0.557,0.33,1.128,0.654,1.699,0.965L55.878,128.289
			L55.878,128.289z M107.055,128.206L107.055,128.206l-0.327-0.599c0.565-0.31,1.134-0.635,1.69-0.967l0.35,0.586
			C108.204,127.563,107.628,127.893,107.055,128.206L107.055,128.206z M52.475,126.272L52.475,126.272
			c-0.553-0.355-1.106-0.726-1.644-1.101l0.39-0.559c0.531,0.369,1.077,0.734,1.623,1.086L52.475,126.272L52.475,126.272z
			 M110.443,126.185L110.443,126.185l-0.371-0.572c0.542-0.351,1.086-0.717,1.615-1.089l0.393,0.559
			C111.543,125.459,110.992,125.83,110.443,126.185L110.443,126.185z M49.229,124.013L49.229,124.013
			c-0.526-0.396-1.05-0.806-1.557-1.218l0.43-0.529c0.501,0.406,1.019,0.811,1.538,1.202L49.229,124.013L49.229,124.013z
			 M113.675,123.92L113.675,123.92l-0.412-0.544c0.519-0.393,1.034-0.798,1.532-1.205l0.432,0.528
			C114.722,123.111,114.2,123.521,113.675,123.92L113.675,123.92z M46.161,121.521L46.161,121.521
			c-0.495-0.434-0.987-0.88-1.463-1.328l0.468-0.497c0.47,0.443,0.956,0.884,1.444,1.312L46.161,121.521L46.161,121.521z
			 M116.732,121.422L116.732,121.422l-0.45-0.512c0.488-0.43,0.973-0.872,1.44-1.314l0.469,0.495
			C117.718,120.539,117.228,120.987,116.732,121.422L116.732,121.422z M43.285,118.812L43.285,118.812
			c-0.46-0.468-0.918-0.949-1.361-1.432l0.502-0.461c0.437,0.477,0.889,0.952,1.344,1.413L43.285,118.812L43.285,118.812z
			 M119.601,118.706L119.601,118.706l-0.486-0.478c0.454-0.463,0.904-0.94,1.34-1.418l0.504,0.46
			C120.518,117.754,120.061,118.236,119.601,118.706L119.601,118.706z M40.616,115.899L40.616,115.899
			c-0.426-0.5-0.847-1.014-1.252-1.526l0.535-0.423c0.4,0.507,0.816,1.014,1.236,1.508L40.616,115.899L40.616,115.899z
			 M122.263,115.785L122.263,115.785l-0.521-0.44c0.419-0.494,0.833-1.003,1.233-1.513l0.536,0.421
			C123.107,114.77,122.687,115.285,122.263,115.785L122.263,115.785z M38.169,112.802L38.169,112.802
			c-0.387-0.529-0.77-1.072-1.136-1.614l0.565-0.382c0.362,0.534,0.739,1.07,1.122,1.593L38.169,112.802L38.169,112.802z
			 M124.704,112.677L124.704,112.677l-0.552-0.401c0.382-0.525,0.759-1.063,1.119-1.6l0.566,0.38
			C125.473,111.6,125.091,112.145,124.704,112.677L124.704,112.677z M35.957,109.534L35.957,109.534
			c-0.347-0.557-0.688-1.126-1.014-1.692l0.591-0.34c0.321,0.56,0.658,1.122,1.001,1.67L35.957,109.534L35.957,109.534z
			 M126.911,109.395L126.911,109.395l-0.579-0.359c0.341-0.551,0.677-1.115,0.998-1.679l0.593,0.338
			C127.598,108.265,127.257,108.837,126.911,109.395L126.911,109.395z M33.993,106.113L33.993,106.113
			c-0.304-0.578-0.602-1.171-0.885-1.761l0.615-0.295c0.28,0.582,0.574,1.168,0.875,1.738L33.993,106.113L33.993,106.113z
			 M128.871,105.957L128.871,105.957l-0.605-0.315c0.301-0.575,0.595-1.164,0.873-1.749l0.615,0.293
			C129.473,104.778,129.176,105.374,128.871,105.957L128.871,105.957z M32.288,102.56L32.288,102.56
			c-0.26-0.599-0.514-1.211-0.752-1.82l0.635-0.249c0.236,0.602,0.486,1.206,0.743,1.798L32.288,102.56L32.288,102.56z
			 M130.571,102.382L130.571,102.382l-0.626-0.27c0.257-0.599,0.506-1.207,0.74-1.811l0.636,0.247
			C131.085,101.159,130.832,101.775,130.571,102.382L130.571,102.382z M30.849,98.887L30.849,98.887
			c-0.216-0.619-0.424-1.251-0.617-1.878l0.651-0.2c0.191,0.618,0.396,1.241,0.609,1.853L30.849,98.887L30.849,98.887z
			 M132.002,98.688L132.002,98.688l-0.645-0.223c0.211-0.611,0.414-1.237,0.604-1.86l0.652,0.198
			C132.422,97.434,132.216,98.068,132.002,98.688L132.002,98.688z M29.685,95.11L29.685,95.11c-0.169-0.632-0.33-1.277-0.476-1.917
			l0.665-0.152c0.144,0.632,0.302,1.269,0.47,1.893L29.685,95.11L29.685,95.11z M133.152,94.901L133.152,94.901l-0.659-0.174
			c0.164-0.624,0.32-1.261,0.462-1.895l0.665,0.149C133.477,93.624,133.319,94.27,133.152,94.901L133.152,94.901z M28.805,91.259
			L28.805,91.259c-0.122-0.644-0.234-1.299-0.332-1.947l0.674-0.103c0.097,0.641,0.208,1.287,0.328,1.923L28.805,91.259
			L28.805,91.259z M134.017,91.047L134.017,91.047l-0.671-0.125c0.118-0.634,0.226-1.281,0.32-1.924l0.675,0.1
			C134.245,89.748,134.136,90.404,134.017,91.047L134.017,91.047z M28.213,87.353L28.213,87.353
			c-0.075-0.651-0.138-1.313-0.188-1.966l0.68-0.053c0.049,0.645,0.112,1.298,0.186,1.941L28.213,87.353L28.213,87.353z
			 M134.593,87.138L134.593,87.138l-0.678-0.074c0.07-0.645,0.131-1.298,0.178-1.942l0.68,0.05
			C134.726,85.823,134.665,86.485,134.593,87.138L134.593,87.138z M27.91,83.414L27.91,83.414c-0.026-0.655-0.041-1.319-0.043-1.975
			l0.682-0.003c0.003,0.647,0.017,1.304,0.043,1.95L27.91,83.414L27.91,83.414z M134.881,83.198L134.881,83.198l-0.682-0.024
			c0.023-0.648,0.035-1.305,0.035-1.951c0-0.146-0.001-0.292-0.002-0.438l0.682-0.006c0.001,0.148,0.002,0.297,0.002,0.444
			C134.916,81.877,134.904,82.541,134.881,83.198L134.881,83.198z M28.576,79.486L28.576,79.486l-0.682-0.022
			c0.021-0.656,0.055-1.32,0.1-1.973l0.681,0.047C28.629,78.183,28.597,78.838,28.576,79.486L28.576,79.486z M134.182,78.836
			L134.182,78.836c-0.029-0.647-0.07-1.303-0.123-1.947l0.68-0.055c0.054,0.653,0.096,1.317,0.125,1.972L134.182,78.836
			L134.182,78.836z M28.844,75.595L28.844,75.595l-0.678-0.072c0.069-0.652,0.151-1.312,0.244-1.96l0.675,0.097
			C28.993,74.3,28.912,74.951,28.844,75.595L28.844,75.595z M133.865,74.948L133.865,74.948c-0.075-0.642-0.165-1.292-0.265-1.933
			l0.674-0.105c0.102,0.649,0.191,1.308,0.269,1.958L133.865,74.948L133.865,74.948z M29.397,71.734L29.397,71.734l-0.671-0.122
			c0.117-0.645,0.248-1.296,0.388-1.938l0.666,0.146C29.641,70.455,29.512,71.098,29.397,71.734L29.397,71.734z M133.265,71.094
			L133.265,71.094c-0.123-0.633-0.261-1.275-0.407-1.907l0.664-0.155c0.149,0.64,0.288,1.291,0.413,1.932L133.265,71.094
			L133.265,71.094z M30.235,67.925L30.235,67.925l-0.661-0.171c0.165-0.634,0.343-1.274,0.532-1.903l0.653,0.196
			C30.573,66.667,30.397,67.299,30.235,67.925L30.235,67.925z M132.38,67.296L132.38,67.296c-0.171-0.625-0.354-1.255-0.548-1.872
			l0.65-0.204c0.196,0.625,0.383,1.264,0.555,1.896L132.38,67.296L132.38,67.296z M31.353,64.188L31.353,64.188l-0.646-0.22
			c0.211-0.621,0.438-1.248,0.673-1.863l0.637,0.243C31.785,62.957,31.562,63.576,31.353,64.188L31.353,64.188z M131.215,63.574
			L131.215,63.574c-0.216-0.61-0.446-1.224-0.685-1.827l0.634-0.251c0.241,0.61,0.475,1.232,0.693,1.85L131.215,63.574
			L131.215,63.574z M32.75,60.536L32.75,60.536l-0.627-0.267c0.258-0.605,0.531-1.213,0.81-1.807l0.617,0.291
			C33.273,59.337,33.005,59.938,32.75,60.536L32.75,60.536z M129.779,59.953L129.779,59.953c-0.259-0.589-0.534-1.183-0.817-1.766
			l0.614-0.297c0.286,0.59,0.564,1.192,0.827,1.789L129.779,59.953L129.779,59.953z M34.414,57L34.414,57l-0.606-0.313
			c0.302-0.584,0.618-1.17,0.941-1.741l0.594,0.335C35.024,55.845,34.712,56.423,34.414,57L34.414,57z M128.081,56.452
			L128.081,56.452c-0.305-0.573-0.623-1.145-0.946-1.702l0.591-0.342c0.327,0.564,0.649,1.145,0.957,1.724L128.081,56.452
			L128.081,56.452z M36.335,53.597L36.335,53.597l-0.581-0.356c0.344-0.56,0.703-1.12,1.066-1.666l0.567,0.378
			C37.028,52.492,36.674,53.045,36.335,53.597L36.335,53.597z M126.127,53.084L126.127,53.084c-0.344-0.545-0.703-1.094-1.068-1.629
			l0.563-0.385c0.37,0.542,0.734,1.097,1.083,1.65L126.127,53.084L126.127,53.084z M38.5,50.348L38.5,50.348l-0.553-0.398
			c0.384-0.533,0.783-1.065,1.186-1.582l0.538,0.418C39.273,49.297,38.879,49.822,38.5,50.348L38.5,50.348z M123.93,49.867
			L123.93,49.867c-0.385-0.521-0.783-1.042-1.187-1.546l0.533-0.425c0.408,0.512,0.813,1.039,1.202,1.566L123.93,49.867
			L123.93,49.867z M40.898,47.269L40.898,47.269l-0.522-0.439c0.42-0.501,0.857-1.002,1.298-1.49l0.506,0.457
			C41.745,46.279,41.313,46.774,40.898,47.269L40.898,47.269z M121.501,46.818L121.501,46.818c-0.421-0.49-0.857-0.98-1.297-1.456
			l0.501-0.463c0.445,0.482,0.888,0.979,1.313,1.475L121.501,46.818L121.501,46.818z M43.515,44.375L43.515,44.375l-0.489-0.476
			c0.457-0.47,0.929-0.938,1.403-1.391l0.471,0.493C44.432,43.449,43.966,43.911,43.515,44.375L43.515,44.375z M118.854,43.954
			L118.854,43.954c-0.457-0.459-0.928-0.916-1.4-1.357l0.465-0.498c0.479,0.446,0.956,0.909,1.419,1.375L118.854,43.954
			L118.854,43.954z M46.335,41.681L46.335,41.681l-0.453-0.51c0.49-0.434,0.995-0.866,1.501-1.283l0.433,0.526
			C47.317,40.826,46.819,41.251,46.335,41.681L46.335,41.681z M116.003,41.291L116.003,41.291c-0.489-0.424-0.993-0.845-1.498-1.251
			l0.428-0.531c0.512,0.412,1.021,0.838,1.517,1.268L116.003,41.291L116.003,41.291z M49.344,39.202L49.344,39.202L48.93,38.66
			c0.521-0.397,1.056-0.791,1.59-1.169l0.394,0.557C50.386,38.421,49.858,38.81,49.344,39.202L49.344,39.202z M112.963,38.844
			L112.963,38.844c-0.521-0.388-1.054-0.771-1.586-1.139l0.387-0.561c0.54,0.372,1.08,0.76,1.606,1.153L112.963,38.844
			L112.963,38.844z M52.526,36.953L52.526,36.953l-0.373-0.571c0.548-0.358,1.11-0.711,1.671-1.049l0.351,0.584
			C53.622,36.251,53.066,36.599,52.526,36.953L52.526,36.953z M109.749,36.625L109.749,36.625c-0.549-0.35-1.109-0.692-1.666-1.019
			l0.345-0.589c0.564,0.331,1.132,0.678,1.688,1.032L109.749,36.625L109.749,36.625z M55.862,34.944L55.862,34.944l-0.33-0.597
			c0.574-0.317,1.16-0.627,1.743-0.922l0.308,0.608C57.008,34.325,56.428,34.631,55.862,34.944L55.862,34.944z M106.38,34.65
			L106.38,34.65c-0.571-0.308-1.156-0.608-1.738-0.894l0.301-0.612c0.59,0.29,1.182,0.594,1.761,0.905L106.38,34.65L106.38,34.65z
			 M59.335,33.188L59.335,33.188l-0.285-0.62c0.594-0.273,1.202-0.539,1.805-0.79l0.262,0.629
			C60.521,32.656,59.921,32.918,59.335,33.188L59.335,33.188z M102.872,32.928L102.872,32.928c-0.593-0.264-1.198-0.521-1.801-0.762
			l0.254-0.633c0.61,0.245,1.224,0.505,1.824,0.772L102.872,32.928L102.872,32.928z M62.926,31.695L62.926,31.695l-0.238-0.639
			c0.615-0.229,1.242-0.45,1.864-0.656l0.214,0.647C64.153,31.251,63.534,31.469,62.926,31.695L62.926,31.695z M99.243,31.471
			L99.243,31.471c-0.612-0.22-1.236-0.431-1.854-0.626l0.206-0.65c0.626,0.198,1.258,0.412,1.878,0.634L99.243,31.471L99.243,31.471
			z M66.629,30.469L66.629,30.469l-0.19-0.655c0.629-0.183,1.271-0.356,1.908-0.516l0.166,0.662
			C67.884,30.117,67.25,30.289,66.629,30.469L66.629,30.469z M95.52,30.29L95.52,30.29c-0.623-0.173-1.259-0.336-1.889-0.485
			l0.157-0.664c0.639,0.151,1.282,0.317,1.914,0.492L95.52,30.29L95.52,30.29z M70.412,29.521L70.412,29.521l-0.141-0.667
			c0.641-0.135,1.294-0.261,1.94-0.372l0.116,0.672C71.689,29.264,71.045,29.388,70.412,29.521L70.412,29.521z M91.725,29.389
			L91.725,29.389c-0.635-0.126-1.281-0.242-1.92-0.343l0.108-0.673c0.646,0.103,1.301,0.22,1.944,0.348L91.725,29.389L91.725,29.389
			z M74.255,28.857L74.255,28.857l-0.091-0.676c0.648-0.087,1.309-0.164,1.962-0.228l0.066,0.679
			C75.547,28.695,74.896,28.771,74.255,28.857L74.255,28.857z M87.874,28.773L87.874,28.773c-0.644-0.079-1.296-0.146-1.94-0.201
			l0.058-0.679c0.653,0.056,1.313,0.124,1.965,0.204L87.874,28.773L87.874,28.773z M78.137,28.478L78.137,28.478l-0.041-0.681
			c0.655-0.04,1.319-0.068,1.974-0.084l0.017,0.682C79.44,28.411,78.784,28.439,78.137,28.478L78.137,28.478z M83.987,28.442
			L83.987,28.442c-0.645-0.031-1.301-0.051-1.95-0.059l0.008-0.682c0.657,0.008,1.321,0.028,1.975,0.06L83.987,28.442z"/>
		<polygon fill-rule="evenodd" clip-rule="evenodd" fill="#FFFFFF" points="138.75,73.967 146.424,81.221 138.75,88.474 		"/>
		<polygon fill-rule="evenodd" clip-rule="evenodd" fill="#FFFFFF" points="74.123,23.568 81.376,15.894 88.63,23.568 		"/>
		<polygon fill-rule="evenodd" clip-rule="evenodd" fill="#FFFFFF" points="47.085,126.633 36.529,126.931 36.827,116.375 		"/>
		<g>
			<path fill-rule="evenodd" clip-rule="evenodd" fill="#9CD2F3" d="M142.543,118.932c0,0,0.865,4.478-5.082,5.817l-0.005-0.002
				c0.112,2.177-0.231,4.411-1.092,6.572c-3.204,8.052-12.339,11.979-20.391,8.776c-8.057-3.207-11.987-12.337-8.783-20.388
				c3.207-8.057,12.336-11.988,20.393-8.781c4.424,1.761,7.603,5.309,9.038,9.486C138.664,121.364,142.543,118.932,142.543,118.932z
				"/>
			<g>
				<g>
					<path fill-rule="evenodd" clip-rule="evenodd" fill="#FFFFFF" d="M126.887,127.721H116.3c-0.276,0-0.501-0.225-0.501-0.501
						c0-0.277,0.225-0.501,0.501-0.501h10.587c0.276,0,0.501,0.224,0.501,0.501C127.388,127.496,127.163,127.721,126.887,127.721z"
						/>
					<path fill-rule="evenodd" clip-rule="evenodd" fill="#FFFFFF" d="M126.887,128.519H116.3c-0.716,0-1.299-0.583-1.299-1.299
						s0.583-1.299,1.299-1.299h10.587c0.716,0,1.299,0.583,1.299,1.299S127.603,128.519,126.887,128.519z"/>
				</g>
				<g>
					<path fill-rule="evenodd" clip-rule="evenodd" fill="#FFFFFF" d="M122.095,121.927v10.586c0,0.277-0.225,0.501-0.501,0.501
						c-0.277,0-0.502-0.224-0.502-0.501v-10.586c0-0.276,0.225-0.502,0.502-0.502C121.87,121.425,122.095,121.65,122.095,121.927z"
						/>
					<path fill-rule="evenodd" clip-rule="evenodd" fill="#FFFFFF" d="M121.594,133.812c-0.717,0-1.3-0.583-1.3-1.299v-10.586
						c0-0.717,0.583-1.3,1.3-1.3c0.716,0,1.299,0.583,1.299,1.3v10.586C122.893,133.229,122.31,133.812,121.594,133.812z"/>
				</g>
			</g>
		</g>
		<g>
			<g>
				<path fill-rule="evenodd" clip-rule="evenodd" fill="#F39D9A" d="M148.532,71.226l-2.553,3.263l1.085,1.625
					c0.469,0.702,0.851,1.195,1.146,1.479l-2.018,1.132l-1.544-2.491l-1.941,2.491l-1.957-1.025
					c0.581-0.622,1.137-1.261,1.666-1.918l1.086-1.372l-2.141-3.437l1.941-0.519l1.528,2.304l1.85-2.304L148.532,71.226z"/>
			</g>
			<g>
				<path fill-rule="evenodd" clip-rule="evenodd" fill="#F39D9A" d="M37.298,122.212l-3.959,9.004l-2.553-0.239
					c0.611-1.137,1.049-1.993,1.315-2.571l0.183-0.412l-2.339-5.781l2.186-0.626c0.102,0.462,0.545,1.728,1.33,3.796l1.727-3.796
					L37.298,122.212z"/>
			</g>
			<g>
				<path fill-rule="evenodd" clip-rule="evenodd" fill="#F39D9A" d="M78.816,14.041c-0.03,0.311-0.25,0.742-0.657,1.292
					l-3.241,4.369c1.793-0.009,2.991-0.071,3.592-0.187L78.343,21.3c-0.53,0.106-1.274,0.16-2.232,0.16H73.94
					c-1.07,0-1.605-0.289-1.605-0.866c0-0.391,0.26-0.906,0.78-1.545c0.794-0.977,1.829-2.362,3.103-4.156h-1.544
					c-0.54,0-1.106,0.009-1.697,0.026l-0.107-1.731h4.295C78.236,13.188,78.786,13.472,78.816,14.041z"/>
			</g>
		</g>
		<path fill-rule="evenodd" clip-rule="evenodd" fill="#FFFFFF" d="M81.904,134.734l-0.038-0.681
			c0.615-0.034,1.235-0.145,1.844-0.328l0.196,0.653C83.246,134.577,82.572,134.697,81.904,134.734L81.904,134.734z M85.773,133.596
			L85.773,133.596l-0.323-0.601c0.533-0.287,1.07-0.638,1.597-1.041l0.415,0.541C86.907,132.92,86.339,133.291,85.773,133.596
			L85.773,133.596z M88.973,131.178L88.973,131.178l-0.479-0.487c0.44-0.432,0.882-0.909,1.313-1.419l0.521,0.439
			C89.883,130.238,89.427,130.731,88.973,131.178L88.973,131.178z M91.554,128.142L91.554,128.142l-0.553-0.399
			c0.367-0.507,0.735-1.049,1.093-1.611l0.575,0.366C92.304,127.07,91.929,127.624,91.554,128.142L91.554,128.142z M93.69,124.796
			L93.69,124.796l-0.594-0.336c0.314-0.553,0.626-1.131,0.927-1.72l0.607,0.311C94.325,123.648,94.009,124.235,93.69,124.796
			L93.69,124.796z M95.498,121.271L95.498,121.271l-0.618-0.287c0.27-0.582,0.536-1.184,0.791-1.789l0.629,0.265
			C96.041,120.072,95.771,120.682,95.498,121.271L95.498,121.271z M97.036,117.62L97.036,117.62l-0.638-0.242
			c0.428-1.125,0.653-1.838,0.655-1.845l0.65,0.205C97.695,115.768,97.472,116.475,97.036,117.62z"/>
		<circle fill-rule="evenodd" clip-rule="evenodd" fill="#FFFFFF" cx="81.391" cy="81.223" r="1.048"/>
		<path fill-rule="evenodd" clip-rule="evenodd" fill="#FFFFFF" d="M81.392,102.492c-0.578,0-1.155-0.004-1.729-0.012l0.009-0.682
			c0.903,0.012,1.814,0.014,2.721,0.007l0.005,0.683C82.064,102.49,81.728,102.492,81.392,102.492L81.392,102.492z M85.133,102.44
			L85.133,102.44l-0.019-0.682c0.91-0.024,1.825-0.06,2.719-0.103l0.033,0.682C86.966,102.381,86.047,102.416,85.133,102.44
			L85.133,102.44z M76.929,102.419L76.929,102.419c-0.914-0.029-1.833-0.068-2.732-0.116l0.036-0.682
			c0.895,0.048,1.81,0.087,2.719,0.116L76.929,102.419L76.929,102.419z M90.596,102.18L90.596,102.18l-0.046-0.681
			c0.908-0.063,1.821-0.135,2.712-0.215l0.062,0.68C92.428,102.044,91.51,102.117,90.596,102.18L90.596,102.18z M71.467,102.129
			L71.467,102.129c-0.903-0.066-1.82-0.145-2.726-0.23l0.065-0.68c0.9,0.086,1.813,0.164,2.711,0.23L71.467,102.129L71.467,102.129z
			 M96.046,101.688L96.046,101.688l-0.076-0.678c0.907-0.102,1.815-0.214,2.7-0.334l0.092,0.676
			C97.872,101.474,96.958,101.586,96.046,101.688L96.046,101.688z M66.021,101.607L66.021,101.607
			c-0.909-0.108-1.822-0.227-2.713-0.353l0.096-0.676c0.886,0.126,1.794,0.244,2.697,0.351L66.021,101.607L66.021,101.607z
			 M101.469,100.953L101.469,100.953l-0.107-0.674c0.903-0.145,1.805-0.301,2.68-0.463l0.125,0.67
			C103.285,100.65,102.378,100.808,101.469,100.953L101.469,100.953z M60.604,100.838L60.604,100.838
			c-0.908-0.151-1.815-0.314-2.694-0.484l0.129-0.67c0.874,0.169,1.774,0.331,2.677,0.481L60.604,100.838L60.604,100.838z
			 M106.851,99.95L106.851,99.95l-0.143-0.667c0.893-0.191,1.785-0.396,2.65-0.607l0.162,0.663
			C108.648,99.552,107.75,99.758,106.851,99.95L106.851,99.95z M55.23,99.798L55.23,99.798c-0.901-0.2-1.797-0.413-2.664-0.633
			l0.167-0.661c0.86,0.218,1.75,0.43,2.644,0.628L55.23,99.798L55.23,99.798z M112.171,98.646L112.171,98.646l-0.183-0.657
			c0.886-0.247,1.762-0.507,2.604-0.773l0.206,0.649C113.948,98.135,113.064,98.397,112.171,98.646L112.171,98.646z M49.921,98.451
			L49.921,98.451c-0.886-0.256-1.768-0.526-2.619-0.805l0.212-0.648c0.844,0.275,1.717,0.544,2.596,0.798L49.921,98.451
			L49.921,98.451z M117.396,96.988L117.396,96.988l-0.23-0.642c0.869-0.313,1.721-0.641,2.532-0.975l0.259,0.631
			C119.136,96.341,118.274,96.672,117.396,96.988L117.396,96.988z M44.714,96.742L44.714,96.742
			c-0.875-0.326-1.733-0.668-2.548-1.016l0.268-0.628c0.806,0.344,1.653,0.682,2.519,1.004L44.714,96.742L44.714,96.742z
			 M122.469,94.895L122.469,94.895l-0.292-0.616c0.839-0.398,1.65-0.813,2.409-1.232l0.33,0.597
			C124.145,94.069,123.321,94.49,122.469,94.895L122.469,94.895z M39.668,94.582L39.668,94.582
			c-0.846-0.416-1.663-0.852-2.427-1.293l0.341-0.59c0.751,0.434,1.555,0.861,2.387,1.271L39.668,94.582L39.668,94.582z
			 M127.274,92.222L127.274,92.222l-0.375-0.57c0.781-0.515,1.513-1.048,2.175-1.587l0.431,0.529
			C128.824,91.146,128.074,91.694,127.274,92.222L127.274,92.222z M34.912,91.819L34.912,91.819
			c-0.48-0.333-0.943-0.675-1.375-1.017l-0.02-0.015c-0.271-0.215-0.538-0.437-0.792-0.657l0.447-0.516
			c0.243,0.211,0.498,0.423,0.756,0.628l0.02,0.015c0.425,0.336,0.88,0.673,1.354,1L34.912,91.819L34.912,91.819z M131.539,88.714
			L131.539,88.714l-0.497-0.467c0.641-0.683,1.193-1.385,1.644-2.088l0.574,0.367C132.788,87.265,132.209,88.001,131.539,88.714
			L131.539,88.714z M30.756,88.174L30.756,88.174c-0.641-0.743-1.183-1.51-1.612-2.279l0.596-0.332
			c0.406,0.729,0.922,1.458,1.533,2.166L30.756,88.174L30.756,88.174z M134.471,84L134.471,84l-0.649-0.21
			c0.274-0.846,0.413-1.71,0.413-2.567h0.683C134.917,82.152,134.767,83.087,134.471,84L134.471,84z M28.109,83.28L28.109,83.28
			c-0.162-0.679-0.244-1.371-0.244-2.058c0-0.247,0.011-0.502,0.033-0.759l0.68,0.058c-0.02,0.237-0.031,0.474-0.031,0.701
			c0,0.634,0.076,1.272,0.225,1.899L28.109,83.28L28.109,83.28z M134.145,80.02L134.145,80.02c-0.126-0.836-0.387-1.678-0.775-2.501
			l0.616-0.291c0.418,0.883,0.697,1.788,0.833,2.691L134.145,80.02L134.145,80.02z M29.204,77.99L29.204,77.99l-0.631-0.259
			c0.337-0.821,0.799-1.641,1.374-2.437l0.553,0.399C29.957,76.446,29.521,77.219,29.204,77.99L29.204,77.99z M131.967,75.274
			L131.967,75.274c-0.517-0.661-1.128-1.32-1.815-1.959l0.464-0.5c0.714,0.663,1.35,1.349,1.889,2.039L131.967,75.274
			L131.967,75.274z M32.248,73.682L32.248,73.682l-0.478-0.487c0.624-0.612,1.329-1.22,2.097-1.806l0.414,0.542
			C33.536,72.5,32.852,73.089,32.248,73.682L32.248,73.682z M128.074,71.611L128.074,71.611c-0.692-0.507-1.448-1.009-2.246-1.492
			l0.353-0.584c0.815,0.493,1.589,1.007,2.297,1.526L128.074,71.611L128.074,71.611z M36.499,70.399L36.499,70.399l-0.362-0.578
			c0.746-0.468,1.549-0.929,2.386-1.372l0.319,0.603C38.02,69.487,37.231,69.94,36.499,70.399L36.499,70.399z M123.466,68.804
			L123.466,68.804c-0.775-0.397-1.599-0.789-2.445-1.164l0.276-0.624c0.858,0.38,1.692,0.777,2.479,1.181L123.466,68.804
			L123.466,68.804z M41.272,67.859L41.272,67.859l-0.283-0.621c0.807-0.367,1.657-0.729,2.527-1.073l0.251,0.634
			C42.908,67.14,42.068,67.497,41.272,67.859L41.272,67.859z M118.515,66.605L118.515,66.605c-0.386-0.149-0.778-0.296-1.176-0.44
			c-0.449-0.164-0.911-0.326-1.376-0.484l0.219-0.646c0.47,0.159,0.938,0.323,1.391,0.488c0.401,0.146,0.798,0.294,1.188,0.445
			L118.515,66.605L118.515,66.605z M46.312,65.855L46.312,65.855l-0.224-0.644c0.842-0.293,1.718-0.579,2.605-0.85l0.2,0.652
			C48.014,65.282,47.146,65.565,46.312,65.855L46.312,65.855z M113.376,64.858L113.376,64.858c-0.85-0.253-1.73-0.5-2.616-0.732
			l0.173-0.66c0.894,0.234,1.781,0.483,2.638,0.738L113.376,64.858L113.376,64.858z M51.504,64.264L51.504,64.264l-0.177-0.659
			c0.864-0.232,1.757-0.458,2.656-0.67L54.14,63.6C53.248,63.81,52.361,64.034,51.504,64.264L51.504,64.264z M108.121,63.478
			L108.121,63.478c-0.868-0.2-1.762-0.392-2.658-0.572l0.135-0.668c0.901,0.181,1.802,0.375,2.676,0.576L108.121,63.478
			L108.121,63.478z M56.794,63.013L56.794,63.013l-0.138-0.668c0.878-0.181,1.783-0.355,2.688-0.517l0.12,0.671
			C58.566,62.66,57.667,62.833,56.794,63.013L56.794,63.013z M102.79,62.406L102.79,62.406c-0.64-0.111-1.294-0.219-1.944-0.319
			l-0.028-0.004c-0.236-0.037-0.474-0.073-0.712-0.108l0.101-0.675c0.23,0.034,0.46,0.069,0.689,0.104l0.028,0.004
			c0.663,0.103,1.331,0.212,1.983,0.326L102.79,62.406L102.79,62.406z M62.147,62.054L62.147,62.054l-0.103-0.674
			c0.887-0.136,1.798-0.264,2.708-0.382l0.087,0.676C63.936,61.791,63.03,61.919,62.147,62.054L62.147,62.054z M97.409,61.607
			L97.409,61.607c-0.889-0.111-1.799-0.214-2.704-0.306l0.069-0.678c0.91,0.092,1.825,0.196,2.719,0.307L97.409,61.607
			L97.409,61.607z M67.541,61.357L67.541,61.357l-0.072-0.678c0.897-0.095,1.813-0.182,2.723-0.258l0.057,0.679
			C69.344,61.176,68.433,61.263,67.541,61.357L67.541,61.357z M91.995,61.055L91.995,61.055c-0.895-0.071-1.808-0.134-2.716-0.188
			l0.04-0.681c0.912,0.054,1.831,0.117,2.729,0.189L91.995,61.055L91.995,61.055z M72.962,60.901L72.962,60.901l-0.043-0.681
			c0.431-0.027,0.863-0.052,1.297-0.075c0.476-0.025,0.954-0.048,1.435-0.068l0.029,0.681c-0.478,0.021-0.954,0.043-1.428,0.068
			C73.82,60.849,73.39,60.874,72.962,60.901L72.962,60.901z M86.562,60.736L86.562,60.736c-0.901-0.034-1.817-0.06-2.721-0.077
			l0.012-0.682c0.908,0.017,1.828,0.042,2.734,0.077L86.562,60.736L86.562,60.736z M78.398,60.671L78.398,60.671l-0.015-0.682
			c0.905-0.02,1.825-0.03,2.734-0.032l0.001,0.682C80.214,60.641,79.299,60.651,78.398,60.671z"/>
		<g>
			<path fill-rule="evenodd" clip-rule="evenodd" fill="#DCE7F7" d="M81.376,28.039c-0.088,0-0.177,0-0.264,0.002h-0.027
				c-7.231,0.127-13.656,4.921-17.736,11.987c-0.605,1.042-1.155,2.132-1.648,3.267c-1.88,4.299-2.955,9.198-2.955,14.274
				l4.685-3.719l3.922,3.719c0,0,0.256-5.067,1.448-11.005c1.604-7.995,4.903-17.568,11.557-18.458c0.008,0,0.016-0.002,0.023-0.003
				c0.102-0.013,0.205-0.024,0.308-0.034c0.028-0.002,0.056-0.003,0.083-0.006C80.971,28.047,81.172,28.039,81.376,28.039z"/>
			<path fill-rule="evenodd" clip-rule="evenodd" fill="#DCE7F7" d="M108.764,99.168l-3.72-3.92c0,0,29.531-1.495,29.531-14.025
				c0,12.477-13.921,22.63-29.531,22.63L108.764,99.168z"/>
			<path fill-rule="evenodd" clip-rule="evenodd" fill="#DCE7F7" d="M56.552,99.731L48.7,91.705l-0.057,2.481
				c-4.226-0.195-18.862-4.035-20.437-12.964c0,10.546,5.54,19.311,20.125,19.929l-0.001,2.701L56.552,99.731z"/>
			<path fill-rule="evenodd" clip-rule="evenodd" fill="#DCE7F7" d="M111.308,76.481l-0.352-9.214l2.103,0.966
				c2.851-3.127,11.11-17.228,5.91-24.654c8.681,8.681,3.635,22.005,0.148,28.004l1.614,1.236L111.308,76.481z"/>
			<path fill-rule="evenodd" clip-rule="evenodd" fill="#DCE7F7" d="M81.424,134.402c-0.098,0-0.195,0-0.291-0.003
				c-0.007,0-0.014-0.002-0.021,0c-0.043-0.002-0.084-0.005-0.125-0.007c-0.02,0.002-0.039,0-0.059-0.002
				c-6.467-0.243-11.839-5.261-15.458-11.063c-0.957-1.531-1.791-3.121-2.489-4.689c-1.646-3.688-2.546-7.268-2.546-9.789h-2.703
				l4.122-8.22l8.027,7.852l-2.483,0.057c0.059,1.289,0.555,4.045,1.469,7.303c0,0,0,0,0,0.002
				C70.953,123.274,75.216,133.309,81.424,134.402z"/>
			<path fill-rule="evenodd" clip-rule="evenodd" fill="#DCE7F7" d="M49.861,88.38l2.337,4.873
				c9.428-14.297,55.708-60.729,66.8-49.637c-17.969-17.969-66.92,31.096-74.84,46.568L49.861,88.38z"/>
		</g>
	</g>
</g>
<linearGradient id="SVGID_2_" gradientUnits="userSpaceOnUse" x1="147.6826" y1="127.168" x2="132.6971" y2="109.9797">
	<stop  offset="0.1232" style="stop-color:#F1F1F2;stop-opacity:0.85"/>
	<stop  offset="0.2847" style="stop-color:#F3F3F4;stop-opacity:0.6934"/>
	<stop  offset="1" style="stop-color:#F8F8F9;stop-opacity:0"/>
	<stop  offset="1" style="stop-color:#FFFFFF;stop-opacity:0"/>
</linearGradient>
<path fill-rule="evenodd" clip-rule="evenodd" fill="url(#SVGID_2_)" d="M151.861,108.822c0,1.762-1.068,9.296-12.265,9.296
	c-11.197,0-23.157,0-23.157,0l-0.115-9.296C155.443,96.382,151.861,105.586,151.861,108.822z"/>
</svg>
