<?xml version="1.0" encoding="utf-8"?>
<!-- Generator: Adobe Illustrator 15.0.0, SVG Export Plug-In . SVG Version: 6.00 Build 0)  -->
<!DOCTYPE svg PUBLIC "-//W3C//DTD SVG 1.1//EN" "http://www.w3.org/Graphics/SVG/1.1/DTD/svg11.dtd">
<svg version="1.1" id="Layer_1" xmlns="http://www.w3.org/2000/svg" xmlns:xlink="http://www.w3.org/1999/xlink" x="0px" y="0px"
	 width="170px" height="154px" viewBox="0 0 170 154" enable-background="new 0 0 170 154" xml:space="preserve">
<g>
	<g>
		<polygon fill-rule="evenodd" clip-rule="evenodd" fill="#9CD2F3" points="45.233,92.922 87.59,135.396 95.478,143.304 
			95.478,46.131 89.456,48.836 		"/>
		<polygon fill-rule="evenodd" clip-rule="evenodd" fill="#FBFAF9" points="37.088,64.569 79.445,107.043 87.333,114.951 
			87.333,17.779 81.312,20.483 		"/>
		<polygon fill-rule="evenodd" clip-rule="evenodd" fill="#FBFAF9" points="114.484,57.65 138.086,81.187 95.467,123.638 
			95.568,68.92 		"/>
		<polygon fill-rule="evenodd" clip-rule="evenodd" fill="#EEEFEF" points="95.459,123.638 87.004,115.156 87.004,60.343 
			95.561,68.92 		"/>
		<polygon fill-rule="evenodd" clip-rule="evenodd" fill="#DCE7F7" points="95.569,68.919 95.555,76.945 87.01,85.466 87.01,60.343 
					"/>
		<polygon fill-rule="evenodd" clip-rule="evenodd" fill="#DCE7F7" points="95.467,90.966 121.669,64.819 114.484,57.65 
			95.714,57.65 		"/>
		<path fill-rule="evenodd" clip-rule="evenodd" fill="#BD6F52" d="M87.011,18.034v12.477c0,0,4.331,4.021,0,8.352v11.961
			c-11.96,0-3.986-12.099-3.986-12.099s-4.674-2.028-4.674-10.586C78.35,18.343,87.011,18.034,87.011,18.034z"/>
		<path fill-rule="evenodd" clip-rule="evenodd" fill="#BD6F52" d="M87.492,10.048l23.372,2.475c0,0-1.649,7.149-11.686,7.149
			C89.142,19.672,87.492,10.048,87.492,10.048z"/>
		<path fill-rule="evenodd" clip-rule="evenodd" fill="#BD6F52" d="M121.141,29.273v6.29c-3.299,0-10.311-15.879,0-20.519
			c10.312-4.64,18.664,6.805,11.961,13.507c0,0,8.455,18.148-11.444,18.148l0.274-4.159c0,0,6.428-2.097,6.428-6.719
			C128.359,31.198,126.142,29.273,121.141,29.273z"/>
		<polygon fill-rule="evenodd" clip-rule="evenodd" fill="#BD6F52" points="87.011,60.343 87.011,53.631 95.568,38.787 
			95.568,68.92 		"/>
		<path fill-rule="evenodd" clip-rule="evenodd" fill="#1B9CD6" d="M95.467,76.344l0.102-7.424l7.81-2.862
			C103.378,66.058,103.922,76.344,95.467,76.344z"/>
		<path fill-rule="evenodd" clip-rule="evenodd" fill="#9E5C4A" d="M95.568,38.787c0.608,4.172-0.692,8.567-3.902,11.776
			c-3.21,3.21-7.604,4.51-11.776,3.902L95.568,38.787z"/>
		<path fill-rule="evenodd" clip-rule="evenodd" fill="#9E5C4A" d="M121.657,46.699c0,0-6.607,17.409-26.089,22.221l0.043-30.133
			C95.611,38.787,109.357,67.683,121.657,46.699z"/>
		<path fill-rule="evenodd" clip-rule="evenodd" fill="#BD6F52" d="M95.611,38.787c-0.607,4.172,0.693,8.567,3.903,11.776
			c3.209,3.21,7.604,4.51,11.775,3.902L95.611,38.787z"/>
		<path fill-rule="evenodd" clip-rule="evenodd" fill="#1B9CD6" d="M95.467,123.638V76.344c0,0,13.146,10.312,13.146,34.234
			L95.467,123.638z"/>
		<path fill-rule="evenodd" clip-rule="evenodd" fill="#9CD2F3" d="M114.484,57.65c0,0,18.182,0.062,32.546,14.425l-8.925,9.13
			L114.484,57.65z"/>
		<path fill-rule="evenodd" clip-rule="evenodd" fill="#9CD2F3" d="M146.607,89.685c0,0-30.874,33.953-51.141,33.953l42.639-42.433
			L146.607,89.685z"/>
		<g>
			<path fill-rule="evenodd" clip-rule="evenodd" fill="#FBFAF9" d="M22.443,34.138c0.117,0.792-0.102,1.553-0.657,2.286
				c-0.559,0.715-1.26,1.194-2.104,1.434c-0.962,0.163-1.834,0.054-2.618-0.328c-0.833-0.422-1.339-1.039-1.521-1.851
				c-0.196-0.877-0.032-1.662,0.492-2.353c0.54-0.711,1.313-1.18,2.32-1.405c0.931-0.208,1.785-0.094,2.561,0.341
				C21.685,32.664,22.194,33.29,22.443,34.138L22.443,34.138z M19.906,34.704L19.906,34.704c-0.113-0.235-0.269-0.4-0.469-0.495
				c-0.201-0.094-0.397-0.121-0.587-0.078c-0.266,0.059-0.478,0.185-0.634,0.376c-0.142,0.171-0.187,0.372-0.134,0.604
				c0.041,0.183,0.161,0.32,0.362,0.415c0.182,0.099,0.43,0.139,0.745,0.121c0.217-0.101,0.386-0.234,0.509-0.401
				C19.824,35.097,19.893,34.916,19.906,34.704L19.906,34.704z M29.018,30.61l-2.957-0.774l-7.516,21.967l2.95,0.75L29.018,30.61
				L29.018,30.61L29.018,30.61z M31.765,46.531L31.765,46.531c0.12,0.808-0.089,1.568-0.628,2.279
				c-0.509,0.67-1.21,1.148-2.104,1.435c-1.026,0.142-1.914,0.01-2.663-0.396c-0.753-0.423-1.216-1.023-1.39-1.802
				c-0.188-0.845-0.022-1.621,0.498-2.328c0.479-0.715,1.222-1.185,2.229-1.41c0.913-0.204,1.766-0.09,2.561,0.341
				C31.017,45.055,31.515,45.683,31.765,46.531L31.765,46.531z M29.228,47.097c-0.029,0.407-0.259,0.719-0.689,0.936
				c-0.315,0.019-0.553-0.016-0.711-0.102c-0.163-0.103-0.266-0.254-0.311-0.453c-0.114-0.513,0.113-0.834,0.684-0.961
				c0.19-0.042,0.395-0.019,0.615,0.071C28.977,46.692,29.115,46.861,29.228,47.097L29.228,47.097z"/>
		</g>
		<g>
			<path fill-rule="evenodd" clip-rule="evenodd" fill="#FBFAF9" d="M138.237,49.348c0.3,0.373,0.418,0.832,0.354,1.378
				c-0.071,0.539-0.288,0.998-0.651,1.378c-0.446,0.375-0.93,0.583-1.449,0.624c-0.558,0.034-1.006-0.13-1.346-0.494
				c-0.367-0.394-0.52-0.848-0.459-1.363c0.063-0.53,0.32-1.006,0.771-1.427c0.417-0.389,0.893-0.589,1.425-0.6
				C137.399,48.818,137.852,48.986,138.237,49.348L138.237,49.348z M137.1,50.409L137.1,50.409c-0.129-0.087-0.26-0.125-0.392-0.113
				s-0.241,0.058-0.326,0.137c-0.119,0.111-0.19,0.24-0.214,0.386c-0.021,0.131,0.018,0.249,0.114,0.353
				c0.076,0.082,0.18,0.117,0.312,0.104c0.124-0.004,0.265-0.059,0.422-0.164c0.081-0.118,0.128-0.237,0.142-0.361
				C137.177,50.637,137.157,50.522,137.1,50.409L137.1,50.409z M140.56,45.536L140.56,45.536l2.769,13.599l-1.749,0.507
				l-2.778-13.61L140.56,45.536L140.56,45.536z M146.801,52.917c-0.386-0.362-0.833-0.535-1.343-0.518
				c-0.541,0.019-1.016,0.219-1.425,0.6c-0.451,0.421-0.692,0.889-0.723,1.403c-0.054,0.523,0.096,0.973,0.449,1.352
				c0.325,0.349,0.746,0.519,1.263,0.508c0.51-0.018,1.008-0.218,1.493-0.602c0.375-0.418,0.592-0.878,0.651-1.378
				C147.229,53.752,147.107,53.297,146.801,52.917L146.801,52.917L146.801,52.917z M145.663,53.978
				c0.108,0.219,0.085,0.449-0.071,0.692c-0.157,0.104-0.29,0.159-0.397,0.163c-0.115-0.004-0.215-0.05-0.298-0.139
				c-0.214-0.23-0.194-0.465,0.062-0.703c0.085-0.079,0.198-0.129,0.339-0.149C145.412,53.845,145.534,53.891,145.663,53.978
				L145.663,53.978z"/>
		</g>
		<g>
			<defs>
				<path id="SVGID_1_" d="M119.645,37.966c0,0.972-0.59,5.128-6.766,5.128c-6.177,0-12.773,0-12.773,0l-0.064-5.128
					C121.619,31.104,119.645,36.182,119.645,37.966z"/>
			</defs>
			<linearGradient id="SVGID_2_" gradientUnits="userSpaceOnUse" x1="118.1836" y1="48.3809" x2="109.0087" y2="38.5815">
				<stop  offset="0.1232" style="stop-color:#F1F1F2;stop-opacity:0.85"/>
				<stop  offset="0.2847" style="stop-color:#F3F3F4;stop-opacity:0.6934"/>
				<stop  offset="1" style="stop-color:#F8F8F9;stop-opacity:0"/>
				<stop  offset="1" style="stop-color:#FFFFFF;stop-opacity:0"/>
			</linearGradient>
			<use xlink:href="#SVGID_1_"  overflow="visible" fill-rule="evenodd" clip-rule="evenodd" fill="url(#SVGID_2_)"/>
			<clipPath id="SVGID_3_">
				<use xlink:href="#SVGID_1_"  overflow="visible"/>
			</clipPath>
		</g>
		<g>
			<g>
				<g>
					<path fill-rule="evenodd" clip-rule="evenodd" fill="#F39D9A" d="M52.536,45.833c11.407-2.446,22.638,4.82,25.083,16.228
						c2.445,11.407-4.821,22.637-16.229,25.083c-1.254,0.269-3.746,0.461-3.746,0.461l-0.652-20.978l-18.355,10.38
						c-1.062-1.85-1.858-3.894-2.329-6.09C33.863,59.509,41.129,48.278,52.536,45.833z"/>
				</g>
				<linearGradient id="SVGID_4_" gradientUnits="userSpaceOnUse" x1="65.4429" y1="95.9941" x2="43.0366" y2="36.018">
					<stop  offset="0" style="stop-color:#6AB686;stop-opacity:0.5"/>
					<stop  offset="0.3256" style="stop-color:#A8D0B1;stop-opacity:0.3351"/>
					<stop  offset="0.7771" style="stop-color:#E8F2EA;stop-opacity:0.1064"/>
					<stop  offset="0.9872" style="stop-color:#FFFFFF;stop-opacity:0"/>
					<stop  offset="1" style="stop-color:#AD9E96;stop-opacity:0.2714"/>
				</linearGradient>
				<circle fill-rule="evenodd" clip-rule="evenodd" fill="url(#SVGID_4_)" cx="55.818" cy="70.233" r="21.124"/>
				<path fill-rule="evenodd" clip-rule="evenodd" fill="#F08357" d="M56.084,68.231l-3.912,26.489c0,0-13.086-3.157-17.332-11.577
					L56.084,68.231z"/>
			</g>
			<path fill-rule="evenodd" clip-rule="evenodd" fill="#FFF8BD" d="M52.536,45.833l4.457,20.793l-18.355,10.38
				c-1.062-1.85-1.858-3.894-2.329-6.09c-1.469-6.855,0.567-13.645,4.901-18.503C44.089,49.185,47.982,46.809,52.536,45.833z"/>
		</g>
		<g>
			<path fill-rule="evenodd" clip-rule="evenodd" fill="#F39D9A" d="M65.855,111.518c0.025,1.975-0.354,3.358-1.134,4.152
				c-0.796,0.809-1.738,1.157-2.826,1.043c-0.942-0.103-1.835-0.576-2.678-1.419c-0.94-0.94-1.462-1.941-1.563-3.003
				c-0.088-1.062,0.281-2.005,1.105-2.83c0.81-0.81,1.74-1.14,2.791-0.988c0.939,0.146,1.934,0.72,2.981,1.723
				c-0.266,0.214-0.575,0.497-0.927,0.849c-0.817,0.817-1.709,1.748-2.674,2.792c0.38,0.365,0.789,0.623,1.224,0.774
				c0.6,0.211,1.08,0.135,1.44-0.225c0.3-0.3,0.407-0.732,0.32-1.3c-0.084-0.504-0.236-0.94-0.455-1.31L65.855,111.518
				L65.855,111.518z M61.611,110.647L61.611,110.647c-0.271-0.226-0.56-0.342-0.867-0.35c-0.286,0-0.557,0.126-0.812,0.381
				c-0.322,0.322-0.416,0.769-0.28,1.339c0.039,0.145,0.1,0.279,0.181,0.406L61.611,110.647z"/>
			<path fill-rule="evenodd" clip-rule="evenodd" fill="#F39D9A" d="M65.151,99.365l1.261,1.463c0.66,0.766,2.312,2.529,4.957,5.294
				c0.501,0.531,0.84,0.976,1.019,1.334c0.094,0.259,0.088,0.447-0.018,0.566c-0.2,0.16-0.487,0.181-0.863,0.06l-5.925-1.719
				l4.257,4.189l-1.833,1.677c-0.932-1.067-1.977-2.231-3.132-3.492l-2.571-2.819c-0.824-0.899-1.288-1.475-1.389-1.727
				c-0.119-0.313-0.098-0.548,0.059-0.706c0.12-0.12,0.269-0.189,0.444-0.208c0.161-0.005,0.508,0.073,1.042,0.232l5.05,1.496
				l-4.147-3.968L65.151,99.365z"/>
			<path fill-rule="evenodd" clip-rule="evenodd" fill="#F39D9A" d="M73.342,96.152c0.791,0.79,1.186,1.695,1.186,2.715
				c-0.003,0.957-0.596,2.059-1.777,3.306l1.335,1.448c0.357,0.388,0.794,0.839,1.31,1.355l-1.811,1.653
				c-3.376-3.706-5.919-6.422-7.63-8.147c0.582-0.647,1.05-1.147,1.402-1.5c1.207-1.207,2.326-1.835,3.355-1.885
				C71.728,95.063,72.604,95.414,73.342,96.152L73.342,96.152z M71.61,97.884L71.61,97.884c-0.424-0.424-0.843-0.626-1.257-0.604
				c-0.399,0.021-0.839,0.271-1.319,0.751l-0.044,0.045l2.455,2.68c0.119-0.106,0.279-0.261,0.482-0.463
				C72.552,99.523,72.447,98.721,71.61,97.884z"/>
			<path fill-rule="evenodd" clip-rule="evenodd" fill="#F39D9A" d="M82.178,93.471c0.674,0.646,0.999,1.419,0.971,2.322
				c-0.042,1.008-0.456,1.905-1.243,2.692c-0.636,0.623-1.75,1.129-3.34,1.518l-0.507-2.216c1.143-0.072,1.945-0.319,2.408-0.742
				c0.422-0.462,0.337-0.997-0.256-1.605c-0.245-0.199-0.504-0.339-0.778-0.418s-0.706-0.038-1.297,0.12
				c-1.183,0.557-2.146,0.77-2.892,0.639c-0.643-0.102-1.212-0.401-1.708-0.898c-0.594-0.594-0.86-1.302-0.796-2.123
				c0.064-0.836,0.459-1.617,1.187-2.344c0.622-0.622,1.346-0.941,2.171-0.956c0.539-0.016,1.283,0.121,2.234,0.412l-0.897,2.387
				c-0.639-0.368-1.098-0.581-1.381-0.638c-0.269-0.045-0.501,0.03-0.696,0.226c-0.308,0.308-0.259,0.663,0.146,1.068
				c0.249,0.249,0.512,0.377,0.791,0.386c0.209,0,0.521-0.078,0.937-0.231c1.249-0.491,2.277-0.663,3.083-0.517
				C81.059,92.683,81.68,92.989,82.178,93.471z"/>
		</g>
		<g>
			<path fill-rule="evenodd" clip-rule="evenodd" fill="#F39D9A" d="M128.309,124.27l-3.973,3.974l-0.934-0.935l3.973-3.972
				L128.309,124.27L128.309,124.27z M130.259,126.22l-0.951-0.95l-3.972,3.973l0.95,0.95L130.259,126.22L130.259,126.22z"/>
			<path fill-rule="evenodd" clip-rule="evenodd" fill="#F39D9A" d="M129.242,119.287c0.24,0.278,0.343,0.627,0.309,1.048
				c-0.04,0.415-0.195,0.772-0.463,1.073c-0.332,0.3-0.697,0.472-1.095,0.518c-0.427,0.04-0.774-0.074-1.045-0.344
				c-0.292-0.292-0.421-0.637-0.388-1.033c0.033-0.408,0.218-0.78,0.553-1.115c0.31-0.31,0.669-0.476,1.076-0.498
				C128.586,118.902,128.938,119.021,129.242,119.287L129.242,119.287z M128.399,120.131L128.399,120.131
				c-0.102-0.063-0.203-0.089-0.304-0.076c-0.102,0.014-0.184,0.052-0.247,0.114c-0.088,0.089-0.139,0.189-0.152,0.303
				c-0.014,0.101,0.019,0.189,0.096,0.267c0.061,0.061,0.142,0.084,0.242,0.071c0.095-0.007,0.201-0.052,0.318-0.137
				c0.06-0.092,0.093-0.186,0.099-0.28C128.464,120.304,128.446,120.216,128.399,120.131L128.399,120.131z M130.923,116.302
				L130.923,116.302l2.484,10.354l-1.328,0.436l-2.493-10.362L130.923,116.302L130.923,116.302z M135.905,121.796
				c-0.306-0.267-0.654-0.387-1.044-0.361c-0.414,0.029-0.772,0.195-1.076,0.498c-0.336,0.336-0.508,0.7-0.518,1.096
				c-0.027,0.402,0.1,0.743,0.38,1.024c0.26,0.26,0.587,0.378,0.983,0.356c0.39-0.027,0.766-0.194,1.129-0.501
				c0.275-0.332,0.43-0.689,0.462-1.074C136.256,122.426,136.15,122.079,135.905,121.796L135.905,121.796L135.905,121.796z
				 M135.061,122.64c0.09,0.165,0.077,0.343-0.036,0.533c-0.118,0.085-0.218,0.13-0.301,0.136c-0.089,0-0.166-0.033-0.231-0.1
				c-0.171-0.171-0.161-0.351,0.028-0.54c0.063-0.063,0.148-0.104,0.256-0.124C134.864,122.545,134.96,122.576,135.061,122.64
				L135.061,122.64z"/>
			<path fill-rule="evenodd" clip-rule="evenodd" fill="#F39D9A" d="M137.165,113.479c0.667,0.667,1,1.43,1,2.289
				c-0.003,0.807-0.502,1.736-1.499,2.788l1.126,1.22c0.301,0.327,0.67,0.708,1.104,1.143l-1.526,1.395
				c-2.846-3.124-4.99-5.414-6.433-6.869c0.491-0.546,0.885-0.967,1.182-1.265c1.018-1.018,1.961-1.548,2.829-1.589
				C135.804,112.562,136.543,112.857,137.165,113.479L137.165,113.479z M135.705,114.94L135.705,114.94
				c-0.357-0.358-0.711-0.528-1.06-0.511c-0.337,0.018-0.708,0.229-1.112,0.633l-0.038,0.038l2.069,2.26
				c0.102-0.09,0.236-0.22,0.407-0.39C136.499,116.322,136.41,115.645,135.705,114.94z"/>
			
				<rect x="140.557" y="109.035" transform="matrix(0.7071 0.7071 -0.7071 0.7071 120.503 -67.0156)" fill-rule="evenodd" clip-rule="evenodd" fill="#F39D9A" width="1.179" height="5.834"/>
			<path fill-rule="evenodd" clip-rule="evenodd" fill="#F39D9A" d="M143.807,104.723c0.24,0.278,0.343,0.628,0.309,1.048
				c-0.04,0.415-0.195,0.772-0.463,1.074c-0.333,0.299-0.697,0.472-1.095,0.517c-0.427,0.041-0.775-0.073-1.045-0.344
				c-0.292-0.292-0.421-0.636-0.389-1.032c0.034-0.409,0.219-0.78,0.554-1.116c0.31-0.31,0.669-0.476,1.076-0.497
				C143.15,104.339,143.502,104.456,143.807,104.723L143.807,104.723z M142.964,105.566L142.964,105.566
				c-0.103-0.063-0.204-0.089-0.305-0.076c-0.101,0.014-0.183,0.052-0.246,0.114c-0.089,0.089-0.14,0.189-0.152,0.303
				c-0.014,0.101,0.019,0.189,0.096,0.267c0.061,0.061,0.142,0.084,0.242,0.071c0.095-0.006,0.201-0.052,0.318-0.137
				c0.06-0.092,0.093-0.186,0.099-0.28C143.028,105.739,143.01,105.652,142.964,105.566L142.964,105.566z M145.487,101.738
				L145.487,101.738l2.484,10.354l-1.328,0.436l-2.493-10.363L145.487,101.738L145.487,101.738z M150.469,107.231
				c-0.305-0.267-0.653-0.387-1.044-0.36c-0.413,0.028-0.772,0.194-1.075,0.498c-0.336,0.335-0.508,0.7-0.518,1.095
				c-0.027,0.402,0.1,0.743,0.38,1.024c0.26,0.26,0.587,0.378,0.982,0.356c0.391-0.026,0.767-0.193,1.13-0.501
				c0.275-0.331,0.43-0.689,0.462-1.074C150.82,107.861,150.715,107.516,150.469,107.231L150.469,107.231L150.469,107.231z
				 M149.625,108.075c0.09,0.165,0.077,0.343-0.036,0.533c-0.118,0.085-0.218,0.13-0.301,0.136c-0.089,0-0.166-0.033-0.231-0.1
				c-0.171-0.171-0.161-0.351,0.028-0.54c0.063-0.063,0.148-0.104,0.256-0.124C149.429,107.98,149.523,108.012,149.625,108.075
				L149.625,108.075z"/>
			<path fill-rule="evenodd" clip-rule="evenodd" fill="#F39D9A" d="M152.298,99.257l-1.346,1.594
				c-0.193-0.193-0.316-0.323-0.371-0.391c-0.365-0.327-0.691-0.563-0.975-0.709c-0.313-0.161-0.542-0.169-0.688-0.024
				c-0.322,0.323-0.354,0.79-0.097,1.402c0.283,0.676,0.753,1.341,1.408,1.995c0.38,0.381,0.81,0.728,1.288,1.042
				c0.739,0.462,1.245,0.557,1.517,0.285c0.194-0.249,0.206-0.636,0.036-1.159c-0.105-0.358-0.267-0.709-0.484-1.054l2.094-0.523
				c0.261,0.83,0.322,1.649,0.184,2.46c-0.111,0.597-0.329,1.079-0.655,1.449c-0.447,0.413-0.952,0.654-1.516,0.722
				c-0.61,0.061-1.213-0.031-1.81-0.272c-0.742-0.325-1.447-0.821-2.113-1.488c-0.749-0.749-1.266-1.461-1.549-2.137
				c-0.649-1.598-0.475-2.896,0.523-3.895c0.696-0.695,1.517-0.904,2.463-0.628C150.9,98.137,151.597,98.58,152.298,99.257z"/>
		</g>
		<g>
			<path fill-rule="evenodd" clip-rule="evenodd" fill="#F08357" d="M64.878,126.105c0.155,0.144,0.431,0.431,0.827,0.861
				c0.313,0.335,0.969,1.003,1.97,2.003l-1.351,1.307c-0.22-0.289-0.671-0.803-1.355-1.544c-0.315-0.36-0.748-0.834-1.299-1.419
				c-0.223-0.234-0.454-0.392-0.694-0.471c-0.312-0.096-0.586-0.026-0.82,0.208c-0.2,0.2-0.333,0.428-0.398,0.682l1.309,1.395
				c0.342,0.365,1.079,1.113,2.208,2.243l-1.443,1.368l-4.222-4.771l1.278-1.173c0.112-0.322,0.272-0.586,0.478-0.791
				c0.508-0.509,1.064-0.781,1.668-0.817C63.674,125.232,64.289,125.539,64.878,126.105z"/>
			<path fill-rule="evenodd" clip-rule="evenodd" fill="#F08357" d="M69.571,122.159c0.677,0.677,1.043,1.392,1.098,2.144
				c0.041,0.726-0.197,1.352-0.712,1.876c-0.235,0.245-0.536,0.412-0.904,0.501c0.223,0.246,0.62,0.655,1.193,1.228l-1.435,1.359
				l-3.947-4.581c-0.448-0.518-0.763-0.866-0.941-1.045l1.201-1.112c0.107-0.305,0.265-0.563,0.477-0.774
				c0.514-0.515,1.164-0.756,1.95-0.725C68.285,121.17,68.958,121.547,69.571,122.159L69.571,122.159z M68.363,123.367
				L68.363,123.367c-0.318-0.318-0.667-0.558-1.044-0.718c-0.366-0.161-0.636-0.156-0.807,0.015
				c-0.131,0.132-0.207,0.297-0.225,0.495c-0.008,0.197,0.027,0.376,0.106,0.535l1.208,1.361c0.656,0.45,1.138,0.521,1.446,0.212
				c0.154-0.153,0.187-0.396,0.098-0.725C68.987,124.123,68.726,123.73,68.363,123.367z"/>
			<path fill-rule="evenodd" clip-rule="evenodd" fill="#F08357" d="M75.05,118.98c0.35,0.407,0.497,0.862,0.44,1.366
				c-0.065,0.563-0.325,1.093-0.779,1.586c-0.62,0.581-1.561,1.104-2.822,1.567l-0.242-1.699c0.256-0.007,0.558-0.07,0.907-0.19
				c0.404-0.145,0.717-0.322,0.939-0.535c0.279-0.27,0.338-0.508,0.177-0.715c-0.239-0.239-0.585-0.23-1.039,0.023l-0.73,0.401
				c-0.426,0.237-0.813,0.37-1.161,0.399c-0.471,0.043-0.889-0.117-1.252-0.48c-0.468-0.468-0.657-1-0.568-1.598
				c0.09-0.538,0.358-1.03,0.804-1.476c0.846-0.846,1.844-1.082,2.994-0.709l-0.784,1.65c-0.479-0.238-0.834-0.24-1.069-0.007
				c-0.314,0.314-0.33,0.614-0.046,0.897c0.115,0.114,0.304,0.075,0.567-0.118l1.11-0.588
				C73.462,118.238,74.313,118.313,75.05,118.98z"/>
		</g>
		<path fill-rule="evenodd" clip-rule="evenodd" fill="#DBBAA1" d="M97.526,133.24l11.484-7.028l10.52,4.027
			c0,0,3.873,6.863,5.41,8.854c-2.808,2.521-9.69-7.053-9.69-7.053s-2.355-1.57-3.788-0.795c-1.43,0.776-3.578,5.606,4.92,5.362
			c3.208,0.101,3.628,3.541,3.628,3.541c-11.855-0.723-12.037,3.188-18.309,2.99c-3.691-0.117-4.46-0.845-4.46-0.845L97.526,133.24z
			"/>
		
			<rect x="99.922" y="132.449" transform="matrix(0.6885 0.7252 -0.7252 0.6885 132.283 -41.8237)" fill-rule="evenodd" clip-rule="evenodd" fill="#1B9CD6" width="29.822" height="1.289"/>
	</g>
</g>
</svg>
