<?xml version="1.0" encoding="utf-8"?>
<!-- Generator: Adobe Illustrator 15.0.0, SVG Export Plug-In . SVG Version: 6.00 Build 0)  -->
<!DOCTYPE svg PUBLIC "-//W3C//DTD SVG 1.1//EN" "http://www.w3.org/Graphics/SVG/1.1/DTD/svg11.dtd">
<svg version="1.1" id="Layer_1" xmlns="http://www.w3.org/2000/svg" xmlns:xlink="http://www.w3.org/1999/xlink" x="0px" y="0px"
	 width="170px" height="154px" viewBox="0 0 170 154" enable-background="new 0 0 170 154" xml:space="preserve">
<g>
	<g>
		<linearGradient id="SVGID_1_" gradientUnits="userSpaceOnUse" x1="37.7256" y1="54.7686" x2="116.3311" y2="54.7686">
			<stop  offset="0.1232" style="stop-color:#F1F1F2;stop-opacity:0.85"/>
			<stop  offset="0.2847" style="stop-color:#F3F3F4;stop-opacity:0.6934"/>
			<stop  offset="1" style="stop-color:#F8F8F9;stop-opacity:0"/>
			<stop  offset="1" style="stop-color:#FFFFFF;stop-opacity:0"/>
		</linearGradient>
		<path fill="url(#SVGID_1_)" d="M77.028,15.466c-21.707,0-39.303,17.596-39.303,39.303s17.596,39.303,39.303,39.303
			c21.707,0,39.303-17.596,39.303-39.303S98.735,15.466,77.028,15.466L77.028,15.466z M77.028,86.286L77.028,86.286
			c-17.38,0-31.518-14.138-31.518-31.518c0-17.376,14.138-31.514,31.518-31.514c17.376,0,31.514,14.138,31.514,31.514
			C108.542,72.148,94.404,86.286,77.028,86.286z"/>
		<g>
			<polygon fill-rule="evenodd" clip-rule="evenodd" fill="#FFF8BD" points="121.765,26.026 48.212,105.069 95.258,148.849 
				121.765,120.447 140.588,75.337 			"/>
			
				<rect x="84.065" y="11.562" transform="matrix(0.7319 0.6814 -0.6814 0.7319 67.4481 -40.3379)" fill-rule="evenodd" clip-rule="evenodd" fill="#FFFFFF" width="1.846" height="107.972"/>
			
				<rect x="107.767" y="115.223" transform="matrix(0.731 0.6824 -0.6824 0.731 121.0783 -37.8247)" fill-rule="evenodd" clip-rule="evenodd" fill="#FFFFFF" width="1.488" height="38.849"/>
			
				<rect x="39.602" y="126.215" transform="matrix(0.7321 0.6812 -0.6812 0.7321 105.7087 -14.8516)" fill-rule="evenodd" clip-rule="evenodd" fill="#FFFFFF" width="64.265" height="1.488"/>
			<polygon fill-rule="evenodd" clip-rule="evenodd" fill="#FFFFFF" points="122.782,120.872 120.747,120.023 139.4,75.258 
				120.734,26.42 122.795,25.632 141.775,75.294 			"/>
			<g>
				<circle fill-rule="evenodd" clip-rule="evenodd" fill="#DEEFED" cx="137.22" cy="78.581" r="18.218"/>
				<path fill-rule="evenodd" clip-rule="evenodd" fill="#FFFFFF" d="M137.22,97.543c-10.455,0-18.962-8.506-18.962-18.962
					s8.507-18.962,18.962-18.962c10.457,0,18.963,8.506,18.963,18.962S147.677,97.543,137.22,97.543L137.22,97.543z M137.22,61.106
					L137.22,61.106c-9.635,0-17.474,7.839-17.474,17.475c0,9.635,7.839,17.474,17.474,17.474c9.636,0,17.475-7.839,17.475-17.474
					C154.694,68.945,146.855,61.106,137.22,61.106z"/>
			</g>
			<path fill-rule="evenodd" clip-rule="evenodd" fill="#FFFFFF" d="M119.002,77.91h-2.377v-0.891h2.377V77.91L119.002,77.91z
				 M114.248,77.91L114.248,77.91h-2.378v-0.891h2.378V77.91L114.248,77.91z M109.493,77.91L109.493,77.91h-2.377v-0.891h2.377
				V77.91L109.493,77.91z M104.738,77.91L104.738,77.91h-2.377v-0.891h2.377V77.91L104.738,77.91z M99.984,77.91L99.984,77.91
				h-2.378v-0.891h2.378V77.91L99.984,77.91z M95.229,77.91L95.229,77.91h-2.377v-0.891h2.377V77.91L95.229,77.91z M90.476,77.91
				L90.476,77.91h-2.378v-0.891h2.378V77.91L90.476,77.91z M85.721,77.91L85.721,77.91h-2.377v-0.891h2.377V77.91L85.721,77.91z
				 M80.966,77.91L80.966,77.91h-2.377v-0.891h2.377V77.91L80.966,77.91z M76.212,77.91L76.212,77.91H73.9v-0.891h2.312V77.91z"/>
			<path fill-rule="evenodd" clip-rule="evenodd" fill="#FFFFFF" d="M123.6,120.769l-1.803-1.55l0.58-0.676l1.804,1.55
				L123.6,120.769L123.6,120.769z M119.994,117.67L119.994,117.67l-1.804-1.55l0.581-0.676l1.804,1.55L119.994,117.67
				L119.994,117.67z M116.388,114.57L116.388,114.57l-1.803-1.549l0.581-0.677l1.803,1.55L116.388,114.57L116.388,114.57z
				 M112.782,111.472L112.782,111.472l-1.803-1.55l0.581-0.676l1.803,1.55L112.782,111.472L112.782,111.472z M109.177,108.372
				L109.177,108.372l-1.803-1.549l0.581-0.677l1.803,1.55L109.177,108.372L109.177,108.372z M105.571,105.273L105.571,105.273
				l-1.803-1.55l0.581-0.676l1.803,1.55L105.571,105.273L105.571,105.273z M101.966,102.175L101.966,102.175l-1.804-1.55
				l0.581-0.676l1.804,1.549L101.966,102.175L101.966,102.175z M98.359,99.075L98.359,99.075l-1.803-1.549l0.581-0.677l1.803,1.55
				L98.359,99.075L98.359,99.075z M94.754,95.977L94.754,95.977l-1.803-1.55l0.581-0.676l1.803,1.55L94.754,95.977L94.754,95.977z
				 M91.148,92.878L91.148,92.878l-1.803-1.55l0.581-0.676l1.803,1.549L91.148,92.878L91.148,92.878z M87.543,89.778L87.543,89.778
				l-1.803-1.55l0.581-0.676l1.803,1.55L87.543,89.778L87.543,89.778z M83.937,86.68L83.937,86.68l-1.803-1.55l0.581-0.676
				l1.803,1.549L83.937,86.68L83.937,86.68z M80.332,83.58L80.332,83.58l-1.803-1.549l0.581-0.677l1.803,1.55L80.332,83.58
				L80.332,83.58z M76.726,80.481L76.726,80.481l-1.803-1.55l0.582-0.676l1.803,1.549L76.726,80.481z"/>
			<g>
				<path fill-rule="evenodd" clip-rule="evenodd" fill="#6A60A8" d="M73.9,84.905V61.666c0,0,5.435,1.797,7.63,5.199
					c0,0,0,5.273,0,8.932C81.53,83.368,73.9,84.905,73.9,84.905z"/>
				<path fill-rule="evenodd" clip-rule="evenodd" fill="#99A8D6" d="M102.783,46.425L73.9,77.465l0.001-57.096
					C77.641,19.927,104.949,18.424,102.783,46.425z"/>
				<path fill-rule="evenodd" clip-rule="evenodd" fill="#6A60A8" d="M73.9,20.369v57.096c-2.853,0.59-6.097,0.997-9.778,1.116
					l-3.914-17.565c-2.505,0-3.219-1.538-3.219-1.538s4.057-8.765,4.057-11.553c0-2.788-1.727-3.229-1.727-3.229l0.01-11.499
					c-4.935,0-4.335-10.224-4.335-10.224C59.024,26.322,65.204,21.396,73.9,20.369z"/>
				<path fill-rule="evenodd" clip-rule="evenodd" fill="#99A8D6" d="M73.9,144.278c14.226-0.746,11.864-51.401,0-59.373
					C73.9,84.905,73.9,121.275,73.9,144.278z"/>
				<rect x="73.9" y="105.069" fill-rule="evenodd" clip-rule="evenodd" fill="#7F79B8" width="31.845" height="7.689"/>
				<rect x="73.9" y="120.447" fill-rule="evenodd" clip-rule="evenodd" fill="#6A60A8" width="36.589" height="7.689"/>
				<rect x="73.9" y="128.137" fill-rule="evenodd" clip-rule="evenodd" fill="#BCC8E8" width="27.661" height="7.688"/>
				<rect x="73.9" y="112.759" fill-rule="evenodd" clip-rule="evenodd" fill="#BCC8E8" width="23.816" height="7.688"/>
				<linearGradient id="SVGID_2_" gradientUnits="userSpaceOnUse" x1="83.165" y1="67.5308" x2="77.0993" y2="53.9642">
					<stop  offset="0.1232" style="stop-color:#F1F1F2;stop-opacity:0.85"/>
					<stop  offset="0.2847" style="stop-color:#F3F3F4;stop-opacity:0.6934"/>
					<stop  offset="1" style="stop-color:#F8F8F9;stop-opacity:0"/>
					<stop  offset="1" style="stop-color:#FFFFFF;stop-opacity:0"/>
				</linearGradient>
				<path fill-rule="evenodd" clip-rule="evenodd" fill="url(#SVGID_2_)" d="M88.819,53.435c0,1.104-0.669,5.824-7.683,5.824
					c-7.015,0-14.508,0-14.508,0l-0.072-5.824C91.063,45.641,88.819,51.407,88.819,53.435z"/>
				<polygon fill-rule="evenodd" clip-rule="evenodd" fill="#6A60A8" points="105.745,105.06 109.83,108.921 105.745,112.783 				
					"/>
				<polygon fill-rule="evenodd" clip-rule="evenodd" fill="#7F79B8" points="97.716,112.742 101.801,116.604 97.716,120.465 				
					"/>
				<polygon fill-rule="evenodd" clip-rule="evenodd" fill="#7F79B8" points="110.489,120.431 114.574,124.292 110.489,128.153 				
					"/>
				<polygon fill-rule="evenodd" clip-rule="evenodd" fill="#7F79B8" points="101.561,128.119 105.646,131.98 101.561,135.843 				
					"/>
			</g>
			<circle fill-rule="evenodd" clip-rule="evenodd" fill="#FFFFFF" cx="121.765" cy="26.026" r="4.57"/>
			<circle fill-rule="evenodd" clip-rule="evenodd" fill="#FFFFFF" cx="48.212" cy="105.069" r="4.57"/>
			<circle fill-rule="evenodd" clip-rule="evenodd" fill="#FFFFFF" cx="123.89" cy="120.431" r="4.57"/>
			<circle fill-rule="evenodd" clip-rule="evenodd" fill="#FFFFFF" cx="95.257" cy="148.849" r="4.57"/>
			<g>
				<polygon fill-rule="evenodd" clip-rule="evenodd" fill="#99A8D6" points="130.196,91.315 137.22,74.095 144.245,91.315 				"/>
				<circle fill-rule="evenodd" clip-rule="evenodd" fill="#99A8D6" cx="137.221" cy="73.972" r="6.819"/>
			</g>
			<g>
				<g>
					<path fill-rule="evenodd" clip-rule="evenodd" fill="#F39D9A" d="M112.279,16.932l-0.096,1.279
						c-0.049,0.668-0.102,2.272-0.158,4.812c-0.014,0.484-0.063,0.852-0.147,1.104c-0.078,0.166-0.169,0.251-0.274,0.257
						c-0.169-0.018-0.313-0.144-0.434-0.377l-1.974-3.588l0.031,3.965l-1.646-0.073c0.063-0.938,0.119-1.975,0.168-3.109l0.116-2.53
						c0.036-0.81,0.089-1.297,0.159-1.463c0.091-0.202,0.211-0.303,0.358-0.303c0.112,0,0.215,0.037,0.307,0.11
						c0.077,0.073,0.204,0.272,0.38,0.598l1.668,3.073l-0.084-3.809L112.279,16.932z"/>
				</g>
				<g>
					<path fill-rule="evenodd" clip-rule="evenodd" fill="#F39D9A" d="M126.424,53.661l-0.011,1.325l-3.083,0.147l-0.063,1.628
						h2.913l-0.031,1.288h-2.302c-0.042,0-0.246,0.009-0.612,0.027c-0.021,0.693-0.031,1.386-0.031,2.079
						c0,0.43,0.038,0.764,0.115,1.003l-1.963-0.028l0.168-5.888c0.007-0.398,0.032-0.904,0.074-1.518L126.424,53.661z"/>
				</g>
				<g>
					<path fill-rule="evenodd" clip-rule="evenodd" fill="#F39D9A" d="M110.265,95.194c0,0.742-0.239,1.353-0.719,1.83
						c-0.449,0.448-1.245,0.688-2.386,0.718l-0.053,1.307c-0.014,0.35-0.021,0.767-0.021,1.251l-1.626-0.074
						c0.154-3.323,0.235-5.792,0.243-7.405c0.576-0.03,1.03-0.046,1.361-0.046c1.133,0,1.953,0.23,2.46,0.69
						C110.018,93.925,110.265,94.501,110.265,95.194L110.265,95.194z M108.639,95.194L108.639,95.194
						c0-0.399-0.103-0.69-0.307-0.874c-0.197-0.178-0.521-0.267-0.971-0.267h-0.043l-0.104,2.41
						c0.104,0.006,0.252,0.009,0.442,0.009C108.312,96.405,108.639,95.979,108.639,95.194z"/>
				</g>
				<g>
					<path fill-rule="evenodd" clip-rule="evenodd" fill="#F39D9A" d="M71.965,113.188l-0.105,1.472
						c-0.563,0.129-1.323,0.19-2.281,0.185c-1.091-0.007-1.773-0.196-2.048-0.571c-0.274-0.251-0.412-0.849-0.412-1.794
						c0-0.134,0.057-0.658,0.169-1.572c0.106-0.865,0.162-1.649,0.169-2.355c0.007-0.46-0.021-0.84-0.084-1.141l4.529-0.073
						l-0.053,1.361c-1.457,0.024-2.358,0.067-2.703,0.129l-0.084,1.526c1.07-0.012,1.89-0.036,2.46-0.073v1.426l-2.544,0.046
						l-0.021,0.487c-0.014,0.331,0.017,0.602,0.095,0.811c0.07,0.202,0.247,0.303,0.528,0.303
						C70.304,113.347,71.1,113.292,71.965,113.188z"/>
				</g>
				<g>
					<path fill-rule="evenodd" clip-rule="evenodd" fill="#F39D9A" d="M31.767,95.947c0.014,0.619-0.197,1.134-0.633,1.545
						c-0.493,0.454-1.109,0.681-1.848,0.681c-0.591-0.006-1.351-0.291-2.28-0.855l0.802-1.278c0.57,0.503,1.063,0.764,1.478,0.782
						c0.415-0.019,0.626-0.31,0.634-0.874c-0.021-0.209-0.078-0.396-0.169-0.562c-0.091-0.166-0.313-0.35-0.665-0.552
						c-0.817-0.294-1.369-0.647-1.658-1.059c-0.253-0.35-0.38-0.757-0.38-1.223c0-0.559,0.207-1.016,0.623-1.371
						c0.422-0.361,0.975-0.543,1.658-0.543c0.584,0,1.073,0.19,1.467,0.57c0.261,0.245,0.545,0.659,0.855,1.242L30.11,93.15
						c-0.126-0.473-0.243-0.788-0.349-0.947c-0.105-0.147-0.25-0.222-0.433-0.222c-0.289,0-0.433,0.19-0.433,0.571
						c0,0.232,0.063,0.417,0.19,0.552c0.098,0.098,0.281,0.208,0.549,0.331c0.816,0.355,1.379,0.758,1.689,1.205
						C31.612,95.052,31.76,95.487,31.767,95.947z"/>
				</g>
				<g>
					<path fill-rule="evenodd" clip-rule="evenodd" fill="#F39D9A" d="M18.979,55.197c-0.471-0.049-0.96-0.077-1.467-0.083
						l-0.032,2.493c-0.007,0.681-0.032,1.864-0.074,3.551l-1.647-0.064c0.007-0.515,0.021-1.34,0.042-2.475l0.063-3.514h-1.647
						l0.116-1.472c0.535,0.049,1.136,0.073,1.805,0.073h2.84V55.197z"/>
				</g>
				<g>
					<path fill-rule="evenodd" clip-rule="evenodd" fill="#F39D9A" d="M32.944,13.671L32.86,15.4
						c-0.035,0.767-0.06,1.721-0.074,2.861c-0.007,0.963-0.222,1.681-0.644,2.152c-0.416,0.473-0.96,0.708-1.636,0.708
						c-0.704,0-1.264-0.214-1.679-0.644c-0.436-0.447-0.665-1.03-0.686-1.748l1.625-0.092c0.021,0.393,0.109,0.69,0.264,0.893
						c0.134,0.172,0.292,0.267,0.476,0.285c0.154,0,0.299-0.12,0.433-0.359c0.113-0.196,0.18-0.595,0.201-1.196
						c0.057-1.374,0.084-2.116,0.084-2.226c0-1.166,0.004-1.981,0.011-2.447L32.944,13.671z"/>
				</g>
				<g>
					<path fill-rule="evenodd" clip-rule="evenodd" fill="#F39D9A" d="M69.991,1.019l-0.063,4.912
						c-0.014,0.89-0.011,1.748,0.011,2.576l-1.901-0.019c0.113-0.693,0.211-1.959,0.296-3.799l0.18-3.708L69.991,1.019z"/>
				</g>
			</g>
		</g>
	</g>
</g>
</svg>
