<?xml version="1.0" encoding="utf-8"?>
<!-- Generator: Adobe Illustrator 15.0.0, SVG Export Plug-In . SVG Version: 6.00 Build 0)  -->
<!DOCTYPE svg PUBLIC "-//W3C//DTD SVG 1.1//EN" "http://www.w3.org/Graphics/SVG/1.1/DTD/svg11.dtd">
<svg version="1.1" id="Layer_1" xmlns="http://www.w3.org/2000/svg" xmlns:xlink="http://www.w3.org/1999/xlink" x="0px" y="0px"
	 width="84px" height="180px" viewBox="0 0 84 180" enable-background="new 0 0 84 180" xml:space="preserve">
<g>
	<circle fill-rule="evenodd" clip-rule="evenodd" fill="#28508B" cx="49.815" cy="142.082" r="13.576"/>
	<linearGradient id="SVGID_1_" gradientUnits="userSpaceOnUse" x1="50.374" y1="161.9219" x2="56.3831" y2="139.0113">
		<stop  offset="0.1232" style="stop-color:#F1F1F2;stop-opacity:0.85"/>
		<stop  offset="0.2847" style="stop-color:#F3F3F4;stop-opacity:0.6934"/>
		<stop  offset="1" style="stop-color:#F8F8F9;stop-opacity:0"/>
		<stop  offset="1" style="stop-color:#FFFFFF;stop-opacity:0"/>
	</linearGradient>
	<circle fill-rule="evenodd" clip-rule="evenodd" fill="url(#SVGID_1_)" cx="54.572" cy="145.915" r="11.84"/>
	<circle fill-rule="evenodd" clip-rule="evenodd" fill="#28508B" cx="68.207" cy="122.843" r="5.332"/>
	<path fill-rule="evenodd" clip-rule="evenodd" fill="#28508B" d="M48.8,166.602c-0.036,0-0.071,0-0.106-0.004
		c-20.505-1.222-21.883-20.746-21.895-20.944c-0.057-0.969,0.683-1.8,1.652-1.856c0.963-0.055,1.799,0.681,1.857,1.648
		c0.043,0.687,1.251,16.61,18.594,17.645c0.97,0.058,1.708,0.89,1.65,1.858C50.497,165.882,49.723,166.602,48.8,166.602z"/>
	<path fill-rule="evenodd" clip-rule="evenodd" fill="#C791C0" d="M76.451,79.237c0.57,0,1.047,0.448,1.075,1.024
		c0.234,4.75-4.345,9.365-4.54,9.56c-0.422,0.419-1.103,0.418-1.522-0.003c-0.42-0.42-0.419-1.102,0.002-1.522
		c0.041-0.041,4.096-4.14,3.909-7.927c-0.029-0.594,0.429-1.1,1.022-1.129C76.415,79.238,76.434,79.237,76.451,79.237z"/>
	<path fill-rule="evenodd" clip-rule="evenodd" fill="#C791C0" d="M79.796,84.603c0.021,0,0.042,0,0.063,0.001
		c0.594,0.035,1.047,0.544,1.013,1.138c-0.273,4.715-5.285,8.786-5.498,8.957c-0.463,0.372-1.14,0.298-1.513-0.166
		c-0.372-0.463-0.299-1.141,0.164-1.514c0.045-0.036,4.479-3.647,4.696-7.401C78.755,85.044,79.229,84.603,79.796,84.603z"/>
	<g>
		<path fill-rule="evenodd" clip-rule="evenodd" fill="#B3C1D6" d="M18.735,65.578c-0.95,0-1.819-0.633-2.079-1.594
			c-0.232-0.863-5.508-21.264,10.607-33.263c0.954-0.71,2.304-0.513,3.014,0.441s0.513,2.304-0.441,3.014
			c-13.792,10.269-9.069,28.503-9.021,28.686c0.31,1.149-0.371,2.331-1.519,2.641C19.109,65.553,18.92,65.578,18.735,65.578z"/>
		<path fill-rule="evenodd" clip-rule="evenodd" fill="#B3C1D6" d="M6.229,72.817c-0.992,0-1.884-0.688-2.103-1.698
			c-0.081-0.372-1.958-9.256-0.354-20.767c2.137-15.331,9.516-27.968,21.338-36.544c0.963-0.699,2.31-0.484,3.009,0.479
			c0.698,0.963,0.484,2.31-0.479,3.008C16.674,25.252,10.086,36.525,8.06,50.803C6.531,61.584,8.32,70.125,8.338,70.209
			c0.25,1.163-0.49,2.309-1.652,2.559C6.533,72.802,6.38,72.817,6.229,72.817z"/>
		<path fill-rule="evenodd" clip-rule="evenodd" fill="#F0E2F0" d="M44.193,38.521l22.285,45.72
			C38.092,98.076,4.237,57.997,44.193,38.521z"/>
		<path fill-rule="evenodd" clip-rule="evenodd" fill="#B3C1D6" d="M56.115,82.81c-7.533,0-17.265-7.704-22.509-16.619
			c-6.633-11.275-5.051-21.63,4.233-27.701c3.05-1.994,6.227-2.582,9.438-1.75c7.286,1.889,11.957,10.626,12.151,10.997
			c0.555,1.053,0.15,2.355-0.902,2.909c-1.052,0.554-2.354,0.15-2.908-0.9c-0.039-0.074-3.995-7.437-9.432-8.838
			c-2.013-0.518-3.973-0.13-5.989,1.188c-10.278,6.721-5.437,17.562-2.877,21.91c5.576,9.479,16.18,16.547,21.01,14.005
			c2.515-1.324,3.84-2.748,3.938-4.235c0.132-1.991-1.859-4.205-3.255-5.438c-1.826,0.704-5.182,1.563-8.308,0.052
			c-3.025-1.462-4.953-4.644-5.73-9.456c-0.157-0.975,0.368-1.931,1.274-2.322l4.891-2.108c1.093-0.47,2.36,0.033,2.831,1.125
			s-0.033,2.36-1.126,2.831l-3.283,1.415c0.611,2.397,1.618,3.951,3.002,4.628c2.463,1.205,5.692-0.535,5.725-0.552
			c0.72-0.394,1.61-0.35,2.281,0.121c0.65,0.457,6.34,4.612,5.998,9.971c-0.197,3.089-2.294,5.707-6.232,7.779
			C59.054,82.499,57.629,82.81,56.115,82.81z"/>
	</g>
</g>
</svg>
